<?xml version="1.0" encoding="utf-8" standalone="no"?>
<!DOCTYPE svg PUBLIC "-//W3C//DTD SVG 1.1//EN"
  "http://www.w3.org/Graphics/SVG/1.1/DTD/svg11.dtd">
<svg xmlns:xlink="http://www.w3.org/1999/xlink" width="220.401562pt" height="211.598125pt" viewBox="0 0 220.401562 211.598125" xmlns="http://www.w3.org/2000/svg" version="1.1">
 <metadata>
  <rdf:RDF xmlns:dc="http://purl.org/dc/elements/1.1/" xmlns:cc="http://creativecommons.org/ns#" xmlns:rdf="http://www.w3.org/1999/02/22-rdf-syntax-ns#">
   <cc:Work>
    <dc:type rdf:resource="http://purl.org/dc/dcmitype/StillImage"/>
    <dc:date>2025-02-10T18:16:15.008106</dc:date>
    <dc:format>image/svg+xml</dc:format>
    <dc:creator>
     <cc:Agent>
      <dc:title>Matplotlib v3.9.2, https://matplotlib.org/</dc:title>
     </cc:Agent>
    </dc:creator>
   </cc:Work>
  </rdf:RDF>
 </metadata>
 <defs>
  <style type="text/css">*{stroke-linejoin: round; stroke-linecap: butt}</style>
 </defs>
 <g id="figure_1">
  <g id="patch_1">
   <path d="M 0 211.598125 
L 220.401562 211.598125 
L 220.401562 0 
L 0 0 
L 0 211.598125 
z
" style="fill: none"/>
  </g>
  <g id="axes_1">
   <g id="patch_2">
    <path d="M 42.620312 173.52 
L 210.020313 173.52 
L 210.020313 7.2 
L 42.620312 7.2 
L 42.620312 173.52 
z
" style="fill: none"/>
   </g>
   <g id="matplotlib.axis_1">
    <g id="xtick_1">
     <g id="line2d_1">
      <defs>
       <path id="ma07734e3c5" d="M 0 0 
L 0 3.5 
" style="stroke: #ffffff; stroke-width: 0.8"/>
      </defs>
      <g>
       <use xlink:href="#ma07734e3c5" x="42.620312" y="173.52" style="fill: #ffffff; stroke: #ffffff; stroke-width: 0.8"/>
      </g>
     </g>
     <g id="text_1">
      <!-- −4 -->
      <g style="fill: #ffffff" transform="translate(35.249219 188.118438) scale(0.1 -0.1)">
       <defs>
        <path id="DejaVuSans-2212" d="M 678 2272 
L 4684 2272 
L 4684 1741 
L 678 1741 
L 678 2272 
z
" transform="scale(0.015625)"/>
        <path id="DejaVuSans-34" d="M 2419 4116 
L 825 1625 
L 2419 1625 
L 2419 4116 
z
M 2253 4666 
L 3047 4666 
L 3047 1625 
L 3713 1625 
L 3713 1100 
L 3047 1100 
L 3047 0 
L 2419 0 
L 2419 1100 
L 313 1100 
L 313 1709 
L 2253 4666 
z
" transform="scale(0.015625)"/>
       </defs>
       <use xlink:href="#DejaVuSans-2212"/>
       <use xlink:href="#DejaVuSans-34" x="83.789062"/>
      </g>
     </g>
    </g>
    <g id="xtick_2">
     <g id="line2d_2">
      <g>
       <use xlink:href="#ma07734e3c5" x="84.470313" y="173.52" style="fill: #ffffff; stroke: #ffffff; stroke-width: 0.8"/>
      </g>
     </g>
     <g id="text_2">
      <!-- −2 -->
      <g style="fill: #ffffff" transform="translate(77.099219 188.118438) scale(0.1 -0.1)">
       <defs>
        <path id="DejaVuSans-32" d="M 1228 531 
L 3431 531 
L 3431 0 
L 469 0 
L 469 531 
Q 828 903 1448 1529 
Q 2069 2156 2228 2338 
Q 2531 2678 2651 2914 
Q 2772 3150 2772 3378 
Q 2772 3750 2511 3984 
Q 2250 4219 1831 4219 
Q 1534 4219 1204 4116 
Q 875 4013 500 3803 
L 500 4441 
Q 881 4594 1212 4672 
Q 1544 4750 1819 4750 
Q 2544 4750 2975 4387 
Q 3406 4025 3406 3419 
Q 3406 3131 3298 2873 
Q 3191 2616 2906 2266 
Q 2828 2175 2409 1742 
Q 1991 1309 1228 531 
z
" transform="scale(0.015625)"/>
       </defs>
       <use xlink:href="#DejaVuSans-2212"/>
       <use xlink:href="#DejaVuSans-32" x="83.789062"/>
      </g>
     </g>
    </g>
    <g id="xtick_3">
     <g id="line2d_3">
      <g>
       <use xlink:href="#ma07734e3c5" x="126.320313" y="173.52" style="fill: #ffffff; stroke: #ffffff; stroke-width: 0.8"/>
      </g>
     </g>
     <g id="text_3">
      <!-- 0 -->
      <g style="fill: #ffffff" transform="translate(123.139063 188.118438) scale(0.1 -0.1)">
       <defs>
        <path id="DejaVuSans-30" d="M 2034 4250 
Q 1547 4250 1301 3770 
Q 1056 3291 1056 2328 
Q 1056 1369 1301 889 
Q 1547 409 2034 409 
Q 2525 409 2770 889 
Q 3016 1369 3016 2328 
Q 3016 3291 2770 3770 
Q 2525 4250 2034 4250 
z
M 2034 4750 
Q 2819 4750 3233 4129 
Q 3647 3509 3647 2328 
Q 3647 1150 3233 529 
Q 2819 -91 2034 -91 
Q 1250 -91 836 529 
Q 422 1150 422 2328 
Q 422 3509 836 4129 
Q 1250 4750 2034 4750 
z
" transform="scale(0.015625)"/>
       </defs>
       <use xlink:href="#DejaVuSans-30"/>
      </g>
     </g>
    </g>
    <g id="xtick_4">
     <g id="line2d_4">
      <g>
       <use xlink:href="#ma07734e3c5" x="168.170313" y="173.52" style="fill: #ffffff; stroke: #ffffff; stroke-width: 0.8"/>
      </g>
     </g>
     <g id="text_4">
      <!-- 2 -->
      <g style="fill: #ffffff" transform="translate(164.989063 188.118438) scale(0.1 -0.1)">
       <use xlink:href="#DejaVuSans-32"/>
      </g>
     </g>
    </g>
    <g id="xtick_5">
     <g id="line2d_5">
      <g>
       <use xlink:href="#ma07734e3c5" x="210.020313" y="173.52" style="fill: #ffffff; stroke: #ffffff; stroke-width: 0.8"/>
      </g>
     </g>
     <g id="text_5">
      <!-- 4 -->
      <g style="fill: #ffffff" transform="translate(206.839063 188.118438) scale(0.1 -0.1)">
       <use xlink:href="#DejaVuSans-34"/>
      </g>
     </g>
    </g>
    <g id="text_6">
     <!-- $\tilde{Re}$ -->
     <g style="fill: #ffffff" transform="translate(119.720313 202.318438) scale(0.1 -0.1)">
      <defs>
       <path id="DejaVuSans-303" d="M -1621 4281 
L -1799 4453 
Q -1867 4516 -1919 4545 
Q -1971 4575 -2011 4575 
Q -2130 4575 -2186 4461 
Q -2242 4347 -2249 4091 
L -2639 4091 
Q -2633 4513 -2473 4742 
Q -2314 4972 -2030 4972 
Q -1911 4972 -1811 4928 
Q -1711 4884 -1596 4781 
L -1417 4609 
Q -1349 4547 -1297 4517 
Q -1246 4488 -1205 4488 
Q -1086 4488 -1030 4602 
Q -974 4716 -967 4972 
L -577 4972 
Q -583 4550 -742 4320 
Q -902 4091 -1186 4091 
Q -1305 4091 -1405 4134 
Q -1505 4178 -1621 4281 
z
" transform="scale(0.015625)"/>
       <path id="DejaVuSans-Oblique-52" d="M 1613 4147 
L 1294 2491 
L 2106 2491 
Q 2584 2491 2879 2755 
Q 3175 3019 3175 3444 
Q 3175 3784 2976 3965 
Q 2778 4147 2406 4147 
L 1613 4147 
z
M 2772 2241 
Q 2972 2194 3105 2009 
Q 3238 1825 3413 1275 
L 3809 0 
L 3144 0 
L 2778 1197 
Q 2638 1659 2453 1815 
Q 2269 1972 1888 1972 
L 1191 1972 
L 806 0 
L 172 0 
L 1081 4666 
L 2503 4666 
Q 3150 4666 3495 4373 
Q 3841 4081 3841 3531 
Q 3841 3044 3547 2687 
Q 3253 2331 2772 2241 
z
" transform="scale(0.015625)"/>
       <path id="DejaVuSans-Oblique-65" d="M 3078 2063 
Q 3088 2113 3092 2166 
Q 3097 2219 3097 2272 
Q 3097 2653 2873 2875 
Q 2650 3097 2266 3097 
Q 1838 3097 1509 2826 
Q 1181 2556 1013 2059 
L 3078 2063 
z
M 3578 1613 
L 903 1613 
Q 884 1494 878 1425 
Q 872 1356 872 1306 
Q 872 872 1139 634 
Q 1406 397 1894 397 
Q 2269 397 2603 481 
Q 2938 566 3225 728 
L 3116 159 
Q 2806 34 2476 -28 
Q 2147 -91 1806 -91 
Q 1078 -91 686 257 
Q 294 606 294 1247 
Q 294 1794 489 2264 
Q 684 2734 1063 3103 
Q 1306 3334 1642 3459 
Q 1978 3584 2356 3584 
Q 2950 3584 3301 3228 
Q 3653 2872 3653 2272 
Q 3653 2128 3634 1964 
Q 3616 1800 3578 1613 
z
" transform="scale(0.015625)"/>
      </defs>
      <use xlink:href="#DejaVuSans-303" transform="translate(106.98584 22.3125)"/>
      <use xlink:href="#DejaVuSans-Oblique-52" transform="translate(0 0.828125)"/>
      <use xlink:href="#DejaVuSans-Oblique-65" transform="translate(69.482422 0.828125)"/>
     </g>
    </g>
   </g>
   <g id="matplotlib.axis_2">
    <g id="ytick_1">
     <g id="line2d_6">
      <defs>
       <path id="mf8271ff837" d="M 0 0 
L -3.5 0 
" style="stroke: #ffffff; stroke-width: 0.8"/>
      </defs>
      <g>
       <use xlink:href="#mf8271ff837" x="42.620312" y="173.52" style="fill: #ffffff; stroke: #ffffff; stroke-width: 0.8"/>
      </g>
     </g>
     <g id="text_7">
      <!-- −4 -->
      <g style="fill: #ffffff" transform="translate(20.878125 177.319219) scale(0.1 -0.1)">
       <use xlink:href="#DejaVuSans-2212"/>
       <use xlink:href="#DejaVuSans-34" x="83.789062"/>
      </g>
     </g>
    </g>
    <g id="ytick_2">
     <g id="line2d_7">
      <g>
       <use xlink:href="#mf8271ff837" x="42.620312" y="136.56" style="fill: #ffffff; stroke: #ffffff; stroke-width: 0.8"/>
      </g>
     </g>
     <g id="text_8">
      <!-- −2 -->
      <g style="fill: #ffffff" transform="translate(20.878125 140.359219) scale(0.1 -0.1)">
       <use xlink:href="#DejaVuSans-2212"/>
       <use xlink:href="#DejaVuSans-32" x="83.789062"/>
      </g>
     </g>
    </g>
    <g id="ytick_3">
     <g id="line2d_8">
      <g>
       <use xlink:href="#mf8271ff837" x="42.620312" y="99.6" style="fill: #ffffff; stroke: #ffffff; stroke-width: 0.8"/>
      </g>
     </g>
     <g id="text_9">
      <!-- 0 -->
      <g style="fill: #ffffff" transform="translate(29.257812 103.399219) scale(0.1 -0.1)">
       <use xlink:href="#DejaVuSans-30"/>
      </g>
     </g>
    </g>
    <g id="ytick_4">
     <g id="line2d_9">
      <g>
       <use xlink:href="#mf8271ff837" x="42.620312" y="62.64" style="fill: #ffffff; stroke: #ffffff; stroke-width: 0.8"/>
      </g>
     </g>
     <g id="text_10">
      <!-- 2 -->
      <g style="fill: #ffffff" transform="translate(29.257812 66.439219) scale(0.1 -0.1)">
       <use xlink:href="#DejaVuSans-32"/>
      </g>
     </g>
    </g>
    <g id="ytick_5">
     <g id="line2d_10">
      <g>
       <use xlink:href="#mf8271ff837" x="42.620312" y="25.68" style="fill: #ffffff; stroke: #ffffff; stroke-width: 0.8"/>
      </g>
     </g>
     <g id="text_11">
      <!-- 4 -->
      <g style="fill: #ffffff" transform="translate(29.257812 29.479219) scale(0.1 -0.1)">
       <use xlink:href="#DejaVuSans-34"/>
      </g>
     </g>
    </g>
    <g id="text_12">
     <!-- $\tilde{\alpha}$ -->
     <g style="fill: #ffffff" transform="translate(14.798437 93.66) rotate(-90) scale(0.1 -0.1)">
      <defs>
       <path id="DejaVuSans-Oblique-3b1" d="M 2619 1628 
L 2622 2350 
Q 2625 3088 2069 3091 
Q 1653 3094 1394 2747 
Q 1069 2319 959 1747 
Q 825 1059 994 731 
Q 1169 397 1547 397 
Q 1966 397 2319 1063 
L 2619 1628 
z
M 2166 3578 
Q 3141 3594 3128 2584 
Q 3128 2584 3616 3500 
L 4128 3500 
L 3119 1603 
L 3109 919 
Q 3109 766 3194 638 
Q 3291 488 3391 488 
L 3669 488 
L 3575 0 
L 3228 0 
Q 2934 0 2722 263 
Q 2622 394 2619 669 
Q 2416 334 2066 50 
Q 1900 -81 1453 -78 
Q 722 -72 456 397 
Q 184 884 353 1747 
Q 534 2675 1009 3097 
Q 1544 3569 2166 3578 
z
" transform="scale(0.015625)"/>
      </defs>
      <use xlink:href="#DejaVuSans-303" transform="translate(66.713867 5.3125)"/>
      <use xlink:href="#DejaVuSans-Oblique-3b1" transform="translate(0 0.578125)"/>
     </g>
    </g>
   </g>
   <g id="patch_3">
    <path d="M 42.620312 173.52 
L 42.620312 7.2 
" style="fill: none; stroke: #ffffff; stroke-width: 0.8; stroke-linejoin: miter; stroke-linecap: square"/>
   </g>
   <g id="patch_4">
    <path d="M 210.020313 173.52 
L 210.020313 7.2 
" style="fill: none; stroke: #ffffff; stroke-width: 0.8; stroke-linejoin: miter; stroke-linecap: square"/>
   </g>
   <g id="patch_5">
    <path d="M 42.620312 173.52 
L 210.020313 173.52 
" style="fill: none; stroke: #ffffff; stroke-width: 0.8; stroke-linejoin: miter; stroke-linecap: square"/>
   </g>
   <g id="patch_6">
    <path d="M 42.620312 7.2 
L 210.020313 7.2 
" style="fill: none; stroke: #ffffff; stroke-width: 0.8; stroke-linejoin: miter; stroke-linecap: square"/>
   </g>
   <g id="PathCollection_1">
    <defs>
     <path id="m4b9e58cbf5" d="M 0 3 
C 0.795609 3 1.55874 2.683901 2.12132 2.12132 
C 2.683901 1.55874 3 0.795609 3 0 
C 3 -0.795609 2.683901 -1.55874 2.12132 -2.12132 
C 1.55874 -2.683901 0.795609 -3 0 -3 
C -0.795609 -3 -1.55874 -2.683901 -2.12132 -2.12132 
C -2.683901 -1.55874 -3 -0.795609 -3 0 
C -3 0.795609 -2.683901 1.55874 -2.12132 2.12132 
C -1.55874 2.683901 -0.795609 3 0 3 
z
" style="stroke: #8dd3c7"/>
    </defs>
    <g clip-path="url(#p4a3bc133af)">
     <use xlink:href="#m4b9e58cbf5" x="110.290618" y="96.21216" style="fill: #8dd3c7; stroke: #8dd3c7"/>
     <use xlink:href="#m4b9e58cbf5" x="107.061293" y="100.936415" style="fill: #8dd3c7; stroke: #8dd3c7"/>
     <use xlink:href="#m4b9e58cbf5" x="105.67602" y="104.902282" style="fill: #8dd3c7; stroke: #8dd3c7"/>
     <use xlink:href="#m4b9e58cbf5" x="102.709377" y="107.412634" style="fill: #8dd3c7; stroke: #8dd3c7"/>
     <use xlink:href="#m4b9e58cbf5" x="103.287287" y="146.916742" style="fill: #8dd3c7; stroke: #8dd3c7"/>
     <use xlink:href="#m4b9e58cbf5" x="99.424807" y="123.775383" style="fill: #8dd3c7; stroke: #8dd3c7"/>
     <use xlink:href="#m4b9e58cbf5" x="99.738242" y="76.170975" style="fill: #8dd3c7; stroke: #8dd3c7"/>
     <use xlink:href="#m4b9e58cbf5" x="111.458674" y="120.493157" style="fill: #8dd3c7; stroke: #8dd3c7"/>
     <use xlink:href="#m4b9e58cbf5" x="102.68906" y="86.892011" style="fill: #8dd3c7; stroke: #8dd3c7"/>
     <use xlink:href="#m4b9e58cbf5" x="74.580426" y="108.592598" style="fill: #8dd3c7; stroke: #8dd3c7"/>
     <use xlink:href="#m4b9e58cbf5" x="102.973574" y="73.105202" style="fill: #8dd3c7; stroke: #8dd3c7"/>
     <use xlink:href="#m4b9e58cbf5" x="100.914278" y="63.065243" style="fill: #8dd3c7; stroke: #8dd3c7"/>
     <use xlink:href="#m4b9e58cbf5" x="99.983928" y="102.979928" style="fill: #8dd3c7; stroke: #8dd3c7"/>
     <use xlink:href="#m4b9e58cbf5" x="67.483249" y="105.985543" style="fill: #8dd3c7; stroke: #8dd3c7"/>
     <use xlink:href="#m4b9e58cbf5" x="101.422436" y="91.758103" style="fill: #8dd3c7; stroke: #8dd3c7"/>
     <use xlink:href="#m4b9e58cbf5" x="111.603929" y="110.788084" style="fill: #8dd3c7; stroke: #8dd3c7"/>
     <use xlink:href="#m4b9e58cbf5" x="59.396651" y="122.835286" style="fill: #8dd3c7; stroke: #8dd3c7"/>
     <use xlink:href="#m4b9e58cbf5" x="146.251995" y="114.263329" style="fill: #8dd3c7; stroke: #8dd3c7"/>
     <use xlink:href="#m4b9e58cbf5" x="117.156561" y="122.585078" style="fill: #8dd3c7; stroke: #8dd3c7"/>
     <use xlink:href="#m4b9e58cbf5" x="95.830703" y="90.606132" style="fill: #8dd3c7; stroke: #8dd3c7"/>
     <use xlink:href="#m4b9e58cbf5" x="105.806312" y="125.517625" style="fill: #8dd3c7; stroke: #8dd3c7"/>
     <use xlink:href="#m4b9e58cbf5" x="87.605536" y="165.897854" style="fill: #8dd3c7; stroke: #8dd3c7"/>
     <use xlink:href="#m4b9e58cbf5" x="116.95911" y="104.553586" style="fill: #8dd3c7; stroke: #8dd3c7"/>
     <use xlink:href="#m4b9e58cbf5" x="79.815683" y="129.55116" style="fill: #8dd3c7; stroke: #8dd3c7"/>
     <use xlink:href="#m4b9e58cbf5" x="107.605707" y="82.414518" style="fill: #8dd3c7; stroke: #8dd3c7"/>
     <use xlink:href="#m4b9e58cbf5" x="103.943476" y="91.890507" style="fill: #8dd3c7; stroke: #8dd3c7"/>
     <use xlink:href="#m4b9e58cbf5" x="105.497734" y="76.833554" style="fill: #8dd3c7; stroke: #8dd3c7"/>
     <use xlink:href="#m4b9e58cbf5" x="108.914063" y="86.263548" style="fill: #8dd3c7; stroke: #8dd3c7"/>
     <use xlink:href="#m4b9e58cbf5" x="100.217824" y="86.493677" style="fill: #8dd3c7; stroke: #8dd3c7"/>
     <use xlink:href="#m4b9e58cbf5" x="107.484838" y="66.698675" style="fill: #8dd3c7; stroke: #8dd3c7"/>
     <use xlink:href="#m4b9e58cbf5" x="138.269915" y="122.379815" style="fill: #8dd3c7; stroke: #8dd3c7"/>
     <use xlink:href="#m4b9e58cbf5" x="122.992662" y="143.596518" style="fill: #8dd3c7; stroke: #8dd3c7"/>
     <use xlink:href="#m4b9e58cbf5" x="113.821353" y="121.797148" style="fill: #8dd3c7; stroke: #8dd3c7"/>
     <use xlink:href="#m4b9e58cbf5" x="107.41784" y="66.438543" style="fill: #8dd3c7; stroke: #8dd3c7"/>
     <use xlink:href="#m4b9e58cbf5" x="99.662706" y="100.409134" style="fill: #8dd3c7; stroke: #8dd3c7"/>
     <use xlink:href="#m4b9e58cbf5" x="107.581427" y="93.110315" style="fill: #8dd3c7; stroke: #8dd3c7"/>
     <use xlink:href="#m4b9e58cbf5" x="101.132016" y="104.955287" style="fill: #8dd3c7; stroke: #8dd3c7"/>
     <use xlink:href="#m4b9e58cbf5" x="113.445306" y="115.56687" style="fill: #8dd3c7; stroke: #8dd3c7"/>
     <use xlink:href="#m4b9e58cbf5" x="109.979756" y="65.396774" style="fill: #8dd3c7; stroke: #8dd3c7"/>
     <use xlink:href="#m4b9e58cbf5" x="113.015942" y="74.591085" style="fill: #8dd3c7; stroke: #8dd3c7"/>
     <use xlink:href="#m4b9e58cbf5" x="102.937601" y="76.192974" style="fill: #8dd3c7; stroke: #8dd3c7"/>
     <use xlink:href="#m4b9e58cbf5" x="102.286741" y="83.599545" style="fill: #8dd3c7; stroke: #8dd3c7"/>
     <use xlink:href="#m4b9e58cbf5" x="95.952709" y="113.698104" style="fill: #8dd3c7; stroke: #8dd3c7"/>
     <use xlink:href="#m4b9e58cbf5" x="104.349139" y="65.737089" style="fill: #8dd3c7; stroke: #8dd3c7"/>
     <use xlink:href="#m4b9e58cbf5" x="97.721694" y="119.056963" style="fill: #8dd3c7; stroke: #8dd3c7"/>
     <use xlink:href="#m4b9e58cbf5" x="96.739987" y="106.252196" style="fill: #8dd3c7; stroke: #8dd3c7"/>
     <use xlink:href="#m4b9e58cbf5" x="105.616086" y="92.6989" style="fill: #8dd3c7; stroke: #8dd3c7"/>
     <use xlink:href="#m4b9e58cbf5" x="108.128431" y="115.505729" style="fill: #8dd3c7; stroke: #8dd3c7"/>
     <use xlink:href="#m4b9e58cbf5" x="116.669281" y="167.928617" style="fill: #8dd3c7; stroke: #8dd3c7"/>
     <use xlink:href="#m4b9e58cbf5" x="83.356772" y="91.79513" style="fill: #8dd3c7; stroke: #8dd3c7"/>
    </g>
   </g>
   <g id="PathCollection_2">
    <defs>
     <path id="mfa1641c78c" d="M 0 3 
C 0.795609 3 1.55874 2.683901 2.12132 2.12132 
C 2.683901 1.55874 3 0.795609 3 0 
C 3 -0.795609 2.683901 -1.55874 2.12132 -2.12132 
C 1.55874 -2.683901 0.795609 -3 0 -3 
C -0.795609 -3 -1.55874 -2.683901 -2.12132 -2.12132 
C -2.683901 -1.55874 -3 -0.795609 -3 0 
C -3 0.795609 -2.683901 1.55874 -2.12132 2.12132 
C -1.55874 2.683901 -0.795609 3 0 3 
z
" style="stroke: #feffb3"/>
    </defs>
    <g clip-path="url(#p4a3bc133af)">
     <use xlink:href="#mfa1641c78c" x="162.083281" y="120.01189" style="fill: #feffb3; stroke: #feffb3"/>
     <use xlink:href="#mfa1641c78c" x="167.91182" y="66.774996" style="fill: #feffb3; stroke: #feffb3"/>
     <use xlink:href="#mfa1641c78c" x="207.148193" y="50.937371" style="fill: #feffb3; stroke: #feffb3"/>
     <use xlink:href="#mfa1641c78c" x="94.155146" y="79.179111" style="fill: #feffb3; stroke: #feffb3"/>
     <use xlink:href="#mfa1641c78c" x="119.546327" y="89.320135" style="fill: #feffb3; stroke: #feffb3"/>
     <use xlink:href="#mfa1641c78c" x="196.622716" y="132.772772" style="fill: #feffb3; stroke: #feffb3"/>
     <use xlink:href="#mfa1641c78c" x="131.514038" y="109.020969" style="fill: #feffb3; stroke: #feffb3"/>
     <use xlink:href="#mfa1641c78c" x="115.107984" y="79.142892" style="fill: #feffb3; stroke: #feffb3"/>
     <use xlink:href="#mfa1641c78c" x="145.639977" y="123.774326" style="fill: #feffb3; stroke: #feffb3"/>
     <use xlink:href="#mfa1641c78c" x="168.746011" y="107.052191" style="fill: #feffb3; stroke: #feffb3"/>
     <use xlink:href="#mfa1641c78c" x="172.087083" y="62.049227" style="fill: #feffb3; stroke: #feffb3"/>
     <use xlink:href="#mfa1641c78c" x="137.050957" y="91.598261" style="fill: #feffb3; stroke: #feffb3"/>
     <use xlink:href="#mfa1641c78c" x="132.877803" y="78.88882" style="fill: #feffb3; stroke: #feffb3"/>
     <use xlink:href="#mfa1641c78c" x="132.032641" y="105.534027" style="fill: #feffb3; stroke: #feffb3"/>
     <use xlink:href="#mfa1641c78c" x="123.97393" y="116.365008" style="fill: #feffb3; stroke: #feffb3"/>
     <use xlink:href="#mfa1641c78c" x="152.176738" y="70.858969" style="fill: #feffb3; stroke: #feffb3"/>
     <use xlink:href="#mfa1641c78c" x="154.323859" y="117.82373" style="fill: #feffb3; stroke: #feffb3"/>
     <use xlink:href="#mfa1641c78c" x="142.315163" y="112.158971" style="fill: #feffb3; stroke: #feffb3"/>
     <use xlink:href="#mfa1641c78c" x="176.670155" y="101.451162" style="fill: #feffb3; stroke: #feffb3"/>
     <use xlink:href="#mfa1641c78c" x="140.581133" y="92.320616" style="fill: #feffb3; stroke: #feffb3"/>
     <use xlink:href="#mfa1641c78c" x="135.765742" y="99.645748" style="fill: #feffb3; stroke: #feffb3"/>
     <use xlink:href="#mfa1641c78c" x="161.890537" y="130.300834" style="fill: #feffb3; stroke: #feffb3"/>
     <use xlink:href="#mfa1641c78c" x="120.707699" y="98.751895" style="fill: #feffb3; stroke: #feffb3"/>
     <use xlink:href="#mfa1641c78c" x="124.062619" y="74.826151" style="fill: #feffb3; stroke: #feffb3"/>
     <use xlink:href="#mfa1641c78c" x="152.990975" y="146.199085" style="fill: #feffb3; stroke: #feffb3"/>
     <use xlink:href="#mfa1641c78c" x="126.15044" y="60.502837" style="fill: #feffb3; stroke: #feffb3"/>
     <use xlink:href="#mfa1641c78c" x="121.266358" y="91.174109" style="fill: #feffb3; stroke: #feffb3"/>
     <use xlink:href="#mfa1641c78c" x="144.115177" y="103.449602" style="fill: #feffb3; stroke: #feffb3"/>
     <use xlink:href="#mfa1641c78c" x="152.050606" y="117.369288" style="fill: #feffb3; stroke: #feffb3"/>
     <use xlink:href="#mfa1641c78c" x="130.851484" y="100.922434" style="fill: #feffb3; stroke: #feffb3"/>
     <use xlink:href="#mfa1641c78c" x="148.1705" y="62.10426" style="fill: #feffb3; stroke: #feffb3"/>
     <use xlink:href="#mfa1641c78c" x="146.305443" y="129.571642" style="fill: #feffb3; stroke: #feffb3"/>
     <use xlink:href="#mfa1641c78c" x="131.555795" y="101.53785" style="fill: #feffb3; stroke: #feffb3"/>
     <use xlink:href="#mfa1641c78c" x="101.645278" y="89.531748" style="fill: #feffb3; stroke: #feffb3"/>
     <use xlink:href="#mfa1641c78c" x="151.850277" y="114.886332" style="fill: #feffb3; stroke: #feffb3"/>
     <use xlink:href="#mfa1641c78c" x="175.313611" y="72.42518" style="fill: #feffb3; stroke: #feffb3"/>
     <use xlink:href="#mfa1641c78c" x="163.896296" y="64.888113" style="fill: #feffb3; stroke: #feffb3"/>
     <use xlink:href="#mfa1641c78c" x="123.463871" y="86.037529" style="fill: #feffb3; stroke: #feffb3"/>
     <use xlink:href="#mfa1641c78c" x="162.64409" y="115.669043" style="fill: #feffb3; stroke: #feffb3"/>
     <use xlink:href="#mfa1641c78c" x="112.027505" y="114.388085" style="fill: #feffb3; stroke: #feffb3"/>
     <use xlink:href="#mfa1641c78c" x="144.136702" y="54.777114" style="fill: #feffb3; stroke: #feffb3"/>
     <use xlink:href="#mfa1641c78c" x="140.405243" y="89.263892" style="fill: #feffb3; stroke: #feffb3"/>
     <use xlink:href="#mfa1641c78c" x="144.246754" y="107.797436" style="fill: #feffb3; stroke: #feffb3"/>
     <use xlink:href="#mfa1641c78c" x="166.287661" y="140.277994" style="fill: #feffb3; stroke: #feffb3"/>
     <use xlink:href="#mfa1641c78c" x="124.684247" y="106.151694" style="fill: #feffb3; stroke: #feffb3"/>
     <use xlink:href="#mfa1641c78c" x="137.282975" y="136.050461" style="fill: #feffb3; stroke: #feffb3"/>
     <use xlink:href="#mfa1641c78c" x="130.866515" y="108.319311" style="fill: #feffb3; stroke: #feffb3"/>
     <use xlink:href="#mfa1641c78c" x="154.586114" y="103.197019" style="fill: #feffb3; stroke: #feffb3"/>
     <use xlink:href="#mfa1641c78c" x="165.398174" y="103.401736" style="fill: #feffb3; stroke: #feffb3"/>
     <use xlink:href="#mfa1641c78c" x="179.266193" y="92.572951" style="fill: #feffb3; stroke: #feffb3"/>
    </g>
   </g>
   <g id="legend_1">
    <g id="patch_7">
     <path d="M 49.620312 44.55625 
L 127.864062 44.55625 
Q 129.864062 44.55625 129.864062 42.55625 
L 129.864062 14.2 
Q 129.864062 12.2 127.864062 12.2 
L 49.620312 12.2 
Q 47.620312 12.2 47.620312 14.2 
L 47.620312 42.55625 
Q 47.620312 44.55625 49.620312 44.55625 
L 49.620312 44.55625 
z
" style="fill: none; opacity: 0.8; stroke: #cccccc; stroke-linejoin: miter"/>
    </g>
    <g id="PathCollection_3">
     <g>
      <use xlink:href="#m4b9e58cbf5" x="61.620312" y="21.173438" style="fill: #8dd3c7; stroke: #8dd3c7"/>
     </g>
    </g>
    <g id="text_13">
     <!-- laminar -->
     <g style="fill: #ffffff" transform="translate(79.620312 23.798438) scale(0.1 -0.1)">
      <defs>
       <path id="DejaVuSans-6c" d="M 603 4863 
L 1178 4863 
L 1178 0 
L 603 0 
L 603 4863 
z
" transform="scale(0.015625)"/>
       <path id="DejaVuSans-61" d="M 2194 1759 
Q 1497 1759 1228 1600 
Q 959 1441 959 1056 
Q 959 750 1161 570 
Q 1363 391 1709 391 
Q 2188 391 2477 730 
Q 2766 1069 2766 1631 
L 2766 1759 
L 2194 1759 
z
M 3341 1997 
L 3341 0 
L 2766 0 
L 2766 531 
Q 2569 213 2275 61 
Q 1981 -91 1556 -91 
Q 1019 -91 701 211 
Q 384 513 384 1019 
Q 384 1609 779 1909 
Q 1175 2209 1959 2209 
L 2766 2209 
L 2766 2266 
Q 2766 2663 2505 2880 
Q 2244 3097 1772 3097 
Q 1472 3097 1187 3025 
Q 903 2953 641 2809 
L 641 3341 
Q 956 3463 1253 3523 
Q 1550 3584 1831 3584 
Q 2591 3584 2966 3190 
Q 3341 2797 3341 1997 
z
" transform="scale(0.015625)"/>
       <path id="DejaVuSans-6d" d="M 3328 2828 
Q 3544 3216 3844 3400 
Q 4144 3584 4550 3584 
Q 5097 3584 5394 3201 
Q 5691 2819 5691 2113 
L 5691 0 
L 5113 0 
L 5113 2094 
Q 5113 2597 4934 2840 
Q 4756 3084 4391 3084 
Q 3944 3084 3684 2787 
Q 3425 2491 3425 1978 
L 3425 0 
L 2847 0 
L 2847 2094 
Q 2847 2600 2669 2842 
Q 2491 3084 2119 3084 
Q 1678 3084 1418 2786 
Q 1159 2488 1159 1978 
L 1159 0 
L 581 0 
L 581 3500 
L 1159 3500 
L 1159 2956 
Q 1356 3278 1631 3431 
Q 1906 3584 2284 3584 
Q 2666 3584 2933 3390 
Q 3200 3197 3328 2828 
z
" transform="scale(0.015625)"/>
       <path id="DejaVuSans-69" d="M 603 3500 
L 1178 3500 
L 1178 0 
L 603 0 
L 603 3500 
z
M 603 4863 
L 1178 4863 
L 1178 4134 
L 603 4134 
L 603 4863 
z
" transform="scale(0.015625)"/>
       <path id="DejaVuSans-6e" d="M 3513 2113 
L 3513 0 
L 2938 0 
L 2938 2094 
Q 2938 2591 2744 2837 
Q 2550 3084 2163 3084 
Q 1697 3084 1428 2787 
Q 1159 2491 1159 1978 
L 1159 0 
L 581 0 
L 581 3500 
L 1159 3500 
L 1159 2956 
Q 1366 3272 1645 3428 
Q 1925 3584 2291 3584 
Q 2894 3584 3203 3211 
Q 3513 2838 3513 2113 
z
" transform="scale(0.015625)"/>
       <path id="DejaVuSans-72" d="M 2631 2963 
Q 2534 3019 2420 3045 
Q 2306 3072 2169 3072 
Q 1681 3072 1420 2755 
Q 1159 2438 1159 1844 
L 1159 0 
L 581 0 
L 581 3500 
L 1159 3500 
L 1159 2956 
Q 1341 3275 1631 3429 
Q 1922 3584 2338 3584 
Q 2397 3584 2469 3576 
Q 2541 3569 2628 3553 
L 2631 2963 
z
" transform="scale(0.015625)"/>
      </defs>
      <use xlink:href="#DejaVuSans-6c"/>
      <use xlink:href="#DejaVuSans-61" x="27.783203"/>
      <use xlink:href="#DejaVuSans-6d" x="89.0625"/>
      <use xlink:href="#DejaVuSans-69" x="186.474609"/>
      <use xlink:href="#DejaVuSans-6e" x="214.257812"/>
      <use xlink:href="#DejaVuSans-61" x="277.636719"/>
      <use xlink:href="#DejaVuSans-72" x="338.916016"/>
     </g>
    </g>
    <g id="PathCollection_4">
     <g>
      <use xlink:href="#mfa1641c78c" x="61.620312" y="35.851562" style="fill: #feffb3; stroke: #feffb3"/>
     </g>
    </g>
    <g id="text_14">
     <!-- turbulent -->
     <g style="fill: #ffffff" transform="translate(79.620312 38.476562) scale(0.1 -0.1)">
      <defs>
       <path id="DejaVuSans-74" d="M 1172 4494 
L 1172 3500 
L 2356 3500 
L 2356 3053 
L 1172 3053 
L 1172 1153 
Q 1172 725 1289 603 
Q 1406 481 1766 481 
L 2356 481 
L 2356 0 
L 1766 0 
Q 1100 0 847 248 
Q 594 497 594 1153 
L 594 3053 
L 172 3053 
L 172 3500 
L 594 3500 
L 594 4494 
L 1172 4494 
z
" transform="scale(0.015625)"/>
       <path id="DejaVuSans-75" d="M 544 1381 
L 544 3500 
L 1119 3500 
L 1119 1403 
Q 1119 906 1312 657 
Q 1506 409 1894 409 
Q 2359 409 2629 706 
Q 2900 1003 2900 1516 
L 2900 3500 
L 3475 3500 
L 3475 0 
L 2900 0 
L 2900 538 
Q 2691 219 2414 64 
Q 2138 -91 1772 -91 
Q 1169 -91 856 284 
Q 544 659 544 1381 
z
M 1991 3584 
L 1991 3584 
z
" transform="scale(0.015625)"/>
       <path id="DejaVuSans-62" d="M 3116 1747 
Q 3116 2381 2855 2742 
Q 2594 3103 2138 3103 
Q 1681 3103 1420 2742 
Q 1159 2381 1159 1747 
Q 1159 1113 1420 752 
Q 1681 391 2138 391 
Q 2594 391 2855 752 
Q 3116 1113 3116 1747 
z
M 1159 2969 
Q 1341 3281 1617 3432 
Q 1894 3584 2278 3584 
Q 2916 3584 3314 3078 
Q 3713 2572 3713 1747 
Q 3713 922 3314 415 
Q 2916 -91 2278 -91 
Q 1894 -91 1617 61 
Q 1341 213 1159 525 
L 1159 0 
L 581 0 
L 581 4863 
L 1159 4863 
L 1159 2969 
z
" transform="scale(0.015625)"/>
       <path id="DejaVuSans-65" d="M 3597 1894 
L 3597 1613 
L 953 1613 
Q 991 1019 1311 708 
Q 1631 397 2203 397 
Q 2534 397 2845 478 
Q 3156 559 3463 722 
L 3463 178 
Q 3153 47 2828 -22 
Q 2503 -91 2169 -91 
Q 1331 -91 842 396 
Q 353 884 353 1716 
Q 353 2575 817 3079 
Q 1281 3584 2069 3584 
Q 2775 3584 3186 3129 
Q 3597 2675 3597 1894 
z
M 3022 2063 
Q 3016 2534 2758 2815 
Q 2500 3097 2075 3097 
Q 1594 3097 1305 2825 
Q 1016 2553 972 2059 
L 3022 2063 
z
" transform="scale(0.015625)"/>
      </defs>
      <use xlink:href="#DejaVuSans-74"/>
      <use xlink:href="#DejaVuSans-75" x="39.208984"/>
      <use xlink:href="#DejaVuSans-72" x="102.587891"/>
      <use xlink:href="#DejaVuSans-62" x="143.701172"/>
      <use xlink:href="#DejaVuSans-75" x="207.177734"/>
      <use xlink:href="#DejaVuSans-6c" x="270.556641"/>
      <use xlink:href="#DejaVuSans-65" x="298.339844"/>
      <use xlink:href="#DejaVuSans-6e" x="359.863281"/>
      <use xlink:href="#DejaVuSans-74" x="423.242188"/>
     </g>
    </g>
   </g>
  </g>
 </g>
 <defs>
  <clipPath id="p4a3bc133af">
   <rect x="42.620312" y="7.2" width="167.4" height="166.32"/>
  </clipPath>
 </defs>
</svg>
