<?xml version="1.0" encoding="utf-8" standalone="no"?>
<!DOCTYPE svg PUBLIC "-//W3C//DTD SVG 1.1//EN"
  "http://www.w3.org/Graphics/SVG/1.1/DTD/svg11.dtd">
<svg xmlns:xlink="http://www.w3.org/1999/xlink" width="144pt" height="144pt" viewBox="0 0 144 144" xmlns="http://www.w3.org/2000/svg" version="1.1">
 <metadata>
  <rdf:RDF xmlns:dc="http://purl.org/dc/elements/1.1/" xmlns:cc="http://creativecommons.org/ns#" xmlns:rdf="http://www.w3.org/1999/02/22-rdf-syntax-ns#">
   <cc:Work>
    <dc:type rdf:resource="http://purl.org/dc/dcmitype/StillImage"/>
    <dc:date>2025-06-27T07:44:42.964202</dc:date>
    <dc:format>image/svg+xml</dc:format>
    <dc:creator>
     <cc:Agent>
      <dc:title>Matplotlib v3.10.1, https://matplotlib.org/</dc:title>
     </cc:Agent>
    </dc:creator>
   </cc:Work>
  </rdf:RDF>
 </metadata>
 <defs>
  <style type="text/css">*{stroke-linejoin: round; stroke-linecap: butt}</style>
 </defs>
 <g id="figure_1">
  <g id="patch_1">
   <path d="M 0 144 
L 144 144 
L 144 0 
L 0 0 
L 0 144 
z
" style="fill: none"/>
  </g>
  <g id="axes_1">
   <g id="patch_2">
    <path d="M 24.944246 125.144083 
L 140.99976 125.144083 
L 140.99976 3.00024 
L 24.944246 3.00024 
L 24.944246 125.144083 
z
" style="fill: none"/>
   </g>
   <g id="FillBetweenPolyCollection_1">
    <defs>
     <path id="m928ab3ab8f" d="M 24.944246 -31.47147 
L 24.944246 -31.342982 
L 26.116524 -28.648551 
L 27.288802 -26.051865 
L 28.46108 -23.633944 
L 29.633357 -21.412713 
L 30.805635 -19.405217 
L 31.977913 -17.627578 
L 33.150191 -16.094833 
L 34.322469 -14.82077 
L 35.494747 -13.817751 
L 36.667025 -13.096554 
L 37.839303 -12.666214 
L 39.011581 -12.533878 
L 40.183859 -12.704676 
L 41.356137 -13.181597 
L 42.528415 -13.965395 
L 43.700693 -15.054505 
L 44.87297 -16.444984 
L 46.045248 -18.130472 
L 47.217526 -20.102183 
L 48.389804 -22.348915 
L 49.562082 -24.857092 
L 50.73436 -27.610834 
L 51.906638 -30.592051 
L 53.078916 -33.780569 
L 54.251194 -37.154281 
L 55.423472 -40.689332 
L 56.59575 -44.36032 
L 57.768028 -48.140526 
L 58.940305 -52.002173 
L 60.112583 -55.916686 
L 61.284861 -59.854992 
L 62.457139 -63.787809 
L 63.629417 -67.685956 
L 64.801695 -71.52066 
L 65.973973 -75.263812 
L 67.146251 -78.887949 
L 68.318529 -82.342089 
L 69.490807 -84.175047 
L 70.663085 -85.955716 
L 71.835363 -87.81291 
L 73.007641 -89.737761 
L 74.179918 -91.718798 
L 75.352196 -93.74253 
L 76.524474 -95.793646 
L 77.696752 -97.855208 
L 78.86903 -99.908858 
L 80.041308 -101.935015 
L 81.213586 -103.912982 
L 82.385864 -105.819215 
L 83.558142 -106.872359 
L 84.73042 -106.956623 
L 85.902698 -106.808035 
L 87.074976 -106.445223 
L 88.247254 -105.886644 
L 89.419531 -105.152314 
L 90.591809 -104.263673 
L 91.764087 -103.243308 
L 92.936365 -102.114646 
L 94.108643 -100.901629 
L 95.280921 -99.628396 
L 96.453199 -98.318963 
L 97.625477 -96.996911 
L 98.797755 -95.685095 
L 99.970033 -94.405363 
L 101.142311 -93.178305 
L 102.314589 -92.023024 
L 103.486867 -90.956938 
L 104.659144 -89.995609 
L 105.831422 -89.15261 
L 107.0037 -88.439423 
L 108.175978 -87.865365 
L 109.348256 -87.437541 
L 110.520534 -87.160728 
L 111.692812 -87.034668 
L 112.86509 -84.367691 
L 114.037368 -80.72806 
L 115.209646 -77.006401 
L 116.381924 -73.225474 
L 117.554202 -69.407452 
L 118.726479 -65.574066 
L 119.898757 -61.746423 
L 121.071035 -57.94481 
L 122.243313 -54.18851 
L 123.415591 -50.495633 
L 124.587869 -46.882976 
L 125.760147 -43.365898 
L 126.932425 -39.958225 
L 128.104703 -36.672176 
L 129.276981 -33.518317 
L 130.449259 -30.505533 
L 131.621537 -27.641027 
L 132.793815 -24.930343 
L 133.966092 -22.377403 
L 135.13837 -19.984564 
L 136.310648 -17.752698 
L 137.482926 -15.681278 
L 138.655204 -13.76848 
L 139.827482 -12.011299 
L 140.99976 -10.405665 
L 140.99976 -114.147252 
L 140.99976 -114.147252 
L 139.827482 -112.937688 
L 138.655204 -111.675253 
L 137.482926 -110.36413 
L 136.310648 -109.009431 
L 135.13837 -107.617206 
L 133.966092 -106.194436 
L 132.793815 -104.749016 
L 131.621537 -103.289716 
L 130.449259 -101.826129 
L 129.276981 -100.36859 
L 128.104703 -98.928088 
L 126.932425 -97.516157 
L 125.760147 -96.144744 
L 124.587869 -94.826068 
L 123.415591 -93.572458 
L 122.243313 -92.396184 
L 121.071035 -91.309272 
L 119.898757 -90.323315 
L 118.726479 -89.449274 
L 117.554202 -88.697283 
L 116.381924 -88.076452 
L 115.209646 -87.594685 
L 114.037368 -87.258535 
L 112.86509 -87.073415 
L 111.692812 -87.910962 
L 110.520534 -91.318926 
L 109.348256 -94.58374 
L 108.175978 -97.682025 
L 107.0037 -100.594413 
L 105.831422 -103.303038 
L 104.659144 -105.791655 
L 103.486867 -108.04584 
L 102.314589 -110.053173 
L 101.142311 -111.803411 
L 99.970033 -113.288625 
L 98.797755 -114.503313 
L 97.625477 -115.444482 
L 96.453199 -116.111689 
L 95.280921 -116.507051 
L 94.108643 -116.63522 
L 92.936365 -116.503316 
L 91.764087 -116.12083 
L 90.591809 -115.49949 
L 89.419531 -114.653092 
L 88.247254 -113.59731 
L 87.074976 -112.349478 
L 85.902698 -110.92837 
L 84.73042 -109.354093 
L 83.558142 -107.6498 
L 82.385864 -106.558873 
L 81.213586 -105.97562 
L 80.041308 -105.131413 
L 78.86903 -104.017916 
L 77.696752 -102.631942 
L 76.524474 -100.973525 
L 75.352196 -99.045792 
L 74.179918 -96.854925 
L 73.007641 -94.410106 
L 71.835363 -91.723438 
L 70.663085 -88.809879 
L 69.490807 -85.687536 
L 68.318529 -82.512479 
L 67.146251 -80.880868 
L 65.973973 -79.368534 
L 64.801695 -77.951021 
L 63.629417 -76.626674 
L 62.457139 -75.392268 
L 61.284861 -74.242797 
L 60.112583 -73.17158 
L 58.940305 -72.170424 
L 57.768028 -71.229822 
L 56.59575 -70.339162 
L 55.423472 -69.486958 
L 54.251194 -68.661083 
L 53.078916 -67.849011 
L 51.906638 -67.038056 
L 50.73436 -66.215608 
L 49.562082 -65.369357 
L 48.389804 -64.487515 
L 47.217526 -63.559012 
L 46.045248 -62.573679 
L 44.87297 -61.522413 
L 43.700693 -60.397315 
L 42.528415 -59.191808 
L 41.356137 -57.900725 
L 40.183859 -56.520377 
L 39.011581 -55.04859 
L 37.839303 -53.484722 
L 36.667025 -51.829644 
L 35.494747 -50.085714 
L 34.322469 -48.256712 
L 33.150191 -46.347762 
L 31.977913 -44.365237 
L 30.805635 -42.316646 
L 29.633357 -40.210503 
L 28.46108 -38.056197 
L 27.288802 -35.863859 
L 26.116524 -33.644346 
L 24.944246 -31.47147 
z
" style="stroke: #fa8174; stroke-opacity: 0.3"/>
    </defs>
    <g clip-path="url(#pf8a4ceb2c8)">
     <use xlink:href="#m928ab3ab8f" x="0" y="144" style="fill: #fa8174; fill-opacity: 0.3; stroke: #fa8174; stroke-opacity: 0.3"/>
    </g>
   </g>
   <g id="matplotlib.axis_1">
    <g id="xtick_1">
     <g id="line2d_1">
      <defs>
       <path id="ma54e775e5a" d="M 0 0 
L 0 3.5 
" style="stroke: #ffffff; stroke-width: 0.8"/>
      </defs>
      <g>
       <use xlink:href="#ma54e775e5a" x="66.945289" y="125.144083" style="fill: #ffffff; stroke: #ffffff; stroke-width: 0.8"/>
      </g>
     </g>
     <g id="text_1">
      <!-- $\mathdefault{0}$ -->
      <g style="fill: #ffffff" transform="translate(64.454621 139.062582) scale(0.1 -0.1)">
       <defs>
        <path id="CMR17-30" d="M 2688 2025 
C 2688 2416 2682 3080 2413 3591 
C 2176 4039 1798 4198 1466 4198 
C 1158 4198 768 4058 525 3597 
C 269 3118 243 2524 243 2025 
C 243 1661 250 1106 448 619 
C 723 -39 1216 -128 1466 -128 
C 1760 -128 2208 -7 2470 600 
C 2662 1042 2688 1559 2688 2025 
z
M 1466 -26 
C 1056 -26 813 325 723 812 
C 653 1188 653 1738 653 2096 
C 653 2588 653 2997 736 3387 
C 858 3929 1216 4096 1466 4096 
C 1728 4096 2067 3923 2189 3400 
C 2272 3036 2278 2607 2278 2096 
C 2278 1680 2278 1169 2202 792 
C 2067 95 1690 -26 1466 -26 
z
" transform="scale(0.015625)"/>
       </defs>
       <use xlink:href="#CMR17-30" transform="scale(0.996264)"/>
      </g>
     </g>
    </g>
    <g id="xtick_2">
     <g id="line2d_2">
      <g>
       <use xlink:href="#ma54e775e5a" x="111.156913" y="125.144083" style="fill: #ffffff; stroke: #ffffff; stroke-width: 0.8"/>
      </g>
     </g>
     <g id="text_2">
      <!-- $\mathdefault{10}$ -->
      <g style="fill: #ffffff" transform="translate(106.175578 139.062582) scale(0.1 -0.1)">
       <defs>
        <path id="CMR17-31" d="M 1702 4058 
C 1702 4192 1696 4192 1606 4192 
C 1357 3916 979 3827 621 3827 
C 602 3827 570 3827 563 3808 
C 557 3795 557 3782 557 3648 
C 755 3648 1088 3686 1344 3839 
L 1344 461 
C 1344 236 1331 160 781 160 
L 589 160 
L 589 0 
C 896 0 1216 0 1523 0 
C 1830 0 2150 0 2458 0 
L 2458 160 
L 2266 160 
C 1715 160 1702 230 1702 458 
L 1702 4058 
z
" transform="scale(0.015625)"/>
       </defs>
       <use xlink:href="#CMR17-31" transform="scale(0.996264)"/>
       <use xlink:href="#CMR17-30" transform="translate(45.690477 0) scale(0.996264)"/>
      </g>
     </g>
    </g>
   </g>
   <g id="matplotlib.axis_2">
    <g id="ytick_1">
     <g id="line2d_3">
      <defs>
       <path id="m87dd9feeb6" d="M 0 0 
L -3.5 0 
" style="stroke: #ffffff; stroke-width: 0.8"/>
      </defs>
      <g>
       <use xlink:href="#m87dd9feeb6" x="24.944246" y="111.572545" style="fill: #ffffff; stroke: #ffffff; stroke-width: 0.8"/>
      </g>
     </g>
     <g id="text_3">
      <!-- $\mathdefault{0}$ -->
      <g style="fill: #ffffff" transform="translate(12.962911 115.031794) scale(0.1 -0.1)">
       <use xlink:href="#CMR17-30" transform="scale(0.996264)"/>
      </g>
     </g>
    </g>
    <g id="ytick_2">
     <g id="line2d_4">
      <g>
       <use xlink:href="#m87dd9feeb6" x="24.944246" y="77.6437" style="fill: #ffffff; stroke: #ffffff; stroke-width: 0.8"/>
      </g>
     </g>
     <g id="text_4">
      <!-- $\mathdefault{50}$ -->
      <g style="fill: #ffffff" transform="translate(7.981575 81.102949) scale(0.1 -0.1)">
       <defs>
        <path id="CMR17-35" d="M 730 3692 
C 794 3666 1056 3584 1325 3584 
C 1920 3584 2246 3911 2432 4100 
C 2432 4157 2432 4192 2394 4192 
C 2387 4192 2374 4192 2323 4163 
C 2099 4058 1837 3973 1517 3973 
C 1325 3973 1037 3999 723 4139 
C 653 4171 640 4171 634 4171 
C 602 4171 595 4164 595 4037 
L 595 2203 
C 595 2089 595 2057 659 2057 
C 691 2057 704 2070 736 2114 
C 941 2401 1222 2522 1542 2522 
C 1766 2522 2246 2382 2246 1289 
C 2246 1085 2246 715 2054 421 
C 1894 159 1645 25 1370 25 
C 947 25 518 320 403 814 
C 429 807 480 795 506 795 
C 589 795 749 840 749 1038 
C 749 1210 627 1280 506 1280 
C 358 1280 262 1190 262 1011 
C 262 454 704 -128 1382 -128 
C 2042 -128 2669 440 2669 1264 
C 2669 2030 2170 2624 1549 2624 
C 1222 2624 947 2503 730 2274 
L 730 3692 
z
" transform="scale(0.015625)"/>
       </defs>
       <use xlink:href="#CMR17-35" transform="scale(0.996264)"/>
       <use xlink:href="#CMR17-30" transform="translate(45.690477 0) scale(0.996264)"/>
      </g>
     </g>
    </g>
    <g id="ytick_3">
     <g id="line2d_5">
      <g>
       <use xlink:href="#m87dd9feeb6" x="24.944246" y="43.714854" style="fill: #ffffff; stroke: #ffffff; stroke-width: 0.8"/>
      </g>
     </g>
     <g id="text_5">
      <!-- $\mathdefault{100}$ -->
      <g style="fill: #ffffff" transform="translate(3.00024 47.174104) scale(0.1 -0.1)">
       <use xlink:href="#CMR17-31" transform="scale(0.996264)"/>
       <use xlink:href="#CMR17-30" transform="translate(45.690477 0) scale(0.996264)"/>
       <use xlink:href="#CMR17-30" transform="translate(91.380954 0) scale(0.996264)"/>
      </g>
     </g>
    </g>
    <g id="ytick_4">
     <g id="line2d_6">
      <g>
       <use xlink:href="#m87dd9feeb6" x="24.944246" y="9.786009" style="fill: #ffffff; stroke: #ffffff; stroke-width: 0.8"/>
      </g>
     </g>
     <g id="text_6">
      <!-- $\mathdefault{150}$ -->
      <g style="fill: #ffffff" transform="translate(3.00024 13.245258) scale(0.1 -0.1)">
       <use xlink:href="#CMR17-31" transform="scale(0.996264)"/>
       <use xlink:href="#CMR17-35" transform="translate(45.690477 0) scale(0.996264)"/>
       <use xlink:href="#CMR17-30" transform="translate(91.380954 0) scale(0.996264)"/>
      </g>
     </g>
    </g>
   </g>
   <g id="line2d_7">
    <path d="M 24.944246 112.592802 
L 26.049536 118.482975 
L 27.154827 119.343926 
L 28.260118 119.534231 
L 29.365408 119.69051 
L 30.470699 119.312066 
L 31.575989 118.635433 
L 32.68128 117.950406 
L 33.786571 117.314042 
L 34.891861 116.525906 
L 35.997152 115.755677 
L 37.102442 114.770814 
L 38.207733 113.597643 
L 40.418314 110.986057 
L 41.523605 109.551483 
L 42.628896 107.987295 
L 43.734186 106.386116 
L 44.839477 104.554631 
L 45.944767 102.834124 
L 47.050058 100.852906 
L 48.155349 98.922847 
L 49.260639 96.977962 
L 50.36593 94.821428 
L 51.47122 92.80912 
L 52.576511 90.518023 
L 53.681802 88.397714 
L 54.787092 86.14541 
L 55.892383 83.905277 
L 56.997673 81.806216 
L 58.102964 79.495695 
L 59.208255 77.311787 
L 60.313545 75.141726 
L 61.418836 73.070196 
L 62.524127 71.089094 
L 63.629417 69.017469 
L 64.734708 67.038127 
L 65.839998 65.179432 
L 66.945289 63.256672 
L 68.05058 61.411662 
L 69.15587 59.53586 
L 70.261161 57.316485 
L 71.366451 53.304466 
L 72.471742 43.536505 
L 73.577033 42.647805 
L 74.682323 41.89169 
L 75.787614 41.04873 
L 76.892905 40.341673 
L 77.998195 39.719134 
L 79.103486 38.957977 
L 80.208776 38.740604 
L 81.314067 37.764482 
L 82.419358 37.252903 
L 83.524648 36.992504 
L 84.629939 36.262316 
L 85.735229 35.961636 
L 86.84052 35.746919 
L 87.945811 35.16518 
L 89.051101 34.992139 
L 90.156392 34.949639 
L 91.261682 34.440554 
L 92.366973 34.408132 
L 93.472264 34.43917 
L 94.577554 34.113021 
L 95.682845 34.451006 
L 96.788136 34.210208 
L 97.893426 34.510395 
L 98.998717 34.606624 
L 100.104007 34.899293 
L 101.209298 35.330566 
L 102.314589 35.766107 
L 103.419879 36.645289 
L 104.52517 37.85061 
L 105.63046 38.972009 
L 106.735751 40.856228 
L 107.841042 43.106842 
L 108.946332 46.19848 
L 110.051623 49.607759 
L 111.156913 53.22386 
L 112.262204 56.967062 
L 113.367495 60.716384 
L 114.472785 64.323708 
L 115.578076 67.636151 
L 116.683367 70.751984 
L 117.788657 73.347013 
L 118.893948 75.717519 
L 119.999238 77.896361 
L 121.104529 79.965357 
L 122.20982 81.718915 
L 123.31511 83.381692 
L 124.420401 85.094414 
L 125.525691 86.509663 
L 126.630982 87.932709 
L 127.736273 89.469533 
L 128.841563 90.530726 
L 129.946854 91.75616 
L 131.052144 93.109157 
L 132.157435 93.936649 
L 133.262726 94.817013 
L 134.368016 95.791246 
L 135.473307 96.861162 
L 136.578598 97.492656 
L 137.683888 98.144621 
L 138.789179 98.767959 
L 139.894469 99.377818 
L 140.99976 99.994197 
" clip-path="url(#pf8a4ceb2c8)" style="fill: none; stroke-dasharray: 5.55,2.4; stroke-dashoffset: 0; stroke: #8dd3c7; stroke-opacity: 0.3; stroke-width: 1.5"/>
   </g>
   <g id="line2d_8">
    <path d="M 24.944246 112.592774 
L 26.116524 112.853552 
L 27.288802 113.042138 
L 28.46108 113.154929 
L 29.633357 113.188392 
L 30.805635 113.139068 
L 31.977913 113.003593 
L 33.150191 112.778703 
L 34.322469 112.461259 
L 35.494747 112.048267 
L 36.667025 111.536901 
L 37.839303 110.924532 
L 39.011581 110.208766 
L 40.183859 109.387474 
L 41.356137 108.458839 
L 42.528415 107.421399 
L 43.700693 106.27409 
L 44.87297 105.016302 
L 46.045248 103.647924 
L 47.217526 102.169403 
L 48.389804 100.581785 
L 49.562082 98.886775 
L 50.73436 97.086779 
L 51.906638 95.184946 
L 53.078916 93.18521 
L 54.251194 91.092318 
L 55.423472 88.911855 
L 56.59575 86.650259 
L 57.768028 84.314826 
L 58.940305 81.913702 
L 60.112583 79.455867 
L 61.284861 76.951106 
L 62.457139 74.409962 
L 63.629417 71.843685 
L 64.801695 69.264159 
L 65.973973 66.683827 
L 67.146251 64.115592 
L 68.318529 61.572716 
L 69.490807 59.068709 
L 70.663085 56.617203 
L 71.835363 54.231826 
L 73.007641 51.926067 
L 74.179918 49.713139 
L 75.352196 47.605839 
L 76.524474 45.616415 
L 77.696752 43.756425 
L 78.86903 42.036613 
L 80.041308 40.466786 
L 81.213586 39.055699 
L 82.385864 37.810956 
L 83.558142 36.73892 
L 84.73042 35.844642 
L 85.902698 35.131797 
L 87.074976 34.602649 
L 88.247254 34.258023 
L 89.419531 34.097297 
L 90.591809 34.118418 
L 91.764087 34.317931 
L 92.936365 34.691019 
L 94.108643 35.231576 
L 95.280921 35.932276 
L 96.453199 36.784674 
L 97.625477 37.779303 
L 98.797755 38.905796 
L 99.970033 40.153006 
L 101.142311 41.509142 
L 102.314589 42.961901 
L 103.486867 44.498611 
L 104.659144 46.106368 
L 105.831422 47.772176 
L 107.0037 49.483082 
L 108.175978 51.226305 
L 109.348256 52.98936 
L 110.520534 54.760173 
L 111.692812 56.527185 
L 112.86509 58.279447 
L 114.037368 60.006703 
L 115.209646 61.699457 
L 116.381924 63.349037 
L 117.554202 64.947633 
L 118.726479 66.48833 
L 119.898757 67.965131 
L 121.071035 69.372959 
L 122.243313 70.707653 
L 123.415591 71.965955 
L 124.587869 73.145478 
L 125.760147 74.244679 
L 126.932425 75.262809 
L 128.104703 76.199868 
L 129.276981 77.056547 
L 130.449259 77.834169 
L 131.621537 78.534628 
L 132.793815 79.160321 
L 133.966092 79.714081 
L 135.13837 80.199115 
L 136.310648 80.618935 
L 137.482926 80.977296 
L 138.655204 81.278133 
L 139.827482 81.525506 
L 140.99976 81.723542 
" clip-path="url(#pf8a4ceb2c8)" style="fill: none; stroke: #fa8174; stroke-width: 1.5; stroke-linecap: square"/>
   </g>
   <g id="patch_3">
    <path d="M 24.944246 125.144083 
L 24.944246 3.00024 
" style="fill: none; stroke: #ffffff; stroke-width: 0.8; stroke-linejoin: miter; stroke-linecap: square"/>
   </g>
   <g id="patch_4">
    <path d="M 140.99976 125.144083 
L 140.99976 3.00024 
" style="fill: none; stroke: #ffffff; stroke-width: 0.8; stroke-linejoin: miter; stroke-linecap: square"/>
   </g>
   <g id="patch_5">
    <path d="M 24.944246 125.144083 
L 140.99976 125.144083 
" style="fill: none; stroke: #ffffff; stroke-width: 0.8; stroke-linejoin: miter; stroke-linecap: square"/>
   </g>
   <g id="patch_6">
    <path d="M 24.944246 3.00024 
L 140.99976 3.00024 
" style="fill: none; stroke: #ffffff; stroke-width: 0.8; stroke-linejoin: miter; stroke-linecap: square"/>
   </g>
   <g id="PathCollection_1">
    <defs>
     <path id="mb8e6b9e6fd" d="M 0 3 
C 0.795609 3 1.55874 2.683901 2.12132 2.12132 
C 2.683901 1.55874 3 0.795609 3 0 
C 3 -0.795609 2.683901 -1.55874 2.12132 -2.12132 
C 1.55874 -2.683901 0.795609 -3 0 -3 
C -0.795609 -3 -1.55874 -2.683901 -2.12132 -2.12132 
C -2.683901 -1.55874 -3 -0.795609 -3 0 
C -3 0.795609 -2.683901 1.55874 -2.12132 2.12132 
C -1.55874 2.683901 -0.795609 3 0 3 
z
" style="stroke: #fa8174"/>
    </defs>
    <g clip-path="url(#pf8a4ceb2c8)">
     <use xlink:href="#mb8e6b9e6fd" x="24.944246" y="112.592802" style="fill: #fa8174; stroke: #fa8174"/>
     <use xlink:href="#mb8e6b9e6fd" x="82.972003" y="37.252903" style="fill: #fa8174; stroke: #fa8174"/>
     <use xlink:href="#mb8e6b9e6fd" x="111.985881" y="56.967062" style="fill: #fa8174; stroke: #fa8174"/>
     <use xlink:href="#mb8e6b9e6fd" x="68.393344" y="61.411662" style="fill: #fa8174; stroke: #fa8174"/>
    </g>
   </g>
   <g id="legend_1">
    <g id="patch_7">
     <path d="M 44.556032 120.144083 
L 121.387974 120.144083 
Q 123.387974 120.144083 123.387974 118.144083 
L 123.387974 105.206905 
Q 123.387974 103.206905 121.387974 103.206905 
L 44.556032 103.206905 
Q 42.556032 103.206905 42.556032 105.206905 
L 42.556032 118.144083 
Q 42.556032 120.144083 44.556032 120.144083 
z
" style="opacity: 0.8; stroke: #cccccc; stroke-linejoin: miter"/>
    </g>
    <g id="line2d_9">
     <path d="M 46.556032 110.706905 
L 56.556032 110.706905 
L 66.556032 110.706905 
" style="fill: none; stroke: #fa8174; stroke-width: 1.5; stroke-linecap: square"/>
    </g>
    <g id="text_7">
     <!-- new model -->
     <g style="fill: #ffffff" transform="translate(74.556032 114.206905) scale(0.1 -0.1)">
      <defs>
       <path id="CMSS17-6e" d="M 2618 1877 
C 2618 2283 2522 2816 1798 2816 
C 1389 2816 1120 2606 941 2389 
L 941 2758 
L 474 2758 
L 474 0 
L 960 0 
L 960 1559 
C 960 1964 1114 2428 1549 2428 
C 2112 2428 2131 2048 2131 1829 
L 2131 0 
L 2618 0 
L 2618 1877 
z
" transform="scale(0.015625)"/>
       <path id="CMSS17-65" d="M 2502 1377 
C 2502 1590 2490 2003 2285 2345 
C 2061 2713 1696 2816 1421 2816 
C 755 2816 192 2188 192 1375 
C 192 582 774 -64 1510 -64 
C 1798 -64 2150 19 2470 248 
C 2470 274 2458 414 2451 420 
C 2451 433 2432 630 2432 656 
C 2125 407 1773 325 1517 325 
C 1107 325 666 667 646 1377 
L 2502 1377 
z
M 698 1728 
C 781 2084 1062 2421 1421 2421 
C 1517 2421 1965 2421 2080 1728 
L 698 1728 
z
" transform="scale(0.015625)"/>
       <path id="CMSS17-77" d="M 4013 2752 
L 3526 2752 
L 3187 1601 
C 3117 1358 2918 685 2893 371 
L 2886 371 
C 2874 564 2765 1024 2586 1633 
L 2259 2752 
L 1818 2752 
L 1498 1658 
C 1338 1101 1216 627 1203 371 
L 1197 371 
C 1171 749 909 1633 870 1773 
L 582 2752 
L 83 2752 
L 915 0 
L 1402 0 
C 1734 1096 1990 1943 2010 2370 
C 2022 2160 2131 1707 2195 1484 
L 2618 0 
L 3181 0 
L 4013 2752 
z
" transform="scale(0.015625)"/>
       <path id="CMSS17-6d" d="M 4288 1877 
C 4288 2308 4179 2816 3462 2816 
C 2982 2816 2694 2516 2566 2331 
C 2451 2670 2182 2816 1798 2816 
C 1363 2816 1088 2568 941 2389 
L 941 2758 
L 474 2758 
L 474 0 
L 960 0 
L 960 1559 
C 960 1939 1101 2428 1555 2428 
C 2138 2428 2138 2016 2138 1829 
L 2138 0 
L 2624 0 
L 2624 1559 
C 2624 1939 2765 2428 3219 2428 
C 3802 2428 3802 2016 3802 1829 
L 3802 0 
L 4288 0 
L 4288 1877 
z
" transform="scale(0.015625)"/>
       <path id="CMSS17-6f" d="M 2829 1356 
C 2829 2176 2221 2816 1504 2816 
C 768 2816 173 2157 173 1356 
C 173 544 787 -64 1498 -64 
C 2227 -64 2829 563 2829 1356 
z
M 1504 337 
C 1050 337 659 709 659 1408 
C 659 2151 1114 2427 1498 2427 
C 1914 2427 2342 2126 2342 1408 
C 2342 683 1926 337 1504 337 
z
" transform="scale(0.015625)"/>
       <path id="CMSS17-64" d="M 2611 4416 
L 2138 4416 
L 2138 2438 
C 1939 2603 1613 2756 1254 2756 
C 672 2756 211 2131 211 1347 
C 211 562 666 -64 1235 -64 
C 1677 -64 1971 172 2125 306 
L 2125 -13 
L 2611 -13 
L 2611 4416 
z
M 2125 836 
C 2125 747 2125 653 1926 482 
C 1798 375 1645 325 1498 325 
C 1152 325 698 576 698 1340 
C 698 2134 1210 2368 1562 2368 
C 1798 2368 1990 2254 2125 2065 
L 2125 836 
z
" transform="scale(0.015625)"/>
       <path id="CMSS17-6c" d="M 947 4416 
L 474 4416 
L 474 0 
L 947 0 
L 947 4416 
z
" transform="scale(0.015625)"/>
      </defs>
      <use xlink:href="#CMSS17-6e" transform="scale(0.996264)"/>
      <use xlink:href="#CMSS17-65" transform="translate(48.204943 0) scale(0.996264)"/>
      <use xlink:href="#CMSS17-77" transform="translate(89.843765 0) scale(0.996264)"/>
      <use xlink:href="#CMSS17-6d" transform="translate(184.892423 0) scale(0.996264)"/>
      <use xlink:href="#CMSS17-6f" transform="translate(259.121677 0) scale(0.996264)"/>
      <use xlink:href="#CMSS17-64" transform="translate(308.56774 0) scale(0.996264)"/>
      <use xlink:href="#CMSS17-65" transform="translate(356.772683 0) scale(0.996264)"/>
      <use xlink:href="#CMSS17-6c" transform="translate(398.411505 0) scale(0.996264)"/>
     </g>
    </g>
   </g>
  </g>
 </g>
 <defs>
  <clipPath id="pf8a4ceb2c8">
   <rect x="24.944246" y="3.00024" width="116.055514" height="122.143843"/>
  </clipPath>
 </defs>
</svg>
