<?xml version="1.0" encoding="utf-8" standalone="no"?>
<!DOCTYPE svg PUBLIC "-//W3C//DTD SVG 1.1//EN"
  "http://www.w3.org/Graphics/SVG/1.1/DTD/svg11.dtd">
<svg xmlns:xlink="http://www.w3.org/1999/xlink" width="144pt" height="144pt" viewBox="0 0 144 144" xmlns="http://www.w3.org/2000/svg" version="1.1">
 <metadata>
  <rdf:RDF xmlns:dc="http://purl.org/dc/elements/1.1/" xmlns:cc="http://creativecommons.org/ns#" xmlns:rdf="http://www.w3.org/1999/02/22-rdf-syntax-ns#">
   <cc:Work>
    <dc:type rdf:resource="http://purl.org/dc/dcmitype/StillImage"/>
    <dc:date>2025-06-27T07:44:46.561618</dc:date>
    <dc:format>image/svg+xml</dc:format>
    <dc:creator>
     <cc:Agent>
      <dc:title>Matplotlib v3.10.1, https://matplotlib.org/</dc:title>
     </cc:Agent>
    </dc:creator>
   </cc:Work>
  </rdf:RDF>
 </metadata>
 <defs>
  <style type="text/css">*{stroke-linejoin: round; stroke-linecap: butt}</style>
 </defs>
 <g id="figure_1">
  <g id="patch_1">
   <path d="M 0 144 
L 144 144 
L 144 0 
L 0 0 
L 0 144 
z
" style="fill: none"/>
  </g>
  <g id="axes_1">
   <g id="patch_2">
    <path d="M 14.981575 125.144083 
L 140.99976 125.144083 
L 140.99976 3.298253 
L 14.981575 3.298253 
L 14.981575 125.144083 
z
" style="fill: none"/>
   </g>
   <g id="FillBetweenPolyCollection_1">
    <defs>
     <path id="m93db72fb19" d="M 14.981575 -24.394364 
L 14.981575 -24.394364 
L 16.254486 -24.394364 
L 17.527397 -24.394364 
L 18.800308 -24.394364 
L 20.073219 -24.394364 
L 21.34613 -24.394364 
L 22.619041 -24.394364 
L 23.891952 -24.394364 
L 25.164863 -24.394364 
L 26.437774 -24.394364 
L 27.710685 -24.394364 
L 28.983596 -24.394364 
L 30.256507 -24.394364 
L 31.529418 -24.394364 
L 32.802329 -24.394364 
L 34.07524 -24.394364 
L 35.348151 -24.394364 
L 36.621062 -24.394364 
L 37.893972 -24.394364 
L 39.166883 -24.394364 
L 40.439794 -24.394364 
L 41.712705 -24.394364 
L 42.985616 -24.394364 
L 44.258527 -24.394364 
L 45.531438 -24.394364 
L 46.804349 -24.394364 
L 48.07726 -24.394364 
L 49.350171 -24.394364 
L 50.623082 -24.394364 
L 51.895993 -24.394364 
L 53.168904 -24.394364 
L 54.441815 -24.394364 
L 55.714726 -24.394364 
L 56.987637 -24.394364 
L 58.260548 -24.394364 
L 59.533459 -24.394364 
L 60.80637 -24.394364 
L 62.079281 -24.394364 
L 63.352192 -24.394364 
L 64.625103 -24.394364 
L 65.898014 -24.394364 
L 67.170924 -24.394364 
L 68.443835 -24.394364 
L 69.716746 -24.394364 
L 70.989657 -24.394364 
L 72.262568 -24.394364 
L 73.535479 -24.394374 
L 74.80839 -24.394536 
L 76.081301 -24.395385 
L 77.354212 -24.396576 
L 78.627123 -41.544074 
L 79.900034 -71.423574 
L 81.172945 -95.382523 
L 82.445856 -113.491983 
L 83.718767 -125.940041 
L 84.991678 -133.027748 
L 86.264589 -135.159343 
L 87.5375 -132.831279 
L 88.810411 -126.623628 
L 90.083322 -117.195622 
L 91.356233 -105.285402 
L 92.629144 -91.712169 
L 93.902055 -77.376402 
L 95.174966 -63.249515 
L 96.447877 -50.33727 
L 97.720787 -39.591612 
L 98.993698 -31.739944 
L 100.266609 -27.025496 
L 101.53952 -24.965168 
L 102.812431 -24.443849 
L 104.085342 -24.395012 
L 105.358253 -24.394364 
L 106.631164 -24.394364 
L 107.904075 -24.394364 
L 109.176986 -24.394364 
L 110.449897 -24.394364 
L 111.722808 -24.394364 
L 112.995719 -24.394364 
L 114.26863 -24.394364 
L 115.541541 -24.394364 
L 116.814452 -24.394382 
L 118.087363 -24.394798 
L 119.360274 -24.398175 
L 120.633185 -24.412815 
L 121.906096 -24.455359 
L 123.179007 -24.550063 
L 124.451918 -24.72533 
L 125.724829 -25.009445 
L 126.997739 -25.426998 
L 128.27065 -25.996587 
L 129.543561 -26.729742 
L 130.816472 -27.630803 
L 132.089383 -28.697436 
L 133.362294 -29.921512 
L 134.635205 -31.290171 
L 135.908116 -32.786926 
L 137.181027 -34.392736 
L 138.453938 -36.086991 
L 139.726849 -37.848387 
L 140.99976 -39.655673 
L 140.99976 -24.394364 
L 140.99976 -24.394364 
L 139.726849 -24.394364 
L 138.453938 -24.394364 
L 137.181027 -24.394364 
L 135.908116 -24.394364 
L 134.635205 -24.394364 
L 133.362294 -24.394364 
L 132.089383 -24.394364 
L 130.816472 -24.394364 
L 129.543561 -24.394364 
L 128.27065 -24.394364 
L 126.997739 -24.394364 
L 125.724829 -24.394364 
L 124.451918 -24.394364 
L 123.179007 -24.394364 
L 121.906096 -24.394364 
L 120.633185 -24.394364 
L 119.360274 -24.394364 
L 118.087363 -24.394364 
L 116.814452 -24.394364 
L 115.541541 -24.394364 
L 114.26863 -24.394364 
L 112.995719 -24.394364 
L 111.722808 -24.394364 
L 110.449897 -24.394364 
L 109.176986 -24.394364 
L 107.904075 -24.394364 
L 106.631164 -24.394364 
L 105.358253 -24.394364 
L 104.085342 -24.394364 
L 102.812431 -24.394364 
L 101.53952 -24.394364 
L 100.266609 -24.394364 
L 98.993698 -24.394364 
L 97.720787 -24.394364 
L 96.447877 -24.394364 
L 95.174966 -24.394364 
L 93.902055 -24.394364 
L 92.629144 -24.394364 
L 91.356233 -24.394364 
L 90.083322 -24.394364 
L 88.810411 -24.394364 
L 87.5375 -24.394364 
L 86.264589 -24.394364 
L 84.991678 -24.394364 
L 83.718767 -24.394364 
L 82.445856 -24.394364 
L 81.172945 -24.394364 
L 79.900034 -24.394364 
L 78.627123 -24.394364 
L 77.354212 -24.394364 
L 76.081301 -24.394364 
L 74.80839 -24.394364 
L 73.535479 -24.394364 
L 72.262568 -24.394364 
L 70.989657 -24.394364 
L 69.716746 -24.394364 
L 68.443835 -24.394364 
L 67.170924 -24.394364 
L 65.898014 -24.394364 
L 64.625103 -24.394364 
L 63.352192 -24.394364 
L 62.079281 -24.394364 
L 60.80637 -24.394364 
L 59.533459 -24.394364 
L 58.260548 -24.394364 
L 56.987637 -24.394364 
L 55.714726 -24.394364 
L 54.441815 -24.394364 
L 53.168904 -24.394364 
L 51.895993 -24.394364 
L 50.623082 -24.394364 
L 49.350171 -24.394364 
L 48.07726 -24.394364 
L 46.804349 -24.394364 
L 45.531438 -24.394364 
L 44.258527 -24.394364 
L 42.985616 -24.394364 
L 41.712705 -24.394364 
L 40.439794 -24.394364 
L 39.166883 -24.394364 
L 37.893972 -24.394364 
L 36.621062 -24.394364 
L 35.348151 -24.394364 
L 34.07524 -24.394364 
L 32.802329 -24.394364 
L 31.529418 -24.394364 
L 30.256507 -24.394364 
L 28.983596 -24.394364 
L 27.710685 -24.394364 
L 26.437774 -24.394364 
L 25.164863 -24.394364 
L 23.891952 -24.394364 
L 22.619041 -24.394364 
L 21.34613 -24.394364 
L 20.073219 -24.394364 
L 18.800308 -24.394364 
L 17.527397 -24.394364 
L 16.254486 -24.394364 
L 14.981575 -24.394364 
z
" style="stroke: #81b1d2; stroke-opacity: 0.3"/>
    </defs>
    <g clip-path="url(#p226eb2c602)">
     <use xlink:href="#m93db72fb19" x="0" y="144" style="fill: #81b1d2; fill-opacity: 0.3; stroke: #81b1d2; stroke-opacity: 0.3"/>
    </g>
   </g>
   <g id="PathCollection_1">
    <defs>
     <path id="m31db45b144" d="M 0 -5 
L -1.12257 -1.545085 
L -4.755283 -1.545085 
L -1.816356 0.59017 
L -2.938926 4.045085 
L -0 1.90983 
L 2.938926 4.045085 
L 1.816356 0.59017 
L 4.755283 -1.545085 
L 1.12257 -1.545085 
z
" style="stroke: #81b1d2"/>
    </defs>
    <g clip-path="url(#p226eb2c602)">
     <use xlink:href="#m31db45b144" x="86.211099" y="8.8367" style="fill: #81b1d2; stroke: #81b1d2"/>
    </g>
   </g>
   <g id="matplotlib.axis_1">
    <g id="xtick_1">
     <g id="line2d_1">
      <defs>
       <path id="m4530ae795f" d="M 0 0 
L 0 3.5 
" style="stroke: #ffffff; stroke-width: 0.8"/>
      </defs>
      <g>
       <use xlink:href="#m4530ae795f" x="60.588156" y="125.144083" style="fill: #ffffff; stroke: #ffffff; stroke-width: 0.8"/>
      </g>
     </g>
     <g id="text_1">
      <!-- $\mathdefault{0}$ -->
      <g style="fill: #ffffff" transform="translate(58.097489 139.062582) scale(0.1 -0.1)">
       <defs>
        <path id="CMR17-30" d="M 2688 2025 
C 2688 2416 2682 3080 2413 3591 
C 2176 4039 1798 4198 1466 4198 
C 1158 4198 768 4058 525 3597 
C 269 3118 243 2524 243 2025 
C 243 1661 250 1106 448 619 
C 723 -39 1216 -128 1466 -128 
C 1760 -128 2208 -7 2470 600 
C 2662 1042 2688 1559 2688 2025 
z
M 1466 -26 
C 1056 -26 813 325 723 812 
C 653 1188 653 1738 653 2096 
C 653 2588 653 2997 736 3387 
C 858 3929 1216 4096 1466 4096 
C 1728 4096 2067 3923 2189 3400 
C 2272 3036 2278 2607 2278 2096 
C 2278 1680 2278 1169 2202 792 
C 2067 95 1690 -26 1466 -26 
z
" transform="scale(0.015625)"/>
       </defs>
       <use xlink:href="#CMR17-30" transform="scale(0.996264)"/>
      </g>
     </g>
    </g>
    <g id="xtick_2">
     <g id="line2d_2">
      <g>
       <use xlink:href="#m4530ae795f" x="108.595084" y="125.144083" style="fill: #ffffff; stroke: #ffffff; stroke-width: 0.8"/>
      </g>
     </g>
     <g id="text_2">
      <!-- $\mathdefault{10}$ -->
      <g style="fill: #ffffff" transform="translate(103.613749 139.062582) scale(0.1 -0.1)">
       <defs>
        <path id="CMR17-31" d="M 1702 4058 
C 1702 4192 1696 4192 1606 4192 
C 1357 3916 979 3827 621 3827 
C 602 3827 570 3827 563 3808 
C 557 3795 557 3782 557 3648 
C 755 3648 1088 3686 1344 3839 
L 1344 461 
C 1344 236 1331 160 781 160 
L 589 160 
L 589 0 
C 896 0 1216 0 1523 0 
C 1830 0 2150 0 2458 0 
L 2458 160 
L 2266 160 
C 1715 160 1702 230 1702 458 
L 1702 4058 
z
" transform="scale(0.015625)"/>
       </defs>
       <use xlink:href="#CMR17-31" transform="scale(0.996264)"/>
       <use xlink:href="#CMR17-30" transform="translate(45.690477 0) scale(0.996264)"/>
      </g>
     </g>
    </g>
   </g>
   <g id="matplotlib.axis_2">
    <g id="ytick_1">
     <g id="line2d_3">
      <defs>
       <path id="m292e1fc4b9" d="M 0 0 
L -3.5 0 
" style="stroke: #ffffff; stroke-width: 0.8"/>
      </defs>
      <g>
       <use xlink:href="#m292e1fc4b9" x="14.981575" y="119.605636" style="fill: #ffffff; stroke: #ffffff; stroke-width: 0.8"/>
      </g>
     </g>
     <g id="text_3">
      <!-- $\mathdefault{0}$ -->
      <g style="fill: #ffffff" transform="translate(3.00024 123.064886) scale(0.1 -0.1)">
       <use xlink:href="#CMR17-30" transform="scale(0.996264)"/>
      </g>
     </g>
    </g>
    <g id="ytick_2">
     <g id="line2d_4">
      <g>
       <use xlink:href="#m292e1fc4b9" x="14.981575" y="96.974864" style="fill: #ffffff; stroke: #ffffff; stroke-width: 0.8"/>
      </g>
     </g>
     <g id="text_4">
      <!-- $\mathdefault{1}$ -->
      <g style="fill: #ffffff" transform="translate(3.00024 100.434114) scale(0.1 -0.1)">
       <use xlink:href="#CMR17-31" transform="scale(0.996264)"/>
      </g>
     </g>
    </g>
    <g id="ytick_3">
     <g id="line2d_5">
      <g>
       <use xlink:href="#m292e1fc4b9" x="14.981575" y="74.344092" style="fill: #ffffff; stroke: #ffffff; stroke-width: 0.8"/>
      </g>
     </g>
     <g id="text_5">
      <!-- $\mathdefault{2}$ -->
      <g style="fill: #ffffff" transform="translate(3.00024 77.803342) scale(0.1 -0.1)">
       <defs>
        <path id="CMR17-32" d="M 2669 989 
L 2554 989 
C 2490 536 2438 459 2413 420 
C 2381 369 1920 369 1830 369 
L 602 369 
C 832 619 1280 1072 1824 1597 
C 2214 1967 2669 2402 2669 3035 
C 2669 3790 2067 4224 1395 4224 
C 691 4224 262 3604 262 3030 
C 262 2780 448 2748 525 2748 
C 589 2748 781 2787 781 3010 
C 781 3207 614 3264 525 3264 
C 486 3264 448 3258 422 3245 
C 544 3790 915 4058 1306 4058 
C 1862 4058 2227 3617 2227 3035 
C 2227 2479 1901 2000 1536 1584 
L 262 146 
L 262 0 
L 2515 0 
L 2669 989 
z
" transform="scale(0.015625)"/>
       </defs>
       <use xlink:href="#CMR17-32" transform="scale(0.996264)"/>
      </g>
     </g>
    </g>
    <g id="ytick_4">
     <g id="line2d_6">
      <g>
       <use xlink:href="#m292e1fc4b9" x="14.981575" y="51.71332" style="fill: #ffffff; stroke: #ffffff; stroke-width: 0.8"/>
      </g>
     </g>
     <g id="text_6">
      <!-- $\mathdefault{3}$ -->
      <g style="fill: #ffffff" transform="translate(3.00024 55.17257) scale(0.1 -0.1)">
       <defs>
        <path id="CMR17-33" d="M 1414 2157 
C 1984 2157 2234 1662 2234 1090 
C 2234 320 1824 25 1453 25 
C 1114 25 563 194 390 693 
C 422 680 454 680 486 680 
C 640 680 755 782 755 948 
C 755 1133 614 1216 486 1216 
C 378 1216 211 1165 211 926 
C 211 335 787 -128 1466 -128 
C 2176 -128 2720 430 2720 1085 
C 2720 1707 2208 2157 1600 2227 
C 2086 2328 2554 2756 2554 3329 
C 2554 3820 2048 4179 1472 4179 
C 890 4179 378 3829 378 3329 
C 378 3110 544 3072 627 3072 
C 762 3072 877 3155 877 3321 
C 877 3486 762 3569 627 3569 
C 602 3569 570 3569 544 3557 
C 730 3959 1235 4032 1459 4032 
C 1683 4032 2106 3925 2106 3320 
C 2106 3143 2080 2828 1862 2550 
C 1670 2304 1453 2304 1242 2284 
C 1210 2284 1062 2269 1037 2269 
C 992 2263 966 2257 966 2208 
C 966 2163 973 2157 1101 2157 
L 1414 2157 
z
" transform="scale(0.015625)"/>
       </defs>
       <use xlink:href="#CMR17-33" transform="scale(0.996264)"/>
      </g>
     </g>
    </g>
    <g id="ytick_5">
     <g id="line2d_7">
      <g>
       <use xlink:href="#m292e1fc4b9" x="14.981575" y="29.082548" style="fill: #ffffff; stroke: #ffffff; stroke-width: 0.8"/>
      </g>
     </g>
     <g id="text_7">
      <!-- $\mathdefault{4}$ -->
      <g style="fill: #ffffff" transform="translate(3.00024 32.541797) scale(0.1 -0.1)">
       <defs>
        <path id="CMR17-34" d="M 2150 4122 
C 2150 4256 2144 4256 2029 4256 
L 128 1254 
L 128 1088 
L 1779 1088 
L 1779 457 
C 1779 224 1766 160 1318 160 
L 1197 160 
L 1197 0 
C 1402 0 1747 0 1965 0 
C 2182 0 2528 0 2733 0 
L 2733 160 
L 2611 160 
C 2163 160 2150 224 2150 457 
L 2150 1088 
L 2803 1088 
L 2803 1254 
L 2150 1254 
L 2150 4122 
z
M 1798 3703 
L 1798 1254 
L 256 1254 
L 1798 3703 
z
" transform="scale(0.015625)"/>
       </defs>
       <use xlink:href="#CMR17-34" transform="scale(0.996264)"/>
      </g>
     </g>
    </g>
    <g id="ytick_6">
     <g id="line2d_8">
      <g>
       <use xlink:href="#m292e1fc4b9" x="14.981575" y="6.451776" style="fill: #ffffff; stroke: #ffffff; stroke-width: 0.8"/>
      </g>
     </g>
     <g id="text_8">
      <!-- $\mathdefault{5}$ -->
      <g style="fill: #ffffff" transform="translate(3.00024 9.911025) scale(0.1 -0.1)">
       <defs>
        <path id="CMR17-35" d="M 730 3692 
C 794 3666 1056 3584 1325 3584 
C 1920 3584 2246 3911 2432 4100 
C 2432 4157 2432 4192 2394 4192 
C 2387 4192 2374 4192 2323 4163 
C 2099 4058 1837 3973 1517 3973 
C 1325 3973 1037 3999 723 4139 
C 653 4171 640 4171 634 4171 
C 602 4171 595 4164 595 4037 
L 595 2203 
C 595 2089 595 2057 659 2057 
C 691 2057 704 2070 736 2114 
C 941 2401 1222 2522 1542 2522 
C 1766 2522 2246 2382 2246 1289 
C 2246 1085 2246 715 2054 421 
C 1894 159 1645 25 1370 25 
C 947 25 518 320 403 814 
C 429 807 480 795 506 795 
C 589 795 749 840 749 1038 
C 749 1210 627 1280 506 1280 
C 358 1280 262 1190 262 1011 
C 262 454 704 -128 1382 -128 
C 2042 -128 2669 440 2669 1264 
C 2669 2030 2170 2624 1549 2624 
C 1222 2624 947 2503 730 2274 
L 730 3692 
z
" transform="scale(0.015625)"/>
       </defs>
       <use xlink:href="#CMR17-35" transform="scale(0.996264)"/>
      </g>
     </g>
    </g>
   </g>
   <g id="line2d_9">
    <path d="M 14.981575 119.605636 
L 16.254486 119.605636 
L 17.527397 119.605636 
L 18.800308 119.605636 
L 20.073219 119.605636 
L 21.34613 119.605636 
L 22.619041 119.605636 
L 23.891952 119.605636 
L 25.164863 119.605636 
L 26.437774 119.605636 
L 27.710685 119.605636 
L 28.983596 119.605636 
L 30.256507 119.605636 
L 31.529418 119.605636 
L 32.802329 119.605636 
L 34.07524 119.605636 
L 35.348151 119.605636 
L 36.621062 119.605636 
L 37.893972 119.605636 
L 39.166883 119.605636 
L 40.439794 119.605636 
L 41.712705 119.605636 
L 42.985616 119.605636 
L 44.258527 119.605636 
L 45.531438 119.605636 
L 46.804349 119.605636 
L 48.07726 119.605636 
L 49.350171 119.605636 
L 50.623082 119.605636 
L 51.895993 119.605636 
L 53.168904 119.605636 
L 54.441815 119.605636 
L 55.714726 119.605636 
L 56.987637 119.605636 
L 58.260548 119.605636 
L 59.533459 119.605636 
L 60.80637 119.605636 
L 62.079281 119.605636 
L 63.352192 119.605636 
L 64.625103 119.605636 
L 65.898014 119.605636 
L 67.170924 119.605636 
L 68.443835 119.605636 
L 69.716746 119.605636 
L 70.989657 119.605636 
L 72.262568 119.605636 
L 73.535479 119.605626 
L 74.80839 119.605464 
L 76.081301 119.604615 
L 77.354212 119.603424 
L 78.627123 102.455926 
L 79.900034 72.576426 
L 81.172945 48.617477 
L 82.445856 30.508017 
L 83.718767 18.059959 
L 84.991678 10.972252 
L 86.264589 8.840657 
L 87.5375 11.168721 
L 88.810411 17.376372 
L 90.083322 26.804378 
L 91.356233 38.714598 
L 92.629144 52.287831 
L 93.902055 66.623598 
L 95.174966 80.750485 
L 96.447877 93.66273 
L 97.720787 104.408388 
L 98.993698 112.260056 
L 100.266609 116.974504 
L 101.53952 119.034832 
L 102.812431 119.556151 
L 104.085342 119.604988 
L 105.358253 119.605636 
L 106.631164 119.605636 
L 107.904075 119.605636 
L 109.176986 119.605636 
L 110.449897 119.605636 
L 111.722808 119.605636 
L 112.995719 119.605636 
L 114.26863 119.605636 
L 115.541541 119.605636 
L 116.814452 119.605618 
L 118.087363 119.605202 
L 119.360274 119.601825 
L 120.633185 119.587185 
L 121.906096 119.544641 
L 123.179007 119.449937 
L 124.451918 119.27467 
L 125.724829 118.990555 
L 126.997739 118.573002 
L 128.27065 118.003413 
L 129.543561 117.270258 
L 130.816472 116.369197 
L 132.089383 115.302564 
L 133.362294 114.078488 
L 134.635205 112.709829 
L 135.908116 111.213074 
L 137.181027 109.607264 
L 138.453938 107.913009 
L 139.726849 106.151613 
L 140.99976 104.344327 
" clip-path="url(#p226eb2c602)" style="fill: none; stroke: #81b1d2; stroke-width: 1.5; stroke-linecap: square"/>
   </g>
   <g id="patch_3">
    <path d="M 14.981575 125.144083 
L 14.981575 3.298253 
" style="fill: none; stroke: #ffffff; stroke-width: 0.8; stroke-linejoin: miter; stroke-linecap: square"/>
   </g>
   <g id="patch_4">
    <path d="M 140.99976 125.144083 
L 140.99976 3.298253 
" style="fill: none; stroke: #ffffff; stroke-width: 0.8; stroke-linejoin: miter; stroke-linecap: square"/>
   </g>
   <g id="patch_5">
    <path d="M 14.981575 125.144083 
L 140.99976 125.144083 
" style="fill: none; stroke: #ffffff; stroke-width: 0.8; stroke-linejoin: miter; stroke-linecap: square"/>
   </g>
   <g id="patch_6">
    <path d="M 14.981575 3.298253 
L 140.99976 3.298253 
" style="fill: none; stroke: #ffffff; stroke-width: 0.8; stroke-linejoin: miter; stroke-linecap: square"/>
   </g>
   <g id="legend_1">
    <g id="patch_7">
     <path d="M 41.747115 120.144083 
L 114.23422 120.144083 
Q 116.23422 120.144083 116.23422 118.144083 
L 116.23422 105.206905 
Q 116.23422 103.206905 114.23422 103.206905 
L 41.747115 103.206905 
Q 39.747115 103.206905 39.747115 105.206905 
L 39.747115 118.144083 
Q 39.747115 120.144083 41.747115 120.144083 
z
" style="opacity: 0.8; stroke: #cccccc; stroke-linejoin: miter"/>
    </g>
    <g id="line2d_10">
     <path d="M 43.747115 110.706905 
L 53.747115 110.706905 
L 63.747115 110.706905 
" style="fill: none; stroke: #81b1d2; stroke-width: 1.5; stroke-linecap: square"/>
    </g>
    <g id="text_9">
     <!-- new score -->
     <g style="fill: #ffffff" transform="translate(71.747115 114.206905) scale(0.1 -0.1)">
      <defs>
       <path id="CMSS17-6e" d="M 2618 1877 
C 2618 2283 2522 2816 1798 2816 
C 1389 2816 1120 2606 941 2389 
L 941 2758 
L 474 2758 
L 474 0 
L 960 0 
L 960 1559 
C 960 1964 1114 2428 1549 2428 
C 2112 2428 2131 2048 2131 1829 
L 2131 0 
L 2618 0 
L 2618 1877 
z
" transform="scale(0.015625)"/>
       <path id="CMSS17-65" d="M 2502 1377 
C 2502 1590 2490 2003 2285 2345 
C 2061 2713 1696 2816 1421 2816 
C 755 2816 192 2188 192 1375 
C 192 582 774 -64 1510 -64 
C 1798 -64 2150 19 2470 248 
C 2470 274 2458 414 2451 420 
C 2451 433 2432 630 2432 656 
C 2125 407 1773 325 1517 325 
C 1107 325 666 667 646 1377 
L 2502 1377 
z
M 698 1728 
C 781 2084 1062 2421 1421 2421 
C 1517 2421 1965 2421 2080 1728 
L 698 1728 
z
" transform="scale(0.015625)"/>
       <path id="CMSS17-77" d="M 4013 2752 
L 3526 2752 
L 3187 1601 
C 3117 1358 2918 685 2893 371 
L 2886 371 
C 2874 564 2765 1024 2586 1633 
L 2259 2752 
L 1818 2752 
L 1498 1658 
C 1338 1101 1216 627 1203 371 
L 1197 371 
C 1171 749 909 1633 870 1773 
L 582 2752 
L 83 2752 
L 915 0 
L 1402 0 
C 1734 1096 1990 1943 2010 2370 
C 2022 2160 2131 1707 2195 1484 
L 2618 0 
L 3181 0 
L 4013 2752 
z
" transform="scale(0.015625)"/>
       <path id="CMSS17-73" d="M 2061 2627 
C 1683 2807 1389 2807 1197 2807 
C 742 2807 198 2648 198 2003 
C 198 1359 902 1218 1094 1179 
C 1389 1122 1715 1058 1715 740 
C 1715 337 1254 337 1171 337 
C 915 337 563 407 243 638 
L 166 210 
C 531 0 883 -64 1178 -64 
C 1965 -64 2163 416 2163 781 
C 2163 1094 1984 1305 1862 1401 
C 1651 1568 1574 1587 1050 1696 
C 960 1709 646 1779 646 2066 
C 646 2432 1050 2432 1139 2432 
C 1555 2432 1811 2303 1984 2208 
L 2061 2627 
z
" transform="scale(0.015625)"/>
       <path id="CMSS17-63" d="M 2464 2541 
C 2464 2585 2170 2714 2093 2739 
C 1882 2816 1613 2816 1542 2816 
C 710 2816 211 2093 211 1363 
C 211 595 768 -64 1517 -64 
C 1946 -64 2253 76 2502 242 
L 2464 664 
C 2189 453 1869 337 1523 337 
C 1024 337 698 774 698 1369 
C 698 1831 909 2414 1549 2414 
C 1901 2414 2099 2343 2394 2145 
L 2464 2541 
z
" transform="scale(0.015625)"/>
       <path id="CMSS17-6f" d="M 2829 1356 
C 2829 2176 2221 2816 1504 2816 
C 768 2816 173 2157 173 1356 
C 173 544 787 -64 1498 -64 
C 2227 -64 2829 563 2829 1356 
z
M 1504 337 
C 1050 337 659 709 659 1408 
C 659 2151 1114 2427 1498 2427 
C 1914 2427 2342 2126 2342 1408 
C 2342 683 1926 337 1504 337 
z
" transform="scale(0.015625)"/>
       <path id="CMSS17-72" d="M 954 1363 
C 954 1965 1395 2368 1958 2368 
L 1958 2789 
C 1549 2789 1165 2585 934 2253 
L 934 2758 
L 480 2758 
L 480 0 
L 954 0 
L 954 1363 
z
" transform="scale(0.015625)"/>
      </defs>
      <use xlink:href="#CMSS17-6e" transform="scale(0.996264)"/>
      <use xlink:href="#CMSS17-65" transform="translate(48.204943 0) scale(0.996264)"/>
      <use xlink:href="#CMSS17-77" transform="translate(89.843765 0) scale(0.996264)"/>
      <use xlink:href="#CMSS17-73" transform="translate(184.892423 0) scale(0.996264)"/>
      <use xlink:href="#CMSS17-63" transform="translate(220.805965 0) scale(0.996264)"/>
      <use xlink:href="#CMSS17-6f" transform="translate(262.444787 0) scale(0.996264)"/>
      <use xlink:href="#CMSS17-72" transform="translate(306.685957 0) scale(0.996264)"/>
      <use xlink:href="#CMSS17-65" transform="translate(338.595729 0) scale(0.996264)"/>
     </g>
    </g>
   </g>
  </g>
  <g id="axes_2">
   <g id="line2d_11">
    <path d="M 14.981575 111.090073 
L 16.181748 118.156881 
L 17.381922 119.189817 
L 18.582095 119.418139 
L 19.782268 119.605636 
L 20.982441 119.151593 
L 22.182614 118.339795 
L 23.382788 117.517924 
L 24.582961 116.754439 
L 25.783134 115.808863 
L 26.983307 114.884771 
L 28.18348 113.703169 
L 29.383654 112.295643 
L 31.784 109.162361 
L 32.984173 107.441214 
L 34.184346 105.564559 
L 35.384519 103.643524 
L 36.584693 101.446178 
L 37.784866 99.381979 
L 38.985039 97.004988 
L 40.185212 94.689376 
L 41.385385 92.355975 
L 42.585559 89.768647 
L 43.785732 87.354356 
L 44.985905 84.605584 
L 46.186078 82.061717 
L 47.386251 79.359488 
L 48.586425 76.671861 
L 49.786598 74.153486 
L 50.986771 71.38141 
L 52.186944 68.761239 
L 53.387117 66.157682 
L 54.58729 63.672338 
L 55.787464 61.295487 
L 56.987637 58.810028 
L 58.18781 56.435289 
L 59.387983 54.205296 
L 60.588156 51.898442 
L 61.78833 49.684868 
L 62.988503 47.434351 
L 64.188676 44.771628 
L 65.388849 39.958159 
L 66.589022 28.238927 
L 67.789196 27.172698 
L 68.989369 26.26554 
L 70.189542 25.254188 
L 71.389715 24.405888 
L 72.589888 23.658989 
L 73.790061 22.745782 
L 74.990235 22.484985 
L 76.190408 21.313872 
L 77.390581 20.700098 
L 78.590754 20.387681 
L 79.790927 19.511629 
L 80.991101 19.150885 
L 82.191274 18.893275 
L 83.391447 18.195327 
L 84.59162 17.987718 
L 85.791793 17.936729 
L 86.991967 17.325948 
L 88.19214 17.287049 
L 89.392313 17.324287 
L 90.592486 16.932986 
L 91.792659 17.338487 
L 92.992832 17.049587 
L 94.193006 17.409741 
L 95.393179 17.525192 
L 96.593352 17.876325 
L 97.793525 18.39375 
L 98.993698 18.916297 
L 100.193872 19.971106 
L 101.394045 21.417204 
L 102.594218 22.762617 
L 103.794391 25.023232 
L 104.994564 27.723434 
L 106.194738 31.432664 
L 107.394911 35.522989 
L 108.595084 39.861451 
L 109.795257 44.352404 
L 110.99543 48.8507 
L 112.195603 53.178631 
L 113.395777 57.152775 
L 114.59595 60.891034 
L 115.796123 64.004452 
L 116.996296 66.848497 
L 118.196469 69.46259 
L 119.396643 71.944892 
L 120.596816 74.048746 
L 121.796989 76.043683 
L 122.997162 78.098543 
L 124.197335 79.796505 
L 125.397509 81.503822 
L 126.597682 83.347645 
L 127.797855 84.620825 
L 128.998028 86.091054 
L 130.198201 87.71433 
L 131.398374 88.707123 
L 132.598548 89.76335 
L 133.798721 90.932199 
L 134.998894 92.215844 
L 136.199067 92.973486 
L 137.39924 93.75569 
L 138.599414 94.503547 
L 139.799587 95.235233 
L 140.99976 95.97474 
" clip-path="url(#p226eb2c602)" style="fill: none; stroke-dasharray: 5.55,2.4; stroke-dashoffset: 0; stroke: #8dd3c7; stroke-opacity: 0.3; stroke-width: 1.5"/>
   </g>
   <g id="line2d_12">
    <path d="M 14.981575 111.012962 
L 16.254486 108.406027 
L 17.527397 105.743139 
L 18.800308 103.112854 
L 20.073219 100.528199 
L 21.34613 98.001328 
L 22.619041 95.543505 
L 23.891952 93.164947 
L 25.164863 90.874661 
L 26.437774 88.680292 
L 27.710685 86.587991 
L 28.983596 84.602291 
L 30.256507 82.72602 
L 31.529418 80.960227 
L 32.802329 79.304137 
L 34.07524 77.755144 
L 35.348151 76.308822 
L 36.621062 74.958972 
L 37.893972 73.697702 
L 39.166883 72.515537 
L 40.439794 71.401553 
L 41.712705 70.343553 
L 42.985616 69.328254 
L 44.258527 68.341511 
L 45.531438 67.368558 
L 46.804349 66.394264 
L 48.07726 65.403411 
L 49.350171 64.380968 
L 50.623082 63.312387 
L 51.895993 62.183888 
L 53.168904 60.98274 
L 54.441815 59.697534 
L 55.714726 58.318442 
L 56.987637 56.837447 
L 58.260548 55.248546 
L 59.533459 53.547867 
L 60.80637 51.733426 
L 62.079281 49.77588 
L 63.352192 45.966566 
L 64.625103 42.220497 
L 65.898014 38.724918 
L 67.170924 35.501556 
L 68.443835 32.568354 
L 69.716746 29.939834 
L 70.989657 27.627012 
L 72.262568 25.637306 
L 73.535479 23.974467 
L 74.80839 22.638535 
L 76.081301 21.625687 
L 77.354212 20.925922 
L 78.627123 19.617069 
L 79.900034 17.572322 
L 81.172945 15.683564 
L 82.445856 13.978572 
L 83.718767 12.48147 
L 84.991678 11.214782 
L 86.264589 10.199306 
L 87.5375 9.453845 
L 88.810411 8.994954 
L 90.083322 8.8367 
L 91.356233 8.990472 
L 92.629144 9.464813 
L 93.902055 10.265303 
L 95.174966 11.394482 
L 96.447877 12.851819 
L 97.720787 14.633723 
L 98.993698 16.733592 
L 100.266609 19.141915 
L 101.53952 21.846401 
L 102.812431 24.832151 
L 104.085342 28.081857 
L 105.358253 31.57603 
L 106.631164 35.293237 
L 107.904075 39.210237 
L 109.176986 43.298984 
L 110.449897 44.303841 
L 111.722808 44.081741 
L 112.995719 43.678442 
L 114.26863 43.100436 
L 115.541541 42.355586 
L 116.814452 41.453375 
L 118.087363 40.404734 
L 119.360274 39.221819 
L 120.633185 37.917784 
L 121.906096 36.506534 
L 123.179007 35.0025 
L 124.451918 33.420402 
L 125.724829 31.775033 
L 126.997739 30.081051 
L 128.27065 28.352791 
L 129.543561 26.60409 
L 130.816472 24.848133 
L 132.089383 23.097321 
L 133.362294 21.36316 
L 134.635205 19.656174 
L 135.908116 17.985834 
L 137.181027 16.360518 
L 138.453938 14.787482 
L 139.726849 13.272859 
L 140.99976 11.821671 
" clip-path="url(#p226eb2c602)" style="fill: none; stroke: #fa8174; stroke-opacity: 0.3; stroke-width: 1.5; stroke-linecap: square"/>
   </g>
   <g id="PathCollection_2">
    <defs>
     <path id="mf8ce5fac52" d="M 0 3 
C 0.795609 3 1.55874 2.683901 2.12132 2.12132 
C 2.683901 1.55874 3 0.795609 3 0 
C 3 -0.795609 2.683901 -1.55874 2.12132 -2.12132 
C 1.55874 -2.683901 0.795609 -3 0 -3 
C -0.795609 -3 -1.55874 -2.683901 -2.12132 -2.12132 
C -2.683901 -1.55874 -3 -0.795609 -3 0 
C -3 0.795609 -2.683901 1.55874 -2.12132 2.12132 
C -1.55874 2.683901 -0.795609 3 0 3 
z
" style="stroke: #fa8174"/>
    </defs>
    <g clip-path="url(#p226eb2c602)">
     <use xlink:href="#mf8ce5fac52" x="14.981575" y="111.090073" style="fill: #fa8174; stroke: #fa8174"/>
     <use xlink:href="#mf8ce5fac52" x="77.990668" y="20.700098" style="fill: #fa8174; stroke: #fa8174"/>
     <use xlink:href="#mf8ce5fac52" x="109.495214" y="44.352404" style="fill: #fa8174; stroke: #fa8174"/>
     <use xlink:href="#mf8ce5fac52" x="62.160518" y="49.684868" style="fill: #fa8174; stroke: #fa8174"/>
    </g>
   </g>
  </g>
 </g>
 <defs>
  <clipPath id="p226eb2c602">
   <rect x="14.981575" y="3.298253" width="126.018185" height="121.84583"/>
  </clipPath>
 </defs>
</svg>
