<?xml version="1.0" encoding="utf-8" standalone="no"?>
<!DOCTYPE svg PUBLIC "-//W3C//DTD SVG 1.1//EN"
  "http://www.w3.org/Graphics/SVG/1.1/DTD/svg11.dtd">
<svg xmlns:xlink="http://www.w3.org/1999/xlink" width="144pt" height="144pt" viewBox="0 0 144 144" xmlns="http://www.w3.org/2000/svg" version="1.1">
 <metadata>
  <rdf:RDF xmlns:dc="http://purl.org/dc/elements/1.1/" xmlns:cc="http://creativecommons.org/ns#" xmlns:rdf="http://www.w3.org/1999/02/22-rdf-syntax-ns#">
   <cc:Work>
    <dc:type rdf:resource="http://purl.org/dc/dcmitype/StillImage"/>
    <dc:date>2025-06-27T07:44:39.454168</dc:date>
    <dc:format>image/svg+xml</dc:format>
    <dc:creator>
     <cc:Agent>
      <dc:title>Matplotlib v3.10.1, https://matplotlib.org/</dc:title>
     </cc:Agent>
    </dc:creator>
   </cc:Work>
  </rdf:RDF>
 </metadata>
 <defs>
  <style type="text/css">*{stroke-linejoin: round; stroke-linecap: butt}</style>
 </defs>
 <g id="figure_1">
  <g id="patch_1">
   <path d="M 0 144 
L 144 144 
L 144 0 
L 0 0 
L 0 144 
z
" style="fill: none"/>
  </g>
  <g id="axes_1">
   <g id="patch_2">
    <path d="M 24.944246 125.144083 
L 140.99976 125.144083 
L 140.99976 3.00024 
L 24.944246 3.00024 
L 24.944246 125.144083 
z
" style="fill: none"/>
   </g>
   <g id="FillBetweenPolyCollection_1">
    <defs>
     <path id="mbb6518636d" d="M 24.944246 -31.485379 
L 24.944246 -31.329097 
L 26.116524 -27.989827 
L 27.288802 -24.718954 
L 28.46108 -21.60904 
L 29.633357 -18.675519 
L 30.805635 -15.932871 
L 31.977913 -13.394661 
L 33.150191 -11.073476 
L 34.322469 -8.98085 
L 35.494747 -7.12721 
L 36.667025 -5.521822 
L 37.839303 -4.17276 
L 39.011581 -3.086875 
L 40.183859 -2.269783 
L 41.356137 -1.725857 
L 42.528415 -1.458234 
L 43.700693 -1.468819 
L 44.87297 -1.758305 
L 46.045248 -2.326188 
L 47.217526 -3.170791 
L 48.389804 -4.289284 
L 49.562082 -5.677705 
L 50.73436 -7.33098 
L 51.906638 -9.242942 
L 53.078916 -11.406341 
L 54.251194 -13.812859 
L 55.423472 -16.453114 
L 56.59575 -19.316665 
L 57.768028 -22.392014 
L 58.940305 -25.666609 
L 60.112583 -29.126842 
L 61.284861 -32.758055 
L 62.457139 -36.544543 
L 63.629417 -40.469572 
L 64.801695 -44.515392 
L 65.973973 -48.663268 
L 67.146251 -52.893522 
L 68.318529 -57.185581 
L 69.490807 -61.518047 
L 70.663085 -65.868772 
L 71.835363 -70.214963 
L 73.007641 -74.533285 
L 74.179918 -78.799997 
L 75.352196 -82.99109 
L 76.524474 -87.082446 
L 77.696752 -91.05001 
L 78.86903 -94.869965 
L 80.041308 -98.518912 
L 81.213586 -101.974007 
L 82.385864 -105.212357 
L 83.558142 -105.458248 
L 84.73042 -102.899636 
L 85.902698 -100.376759 
L 87.074976 -97.913464 
L 88.247254 -95.532152 
L 89.419531 -93.254353 
L 90.591809 -91.100571 
L 91.764087 -89.090081 
L 92.936365 -87.240729 
L 94.108643 -85.568754 
L 95.280921 -84.08862 
L 96.453199 -82.81287 
L 97.625477 -81.752005 
L 98.797755 -80.914388 
L 99.970033 -80.306176 
L 101.142311 -79.931277 
L 102.314589 -79.79134 
L 103.486867 -79.885768 
L 104.659144 -80.211764 
L 105.831422 -80.764404 
L 107.0037 -81.53673 
L 108.175978 -82.519872 
L 109.348256 -83.703172 
L 110.520534 -85.074248 
L 111.692812 -86.616642 
L 112.86509 -84.023278 
L 114.037368 -79.934541 
L 115.209646 -75.777825 
L 116.381924 -71.577787 
L 117.554202 -67.358108 
L 118.726479 -63.141633 
L 119.898757 -58.950221 
L 121.071035 -54.804573 
L 122.243313 -50.724087 
L 123.415591 -46.726719 
L 124.587869 -42.828871 
L 125.760147 -39.045305 
L 126.932425 -35.389078 
L 128.104703 -31.871492 
L 129.276981 -28.502082 
L 130.449259 -25.288616 
L 131.621537 -22.237119 
L 132.793815 -19.351914 
L 133.966092 -16.63569 
L 135.13837 -14.089577 
L 136.310648 -11.713241 
L 137.482926 -9.504991 
L 138.655204 -7.461899 
L 139.827482 -5.579917 
L 140.99976 -3.854019 
L 140.99976 -136.573596 
L 140.99976 -136.573596 
L 139.827482 -135.321937 
L 138.655204 -133.96791 
L 137.482926 -132.510341 
L 136.310648 -130.949043 
L 135.13837 -129.284904 
L 133.966092 -127.519971 
L 132.793815 -125.657519 
L 131.621537 -123.702105 
L 130.449259 -121.659608 
L 129.276981 -119.537251 
L 128.104703 -117.343603 
L 126.932425 -115.088566 
L 125.760147 -112.783329 
L 124.587869 -110.440319 
L 123.415591 -108.073113 
L 122.243313 -105.696338 
L 121.071035 -103.325553 
L 119.898757 -100.977104 
L 118.726479 -98.667966 
L 117.554202 -96.415568 
L 116.381924 -94.237611 
L 115.209646 -92.151868 
L 114.037368 -90.176019 
L 112.86509 -88.327785 
L 111.692812 -88.026692 
L 110.520534 -91.904332 
L 109.348256 -95.643946 
L 108.175978 -99.218533 
L 107.0037 -102.604357 
L 105.831422 -105.77866 
L 104.659144 -108.719789 
L 103.486867 -111.407408 
L 102.314589 -113.822708 
L 101.142311 -115.948602 
L 99.970033 -117.769909 
L 98.797755 -119.273508 
L 97.625477 -120.448483 
L 96.453199 -121.286225 
L 95.280921 -121.780529 
L 94.108643 -121.927644 
L 92.936365 -121.72631 
L 91.764087 -121.177755 
L 90.591809 -120.285676 
L 89.419531 -119.056183 
L 88.247254 -117.497723 
L 87.074976 -115.620984 
L 85.902698 -113.438781 
L 84.73042 -110.965971 
L 83.558142 -108.220104 
L 82.385864 -108.036413 
L 81.213586 -110.599187 
L 80.041308 -113.13041 
L 78.86903 -115.606264 
L 77.696752 -118.004366 
L 76.524474 -120.303149 
L 75.352196 -122.481984 
L 74.179918 -124.521319 
L 73.007641 -126.402824 
L 71.835363 -128.109508 
L 70.663085 -129.625818 
L 69.490807 -130.937717 
L 68.318529 -132.03275 
L 67.146251 -132.900075 
L 65.973973 -133.530488 
L 64.801695 -133.916424 
L 63.629417 -134.051944 
L 62.457139 -133.932706 
L 61.284861 -133.555928 
L 60.112583 -132.920336 
L 58.940305 -132.026106 
L 57.768028 -130.874804 
L 56.59575 -129.469313 
L 55.423472 -127.813767 
L 54.251194 -125.913481 
L 53.078916 -123.774884 
L 51.906638 -121.405448 
L 50.73436 -118.813628 
L 49.562082 -116.0088 
L 48.389804 -113.001202 
L 47.217526 -109.801885 
L 46.045248 -106.422654 
L 44.87297 -102.876024 
L 43.700693 -99.17517 
L 42.528415 -95.333874 
L 41.356137 -91.36648 
L 40.183859 -87.287836 
L 39.011581 -83.113243 
L 37.839303 -78.858391 
L 36.667025 -74.539292 
L 35.494747 -70.172212 
L 34.322469 -65.773591 
L 33.150191 -61.359958 
L 31.977913 -56.947845 
L 30.805635 -52.553685 
L 29.633357 -48.193722 
L 28.46108 -43.883902 
L 27.288802 -39.639792 
L 26.116524 -35.476607 
L 24.944246 -31.485379 
z
" style="stroke: #fa8174; stroke-opacity: 0.3"/>
    </defs>
    <g clip-path="url(#p095fb999c1)">
     <use xlink:href="#mbb6518636d" x="0" y="144" style="fill: #fa8174; fill-opacity: 0.3; stroke: #fa8174; stroke-opacity: 0.3"/>
    </g>
   </g>
   <g id="matplotlib.axis_1">
    <g id="xtick_1">
     <g id="line2d_1">
      <defs>
       <path id="m42ac7fd932" d="M 0 0 
L 0 3.5 
" style="stroke: #ffffff; stroke-width: 0.8"/>
      </defs>
      <g>
       <use xlink:href="#m42ac7fd932" x="66.945289" y="125.144083" style="fill: #ffffff; stroke: #ffffff; stroke-width: 0.8"/>
      </g>
     </g>
     <g id="text_1">
      <!-- $\mathdefault{0}$ -->
      <g style="fill: #ffffff" transform="translate(64.454621 139.062582) scale(0.1 -0.1)">
       <defs>
        <path id="CMR17-30" d="M 2688 2025 
C 2688 2416 2682 3080 2413 3591 
C 2176 4039 1798 4198 1466 4198 
C 1158 4198 768 4058 525 3597 
C 269 3118 243 2524 243 2025 
C 243 1661 250 1106 448 619 
C 723 -39 1216 -128 1466 -128 
C 1760 -128 2208 -7 2470 600 
C 2662 1042 2688 1559 2688 2025 
z
M 1466 -26 
C 1056 -26 813 325 723 812 
C 653 1188 653 1738 653 2096 
C 653 2588 653 2997 736 3387 
C 858 3929 1216 4096 1466 4096 
C 1728 4096 2067 3923 2189 3400 
C 2272 3036 2278 2607 2278 2096 
C 2278 1680 2278 1169 2202 792 
C 2067 95 1690 -26 1466 -26 
z
" transform="scale(0.015625)"/>
       </defs>
       <use xlink:href="#CMR17-30" transform="scale(0.996264)"/>
      </g>
     </g>
    </g>
    <g id="xtick_2">
     <g id="line2d_2">
      <g>
       <use xlink:href="#m42ac7fd932" x="111.156913" y="125.144083" style="fill: #ffffff; stroke: #ffffff; stroke-width: 0.8"/>
      </g>
     </g>
     <g id="text_2">
      <!-- $\mathdefault{10}$ -->
      <g style="fill: #ffffff" transform="translate(106.175578 139.062582) scale(0.1 -0.1)">
       <defs>
        <path id="CMR17-31" d="M 1702 4058 
C 1702 4192 1696 4192 1606 4192 
C 1357 3916 979 3827 621 3827 
C 602 3827 570 3827 563 3808 
C 557 3795 557 3782 557 3648 
C 755 3648 1088 3686 1344 3839 
L 1344 461 
C 1344 236 1331 160 781 160 
L 589 160 
L 589 0 
C 896 0 1216 0 1523 0 
C 1830 0 2150 0 2458 0 
L 2458 160 
L 2266 160 
C 1715 160 1702 230 1702 458 
L 1702 4058 
z
" transform="scale(0.015625)"/>
       </defs>
       <use xlink:href="#CMR17-31" transform="scale(0.996264)"/>
       <use xlink:href="#CMR17-30" transform="translate(45.690477 0) scale(0.996264)"/>
      </g>
     </g>
    </g>
   </g>
   <g id="matplotlib.axis_2">
    <g id="ytick_1">
     <g id="line2d_3">
      <defs>
       <path id="me7cb1761f9" d="M 0 0 
L -3.5 0 
" style="stroke: #ffffff; stroke-width: 0.8"/>
      </defs>
      <g>
       <use xlink:href="#me7cb1761f9" x="24.944246" y="111.572545" style="fill: #ffffff; stroke: #ffffff; stroke-width: 0.8"/>
      </g>
     </g>
     <g id="text_3">
      <!-- $\mathdefault{0}$ -->
      <g style="fill: #ffffff" transform="translate(12.962911 115.031794) scale(0.1 -0.1)">
       <use xlink:href="#CMR17-30" transform="scale(0.996264)"/>
      </g>
     </g>
    </g>
    <g id="ytick_2">
     <g id="line2d_4">
      <g>
       <use xlink:href="#me7cb1761f9" x="24.944246" y="77.6437" style="fill: #ffffff; stroke: #ffffff; stroke-width: 0.8"/>
      </g>
     </g>
     <g id="text_4">
      <!-- $\mathdefault{50}$ -->
      <g style="fill: #ffffff" transform="translate(7.981575 81.102949) scale(0.1 -0.1)">
       <defs>
        <path id="CMR17-35" d="M 730 3692 
C 794 3666 1056 3584 1325 3584 
C 1920 3584 2246 3911 2432 4100 
C 2432 4157 2432 4192 2394 4192 
C 2387 4192 2374 4192 2323 4163 
C 2099 4058 1837 3973 1517 3973 
C 1325 3973 1037 3999 723 4139 
C 653 4171 640 4171 634 4171 
C 602 4171 595 4164 595 4037 
L 595 2203 
C 595 2089 595 2057 659 2057 
C 691 2057 704 2070 736 2114 
C 941 2401 1222 2522 1542 2522 
C 1766 2522 2246 2382 2246 1289 
C 2246 1085 2246 715 2054 421 
C 1894 159 1645 25 1370 25 
C 947 25 518 320 403 814 
C 429 807 480 795 506 795 
C 589 795 749 840 749 1038 
C 749 1210 627 1280 506 1280 
C 358 1280 262 1190 262 1011 
C 262 454 704 -128 1382 -128 
C 2042 -128 2669 440 2669 1264 
C 2669 2030 2170 2624 1549 2624 
C 1222 2624 947 2503 730 2274 
L 730 3692 
z
" transform="scale(0.015625)"/>
       </defs>
       <use xlink:href="#CMR17-35" transform="scale(0.996264)"/>
       <use xlink:href="#CMR17-30" transform="translate(45.690477 0) scale(0.996264)"/>
      </g>
     </g>
    </g>
    <g id="ytick_3">
     <g id="line2d_5">
      <g>
       <use xlink:href="#me7cb1761f9" x="24.944246" y="43.714854" style="fill: #ffffff; stroke: #ffffff; stroke-width: 0.8"/>
      </g>
     </g>
     <g id="text_5">
      <!-- $\mathdefault{100}$ -->
      <g style="fill: #ffffff" transform="translate(3.00024 47.174104) scale(0.1 -0.1)">
       <use xlink:href="#CMR17-31" transform="scale(0.996264)"/>
       <use xlink:href="#CMR17-30" transform="translate(45.690477 0) scale(0.996264)"/>
       <use xlink:href="#CMR17-30" transform="translate(91.380954 0) scale(0.996264)"/>
      </g>
     </g>
    </g>
    <g id="ytick_4">
     <g id="line2d_6">
      <g>
       <use xlink:href="#me7cb1761f9" x="24.944246" y="9.786009" style="fill: #ffffff; stroke: #ffffff; stroke-width: 0.8"/>
      </g>
     </g>
     <g id="text_6">
      <!-- $\mathdefault{150}$ -->
      <g style="fill: #ffffff" transform="translate(3.00024 13.245258) scale(0.1 -0.1)">
       <use xlink:href="#CMR17-31" transform="scale(0.996264)"/>
       <use xlink:href="#CMR17-35" transform="translate(45.690477 0) scale(0.996264)"/>
       <use xlink:href="#CMR17-30" transform="translate(91.380954 0) scale(0.996264)"/>
      </g>
     </g>
    </g>
   </g>
   <g id="line2d_7">
    <path d="M 24.944246 112.592802 
L 26.049536 118.482975 
L 27.154827 119.343926 
L 28.260118 119.534231 
L 29.365408 119.69051 
L 30.470699 119.312066 
L 31.575989 118.635433 
L 32.68128 117.950406 
L 33.786571 117.314042 
L 34.891861 116.525906 
L 35.997152 115.755677 
L 37.102442 114.770814 
L 38.207733 113.597643 
L 40.418314 110.986057 
L 41.523605 109.551483 
L 42.628896 107.987295 
L 43.734186 106.386116 
L 44.839477 104.554631 
L 45.944767 102.834124 
L 47.050058 100.852906 
L 48.155349 98.922847 
L 49.260639 96.977962 
L 50.36593 94.821428 
L 51.47122 92.80912 
L 52.576511 90.518023 
L 53.681802 88.397714 
L 54.787092 86.14541 
L 55.892383 83.905277 
L 56.997673 81.806216 
L 58.102964 79.495695 
L 59.208255 77.311787 
L 60.313545 75.141726 
L 61.418836 73.070196 
L 62.524127 71.089094 
L 63.629417 69.017469 
L 64.734708 67.038127 
L 65.839998 65.179432 
L 66.945289 63.256672 
L 68.05058 61.411662 
L 69.15587 59.53586 
L 70.261161 57.316485 
L 71.366451 53.304466 
L 72.471742 43.536505 
L 73.577033 42.647805 
L 74.682323 41.89169 
L 75.787614 41.04873 
L 76.892905 40.341673 
L 77.998195 39.719134 
L 79.103486 38.957977 
L 80.208776 38.740604 
L 81.314067 37.764482 
L 82.419358 37.252903 
L 83.524648 36.992504 
L 84.629939 36.262316 
L 85.735229 35.961636 
L 86.84052 35.746919 
L 87.945811 35.16518 
L 89.051101 34.992139 
L 90.156392 34.949639 
L 91.261682 34.440554 
L 92.366973 34.408132 
L 93.472264 34.43917 
L 94.577554 34.113021 
L 95.682845 34.451006 
L 96.788136 34.210208 
L 97.893426 34.510395 
L 98.998717 34.606624 
L 100.104007 34.899293 
L 101.209298 35.330566 
L 102.314589 35.766107 
L 103.419879 36.645289 
L 104.52517 37.85061 
L 105.63046 38.972009 
L 106.735751 40.856228 
L 107.841042 43.106842 
L 108.946332 46.19848 
L 110.051623 49.607759 
L 111.156913 53.22386 
L 112.262204 56.967062 
L 113.367495 60.716384 
L 114.472785 64.323708 
L 115.578076 67.636151 
L 116.683367 70.751984 
L 117.788657 73.347013 
L 118.893948 75.717519 
L 119.999238 77.896361 
L 121.104529 79.965357 
L 122.20982 81.718915 
L 123.31511 83.381692 
L 124.420401 85.094414 
L 125.525691 86.509663 
L 126.630982 87.932709 
L 127.736273 89.469533 
L 128.841563 90.530726 
L 129.946854 91.75616 
L 131.052144 93.109157 
L 132.157435 93.936649 
L 133.262726 94.817013 
L 134.368016 95.791246 
L 135.473307 96.861162 
L 136.578598 97.492656 
L 137.683888 98.144621 
L 138.789179 98.767959 
L 139.894469 99.377818 
L 140.99976 99.994197 
" clip-path="url(#p095fb999c1)" style="fill: none; stroke-dasharray: 5.55,2.4; stroke-dashoffset: 0; stroke: #8dd3c7; stroke-opacity: 0.3; stroke-width: 1.5"/>
   </g>
   <g id="line2d_8">
    <path d="M 24.944246 112.592762 
L 26.116524 112.266783 
L 27.288802 111.820627 
L 28.46108 111.253529 
L 29.633357 110.56538 
L 30.805635 109.756722 
L 31.977913 108.828747 
L 33.150191 107.783283 
L 34.322469 106.62278 
L 35.494747 105.350289 
L 36.667025 103.969443 
L 37.839303 102.484425 
L 39.011581 100.899941 
L 40.183859 99.221191 
L 41.356137 97.453832 
L 42.528415 95.603946 
L 43.700693 93.678006 
L 44.87297 91.682835 
L 46.045248 89.625579 
L 47.217526 87.513662 
L 48.389804 85.354757 
L 49.562082 83.156748 
L 50.73436 80.927696 
L 51.906638 78.675805 
L 53.078916 76.409387 
L 54.251194 74.13683 
L 55.423472 71.86656 
L 56.59575 69.607011 
L 57.768028 67.366591 
L 58.940305 65.153642 
L 60.112583 62.976411 
L 61.284861 60.843009 
L 62.457139 58.761375 
L 63.629417 56.739242 
L 64.801695 54.784092 
L 65.973973 52.903122 
L 67.146251 51.103201 
L 68.318529 49.390834 
L 69.490807 47.772118 
L 70.663085 46.252705 
L 71.835363 44.837764 
L 73.007641 43.531945 
L 74.179918 42.339342 
L 75.352196 41.263463 
L 76.524474 40.307202 
L 77.696752 39.472812 
L 78.86903 38.761886 
L 80.041308 38.175339 
L 81.213586 37.713403 
L 82.385864 37.375615 
L 83.558142 37.160824 
L 84.73042 37.067196 
L 85.902698 37.09223 
L 87.074976 37.232776 
L 88.247254 37.485063 
L 89.419531 37.844732 
L 90.591809 38.306876 
L 91.764087 38.866082 
L 92.936365 39.516481 
L 94.108643 40.251801 
L 95.280921 41.065425 
L 96.453199 41.950452 
L 97.625477 42.899756 
L 98.797755 43.906052 
L 99.970033 44.961958 
L 101.142311 46.06006 
L 102.314589 47.192976 
L 103.486867 48.353412 
L 104.659144 49.534224 
L 105.831422 50.728468 
L 107.0037 51.929456 
L 108.175978 53.130798 
L 109.348256 54.326441 
L 110.520534 55.51071 
L 111.692812 56.678333 
L 112.86509 57.824468 
L 114.037368 58.94472 
L 115.209646 60.035154 
L 116.381924 61.092301 
L 117.554202 62.113162 
L 118.726479 63.0952 
L 119.898757 64.036338 
L 121.071035 64.934937 
L 122.243313 65.789787 
L 123.415591 66.600084 
L 124.587869 67.365405 
L 125.760147 68.085683 
L 126.932425 68.761178 
L 128.104703 69.392452 
L 129.276981 69.980334 
L 130.449259 70.525888 
L 131.621537 71.030388 
L 132.793815 71.495283 
L 133.966092 71.922169 
L 135.13837 72.31276 
L 136.310648 72.668858 
L 137.482926 72.992334 
L 138.655204 73.285096 
L 139.827482 73.549073 
L 140.99976 73.786192 
" clip-path="url(#p095fb999c1)" style="fill: none; stroke: #fa8174; stroke-width: 1.5; stroke-linecap: square"/>
   </g>
   <g id="patch_3">
    <path d="M 24.944246 125.144083 
L 24.944246 3.00024 
" style="fill: none; stroke: #ffffff; stroke-width: 0.8; stroke-linejoin: miter; stroke-linecap: square"/>
   </g>
   <g id="patch_4">
    <path d="M 140.99976 125.144083 
L 140.99976 3.00024 
" style="fill: none; stroke: #ffffff; stroke-width: 0.8; stroke-linejoin: miter; stroke-linecap: square"/>
   </g>
   <g id="patch_5">
    <path d="M 24.944246 125.144083 
L 140.99976 125.144083 
" style="fill: none; stroke: #ffffff; stroke-width: 0.8; stroke-linejoin: miter; stroke-linecap: square"/>
   </g>
   <g id="patch_6">
    <path d="M 24.944246 3.00024 
L 140.99976 3.00024 
" style="fill: none; stroke: #ffffff; stroke-width: 0.8; stroke-linejoin: miter; stroke-linecap: square"/>
   </g>
   <g id="PathCollection_1">
    <defs>
     <path id="m4e46df708b" d="M 0 3 
C 0.795609 3 1.55874 2.683901 2.12132 2.12132 
C 2.683901 1.55874 3 0.795609 3 0 
C 3 -0.795609 2.683901 -1.55874 2.12132 -2.12132 
C 1.55874 -2.683901 0.795609 -3 0 -3 
C -0.795609 -3 -1.55874 -2.683901 -2.12132 -2.12132 
C -2.683901 -1.55874 -3 -0.795609 -3 0 
C -3 0.795609 -2.683901 1.55874 -2.12132 2.12132 
C -1.55874 2.683901 -0.795609 3 0 3 
z
" style="stroke: #fa8174"/>
    </defs>
    <g clip-path="url(#p095fb999c1)">
     <use xlink:href="#m4e46df708b" x="24.944246" y="112.592802" style="fill: #fa8174; stroke: #fa8174"/>
     <use xlink:href="#m4e46df708b" x="82.972003" y="37.252903" style="fill: #fa8174; stroke: #fa8174"/>
     <use xlink:href="#m4e46df708b" x="111.985881" y="56.967062" style="fill: #fa8174; stroke: #fa8174"/>
    </g>
   </g>
   <g id="legend_1">
    <g id="patch_7">
     <path d="M 54.407988 120.144083 
L 111.536018 120.144083 
Q 113.536018 120.144083 113.536018 118.144083 
L 113.536018 105.206905 
Q 113.536018 103.206905 111.536018 103.206905 
L 54.407988 103.206905 
Q 52.407988 103.206905 52.407988 105.206905 
L 52.407988 118.144083 
Q 52.407988 120.144083 54.407988 120.144083 
z
" style="opacity: 0.8; stroke: #cccccc; stroke-linejoin: miter"/>
    </g>
    <g id="line2d_9">
     <path d="M 56.407988 110.706905 
L 66.407988 110.706905 
L 76.407988 110.706905 
" style="fill: none; stroke: #fa8174; stroke-width: 1.5; stroke-linecap: square"/>
    </g>
    <g id="text_7">
     <!-- model -->
     <g style="fill: #ffffff" transform="translate(84.407988 114.206905) scale(0.1 -0.1)">
      <defs>
       <path id="CMSS17-6d" d="M 4288 1877 
C 4288 2308 4179 2816 3462 2816 
C 2982 2816 2694 2516 2566 2331 
C 2451 2670 2182 2816 1798 2816 
C 1363 2816 1088 2568 941 2389 
L 941 2758 
L 474 2758 
L 474 0 
L 960 0 
L 960 1559 
C 960 1939 1101 2428 1555 2428 
C 2138 2428 2138 2016 2138 1829 
L 2138 0 
L 2624 0 
L 2624 1559 
C 2624 1939 2765 2428 3219 2428 
C 3802 2428 3802 2016 3802 1829 
L 3802 0 
L 4288 0 
L 4288 1877 
z
" transform="scale(0.015625)"/>
       <path id="CMSS17-6f" d="M 2829 1356 
C 2829 2176 2221 2816 1504 2816 
C 768 2816 173 2157 173 1356 
C 173 544 787 -64 1498 -64 
C 2227 -64 2829 563 2829 1356 
z
M 1504 337 
C 1050 337 659 709 659 1408 
C 659 2151 1114 2427 1498 2427 
C 1914 2427 2342 2126 2342 1408 
C 2342 683 1926 337 1504 337 
z
" transform="scale(0.015625)"/>
       <path id="CMSS17-64" d="M 2611 4416 
L 2138 4416 
L 2138 2438 
C 1939 2603 1613 2756 1254 2756 
C 672 2756 211 2131 211 1347 
C 211 562 666 -64 1235 -64 
C 1677 -64 1971 172 2125 306 
L 2125 -13 
L 2611 -13 
L 2611 4416 
z
M 2125 836 
C 2125 747 2125 653 1926 482 
C 1798 375 1645 325 1498 325 
C 1152 325 698 576 698 1340 
C 698 2134 1210 2368 1562 2368 
C 1798 2368 1990 2254 2125 2065 
L 2125 836 
z
" transform="scale(0.015625)"/>
       <path id="CMSS17-65" d="M 2502 1377 
C 2502 1590 2490 2003 2285 2345 
C 2061 2713 1696 2816 1421 2816 
C 755 2816 192 2188 192 1375 
C 192 582 774 -64 1510 -64 
C 1798 -64 2150 19 2470 248 
C 2470 274 2458 414 2451 420 
C 2451 433 2432 630 2432 656 
C 2125 407 1773 325 1517 325 
C 1107 325 666 667 646 1377 
L 2502 1377 
z
M 698 1728 
C 781 2084 1062 2421 1421 2421 
C 1517 2421 1965 2421 2080 1728 
L 698 1728 
z
" transform="scale(0.015625)"/>
       <path id="CMSS17-6c" d="M 947 4416 
L 474 4416 
L 474 0 
L 947 0 
L 947 4416 
z
" transform="scale(0.015625)"/>
      </defs>
      <use xlink:href="#CMSS17-6d" transform="scale(0.996264)"/>
      <use xlink:href="#CMSS17-6f" transform="translate(74.229254 0) scale(0.996264)"/>
      <use xlink:href="#CMSS17-64" transform="translate(123.675317 0) scale(0.996264)"/>
      <use xlink:href="#CMSS17-65" transform="translate(171.88026 0) scale(0.996264)"/>
      <use xlink:href="#CMSS17-6c" transform="translate(213.519082 0) scale(0.996264)"/>
     </g>
    </g>
   </g>
  </g>
 </g>
 <defs>
  <clipPath id="p095fb999c1">
   <rect x="24.944246" y="3.00024" width="116.055514" height="122.143843"/>
  </clipPath>
 </defs>
</svg>
