<?xml version="1.0" encoding="utf-8" standalone="no"?>
<!DOCTYPE svg PUBLIC "-//W3C//DTD SVG 1.1//EN"
  "http://www.w3.org/Graphics/SVG/1.1/DTD/svg11.dtd">
<svg xmlns:xlink="http://www.w3.org/1999/xlink" width="144pt" height="144pt" viewBox="0 0 144 144" xmlns="http://www.w3.org/2000/svg" version="1.1">
 <metadata>
  <rdf:RDF xmlns:dc="http://purl.org/dc/elements/1.1/" xmlns:cc="http://creativecommons.org/ns#" xmlns:rdf="http://www.w3.org/1999/02/22-rdf-syntax-ns#">
   <cc:Work>
    <dc:type rdf:resource="http://purl.org/dc/dcmitype/StillImage"/>
    <dc:date>2025-06-27T07:44:40.179217</dc:date>
    <dc:format>image/svg+xml</dc:format>
    <dc:creator>
     <cc:Agent>
      <dc:title>Matplotlib v3.10.1, https://matplotlib.org/</dc:title>
     </cc:Agent>
    </dc:creator>
   </cc:Work>
  </rdf:RDF>
 </metadata>
 <defs>
  <style type="text/css">*{stroke-linejoin: round; stroke-linecap: butt}</style>
 </defs>
 <g id="figure_1">
  <g id="patch_1">
   <path d="M 0 144 
L 144 144 
L 144 0 
L 0 0 
L 0 144 
z
" style="fill: none"/>
  </g>
  <g id="axes_1">
   <g id="patch_2">
    <path d="M 14.981575 125.144083 
L 140.99976 125.144083 
L 140.99976 3.00024 
L 14.981575 3.00024 
L 14.981575 125.144083 
z
" style="fill: none"/>
   </g>
   <g id="line2d_1">
    <path d="M 14.981575 119.59209 
L 16.254486 119.59209 
L 17.527397 119.59209 
L 18.800308 119.59209 
L 20.073219 119.59209 
L 21.34613 119.59209 
L 22.619041 119.59209 
L 23.891952 119.59209 
L 25.164863 119.592037 
L 26.437774 119.591102 
L 27.710685 119.583674 
L 28.983596 119.549416 
L 30.256507 119.440734 
L 31.529418 119.176247 
L 32.802329 118.645395 
L 34.07524 117.722137 
L 35.348151 116.282021 
L 36.621062 114.217463 
L 37.893972 111.448586 
L 39.166883 107.929105 
L 40.439794 103.648015 
L 41.712705 98.628267 
L 42.985616 92.923577 
L 44.258527 86.614253 
L 45.531438 79.802676 
L 46.804349 72.608829 
L 48.07726 65.166072 
L 49.350171 57.617286 
L 50.623082 50.111388 
L 51.895993 42.800222 
L 53.168904 35.83578 
L 54.441815 29.367719 
L 55.714726 23.541135 
L 56.987637 18.494573 
L 58.260548 14.358229 
L 59.533459 11.252352 
L 60.80637 9.285825 
L 62.079281 8.554926 
L 63.352192 9.142273 
L 64.625103 11.115959 
L 65.898014 14.528893 
L 67.170924 19.418344 
L 68.443835 25.805719 
L 69.716746 33.696564 
L 70.989657 43.080821 
L 72.262568 53.933328 
L 73.535479 66.214576 
L 74.80839 79.871669 
L 76.081301 94.839209 
L 77.354212 111.034868 
L 78.627123 107.247071 
L 79.900034 85.264998 
L 81.172945 66.824146 
L 82.445856 51.904873 
L 83.718767 40.454093 
L 84.991678 32.388608 
L 86.264589 27.59245 
L 87.5375 25.913298 
L 88.810411 27.158066 
L 90.083322 31.087465 
L 91.356233 37.409223 
L 92.629144 45.769702 
L 93.902055 55.74376 
L 95.174966 66.823253 
L 96.447877 78.406021 
L 97.720787 89.790569 
L 98.993698 100.189247 
L 100.266609 108.787545 
L 101.53952 114.899213 
L 102.812431 118.268969 
L 104.085342 119.43229 
L 105.358253 119.589421 
L 106.631164 119.59209 
L 107.904075 119.59209 
L 109.176986 119.59209 
L 110.449897 119.59209 
L 111.722808 119.59209 
L 112.995719 119.59209 
L 114.26863 119.59149 
L 115.541541 119.57009 
L 116.814452 119.414753 
L 118.087363 118.903746 
L 119.360274 117.808412 
L 120.633185 115.97766 
L 121.906096 113.355002 
L 123.179007 109.959577 
L 124.451918 105.86014 
L 125.724829 101.153456 
L 126.997739 95.949106 
L 128.27065 90.359615 
L 129.543561 84.494329 
L 130.816472 78.455764 
L 132.089383 72.337527 
L 133.362294 66.223243 
L 134.635205 60.18612 
L 135.908116 54.288933 
L 137.181027 48.584278 
L 138.453938 43.115021 
L 139.726849 37.914868 
L 140.99976 33.009035 
" clip-path="url(#p4b8069de34)" style="fill: none; stroke: #81b1d2; stroke-width: 1.5; stroke-linecap: square"/>
   </g>
   <g id="FillBetweenPolyCollection_1">
    <defs>
     <path id="me950797ae6" d="M 14.981575 -24.40791 
L 14.981575 -24.40791 
L 16.254486 -24.40791 
L 17.527397 -24.40791 
L 18.800308 -24.40791 
L 20.073219 -24.40791 
L 21.34613 -24.40791 
L 22.619041 -24.40791 
L 23.891952 -24.40791 
L 25.164863 -24.407963 
L 26.437774 -24.408898 
L 27.710685 -24.416326 
L 28.983596 -24.450584 
L 30.256507 -24.559266 
L 31.529418 -24.823753 
L 32.802329 -25.354605 
L 34.07524 -26.277863 
L 35.348151 -27.717979 
L 36.621062 -29.782537 
L 37.893972 -32.551414 
L 39.166883 -36.070895 
L 40.439794 -40.351985 
L 41.712705 -45.371733 
L 42.985616 -51.076423 
L 44.258527 -57.385747 
L 45.531438 -64.197324 
L 46.804349 -71.391171 
L 48.07726 -78.833928 
L 49.350171 -86.382714 
L 50.623082 -93.888612 
L 51.895993 -101.199778 
L 53.168904 -108.16422 
L 54.441815 -114.632281 
L 55.714726 -120.458865 
L 56.987637 -125.505427 
L 58.260548 -129.641771 
L 59.533459 -132.747648 
L 60.80637 -134.714175 
L 62.079281 -135.445074 
L 63.352192 -134.857727 
L 64.625103 -132.884041 
L 65.898014 -129.471107 
L 67.170924 -124.581656 
L 68.443835 -118.194281 
L 69.716746 -110.303436 
L 70.989657 -100.919179 
L 72.262568 -90.066672 
L 73.535479 -77.785424 
L 74.80839 -64.128331 
L 76.081301 -49.160791 
L 77.354212 -32.965132 
L 78.627123 -36.752929 
L 79.900034 -58.735002 
L 81.172945 -77.175854 
L 82.445856 -92.095127 
L 83.718767 -103.545907 
L 84.991678 -111.611392 
L 86.264589 -116.40755 
L 87.5375 -118.086702 
L 88.810411 -116.841934 
L 90.083322 -112.912535 
L 91.356233 -106.590777 
L 92.629144 -98.230298 
L 93.902055 -88.25624 
L 95.174966 -77.176747 
L 96.447877 -65.593979 
L 97.720787 -54.209431 
L 98.993698 -43.810753 
L 100.266609 -35.212455 
L 101.53952 -29.100787 
L 102.812431 -25.731031 
L 104.085342 -24.56771 
L 105.358253 -24.410579 
L 106.631164 -24.40791 
L 107.904075 -24.40791 
L 109.176986 -24.40791 
L 110.449897 -24.40791 
L 111.722808 -24.40791 
L 112.995719 -24.40791 
L 114.26863 -24.40851 
L 115.541541 -24.42991 
L 116.814452 -24.585247 
L 118.087363 -25.096254 
L 119.360274 -26.191588 
L 120.633185 -28.02234 
L 121.906096 -30.644998 
L 123.179007 -34.040423 
L 124.451918 -38.13986 
L 125.724829 -42.846544 
L 126.997739 -48.050894 
L 128.27065 -53.640385 
L 129.543561 -59.505671 
L 130.816472 -65.544236 
L 132.089383 -71.662473 
L 133.362294 -77.776757 
L 134.635205 -83.81388 
L 135.908116 -89.711067 
L 137.181027 -95.415722 
L 138.453938 -100.884979 
L 139.726849 -106.085132 
L 140.99976 -110.990965 
L 140.99976 -24.40791 
L 140.99976 -24.40791 
L 139.726849 -24.40791 
L 138.453938 -24.40791 
L 137.181027 -24.40791 
L 135.908116 -24.40791 
L 134.635205 -24.40791 
L 133.362294 -24.40791 
L 132.089383 -24.40791 
L 130.816472 -24.40791 
L 129.543561 -24.40791 
L 128.27065 -24.40791 
L 126.997739 -24.40791 
L 125.724829 -24.40791 
L 124.451918 -24.40791 
L 123.179007 -24.40791 
L 121.906096 -24.40791 
L 120.633185 -24.40791 
L 119.360274 -24.40791 
L 118.087363 -24.40791 
L 116.814452 -24.40791 
L 115.541541 -24.40791 
L 114.26863 -24.40791 
L 112.995719 -24.40791 
L 111.722808 -24.40791 
L 110.449897 -24.40791 
L 109.176986 -24.40791 
L 107.904075 -24.40791 
L 106.631164 -24.40791 
L 105.358253 -24.40791 
L 104.085342 -24.40791 
L 102.812431 -24.40791 
L 101.53952 -24.40791 
L 100.266609 -24.40791 
L 98.993698 -24.40791 
L 97.720787 -24.40791 
L 96.447877 -24.40791 
L 95.174966 -24.40791 
L 93.902055 -24.40791 
L 92.629144 -24.40791 
L 91.356233 -24.40791 
L 90.083322 -24.40791 
L 88.810411 -24.40791 
L 87.5375 -24.40791 
L 86.264589 -24.40791 
L 84.991678 -24.40791 
L 83.718767 -24.40791 
L 82.445856 -24.40791 
L 81.172945 -24.40791 
L 79.900034 -24.40791 
L 78.627123 -24.40791 
L 77.354212 -24.40791 
L 76.081301 -24.40791 
L 74.80839 -24.40791 
L 73.535479 -24.40791 
L 72.262568 -24.40791 
L 70.989657 -24.40791 
L 69.716746 -24.40791 
L 68.443835 -24.40791 
L 67.170924 -24.40791 
L 65.898014 -24.40791 
L 64.625103 -24.40791 
L 63.352192 -24.40791 
L 62.079281 -24.40791 
L 60.80637 -24.40791 
L 59.533459 -24.40791 
L 58.260548 -24.40791 
L 56.987637 -24.40791 
L 55.714726 -24.40791 
L 54.441815 -24.40791 
L 53.168904 -24.40791 
L 51.895993 -24.40791 
L 50.623082 -24.40791 
L 49.350171 -24.40791 
L 48.07726 -24.40791 
L 46.804349 -24.40791 
L 45.531438 -24.40791 
L 44.258527 -24.40791 
L 42.985616 -24.40791 
L 41.712705 -24.40791 
L 40.439794 -24.40791 
L 39.166883 -24.40791 
L 37.893972 -24.40791 
L 36.621062 -24.40791 
L 35.348151 -24.40791 
L 34.07524 -24.40791 
L 32.802329 -24.40791 
L 31.529418 -24.40791 
L 30.256507 -24.40791 
L 28.983596 -24.40791 
L 27.710685 -24.40791 
L 26.437774 -24.40791 
L 25.164863 -24.40791 
L 23.891952 -24.40791 
L 22.619041 -24.40791 
L 21.34613 -24.40791 
L 20.073219 -24.40791 
L 18.800308 -24.40791 
L 17.527397 -24.40791 
L 16.254486 -24.40791 
L 14.981575 -24.40791 
z
" style="stroke: #81b1d2; stroke-opacity: 0.3"/>
    </defs>
    <g clip-path="url(#p4b8069de34)">
     <use xlink:href="#me950797ae6" x="0" y="144" style="fill: #81b1d2; fill-opacity: 0.3; stroke: #81b1d2; stroke-opacity: 0.3"/>
    </g>
   </g>
   <g id="matplotlib.axis_1">
    <g id="xtick_1">
     <g id="line2d_2">
      <defs>
       <path id="m3c999d25e5" d="M 0 0 
L 0 3.5 
" style="stroke: #ffffff; stroke-width: 0.8"/>
      </defs>
      <g>
       <use xlink:href="#m3c999d25e5" x="60.588156" y="125.144083" style="fill: #ffffff; stroke: #ffffff; stroke-width: 0.8"/>
      </g>
     </g>
     <g id="text_1">
      <!-- $\mathdefault{0}$ -->
      <g style="fill: #ffffff" transform="translate(58.097489 139.062582) scale(0.1 -0.1)">
       <defs>
        <path id="CMR17-30" d="M 2688 2025 
C 2688 2416 2682 3080 2413 3591 
C 2176 4039 1798 4198 1466 4198 
C 1158 4198 768 4058 525 3597 
C 269 3118 243 2524 243 2025 
C 243 1661 250 1106 448 619 
C 723 -39 1216 -128 1466 -128 
C 1760 -128 2208 -7 2470 600 
C 2662 1042 2688 1559 2688 2025 
z
M 1466 -26 
C 1056 -26 813 325 723 812 
C 653 1188 653 1738 653 2096 
C 653 2588 653 2997 736 3387 
C 858 3929 1216 4096 1466 4096 
C 1728 4096 2067 3923 2189 3400 
C 2272 3036 2278 2607 2278 2096 
C 2278 1680 2278 1169 2202 792 
C 2067 95 1690 -26 1466 -26 
z
" transform="scale(0.015625)"/>
       </defs>
       <use xlink:href="#CMR17-30" transform="scale(0.996264)"/>
      </g>
     </g>
    </g>
    <g id="xtick_2">
     <g id="line2d_3">
      <g>
       <use xlink:href="#m3c999d25e5" x="108.595084" y="125.144083" style="fill: #ffffff; stroke: #ffffff; stroke-width: 0.8"/>
      </g>
     </g>
     <g id="text_2">
      <!-- $\mathdefault{10}$ -->
      <g style="fill: #ffffff" transform="translate(103.613749 139.062582) scale(0.1 -0.1)">
       <defs>
        <path id="CMR17-31" d="M 1702 4058 
C 1702 4192 1696 4192 1606 4192 
C 1357 3916 979 3827 621 3827 
C 602 3827 570 3827 563 3808 
C 557 3795 557 3782 557 3648 
C 755 3648 1088 3686 1344 3839 
L 1344 461 
C 1344 236 1331 160 781 160 
L 589 160 
L 589 0 
C 896 0 1216 0 1523 0 
C 1830 0 2150 0 2458 0 
L 2458 160 
L 2266 160 
C 1715 160 1702 230 1702 458 
L 1702 4058 
z
" transform="scale(0.015625)"/>
       </defs>
       <use xlink:href="#CMR17-31" transform="scale(0.996264)"/>
       <use xlink:href="#CMR17-30" transform="translate(45.690477 0) scale(0.996264)"/>
      </g>
     </g>
    </g>
   </g>
   <g id="matplotlib.axis_2">
    <g id="ytick_1">
     <g id="line2d_4">
      <defs>
       <path id="m3c9944d9bf" d="M 0 0 
L -3.5 0 
" style="stroke: #ffffff; stroke-width: 0.8"/>
      </defs>
      <g>
       <use xlink:href="#m3c9944d9bf" x="14.981575" y="119.59209" style="fill: #ffffff; stroke: #ffffff; stroke-width: 0.8"/>
      </g>
     </g>
     <g id="text_3">
      <!-- $\mathdefault{0}$ -->
      <g style="fill: #ffffff" transform="translate(3.00024 123.05134) scale(0.1 -0.1)">
       <use xlink:href="#CMR17-30" transform="scale(0.996264)"/>
      </g>
     </g>
    </g>
    <g id="ytick_2">
     <g id="line2d_5">
      <g>
       <use xlink:href="#m3c9944d9bf" x="14.981575" y="93.732252" style="fill: #ffffff; stroke: #ffffff; stroke-width: 0.8"/>
      </g>
     </g>
     <g id="text_4">
      <!-- $\mathdefault{1}$ -->
      <g style="fill: #ffffff" transform="translate(3.00024 97.191501) scale(0.1 -0.1)">
       <use xlink:href="#CMR17-31" transform="scale(0.996264)"/>
      </g>
     </g>
    </g>
    <g id="ytick_3">
     <g id="line2d_6">
      <g>
       <use xlink:href="#m3c9944d9bf" x="14.981575" y="67.872414" style="fill: #ffffff; stroke: #ffffff; stroke-width: 0.8"/>
      </g>
     </g>
     <g id="text_5">
      <!-- $\mathdefault{2}$ -->
      <g style="fill: #ffffff" transform="translate(3.00024 71.331663) scale(0.1 -0.1)">
       <defs>
        <path id="CMR17-32" d="M 2669 989 
L 2554 989 
C 2490 536 2438 459 2413 420 
C 2381 369 1920 369 1830 369 
L 602 369 
C 832 619 1280 1072 1824 1597 
C 2214 1967 2669 2402 2669 3035 
C 2669 3790 2067 4224 1395 4224 
C 691 4224 262 3604 262 3030 
C 262 2780 448 2748 525 2748 
C 589 2748 781 2787 781 3010 
C 781 3207 614 3264 525 3264 
C 486 3264 448 3258 422 3245 
C 544 3790 915 4058 1306 4058 
C 1862 4058 2227 3617 2227 3035 
C 2227 2479 1901 2000 1536 1584 
L 262 146 
L 262 0 
L 2515 0 
L 2669 989 
z
" transform="scale(0.015625)"/>
       </defs>
       <use xlink:href="#CMR17-32" transform="scale(0.996264)"/>
      </g>
     </g>
    </g>
    <g id="ytick_4">
     <g id="line2d_7">
      <g>
       <use xlink:href="#m3c9944d9bf" x="14.981575" y="42.012576" style="fill: #ffffff; stroke: #ffffff; stroke-width: 0.8"/>
      </g>
     </g>
     <g id="text_6">
      <!-- $\mathdefault{3}$ -->
      <g style="fill: #ffffff" transform="translate(3.00024 45.471825) scale(0.1 -0.1)">
       <defs>
        <path id="CMR17-33" d="M 1414 2157 
C 1984 2157 2234 1662 2234 1090 
C 2234 320 1824 25 1453 25 
C 1114 25 563 194 390 693 
C 422 680 454 680 486 680 
C 640 680 755 782 755 948 
C 755 1133 614 1216 486 1216 
C 378 1216 211 1165 211 926 
C 211 335 787 -128 1466 -128 
C 2176 -128 2720 430 2720 1085 
C 2720 1707 2208 2157 1600 2227 
C 2086 2328 2554 2756 2554 3329 
C 2554 3820 2048 4179 1472 4179 
C 890 4179 378 3829 378 3329 
C 378 3110 544 3072 627 3072 
C 762 3072 877 3155 877 3321 
C 877 3486 762 3569 627 3569 
C 602 3569 570 3569 544 3557 
C 730 3959 1235 4032 1459 4032 
C 1683 4032 2106 3925 2106 3320 
C 2106 3143 2080 2828 1862 2550 
C 1670 2304 1453 2304 1242 2284 
C 1210 2284 1062 2269 1037 2269 
C 992 2263 966 2257 966 2208 
C 966 2163 973 2157 1101 2157 
L 1414 2157 
z
" transform="scale(0.015625)"/>
       </defs>
       <use xlink:href="#CMR17-33" transform="scale(0.996264)"/>
      </g>
     </g>
    </g>
    <g id="ytick_5">
     <g id="line2d_8">
      <g>
       <use xlink:href="#m3c9944d9bf" x="14.981575" y="16.152737" style="fill: #ffffff; stroke: #ffffff; stroke-width: 0.8"/>
      </g>
     </g>
     <g id="text_7">
      <!-- $\mathdefault{4}$ -->
      <g style="fill: #ffffff" transform="translate(3.00024 19.611987) scale(0.1 -0.1)">
       <defs>
        <path id="CMR17-34" d="M 2150 4122 
C 2150 4256 2144 4256 2029 4256 
L 128 1254 
L 128 1088 
L 1779 1088 
L 1779 457 
C 1779 224 1766 160 1318 160 
L 1197 160 
L 1197 0 
C 1402 0 1747 0 1965 0 
C 2182 0 2528 0 2733 0 
L 2733 160 
L 2611 160 
C 2163 160 2150 224 2150 457 
L 2150 1088 
L 2803 1088 
L 2803 1254 
L 2150 1254 
L 2150 4122 
z
M 1798 3703 
L 1798 1254 
L 256 1254 
L 1798 3703 
z
" transform="scale(0.015625)"/>
       </defs>
       <use xlink:href="#CMR17-34" transform="scale(0.996264)"/>
      </g>
     </g>
    </g>
   </g>
   <g id="patch_3">
    <path d="M 14.981575 125.144083 
L 14.981575 3.00024 
" style="fill: none; stroke: #ffffff; stroke-width: 0.8; stroke-linejoin: miter; stroke-linecap: square"/>
   </g>
   <g id="patch_4">
    <path d="M 140.99976 125.144083 
L 140.99976 3.00024 
" style="fill: none; stroke: #ffffff; stroke-width: 0.8; stroke-linejoin: miter; stroke-linecap: square"/>
   </g>
   <g id="patch_5">
    <path d="M 14.981575 125.144083 
L 140.99976 125.144083 
" style="fill: none; stroke: #ffffff; stroke-width: 0.8; stroke-linejoin: miter; stroke-linecap: square"/>
   </g>
   <g id="patch_6">
    <path d="M 14.981575 3.00024 
L 140.99976 3.00024 
" style="fill: none; stroke: #ffffff; stroke-width: 0.8; stroke-linejoin: miter; stroke-linecap: square"/>
   </g>
   <g id="PathCollection_1">
    <defs>
     <path id="m84531550e8" d="M 0 -5 
L -1.12257 -1.545085 
L -4.755283 -1.545085 
L -1.816356 0.59017 
L -2.938926 4.045085 
L -0 1.90983 
L 2.938926 4.045085 
L 1.816356 0.59017 
L 4.755283 -1.545085 
L 1.12257 -1.545085 
z
" style="stroke: #81b1d2"/>
    </defs>
    <g clip-path="url(#p4b8069de34)">
     <use xlink:href="#m84531550e8" x="62.160518" y="8.552233" style="fill: #81b1d2; stroke: #81b1d2"/>
    </g>
   </g>
   <g id="legend_1">
    <g id="patch_7">
     <path d="M 51.599071 120.144083 
L 104.382264 120.144083 
Q 106.382264 120.144083 106.382264 118.144083 
L 106.382264 105.206905 
Q 106.382264 103.206905 104.382264 103.206905 
L 51.599071 103.206905 
Q 49.599071 103.206905 49.599071 105.206905 
L 49.599071 118.144083 
Q 49.599071 120.144083 51.599071 120.144083 
z
" style="opacity: 0.8; stroke: #cccccc; stroke-linejoin: miter"/>
    </g>
    <g id="line2d_9">
     <path d="M 53.599071 110.706905 
L 63.599071 110.706905 
L 73.599071 110.706905 
" style="fill: none; stroke: #81b1d2; stroke-width: 1.5; stroke-linecap: square"/>
    </g>
    <g id="text_8">
     <!-- score -->
     <g style="fill: #ffffff" transform="translate(81.599071 114.206905) scale(0.1 -0.1)">
      <defs>
       <path id="CMSS17-73" d="M 2061 2627 
C 1683 2807 1389 2807 1197 2807 
C 742 2807 198 2648 198 2003 
C 198 1359 902 1218 1094 1179 
C 1389 1122 1715 1058 1715 740 
C 1715 337 1254 337 1171 337 
C 915 337 563 407 243 638 
L 166 210 
C 531 0 883 -64 1178 -64 
C 1965 -64 2163 416 2163 781 
C 2163 1094 1984 1305 1862 1401 
C 1651 1568 1574 1587 1050 1696 
C 960 1709 646 1779 646 2066 
C 646 2432 1050 2432 1139 2432 
C 1555 2432 1811 2303 1984 2208 
L 2061 2627 
z
" transform="scale(0.015625)"/>
       <path id="CMSS17-63" d="M 2464 2541 
C 2464 2585 2170 2714 2093 2739 
C 1882 2816 1613 2816 1542 2816 
C 710 2816 211 2093 211 1363 
C 211 595 768 -64 1517 -64 
C 1946 -64 2253 76 2502 242 
L 2464 664 
C 2189 453 1869 337 1523 337 
C 1024 337 698 774 698 1369 
C 698 1831 909 2414 1549 2414 
C 1901 2414 2099 2343 2394 2145 
L 2464 2541 
z
" transform="scale(0.015625)"/>
       <path id="CMSS17-6f" d="M 2829 1356 
C 2829 2176 2221 2816 1504 2816 
C 768 2816 173 2157 173 1356 
C 173 544 787 -64 1498 -64 
C 2227 -64 2829 563 2829 1356 
z
M 1504 337 
C 1050 337 659 709 659 1408 
C 659 2151 1114 2427 1498 2427 
C 1914 2427 2342 2126 2342 1408 
C 2342 683 1926 337 1504 337 
z
" transform="scale(0.015625)"/>
       <path id="CMSS17-72" d="M 954 1363 
C 954 1965 1395 2368 1958 2368 
L 1958 2789 
C 1549 2789 1165 2585 934 2253 
L 934 2758 
L 480 2758 
L 480 0 
L 954 0 
L 954 1363 
z
" transform="scale(0.015625)"/>
       <path id="CMSS17-65" d="M 2502 1377 
C 2502 1590 2490 2003 2285 2345 
C 2061 2713 1696 2816 1421 2816 
C 755 2816 192 2188 192 1375 
C 192 582 774 -64 1510 -64 
C 1798 -64 2150 19 2470 248 
C 2470 274 2458 414 2451 420 
C 2451 433 2432 630 2432 656 
C 2125 407 1773 325 1517 325 
C 1107 325 666 667 646 1377 
L 2502 1377 
z
M 698 1728 
C 781 2084 1062 2421 1421 2421 
C 1517 2421 1965 2421 2080 1728 
L 698 1728 
z
" transform="scale(0.015625)"/>
      </defs>
      <use xlink:href="#CMSS17-73" transform="scale(0.996264)"/>
      <use xlink:href="#CMSS17-63" transform="translate(35.913542 0) scale(0.996264)"/>
      <use xlink:href="#CMSS17-6f" transform="translate(77.552364 0) scale(0.996264)"/>
      <use xlink:href="#CMSS17-72" transform="translate(121.793534 0) scale(0.996264)"/>
      <use xlink:href="#CMSS17-65" transform="translate(153.703306 0) scale(0.996264)"/>
     </g>
    </g>
   </g>
  </g>
  <g id="axes_2">
   <g id="line2d_10">
    <path d="M 14.981575 112.571783 
L 16.181748 118.397723 
L 17.381922 119.249285 
L 18.582095 119.437516 
L 19.782268 119.59209 
L 20.982441 119.217773 
L 22.182614 118.548519 
L 23.382788 117.870962 
L 24.582961 117.241538 
L 25.783134 116.461996 
L 26.983307 115.700166 
L 28.18348 114.726043 
L 29.383654 113.565666 
L 31.784 110.98256 
L 32.984173 109.56363 
L 34.184346 108.016499 
L 35.384519 106.432781 
L 36.584693 104.621269 
L 37.784866 102.919524 
L 38.985039 100.959912 
L 40.185212 99.0509 
L 41.385385 97.127224 
L 42.585559 94.994207 
L 43.785732 93.003844 
L 44.985905 90.737731 
L 46.186078 88.640544 
L 47.386251 86.412802 
L 48.586425 84.197098 
L 49.786598 82.120927 
L 50.986771 79.835603 
L 52.186944 77.67551 
L 53.387117 75.529114 
L 54.58729 73.480174 
L 55.787464 71.520676 
L 56.987637 69.471642 
L 58.18781 67.513885 
L 59.387983 65.675459 
L 60.588156 63.773668 
L 61.78833 61.948777 
L 62.988503 60.093431 
L 64.188676 57.898258 
L 65.388849 53.929991 
L 66.589022 44.26855 
L 67.789196 43.389541 
L 68.989369 42.641672 
L 70.189542 41.807904 
L 71.389715 41.108558 
L 72.589888 40.492808 
L 73.790061 39.739952 
L 74.990235 39.524949 
L 76.190408 38.559472 
L 77.390581 38.053471 
L 78.590754 37.795912 
L 79.790927 37.073687 
L 80.991101 36.776286 
L 82.191274 36.56391 
L 83.391447 35.988516 
L 84.59162 35.817361 
L 85.791793 35.775325 
L 86.991967 35.271792 
L 88.19214 35.239723 
L 89.392313 35.270423 
L 90.592486 34.94783 
L 91.792659 35.282129 
L 92.992832 35.043958 
L 94.193006 35.340871 
L 95.393179 35.436051 
L 96.593352 35.725528 
L 97.793525 36.152097 
L 98.993698 36.582889 
L 100.193872 37.452484 
L 101.394045 38.64466 
L 102.594218 39.753831 
L 103.794391 41.617502 
L 104.994564 43.843573 
L 106.194738 46.901496 
L 107.394911 50.273597 
L 108.595084 53.850264 
L 109.795257 57.552646 
L 110.99543 61.261082 
L 112.195603 64.829068 
L 113.395777 68.105388 
L 114.59595 71.187242 
L 115.796123 73.753972 
L 116.996296 76.098628 
L 118.196469 78.25371 
L 119.396643 80.300143 
L 120.596816 82.034579 
L 121.796989 83.679223 
L 122.997162 85.373267 
L 124.197335 86.773083 
L 125.397509 88.18061 
L 126.597682 89.700675 
L 127.797855 90.750296 
L 128.998028 91.962366 
L 130.198201 93.300609 
L 131.398374 94.119077 
L 132.598548 94.98984 
L 133.798721 95.95345 
L 134.998894 97.011698 
L 136.199067 97.636305 
L 137.39924 98.281161 
L 138.599414 98.897701 
L 139.799587 99.50091 
L 140.99976 100.110566 
" clip-path="url(#p4b8069de34)" style="fill: none; stroke-dasharray: 5.55,2.4; stroke-dashoffset: 0; stroke: #8dd3c7; stroke-opacity: 0.3; stroke-width: 1.5"/>
   </g>
   <g id="PathCollection_2">
    <defs>
     <path id="m466be76750" d="M 0 3 
C 0.795609 3 1.55874 2.683901 2.12132 2.12132 
C 2.683901 1.55874 3 0.795609 3 0 
C 3 -0.795609 2.683901 -1.55874 2.12132 -2.12132 
C 1.55874 -2.683901 0.795609 -3 0 -3 
C -0.795609 -3 -1.55874 -2.683901 -2.12132 -2.12132 
C -2.683901 -1.55874 -3 -0.795609 -3 0 
C -3 0.795609 -2.683901 1.55874 -2.12132 2.12132 
C -1.55874 2.683901 -0.795609 3 0 3 
z
" style="stroke: #fa8174"/>
    </defs>
    <g clip-path="url(#p4b8069de34)">
     <use xlink:href="#m466be76750" x="14.981575" y="112.571783" style="fill: #fa8174; stroke: #fa8174"/>
     <use xlink:href="#m466be76750" x="77.990668" y="38.053471" style="fill: #fa8174; stroke: #fa8174"/>
     <use xlink:href="#m466be76750" x="109.495214" y="57.552646" style="fill: #fa8174; stroke: #fa8174"/>
    </g>
   </g>
   <g id="line2d_11">
    <path d="M 14.981575 112.494455 
L 16.254486 108.546751 
L 17.527397 104.428966 
L 18.800308 100.231139 
L 20.073219 95.968318 
L 21.34613 91.6559 
L 22.619041 87.309659 
L 23.891952 82.94566 
L 25.164863 78.580158 
L 26.437774 74.229505 
L 27.710685 69.910048 
L 28.983596 65.638049 
L 30.256507 61.429596 
L 31.529418 57.300528 
L 32.802329 53.266362 
L 34.07524 49.342232 
L 35.348151 45.542826 
L 36.621062 41.88233 
L 37.893972 38.374377 
L 39.166883 35.031997 
L 40.439794 31.867568 
L 41.712705 28.892768 
L 42.985616 26.118527 
L 44.258527 23.554971 
L 45.531438 21.211374 
L 46.804349 19.096098 
L 48.07726 17.216536 
L 49.350171 15.579043 
L 50.623082 14.188879 
L 51.895993 13.050132 
L 53.168904 12.165654 
L 54.441815 11.536993 
L 55.714726 11.164324 
L 56.987637 11.046386 
L 58.260548 11.180428 
L 59.533459 11.562155 
L 60.80637 12.185693 
L 62.079281 13.04356 
L 63.352192 14.126652 
L 64.625103 15.424245 
L 65.898014 16.924019 
L 67.170924 18.612091 
L 68.443835 20.473079 
L 69.716746 22.490175 
L 70.989657 24.645249 
L 72.262568 26.918964 
L 73.535479 29.290915 
L 74.80839 31.739769 
L 76.081301 34.243389 
L 77.354212 36.778216 
L 78.627123 36.596528 
L 79.900034 33.880605 
L 81.172945 31.434761 
L 82.445856 29.276355 
L 83.718767 27.420082 
L 84.991678 25.878617 
L 86.264589 24.662532 
L 87.5375 23.780181 
L 88.810411 23.237608 
L 90.083322 23.038469 
L 91.356233 23.18398 
L 92.629144 23.672894 
L 93.902055 24.501501 
L 95.174966 25.663662 
L 96.447877 27.150864 
L 97.720787 28.952309 
L 98.993698 31.055021 
L 100.266609 33.443981 
L 101.53952 36.102292 
L 102.812431 39.011347 
L 104.085342 42.151034 
L 105.358253 45.499936 
L 106.631164 49.035541 
L 107.904075 52.734375 
L 109.176986 56.569729 
L 110.449897 56.271919 
L 111.722808 54.443841 
L 112.995719 52.489539 
L 114.26863 50.426541 
L 115.541541 48.272334 
L 116.814452 46.044499 
L 118.087363 43.760542 
L 119.360274 41.437703 
L 120.633185 39.092772 
L 121.906096 36.741916 
L 123.179007 34.400524 
L 124.451918 32.083065 
L 125.724829 29.802967 
L 126.997739 27.572521 
L 128.27065 25.402795 
L 129.543561 23.303583 
L 130.816472 21.283359 
L 132.089383 19.349269 
L 133.362294 17.507127 
L 134.635205 15.761441 
L 135.908116 14.11545 
L 137.181027 12.571178 
L 138.453938 11.129504 
L 139.726849 9.790242 
L 140.99976 8.552233 
" clip-path="url(#p4b8069de34)" style="fill: none; stroke: #fa8174; stroke-opacity: 0.3; stroke-width: 1.5; stroke-linecap: square"/>
   </g>
  </g>
 </g>
 <defs>
  <clipPath id="p4b8069de34">
   <rect x="14.981575" y="3.00024" width="126.018185" height="122.143843"/>
  </clipPath>
 </defs>
</svg>
