<?xml version="1.0" encoding="utf-8" standalone="no"?>
<!DOCTYPE svg PUBLIC "-//W3C//DTD SVG 1.1//EN"
  "http://www.w3.org/Graphics/SVG/1.1/DTD/svg11.dtd">
<svg xmlns:xlink="http://www.w3.org/1999/xlink" width="440.39952pt" height="224.398684pt" viewBox="0 0 440.39952 224.398684" xmlns="http://www.w3.org/2000/svg" version="1.1">
 <metadata>
  <rdf:RDF xmlns:dc="http://purl.org/dc/elements/1.1/" xmlns:cc="http://creativecommons.org/ns#" xmlns:rdf="http://www.w3.org/1999/02/22-rdf-syntax-ns#">
   <cc:Work>
    <dc:type rdf:resource="http://purl.org/dc/dcmitype/StillImage"/>
    <dc:date>2025-06-27T07:48:41.094436</dc:date>
    <dc:format>image/svg+xml</dc:format>
    <dc:creator>
     <cc:Agent>
      <dc:title>Matplotlib v3.10.1, https://matplotlib.org/</dc:title>
     </cc:Agent>
    </dc:creator>
   </cc:Work>
  </rdf:RDF>
 </metadata>
 <defs>
  <style type="text/css">*{stroke-linejoin: round; stroke-linecap: butt}</style>
 </defs>
 <g id="figure_1">
  <g id="patch_1">
   <path d="M 0 224.398684 
L 440.39952 224.398684 
L 440.39952 0 
L 0 0 
L 0 224.398684 
z
" style="fill: none"/>
  </g>
  <g id="axes_1">
   <g id="patch_2">
    <path d="M 357.730394 89.64635 
L 357.130928 89.313891 
L 355.341248 88.322982 
L 352.371062 86.702445 
L 348.245964 84.488836 
L 342.99535 81.739099 
L 336.663663 78.522687 
L 329.299704 74.912289 
L 320.972103 70.99395 
L 311.75188 66.854134 
L 301.723976 62.584225 
L 290.988939 58.270967 
L 279.651255 54.006724 
L 267.823846 49.877958 
L 255.633271 45.963672 
L 243.206513 42.340481 
L 230.687423 39.073186 
L 218.18639 36.220688 
L 205.572666 33.937394 
L 193.256014 32.401541 
L 181.41093 31.601996 
L 170.200655 31.4936 
L 159.785758 32.018401 
L 150.311897 33.091167 
L 141.907297 34.613736 
L 134.681055 36.484572 
L 128.723149 38.598768 
L 124.09754 40.859153 
L 120.853292 43.183182 
L 119.011767 45.50561 
L 118.575772 47.782566 
L 119.518434 49.900863 
L 121.793619 51.758705 
L 125.352538 53.367207 
L 130.129949 54.746909 
L 136.049366 55.926223 
L 143.023052 56.941439 
L 150.966368 57.839251 
L 159.776674 58.670575 
L 169.356397 59.499542 
L 179.608384 60.387893 
L 190.43028 61.398917 
L 201.716496 62.600263 
L 213.365942 64.048046 
L 225.54791 65.732684 
L 237.904806 67.487601 
L 250.280133 69.319711 
L 262.542983 71.230578 
L 274.559776 73.208973 
L 286.198194 75.236492 
L 297.328029 77.282784 
L 307.827507 79.311587 
L 317.579637 81.287484 
L 326.470377 83.158325 
L 334.4027 84.887284 
L 341.280845 86.430363 
L 347.025784 87.746514 
L 351.568754 88.806361 
L 354.854914 89.585444 
L 356.841797 90.059023 
L 357.506341 90.218101 
L 357.618368 89.932225 
z
" clip-path="url(#pd8b6df6856)" style="fill: #8dd3c7; opacity: 0.5; stroke: #8dd3c7; stroke-linejoin: miter"/>
   </g>
   <g id="patch_3">
    <path d="M 220.852973 56.766316 
C 221.496701 56.766316 222.114151 56.51056 222.569335 56.055376 
C 223.02452 55.600191 223.280275 54.982742 223.280275 54.339014 
C 223.280275 53.695286 223.02452 53.077837 222.569335 52.622652 
C 222.114151 52.167468 221.496701 51.911712 220.852973 51.911712 
C 220.209245 51.911712 219.591796 52.167468 219.136611 52.622652 
C 218.681427 53.077837 218.425671 53.695286 218.425671 54.339014 
C 218.425671 54.982742 218.681427 55.600191 219.136611 56.055376 
C 219.591796 56.51056 220.209245 56.766316 220.852973 56.766316 
z
" clip-path="url(#pd8b6df6856)" style="fill: #fa8174; stroke: #fa8174; stroke-linejoin: miter"/>
   </g>
   <g id="patch_4">
    <path d="M 220.602973 52.343423 
Q 220.602973 40.140181 220.602973 27.936939 
L 218.352973 27.936939 
Q 219.602973 23.93513 220.852973 19.933321 
Q 222.102973 23.93513 223.352973 27.936939 
L 221.102973 27.936939 
Q 221.102973 40.140181 221.102973 52.343423 
L 220.602973 52.343423 
z
" clip-path="url(#pd8b6df6856)" style="fill: #fa8174; stroke: #fa8174; stroke-linecap: round"/>
   </g>
   <g id="patch_5">
    <path d="M 222.848564 54.089014 
Q 235.051806 54.089014 247.255048 54.089014 
L 247.255048 51.839014 
Q 251.256857 53.089014 255.258666 54.339014 
Q 251.256857 55.589014 247.255048 56.839014 
L 247.255048 54.589014 
Q 235.051806 54.589014 222.848564 54.589014 
L 222.848564 54.089014 
z
" clip-path="url(#pd8b6df6856)" style="fill: #fa8174; stroke: #fa8174; stroke-linecap: round"/>
   </g>
   <g id="patch_6">
    <path d="M 216.61139 65.586752 
Q 204.238396 57.086855 210.630522 48.525831 
L 208.827631 47.179695 
Q 212.159459 44.883564 216.752757 43.297469 
Q 213.517685 47.089307 212.834055 50.171109 
L 211.031164 48.824973 
Q 204.950213 56.969237 216.894507 65.174629 
L 216.61139 65.586752 
z
" clip-path="url(#pd8b6df6856)" style="fill: #fa8174; stroke: #fa8174; stroke-linecap: round"/>
   </g>
   <g id="patch_7">
    <path d="M 125.756479 78.362035 
Q 137.959721 78.362035 150.162963 78.362035 
L 150.162963 76.112035 
Q 154.164772 77.362035 158.166581 78.612035 
Q 154.164772 79.862035 150.162963 81.112035 
L 150.162963 78.862035 
Q 137.959721 78.862035 125.756479 78.862035 
L 125.756479 78.362035 
z
" clip-path="url(#pd8b6df6856)" style="fill: #fa8174; stroke: #fa8174; stroke-linecap: round"/>
   </g>
   <g id="text_1">
    <!-- $c_d$ -->
    <g style="fill: #fa8174" transform="translate(259.689807 57.327806) scale(0.12 -0.12)">
     <defs>
      <path id="CMMI12-63" d="M 2502 2431 
C 2381 2431 2323 2431 2234 2355 
C 2195 2323 2125 2227 2125 2125 
C 2125 1997 2221 1920 2342 1920 
C 2496 1920 2669 2044 2669 2292 
C 2669 2588 2374 2816 1933 2816 
C 1094 2816 256 1903 256 996 
C 256 441 602 -64 1254 -64 
C 2125 -64 2675 622 2675 706 
C 2675 744 2637 776 2611 776 
C 2592 776 2586 770 2528 713 
C 2118 162 1510 64 1267 64 
C 826 64 685 446 685 764 
C 685 988 794 1605 1024 2039 
C 1190 2338 1536 2682 1939 2682 
C 2022 2682 2374 2682 2502 2431 
z
" transform="scale(0.015625)"/>
      <path id="CMMI12-64" d="M 3219 4257 
C 3226 4282 3238 4320 3238 4352 
C 3238 4416 3174 4416 3162 4416 
C 3155 4416 2842 4388 2810 4380 
C 2701 4373 2605 4358 2490 4358 
C 2330 4345 2285 4339 2285 4224 
C 2285 4160 2336 4160 2426 4160 
C 2739 4160 2746 4103 2746 4040 
C 2746 4002 2733 3952 2726 3933 
L 2336 2395 
C 2266 2561 2093 2816 1760 2816 
C 1037 2816 256 1884 256 939 
C 256 307 627 -64 1062 -64 
C 1414 -64 1715 211 1894 422 
C 1958 45 2259 -64 2451 -64 
C 2643 -64 2797 51 2912 281 
C 3014 498 3104 888 3104 913 
C 3104 945 3078 971 3040 971 
C 2982 971 2976 939 2950 843 
C 2854 466 2733 64 2470 64 
C 2285 64 2272 229 2272 357 
C 2272 382 2272 515 2317 694 
L 3219 4257 
z
M 1926 760 
C 1894 651 1894 639 1805 517 
C 1664 338 1382 64 1082 64 
C 819 64 672 300 672 677 
C 672 1028 870 1743 992 2012 
C 1210 2459 1510 2689 1760 2689 
C 2182 2689 2266 2165 2266 2114 
C 2266 2108 2246 2024 2240 2012 
L 1926 760 
z
" transform="scale(0.015625)"/>
     </defs>
     <use xlink:href="#CMMI12-63" transform="scale(0.996264)"/>
     <use xlink:href="#CMMI12-64" transform="translate(41.983234 -14.943915) scale(0.697382)"/>
    </g>
   </g>
   <g id="text_2">
    <!-- $c_l$ -->
    <g style="fill: #fa8174" transform="translate(217.070192 15.50218) scale(0.12 -0.12)">
     <defs>
      <path id="CMMI12-6c" d="M 1626 4257 
C 1632 4282 1645 4320 1645 4352 
C 1645 4416 1581 4416 1568 4416 
C 1562 4416 1331 4393 1216 4377 
C 1107 4377 1011 4358 896 4358 
C 742 4345 698 4339 698 4224 
C 698 4160 762 4160 826 4160 
C 1152 4160 1152 4102 1152 4039 
C 1152 4014 1152 4001 1120 3887 
L 326 731 
C 307 661 294 610 294 509 
C 294 191 531 -64 858 -64 
C 1069 -64 1210 76 1312 274 
C 1421 483 1510 884 1510 909 
C 1510 941 1485 967 1446 967 
C 1389 967 1382 935 1357 840 
C 1242 401 1126 64 870 64 
C 678 64 678 267 678 357 
C 678 382 678 515 723 694 
L 1626 4257 
z
" transform="scale(0.015625)"/>
     </defs>
     <use xlink:href="#CMMI12-63" transform="scale(0.996264)"/>
     <use xlink:href="#CMMI12-6c" transform="translate(41.983234 -14.943915) scale(0.697382)"/>
    </g>
   </g>
   <g id="text_3">
    <!-- $\alpha$ -->
    <g style="fill: #fa8174" transform="translate(196.579952 57.327806) scale(0.12 -0.12)">
     <defs>
      <path id="CMMI12-b" d="M 2963 1616 
C 2963 2235 2611 2815 1933 2815 
C 1094 2815 256 1902 256 996 
C 256 441 602 -64 1254 -64 
C 1651 -64 2125 89 2579 472 
C 2669 115 2867 -64 3142 -64 
C 3488 -64 3661 294 3661 377 
C 3661 434 3616 434 3597 434 
C 3546 434 3539 415 3520 364 
C 3462 204 3315 64 3162 64 
C 2963 64 2963 472 2963 862 
C 3616 1641 3770 2446 3770 2452 
C 3770 2510 3718 2510 3699 2510 
C 3642 2510 3635 2491 3610 2376 
C 3526 2095 3360 1597 2963 1073 
L 2963 1616 
z
M 2560 626 
C 1997 121 1491 64 1267 64 
C 813 64 685 466 685 766 
C 685 1040 826 1692 1024 2044 
C 1286 2491 1645 2688 1933 2688 
C 2554 2688 2554 1877 2554 1341 
C 2554 1182 2547 1016 2547 856 
C 2547 728 2554 696 2560 626 
z
" transform="scale(0.015625)"/>
     </defs>
     <use xlink:href="#CMMI12-b" transform="scale(0.996264)"/>
    </g>
   </g>
   <g id="text_4">
    <!-- $U_\infty$ -->
    <g style="fill: #fa8174" transform="translate(133.756349 71.330129) scale(0.12 -0.12)">
     <defs>
      <path id="CMMI12-55" d="M 3238 1474 
C 3014 581 2272 57 1670 57 
C 1210 57 896 363 896 891 
C 896 916 896 1107 966 1387 
L 1594 3887 
C 1651 4103 1664 4167 2118 4167 
C 2234 4167 2298 4167 2298 4282 
C 2298 4352 2240 4352 2202 4352 
C 2086 4352 1952 4352 1830 4352 
L 1075 4352 
C 954 4352 819 4352 698 4352 
C 653 4352 576 4352 576 4231 
C 576 4167 621 4167 742 4167 
C 1126 4167 1126 4116 1126 4046 
C 1126 4008 1082 3824 1050 3715 
L 493 1488 
C 474 1418 435 1246 435 1075 
C 435 374 941 -128 1638 -128 
C 2285 -128 3002 384 3328 1197 
C 3373 1305 3430 1530 3469 1702 
C 3533 1933 3667 2496 3712 2662 
L 3955 3623 
C 4038 3956 4090 4167 4653 4167 
C 4704 4173 4730 4224 4730 4282 
C 4730 4352 4672 4352 4646 4352 
C 4557 4352 4442 4352 4352 4352 
L 4051 4352 
C 3654 4352 3450 4352 3443 4352 
C 3405 4352 3328 4352 3328 4231 
C 3328 4167 3379 4167 3424 4167 
C 3808 4167 3834 4020 3834 3905 
C 3834 3848 3834 3828 3808 3739 
L 3238 1474 
z
" transform="scale(0.015625)"/>
      <path id="CMSY10-31" d="M 3251 1730 
C 2906 2166 2829 2262 2630 2422 
C 2272 2710 1914 2825 1587 2825 
C 838 2825 352 2122 352 1374 
C 352 639 826 -70 1562 -70 
C 2298 -70 2829 511 3142 1022 
C 3488 588 3565 492 3763 332 
C 4122 45 4480 -70 4806 -70 
C 5555 -70 6042 633 6042 1380 
C 6042 2115 5568 2825 4832 2825 
C 4096 2825 3565 2242 3251 1730 
z
M 3418 1514 
C 3680 1975 4154 2620 4877 2620 
C 5555 2620 5901 1955 5901 1380 
C 5901 753 5472 236 4909 236 
C 4538 236 4250 505 4115 638 
C 3955 811 3808 1009 3418 1514 
z
M 2976 1240 
C 2714 780 2240 134 1517 134 
C 838 134 493 799 493 1374 
C 493 2000 922 2518 1485 2518 
C 1856 2518 2144 2249 2278 2115 
C 2438 1943 2586 1744 2976 1240 
z
" transform="scale(0.015625)"/>
     </defs>
     <use xlink:href="#CMMI12-55" transform="scale(0.996264)"/>
     <use xlink:href="#CMSY10-31" transform="translate(66.252119 -14.943915) scale(0.697382)"/>
    </g>
   </g>
  </g>
  <g id="axes_2">
   <g id="patch_8">
    <path d="M 43.106646 188.48733 
L 433.19952 188.48733 
L 433.19952 112.151675 
L 43.106646 112.151675 
L 43.106646 188.48733 
z
" style="fill: none"/>
   </g>
   <g id="matplotlib.axis_1">
    <g id="xtick_1">
     <g id="line2d_1">
      <defs>
       <path id="m2083ec5482" d="M 0 0 
L 0 3.5 
" style="stroke: #ffffff; stroke-width: 0.8"/>
      </defs>
      <g>
       <use xlink:href="#m2083ec5482" x="109.97971" y="188.48733" style="fill: #ffffff; stroke: #ffffff; stroke-width: 0.8"/>
      </g>
     </g>
     <g id="text_5">
      <!-- $\mathdefault{−5}$ -->
      <g style="fill: #ffffff" transform="translate(103.614671 202.405829) scale(0.1 -0.1)">
       <defs>
        <path id="CMSY10-0" d="M 4218 1472 
C 4326 1472 4442 1472 4442 1600 
C 4442 1728 4326 1728 4218 1728 
L 755 1728 
C 646 1728 531 1728 531 1600 
C 531 1472 646 1472 755 1472 
L 4218 1472 
z
" transform="scale(0.015625)"/>
        <path id="CMR17-35" d="M 730 3692 
C 794 3666 1056 3584 1325 3584 
C 1920 3584 2246 3911 2432 4100 
C 2432 4157 2432 4192 2394 4192 
C 2387 4192 2374 4192 2323 4163 
C 2099 4058 1837 3973 1517 3973 
C 1325 3973 1037 3999 723 4139 
C 653 4171 640 4171 634 4171 
C 602 4171 595 4164 595 4037 
L 595 2203 
C 595 2089 595 2057 659 2057 
C 691 2057 704 2070 736 2114 
C 941 2401 1222 2522 1542 2522 
C 1766 2522 2246 2382 2246 1289 
C 2246 1085 2246 715 2054 421 
C 1894 159 1645 25 1370 25 
C 947 25 518 320 403 814 
C 429 807 480 795 506 795 
C 589 795 749 840 749 1038 
C 749 1210 627 1280 506 1280 
C 358 1280 262 1190 262 1011 
C 262 454 704 -128 1382 -128 
C 2042 -128 2669 440 2669 1264 
C 2669 2030 2170 2624 1549 2624 
C 1222 2624 947 2503 730 2274 
L 730 3692 
z
" transform="scale(0.015625)"/>
       </defs>
       <use xlink:href="#CMSY10-0" transform="scale(0.996264)"/>
       <use xlink:href="#CMR17-35" transform="translate(77.487468 0) scale(0.996264)"/>
      </g>
     </g>
    </g>
    <g id="xtick_2">
     <g id="line2d_2">
      <g>
       <use xlink:href="#m2083ec5482" x="184.283115" y="188.48733" style="fill: #ffffff; stroke: #ffffff; stroke-width: 0.8"/>
      </g>
     </g>
     <g id="text_6">
      <!-- $\mathdefault{0}$ -->
      <g style="fill: #ffffff" transform="translate(181.792447 202.405829) scale(0.1 -0.1)">
       <defs>
        <path id="CMR17-30" d="M 2688 2025 
C 2688 2416 2682 3080 2413 3591 
C 2176 4039 1798 4198 1466 4198 
C 1158 4198 768 4058 525 3597 
C 269 3118 243 2524 243 2025 
C 243 1661 250 1106 448 619 
C 723 -39 1216 -128 1466 -128 
C 1760 -128 2208 -7 2470 600 
C 2662 1042 2688 1559 2688 2025 
z
M 1466 -26 
C 1056 -26 813 325 723 812 
C 653 1188 653 1738 653 2096 
C 653 2588 653 2997 736 3387 
C 858 3929 1216 4096 1466 4096 
C 1728 4096 2067 3923 2189 3400 
C 2272 3036 2278 2607 2278 2096 
C 2278 1680 2278 1169 2202 792 
C 2067 95 1690 -26 1466 -26 
z
" transform="scale(0.015625)"/>
       </defs>
       <use xlink:href="#CMR17-30" transform="scale(0.996264)"/>
      </g>
     </g>
    </g>
    <g id="xtick_3">
     <g id="line2d_3">
      <g>
       <use xlink:href="#m2083ec5482" x="258.586519" y="188.48733" style="fill: #ffffff; stroke: #ffffff; stroke-width: 0.8"/>
      </g>
     </g>
     <g id="text_7">
      <!-- $\mathdefault{5}$ -->
      <g style="fill: #ffffff" transform="translate(256.095852 202.405829) scale(0.1 -0.1)">
       <use xlink:href="#CMR17-35" transform="scale(0.996264)"/>
      </g>
     </g>
    </g>
    <g id="xtick_4">
     <g id="line2d_4">
      <g>
       <use xlink:href="#m2083ec5482" x="332.889924" y="188.48733" style="fill: #ffffff; stroke: #ffffff; stroke-width: 0.8"/>
      </g>
     </g>
     <g id="text_8">
      <!-- $\mathdefault{10}$ -->
      <g style="fill: #ffffff" transform="translate(327.908589 202.405829) scale(0.1 -0.1)">
       <defs>
        <path id="CMR17-31" d="M 1702 4058 
C 1702 4192 1696 4192 1606 4192 
C 1357 3916 979 3827 621 3827 
C 602 3827 570 3827 563 3808 
C 557 3795 557 3782 557 3648 
C 755 3648 1088 3686 1344 3839 
L 1344 461 
C 1344 236 1331 160 781 160 
L 589 160 
L 589 0 
C 896 0 1216 0 1523 0 
C 1830 0 2150 0 2458 0 
L 2458 160 
L 2266 160 
C 1715 160 1702 230 1702 458 
L 1702 4058 
z
" transform="scale(0.015625)"/>
       </defs>
       <use xlink:href="#CMR17-31" transform="scale(0.996264)"/>
       <use xlink:href="#CMR17-30" transform="translate(45.690477 0) scale(0.996264)"/>
      </g>
     </g>
    </g>
    <g id="xtick_5">
     <g id="line2d_5">
      <g>
       <use xlink:href="#m2083ec5482" x="407.193328" y="188.48733" style="fill: #ffffff; stroke: #ffffff; stroke-width: 0.8"/>
      </g>
     </g>
     <g id="text_9">
      <!-- $\mathdefault{15}$ -->
      <g style="fill: #ffffff" transform="translate(402.211993 202.405829) scale(0.1 -0.1)">
       <use xlink:href="#CMR17-31" transform="scale(0.996264)"/>
       <use xlink:href="#CMR17-35" transform="translate(45.690477 0) scale(0.996264)"/>
      </g>
     </g>
    </g>
    <g id="text_10">
     <!-- $\alpha$ in $^\circ$ -->
     <g style="fill: #ffffff" transform="translate(225.822583 215.261506) scale(0.1 -0.1)">
      <defs>
       <path id="CMSS17-69" d="M 979 4183 
L 442 4183 
L 442 3648 
L 979 3648 
L 979 4183 
z
M 947 2739 
L 474 2739 
L 474 0 
L 947 0 
L 947 2739 
z
" transform="scale(0.015625)"/>
       <path id="CMSS17-6e" d="M 2618 1877 
C 2618 2283 2522 2816 1798 2816 
C 1389 2816 1120 2606 941 2389 
L 941 2758 
L 474 2758 
L 474 0 
L 960 0 
L 960 1559 
C 960 1964 1114 2428 1549 2428 
C 2112 2428 2131 2048 2131 1829 
L 2131 0 
L 2618 0 
L 2618 1877 
z
" transform="scale(0.015625)"/>
       <path id="CMSY10-e" d="M 2842 1600 
C 2842 2277 2272 2828 1600 2828 
C 909 2828 352 2264 352 1600 
C 352 930 909 372 1600 372 
C 2272 372 2842 923 2842 1600 
z
M 1600 628 
C 1043 628 608 1070 608 1600 
C 608 2130 1050 2572 1600 2572 
C 2131 2572 2586 2142 2586 1600 
C 2586 1058 2131 628 1600 628 
z
" transform="scale(0.015625)"/>
      </defs>
      <use xlink:href="#CMMI12-b" transform="scale(0.996264)"/>
      <use xlink:href="#CMSS17-69" transform="translate(93.910136 0) scale(0.996264)"/>
      <use xlink:href="#CMSS17-6e" transform="translate(116.090859 0) scale(0.996264)"/>
      <use xlink:href="#CMSY10-e" transform="translate(195.524915 36.153639) scale(0.697382)"/>
     </g>
    </g>
   </g>
   <g id="matplotlib.axis_2">
    <g id="ytick_1">
     <g id="line2d_6">
      <defs>
       <path id="mb0e5588f26" d="M 0 0 
L -3.5 0 
" style="stroke: #ffffff; stroke-width: 0.8"/>
      </defs>
      <g>
       <use xlink:href="#mb0e5588f26" x="43.106646" y="177.582237" style="fill: #ffffff; stroke: #ffffff; stroke-width: 0.8"/>
      </g>
     </g>
     <g id="text_11">
      <!-- $\mathdefault{0}$ -->
      <g style="fill: #ffffff" transform="translate(31.125311 181.041486) scale(0.1 -0.1)">
       <use xlink:href="#CMR17-30" transform="scale(0.996264)"/>
      </g>
     </g>
    </g>
    <g id="ytick_2">
     <g id="line2d_7">
      <g>
       <use xlink:href="#mb0e5588f26" x="43.106646" y="150.319503" style="fill: #ffffff; stroke: #ffffff; stroke-width: 0.8"/>
      </g>
     </g>
     <g id="text_12">
      <!-- $\mathdefault{50}$ -->
      <g style="fill: #ffffff" transform="translate(26.143975 153.778752) scale(0.1 -0.1)">
       <use xlink:href="#CMR17-35" transform="scale(0.996264)"/>
       <use xlink:href="#CMR17-30" transform="translate(45.690477 0) scale(0.996264)"/>
      </g>
     </g>
    </g>
    <g id="ytick_3">
     <g id="line2d_8">
      <g>
       <use xlink:href="#mb0e5588f26" x="43.106646" y="123.056768" style="fill: #ffffff; stroke: #ffffff; stroke-width: 0.8"/>
      </g>
     </g>
     <g id="text_13">
      <!-- $\mathdefault{100}$ -->
      <g style="fill: #ffffff" transform="translate(21.16264 126.516017) scale(0.1 -0.1)">
       <use xlink:href="#CMR17-31" transform="scale(0.996264)"/>
       <use xlink:href="#CMR17-30" transform="translate(45.690477 0) scale(0.996264)"/>
       <use xlink:href="#CMR17-30" transform="translate(91.380954 0) scale(0.996264)"/>
      </g>
     </g>
    </g>
    <g id="text_14">
     <!-- $f(\alpha)=c_l/c_d$ -->
     <g style="fill: #ffffff" transform="translate(14.67198 177.420267) rotate(-90) scale(0.1 -0.1)">
      <defs>
       <path id="CMMI12-66" d="M 2854 2566 
C 2982 2566 3034 2566 3034 2688 
C 3034 2752 2982 2752 2867 2752 
L 2349 2752 
C 2470 3429 2560 3897 2611 4107 
C 2650 4265 2784 4416 2950 4416 
C 3085 4416 3219 4358 3283 4298 
C 3034 4272 2957 4082 2957 3969 
C 2957 3837 3053 3759 3174 3759 
C 3302 3759 3494 3870 3494 4119 
C 3494 4393 3226 4544 2944 4544 
C 2669 4544 2400 4334 2272 4078 
C 2157 3848 2093 3611 1946 2752 
L 1517 2752 
C 1395 2752 1331 2752 1331 2637 
C 1331 2566 1370 2566 1498 2566 
L 1907 2566 
C 1792 1976 1530 542 1382 -137 
C 1274 -689 1178 -1152 858 -1152 
C 838 -1152 653 -1152 538 -1031 
C 864 -1005 864 -726 864 -720 
C 864 -593 768 -517 646 -517 
C 518 -517 326 -625 326 -867 
C 326 -1140 608 -1280 858 -1280 
C 1510 -1280 1779 -118 1850 199 
C 1965 688 2278 2376 2310 2566 
L 2854 2566 
z
" transform="scale(0.015625)"/>
       <path id="CMR17-28" d="M 1958 -1561 
C 1958 -1555 1958 -1542 1939 -1523 
C 1645 -1224 858 -407 858 1581 
C 858 3569 1632 4379 1946 4697 
C 1946 4704 1958 4717 1958 4736 
C 1958 4755 1939 4768 1914 4768 
C 1843 4768 1299 4296 986 3594 
C 666 2887 576 2199 576 1588 
C 576 1128 621 351 1005 -471 
C 1312 -1135 1837 -1600 1914 -1600 
C 1946 -1600 1958 -1587 1958 -1561 
z
" transform="scale(0.015625)"/>
       <path id="CMR17-29" d="M 1683 1581 
C 1683 2040 1638 2817 1254 3639 
C 947 4303 422 4768 346 4768 
C 326 4768 301 4761 301 4729 
C 301 4717 307 4710 314 4697 
C 621 4378 1402 3568 1402 1584 
C 1402 -407 627 -1217 314 -1537 
C 307 -1549 301 -1556 301 -1568 
C 301 -1600 326 -1600 346 -1600 
C 416 -1600 960 -1128 1274 -426 
C 1594 281 1683 969 1683 1581 
z
" transform="scale(0.015625)"/>
       <path id="CMR17-3d" d="M 4115 2017 
C 4211 2017 4307 2017 4307 2125 
C 4307 2240 4198 2240 4090 2240 
L 512 2240 
C 403 2240 294 2240 294 2125 
C 294 2017 390 2017 486 2017 
L 4115 2017 
z
M 4090 896 
C 4198 896 4307 896 4307 1011 
C 4307 1119 4211 1119 4115 1119 
L 486 1119 
C 390 1119 294 1119 294 1011 
C 294 896 403 896 512 896 
L 4090 896 
z
" transform="scale(0.015625)"/>
       <path id="CMMI12-3d" d="M 2746 4562 
C 2746 4569 2784 4666 2784 4678 
C 2784 4755 2720 4800 2669 4800 
C 2637 4800 2579 4800 2528 4659 
L 384 -1363 
C 384 -1370 346 -1465 346 -1478 
C 346 -1555 410 -1600 461 -1600 
C 499 -1600 557 -1593 602 -1459 
L 2746 4562 
z
" transform="scale(0.015625)"/>
      </defs>
      <use xlink:href="#CMMI12-66" transform="scale(0.996264)"/>
      <use xlink:href="#CMR17-28" transform="translate(58.720305 0) scale(0.996264)"/>
      <use xlink:href="#CMMI12-b" transform="translate(94.001073 0) scale(0.996264)"/>
      <use xlink:href="#CMR17-29" transform="translate(156.682095 0) scale(0.996264)"/>
      <use xlink:href="#CMR17-3d" transform="translate(219.636872 0) scale(0.996264)"/>
      <use xlink:href="#CMMI12-63" transform="translate(319.025669 0) scale(0.996264)"/>
      <use xlink:href="#CMMI12-6c" transform="translate(361.008903 -14.943915) scale(0.697382)"/>
      <use xlink:href="#CMMI12-3d" transform="translate(383.380819 0) scale(0.996264)"/>
      <use xlink:href="#CMMI12-63" transform="translate(432.155737 0) scale(0.996264)"/>
      <use xlink:href="#CMMI12-64" transform="translate(474.138971 -14.943915) scale(0.697382)"/>
     </g>
    </g>
   </g>
   <g id="line2d_9">
    <path d="M 43.106646 178.40204 
L 46.821816 183.134952 
L 50.536986 183.826749 
L 54.252157 183.979664 
L 57.967327 184.105239 
L 61.682497 183.801149 
L 65.397667 183.257456 
L 69.112837 182.707018 
L 72.828008 182.195683 
L 76.543178 181.562394 
L 80.258348 180.943495 
L 83.973518 180.152131 
L 87.688689 179.209457 
L 95.119029 177.110978 
L 98.834199 175.95826 
L 102.54937 174.701392 
L 106.26454 173.414802 
L 109.97971 171.943155 
L 113.69488 170.560682 
L 117.41005 168.96872 
L 121.125221 167.417866 
L 124.840391 165.855099 
L 128.555561 164.122266 
L 132.270731 162.505323 
L 135.985902 160.664365 
L 139.701072 158.96064 
L 143.416242 157.150854 
L 147.131412 155.350847 
L 150.846583 153.664196 
L 154.561753 151.80763 
L 158.276923 150.052802 
L 161.992093 148.3091 
L 165.707263 146.64457 
L 169.422434 145.052702 
L 173.137604 143.388095 
L 176.852774 141.797641 
L 180.567944 140.30413 
L 184.283115 138.759141 
L 187.998285 137.276626 
L 191.713455 135.769369 
L 195.428625 133.986042 
L 199.143796 130.762277 
L 202.858966 122.91346 
L 206.574136 122.199365 
L 210.289306 121.591807 
L 214.004476 120.914466 
L 217.719647 120.346327 
L 221.434817 119.8461 
L 225.149987 119.23449 
L 228.865157 119.059825 
L 232.580328 118.275485 
L 236.295498 117.864417 
L 240.010668 117.65518 
L 243.725838 117.068454 
L 247.441009 116.82685 
L 251.156179 116.654319 
L 254.871349 116.186877 
L 258.586519 116.047833 
L 262.301689 116.013684 
L 266.01686 115.60462 
L 269.73203 115.578568 
L 273.4472 115.603508 
L 277.16237 115.341438 
L 280.877541 115.613018 
L 284.592711 115.419531 
L 288.307881 115.660739 
L 292.023051 115.738062 
L 295.738221 115.973229 
L 299.453392 116.319768 
L 303.168562 116.669738 
L 306.883732 117.376184 
L 310.598902 118.344691 
L 314.314073 119.245766 
L 318.029243 120.759785 
L 321.744413 122.568214 
L 325.459583 125.052428 
L 329.174754 127.791875 
L 332.889924 130.697508 
L 336.605094 133.705272 
L 340.320264 136.717952 
L 344.035434 139.616533 
L 347.750605 142.27817 
L 351.465775 144.781825 
L 355.180945 146.867 
L 358.896115 148.771765 
L 362.611286 150.522523 
L 366.326456 152.185016 
L 370.041626 153.594047 
L 373.756796 154.930133 
L 377.471967 156.306351 
L 381.187137 157.443541 
L 384.902307 158.586997 
L 388.617477 159.821876 
L 392.332647 160.674573 
L 396.047818 161.659241 
L 399.762988 162.746411 
L 403.478158 163.411323 
L 407.193328 164.118719 
L 410.908499 164.901541 
L 414.623669 165.761247 
L 418.338839 166.268669 
L 422.054009 166.792541 
L 425.76918 167.293409 
L 429.48435 167.783448 
L 433.19952 168.278724 
" clip-path="url(#pc19b7be3b1)" style="fill: none; stroke-dasharray: 5.55,2.4; stroke-dashoffset: 0; stroke: #8dd3c7; stroke-width: 1.5"/>
   </g>
   <g id="patch_9">
    <path d="M 43.106646 188.48733 
L 43.106646 112.151675 
" style="fill: none; stroke: #ffffff; stroke-width: 0.8; stroke-linejoin: miter; stroke-linecap: square"/>
   </g>
   <g id="patch_10">
    <path d="M 43.106646 188.48733 
L 433.19952 188.48733 
" style="fill: none; stroke: #ffffff; stroke-width: 0.8; stroke-linejoin: miter; stroke-linecap: square"/>
   </g>
   <g id="text_15">
    <!-- $\alpha^\ast = \mathrm{argmax}\left(f(\alpha)\right)$ -->
    <g style="fill: #fa8174" transform="translate(234.063546 107.162618) scale(0.1 -0.1)">
     <defs>
      <path id="CMSY10-3" d="M 1760 2719 
C 1766 2808 1766 2962 1600 2962 
C 1498 2962 1414 2879 1434 2795 
L 1434 2712 
L 1523 1720 
L 704 2316 
C 646 2348 634 2360 589 2360 
C 499 2360 416 2271 416 2181 
C 416 2079 480 2053 544 2021 
L 1453 1586 
L 570 1158 
C 467 1107 416 1081 416 985 
C 416 889 499 806 589 806 
C 634 806 646 806 806 928 
L 1523 1446 
L 1427 371 
C 1427 236 1542 204 1594 204 
C 1670 204 1766 248 1766 371 
L 1670 1446 
L 2490 851 
C 2547 819 2560 806 2605 806 
C 2694 806 2778 896 2778 985 
C 2778 1081 2720 1113 2643 1152 
C 2259 1343 2246 1343 1741 1580 
L 2624 2008 
C 2726 2060 2778 2085 2778 2181 
C 2778 2277 2694 2360 2605 2360 
C 2560 2360 2547 2360 2387 2239 
L 1670 1720 
L 1760 2719 
z
" transform="scale(0.015625)"/>
      <path id="CMR17-61" d="M 2304 1653 
C 2304 2072 2304 2294 2035 2543 
C 1798 2752 1523 2816 1306 2816 
C 800 2816 435 2407 435 1971 
C 435 1728 627 1728 666 1728 
C 749 1728 896 1778 896 1954 
C 896 2112 774 2181 666 2181 
C 640 2181 608 2174 589 2168 
C 723 2592 1069 2714 1293 2714 
C 1613 2714 1965 2429 1965 1885 
L 1965 1600 
C 1587 1600 1133 1549 774 1357 
C 371 1133 256 813 256 570 
C 256 77 832 -64 1171 -64 
C 1523 -64 1850 139 1990 511 
C 2003 233 2182 -18 2464 -18 
C 2598 -18 2938 70 2938 567 
L 2938 920 
L 2822 920 
L 2822 562 
C 2822 178 2650 128 2566 128 
C 2304 128 2304 458 2304 738 
L 2304 1653 
z
M 1965 870 
C 1965 317 1568 38 1216 38 
C 896 38 646 275 646 570 
C 646 761 730 1100 1101 1305 
C 1408 1478 1760 1504 1965 1504 
L 1965 870 
z
" transform="scale(0.015625)"/>
      <path id="CMR17-72" d="M 960 1497 
C 960 2112 1222 2688 1702 2688 
C 1747 2688 1792 2682 1837 2662 
C 1837 2662 1696 2617 1696 2452 
C 1696 2298 1818 2234 1914 2234 
C 1990 2234 2131 2279 2131 2458 
C 2131 2663 1926 2790 1709 2790 
C 1222 2790 1011 2317 947 2093 
L 941 2093 
L 941 2790 
L 198 2720 
L 198 2554 
C 576 2554 634 2515 634 2208 
L 634 428 
C 634 184 608 153 198 153 
L 198 -13 
C 352 0 646 0 813 0 
C 998 0 1325 0 1498 -13 
L 1498 153 
C 1037 153 960 153 960 440 
L 960 1497 
z
" transform="scale(0.015625)"/>
      <path id="CMR17-67" d="M 710 1164 
C 832 1068 1043 960 1299 960 
C 1805 960 2240 1357 2240 1888 
C 2240 2054 2189 2310 1997 2509 
C 2176 2692 2438 2752 2586 2752 
C 2611 2752 2650 2752 2682 2734 
C 2656 2728 2598 2703 2598 2605 
C 2598 2527 2656 2471 2739 2471 
C 2835 2471 2886 2533 2886 2614 
C 2886 2731 2790 2854 2586 2854 
C 2330 2854 2106 2738 1926 2580 
C 1734 2753 1504 2816 1299 2816 
C 794 2816 358 2419 358 1888 
C 358 1522 570 1292 634 1228 
C 442 1004 442 743 442 711 
C 442 545 506 302 723 168 
C 390 85 128 -169 128 -486 
C 128 -943 736 -1280 1466 -1280 
C 2170 -1280 2803 -956 2803 -479 
C 2803 384 1856 384 1363 384 
C 1216 384 954 384 922 391 
C 723 423 589 602 589 826 
C 589 883 589 1024 710 1164 
z
M 1299 1068 
C 736 1068 736 1760 736 1889 
C 736 2016 736 2708 1299 2708 
C 1862 2708 1862 2016 1862 1889 
C 1862 1760 1862 1068 1299 1068 
z
M 1466 -1171 
C 826 -1171 384 -835 384 -486 
C 384 -289 493 -105 634 -4 
C 794 104 858 104 1293 104 
C 1818 104 2547 104 2547 -486 
C 2547 -835 2106 -1171 1466 -1171 
z
" transform="scale(0.015625)"/>
      <path id="CMR17-6d" d="M 4326 1933 
C 4326 2252 4269 2790 3507 2790 
C 3072 2790 2771 2496 2656 2151 
L 2650 2151 
C 2573 2676 2195 2790 1837 2790 
C 1331 2790 1069 2400 973 2144 
L 966 2144 
L 966 2790 
L 211 2720 
L 211 2554 
C 589 2554 646 2515 646 2208 
L 646 428 
C 646 184 621 153 211 153 
L 211 -13 
C 365 0 646 0 813 0 
C 979 0 1267 0 1421 -13 
L 1421 153 
C 1011 153 986 178 986 428 
L 986 1658 
C 986 2247 1344 2688 1792 2688 
C 2266 2688 2317 2266 2317 1958 
L 2317 428 
C 2317 184 2291 153 1882 153 
L 1882 -13 
C 2035 0 2317 0 2483 0 
C 2650 0 2938 0 3091 -13 
L 3091 153 
C 2682 153 2656 178 2656 428 
L 2656 1658 
C 2656 2247 3014 2688 3462 2688 
C 3936 2688 3987 2266 3987 1958 
L 3987 428 
C 3987 184 3962 153 3552 153 
L 3552 -13 
C 3706 0 3987 0 4154 0 
C 4320 0 4608 0 4762 -13 
L 4762 153 
C 4352 153 4326 178 4326 428 
L 4326 1933 
z
" transform="scale(0.015625)"/>
      <path id="CMR17-78" d="M 1664 1477 
C 1856 1726 2074 2006 2253 2216 
C 2464 2458 2707 2560 2989 2560 
L 2989 2726 
C 2880 2726 2656 2726 2541 2726 
C 2368 2726 2170 2726 2022 2732 
L 2022 2566 
C 2112 2553 2163 2489 2163 2400 
C 2163 2285 2099 2215 2067 2171 
L 1594 1573 
L 1030 2306 
C 973 2376 973 2388 973 2420 
C 973 2497 1037 2560 1146 2560 
L 1146 2732 
C 992 2726 717 2726 557 2726 
C 384 2726 179 2726 38 2732 
L 38 2560 
C 384 2560 461 2534 614 2343 
L 1350 1395 
C 1363 1382 1395 1344 1395 1325 
C 1395 1299 838 619 768 530 
C 480 185 179 160 6 160 
L 6 0 
C 115 0 339 0 454 0 
C 582 0 864 0 979 -6 
L 979 160 
C 941 166 838 179 838 325 
C 838 440 890 510 947 586 
L 1478 1236 
L 2035 512 
C 2086 442 2163 346 2163 301 
C 2163 211 2086 160 1984 160 
L 1984 -6 
C 2138 0 2413 0 2573 0 
C 2746 0 2950 0 3091 -6 
L 3091 160 
C 2771 160 2675 172 2522 370 
L 1664 1477 
z
" transform="scale(0.015625)"/>
     </defs>
     <use xlink:href="#CMMI12-b" transform="scale(0.996264)"/>
     <use xlink:href="#CMSY10-3" transform="translate(62.681023 36.153639) scale(0.697382)"/>
     <use xlink:href="#CMR17-3d" transform="translate(125.722373 0) scale(0.996264)"/>
     <use xlink:href="#CMR17-61" transform="translate(225.111171 0) scale(0.996264)"/>
     <use xlink:href="#CMR17-72" transform="translate(270.801648 0) scale(0.996264)"/>
     <use xlink:href="#CMR17-67" transform="translate(306.082416 0) scale(0.996264)"/>
     <use xlink:href="#CMR17-6d" transform="translate(351.772893 0) scale(0.996264)"/>
     <use xlink:href="#CMR17-61" transform="translate(428.692483 0) scale(0.996264)"/>
     <use xlink:href="#CMR17-78" transform="translate(474.38296 0) scale(0.996264)"/>
     <use xlink:href="#CMR17-28" transform="translate(539.280281 0.003177) scale(0.996264)"/>
     <use xlink:href="#CMMI12-66" transform="translate(574.561049 0) scale(0.996264)"/>
     <use xlink:href="#CMR17-28" transform="translate(633.281353 0) scale(0.996264)"/>
     <use xlink:href="#CMMI12-b" transform="translate(668.562121 0) scale(0.996264)"/>
     <use xlink:href="#CMR17-29" transform="translate(731.243144 0) scale(0.996264)"/>
     <use xlink:href="#CMR17-29" transform="translate(766.523912 0.003177) scale(0.996264)"/>
    </g>
   </g>
   <g id="PathCollection_1">
    <defs>
     <path id="mc3a11d1287" d="M 0 3 
C 0.795609 3 1.55874 2.683901 2.12132 2.12132 
C 2.683901 1.55874 3 0.795609 3 0 
C 3 -0.795609 2.683901 -1.55874 2.12132 -2.12132 
C 1.55874 -2.683901 0.795609 -3 0 -3 
C -0.795609 -3 -1.55874 -2.683901 -2.12132 -2.12132 
C -2.683901 -1.55874 -3 -0.795609 -3 0 
C -3 0.795609 -2.683901 1.55874 -2.12132 2.12132 
C -1.55874 2.683901 -0.795609 3 0 3 
z
" style="stroke: #fa8174"/>
    </defs>
    <g clip-path="url(#pc19b7be3b1)">
     <use xlink:href="#mc3a11d1287" x="277.16237" y="115.341438" style="fill: #fa8174; stroke: #fa8174"/>
    </g>
   </g>
  </g>
 </g>
 <defs>
  <clipPath id="pd8b6df6856">
   <rect x="106.618041" y="17.352247" width="263.070084" height="76.335656"/>
  </clipPath>
  <clipPath id="pc19b7be3b1">
   <rect x="43.106646" y="112.151675" width="390.092874" height="76.335656"/>
  </clipPath>
 </defs>
</svg>
