<?xml version="1.0" encoding="utf-8" standalone="no"?>
<!DOCTYPE svg PUBLIC "-//W3C//DTD SVG 1.1//EN"
  "http://www.w3.org/Graphics/SVG/1.1/DTD/svg11.dtd">
<svg xmlns:xlink="http://www.w3.org/1999/xlink" width="397.006502pt" height="173.471353pt" viewBox="0 0 397.006502 173.471353" xmlns="http://www.w3.org/2000/svg" version="1.1">
 <metadata>
  <rdf:RDF xmlns:dc="http://purl.org/dc/elements/1.1/" xmlns:cc="http://creativecommons.org/ns#" xmlns:rdf="http://www.w3.org/1999/02/22-rdf-syntax-ns#">
   <cc:Work>
    <dc:type rdf:resource="http://purl.org/dc/dcmitype/StillImage"/>
    <dc:date>2025-02-17T20:16:40.341693</dc:date>
    <dc:format>image/svg+xml</dc:format>
    <dc:creator>
     <cc:Agent>
      <dc:title>Matplotlib v3.10.0, https://matplotlib.org/</dc:title>
     </cc:Agent>
    </dc:creator>
   </cc:Work>
  </rdf:RDF>
 </metadata>
 <defs>
  <style type="text/css">*{stroke-linejoin: round; stroke-linecap: butt}</style>
 </defs>
 <g id="figure_1">
  <g id="patch_1">
   <path d="M 0 173.471353 
L 397.006502 173.471353 
L 397.006502 0 
L 0 0 
L 0 173.471353 
z
" style="fill: none"/>
  </g>
  <g id="axes_1">
   <g id="patch_2">
    <path d="M 47.534499 59.291765 
L 382.334499 59.291765 
L 382.334499 26.68 
L 47.534499 26.68 
L 47.534499 59.291765 
z
" style="fill: none"/>
   </g>
   <g id="matplotlib.axis_1">
    <g id="xtick_1">
     <g id="line2d_1">
      <defs>
       <path id="m76dec0bf30" d="M 0 0 
L 0 3.5 
" style="stroke: #ffffff; stroke-width: 0.8"/>
      </defs>
      <g>
       <use xlink:href="#m76dec0bf30" x="47.534499" y="59.291765" style="fill: #ffffff; stroke: #ffffff; stroke-width: 0.8"/>
      </g>
     </g>
    </g>
    <g id="xtick_2">
     <g id="line2d_2">
      <g>
       <use xlink:href="#m76dec0bf30" x="95.363071" y="59.291765" style="fill: #ffffff; stroke: #ffffff; stroke-width: 0.8"/>
      </g>
     </g>
    </g>
    <g id="xtick_3">
     <g id="line2d_3">
      <g>
       <use xlink:href="#m76dec0bf30" x="143.191642" y="59.291765" style="fill: #ffffff; stroke: #ffffff; stroke-width: 0.8"/>
      </g>
     </g>
    </g>
    <g id="xtick_4">
     <g id="line2d_4">
      <g>
       <use xlink:href="#m76dec0bf30" x="191.020214" y="59.291765" style="fill: #ffffff; stroke: #ffffff; stroke-width: 0.8"/>
      </g>
     </g>
    </g>
    <g id="xtick_5">
     <g id="line2d_5">
      <g>
       <use xlink:href="#m76dec0bf30" x="238.848785" y="59.291765" style="fill: #ffffff; stroke: #ffffff; stroke-width: 0.8"/>
      </g>
     </g>
    </g>
    <g id="xtick_6">
     <g id="line2d_6">
      <g>
       <use xlink:href="#m76dec0bf30" x="286.677357" y="59.291765" style="fill: #ffffff; stroke: #ffffff; stroke-width: 0.8"/>
      </g>
     </g>
    </g>
    <g id="xtick_7">
     <g id="line2d_7">
      <g>
       <use xlink:href="#m76dec0bf30" x="334.505928" y="59.291765" style="fill: #ffffff; stroke: #ffffff; stroke-width: 0.8"/>
      </g>
     </g>
    </g>
    <g id="xtick_8">
     <g id="line2d_8">
      <g>
       <use xlink:href="#m76dec0bf30" x="382.334499" y="59.291765" style="fill: #ffffff; stroke: #ffffff; stroke-width: 0.8"/>
      </g>
     </g>
    </g>
   </g>
   <g id="matplotlib.axis_2">
    <g id="ytick_1">
     <g id="line2d_9">
      <defs>
       <path id="mb92dcdea50" d="M 0 0 
L -3.5 0 
" style="stroke: #ffffff; stroke-width: 0.8"/>
      </defs>
      <g>
       <use xlink:href="#mb92dcdea50" x="47.534499" y="59.291765" style="fill: #ffffff; stroke: #ffffff; stroke-width: 0.8"/>
      </g>
     </g>
     <g id="text_1">
      <!-- $\mathdefault{2.5}$ -->
      <g style="fill: #ffffff" transform="translate(27.80442 62.751014) scale(0.1 -0.1)">
       <defs>
        <path id="CMR17-32" d="M 2669 989 
L 2554 989 
C 2490 536 2438 459 2413 420 
C 2381 369 1920 369 1830 369 
L 602 369 
C 832 619 1280 1072 1824 1597 
C 2214 1967 2669 2402 2669 3035 
C 2669 3790 2067 4224 1395 4224 
C 691 4224 262 3604 262 3030 
C 262 2780 448 2748 525 2748 
C 589 2748 781 2787 781 3010 
C 781 3207 614 3264 525 3264 
C 486 3264 448 3258 422 3245 
C 544 3790 915 4058 1306 4058 
C 1862 4058 2227 3617 2227 3035 
C 2227 2479 1901 2000 1536 1584 
L 262 146 
L 262 0 
L 2515 0 
L 2669 989 
z
" transform="scale(0.015625)"/>
        <path id="CMMI12-3a" d="M 1178 307 
C 1178 492 1024 619 870 619 
C 685 619 557 466 557 313 
C 557 128 710 0 864 0 
C 1050 0 1178 153 1178 307 
z
" transform="scale(0.015625)"/>
        <path id="CMR17-35" d="M 730 3692 
C 794 3666 1056 3584 1325 3584 
C 1920 3584 2246 3911 2432 4100 
C 2432 4157 2432 4192 2394 4192 
C 2387 4192 2374 4192 2323 4163 
C 2099 4058 1837 3973 1517 3973 
C 1325 3973 1037 3999 723 4139 
C 653 4171 640 4171 634 4171 
C 602 4171 595 4164 595 4037 
L 595 2203 
C 595 2089 595 2057 659 2057 
C 691 2057 704 2070 736 2114 
C 941 2401 1222 2522 1542 2522 
C 1766 2522 2246 2382 2246 1289 
C 2246 1085 2246 715 2054 421 
C 1894 159 1645 25 1370 25 
C 947 25 518 320 403 814 
C 429 807 480 795 506 795 
C 589 795 749 840 749 1038 
C 749 1210 627 1280 506 1280 
C 358 1280 262 1190 262 1011 
C 262 454 704 -128 1382 -128 
C 2042 -128 2669 440 2669 1264 
C 2669 2030 2170 2624 1549 2624 
C 1222 2624 947 2503 730 2274 
L 730 3692 
z
" transform="scale(0.015625)"/>
       </defs>
       <use xlink:href="#CMR17-32" transform="scale(0.996264)"/>
       <use xlink:href="#CMMI12-3a" transform="translate(45.690477 0) scale(0.996264)"/>
       <use xlink:href="#CMR17-35" transform="translate(72.787654 0) scale(0.996264)"/>
      </g>
     </g>
    </g>
    <g id="ytick_2">
     <g id="line2d_10">
      <g>
       <use xlink:href="#mb92dcdea50" x="47.534499" y="42.985882" style="fill: #ffffff; stroke: #ffffff; stroke-width: 0.8"/>
      </g>
     </g>
     <g id="text_2">
      <!-- $\mathdefault{3.0}$ -->
      <g style="fill: #ffffff" transform="translate(27.80442 46.445132) scale(0.1 -0.1)">
       <defs>
        <path id="CMR17-33" d="M 1414 2157 
C 1984 2157 2234 1662 2234 1090 
C 2234 320 1824 25 1453 25 
C 1114 25 563 194 390 693 
C 422 680 454 680 486 680 
C 640 680 755 782 755 948 
C 755 1133 614 1216 486 1216 
C 378 1216 211 1165 211 926 
C 211 335 787 -128 1466 -128 
C 2176 -128 2720 430 2720 1085 
C 2720 1707 2208 2157 1600 2227 
C 2086 2328 2554 2756 2554 3329 
C 2554 3820 2048 4179 1472 4179 
C 890 4179 378 3829 378 3329 
C 378 3110 544 3072 627 3072 
C 762 3072 877 3155 877 3321 
C 877 3486 762 3569 627 3569 
C 602 3569 570 3569 544 3557 
C 730 3959 1235 4032 1459 4032 
C 1683 4032 2106 3925 2106 3320 
C 2106 3143 2080 2828 1862 2550 
C 1670 2304 1453 2304 1242 2284 
C 1210 2284 1062 2269 1037 2269 
C 992 2263 966 2257 966 2208 
C 966 2163 973 2157 1101 2157 
L 1414 2157 
z
" transform="scale(0.015625)"/>
        <path id="CMR17-30" d="M 2688 2025 
C 2688 2416 2682 3080 2413 3591 
C 2176 4039 1798 4198 1466 4198 
C 1158 4198 768 4058 525 3597 
C 269 3118 243 2524 243 2025 
C 243 1661 250 1106 448 619 
C 723 -39 1216 -128 1466 -128 
C 1760 -128 2208 -7 2470 600 
C 2662 1042 2688 1559 2688 2025 
z
M 1466 -26 
C 1056 -26 813 325 723 812 
C 653 1188 653 1738 653 2096 
C 653 2588 653 2997 736 3387 
C 858 3929 1216 4096 1466 4096 
C 1728 4096 2067 3923 2189 3400 
C 2272 3036 2278 2607 2278 2096 
C 2278 1680 2278 1169 2202 792 
C 2067 95 1690 -26 1466 -26 
z
" transform="scale(0.015625)"/>
       </defs>
       <use xlink:href="#CMR17-33" transform="scale(0.996264)"/>
       <use xlink:href="#CMMI12-3a" transform="translate(45.690477 0) scale(0.996264)"/>
       <use xlink:href="#CMR17-30" transform="translate(72.787654 0) scale(0.996264)"/>
      </g>
     </g>
    </g>
    <g id="ytick_3">
     <g id="line2d_11">
      <g>
       <use xlink:href="#mb92dcdea50" x="47.534499" y="26.68" style="fill: #ffffff; stroke: #ffffff; stroke-width: 0.8"/>
      </g>
     </g>
     <g id="text_3">
      <!-- $\mathdefault{3.5}$ -->
      <g style="fill: #ffffff" transform="translate(27.80442 30.139249) scale(0.1 -0.1)">
       <use xlink:href="#CMR17-33" transform="scale(0.996264)"/>
       <use xlink:href="#CMMI12-3a" transform="translate(45.690477 0) scale(0.996264)"/>
       <use xlink:href="#CMR17-35" transform="translate(72.787654 0) scale(0.996264)"/>
      </g>
     </g>
    </g>
    <g id="text_4">
     <!-- $c_x$ -->
     <g style="fill: #ffffff" transform="translate(21.867242 47.400472) rotate(-90) scale(0.1 -0.1)">
      <defs>
       <path id="CMMI12-63" d="M 2502 2431 
C 2381 2431 2323 2431 2234 2355 
C 2195 2323 2125 2227 2125 2125 
C 2125 1997 2221 1920 2342 1920 
C 2496 1920 2669 2044 2669 2292 
C 2669 2588 2374 2816 1933 2816 
C 1094 2816 256 1903 256 996 
C 256 441 602 -64 1254 -64 
C 2125 -64 2675 622 2675 706 
C 2675 744 2637 776 2611 776 
C 2592 776 2586 770 2528 713 
C 2118 162 1510 64 1267 64 
C 826 64 685 446 685 764 
C 685 988 794 1605 1024 2039 
C 1190 2338 1536 2682 1939 2682 
C 2022 2682 2374 2682 2502 2431 
z
" transform="scale(0.015625)"/>
       <path id="CMMI12-78" d="M 3034 2606 
C 2829 2567 2752 2414 2752 2293 
C 2752 2139 2874 2088 2963 2088 
C 3155 2088 3290 2254 3290 2427 
C 3290 2695 2982 2816 2714 2816 
C 2323 2816 2106 2433 2048 2312 
C 1901 2816 1504 2816 1389 2816 
C 736 2816 390 1980 390 1839 
C 390 1814 416 1782 461 1782 
C 512 1782 525 1820 538 1846 
C 755 2555 1184 2689 1370 2689 
C 1658 2689 1715 2420 1715 2267 
C 1715 2127 1677 1980 1600 1673 
L 1382 798 
C 1286 415 1101 64 762 64 
C 730 64 570 64 435 147 
C 666 192 717 383 717 460 
C 717 588 621 664 499 664 
C 346 664 179 530 179 326 
C 179 57 480 -64 755 -64 
C 1062 -64 1280 179 1414 441 
C 1517 64 1837 -64 2074 -64 
C 2726 -64 3072 773 3072 913 
C 3072 945 3046 971 3008 971 
C 2950 971 2944 939 2925 888 
C 2752 326 2381 64 2093 64 
C 1869 64 1747 230 1747 492 
C 1747 632 1773 734 1875 1156 
L 2099 2024 
C 2195 2408 2413 2689 2707 2689 
C 2720 2689 2899 2689 3034 2606 
z
" transform="scale(0.015625)"/>
      </defs>
      <use xlink:href="#CMMI12-63" transform="scale(0.996264)"/>
      <use xlink:href="#CMMI12-78" transform="translate(41.983234 -14.943915) scale(0.697382)"/>
     </g>
    </g>
   </g>
   <g id="line2d_12">
    <path d="M 47.510585 40.632637 
L 48.443242 40.748017 
L 49.112842 40.803992 
L 51.408614 40.465123 
L 51.719499 40.360303 
L 54.613128 39.762535 
L 55.402299 39.835614 
L 58.511157 40.25628 
L 59.395985 40.109901 
L 60.137328 39.878141 
L 63.102699 39.087544 
L 63.915785 39.164558 
L 67.024642 39.760283 
L 67.789899 39.676391 
L 68.602985 39.445099 
L 69.559557 39.072872 
L 71.855328 38.555083 
L 72.429271 38.632781 
L 72.931471 38.736443 
L 73.385842 38.876114 
L 75.370728 39.390253 
L 77.116471 39.101261 
L 79.603557 38.111783 
L 80.631871 38.031147 
L 80.823185 38.070091 
L 81.444957 38.220985 
L 82.831985 38.717482 
L 83.310271 38.867935 
L 84.075528 39.030237 
L 84.745128 39.009987 
L 85.677785 38.771823 
L 86.443042 38.426189 
L 86.993071 38.172675 
L 88.164871 37.730142 
L 89.408414 37.700051 
L 91.345471 38.394862 
L 92.230299 38.691931 
L 93.473842 38.765324 
L 94.717385 38.31972 
L 96.989242 37.336171 
L 97.563185 37.293163 
L 99.141528 37.7033 
L 100.719871 38.382532 
L 101.150328 38.489969 
L 101.485128 38.537264 
L 102.035157 38.509171 
L 103.828728 37.815167 
L 105.694042 37.068184 
L 105.957099 37.040326 
L 106.339728 37.054976 
L 106.913671 37.169329 
L 107.726757 37.494832 
L 107.918071 37.59089 
L 108.228957 37.740973 
L 108.826814 38.038828 
L 110.309499 38.401202 
L 111.313899 38.194464 
L 112.103071 37.791351 
L 112.246557 37.738596 
L 113.490099 37.062764 
L 113.848814 36.929184 
L 114.470585 36.799807 
L 115.283671 36.845939 
L 115.474985 36.905719 
L 115.833699 37.031495 
L 116.503299 37.343184 
L 118.081642 38.07588 
L 119.229528 38.199321 
L 120.042614 37.974211 
L 121.884014 36.994563 
L 122.075328 36.922243 
L 122.960157 36.657124 
L 123.127557 36.647609 
L 123.701499 36.671763 
L 125.279842 37.32162 
L 125.949442 37.684148 
L 126.906014 38.07016 
L 128.484357 37.952187 
L 128.866985 37.784561 
L 131.114928 36.589985 
L 131.425814 36.51535 
L 131.784528 36.474292 
L 132.047585 36.47757 
L 132.214985 36.502338 
L 132.358471 36.525358 
L 132.669357 36.598746 
L 133.458528 36.951101 
L 134.008557 37.238286 
L 135.802128 37.995852 
L 137.093499 37.829419 
L 139.939299 36.441488 
L 140.154528 36.438551 
L 140.417585 36.405728 
L 140.991528 36.471619 
L 142.043757 36.89031 
L 142.785099 37.308904 
L 143.215557 37.551824 
L 144.650414 37.991091 
L 145.343928 37.920569 
L 145.822214 37.743301 
L 145.989614 37.661459 
L 147.496214 36.77756 
L 149.002814 36.29021 
L 150.820299 36.867535 
L 153.020414 37.876628 
L 153.618271 37.882613 
L 153.905242 37.835916 
L 155.507499 37.067395 
L 155.770557 36.911572 
L 156.320585 36.613846 
L 156.846699 36.396134 
L 157.444557 36.271382 
L 159.022899 36.649494 
L 160.194699 37.330006 
L 161.557814 37.876199 
L 162.299157 37.877311 
L 163.327471 37.496033 
L 165.240614 36.394232 
L 165.623242 36.263935 
L 166.005871 36.191382 
L 166.962442 36.279993 
L 167.201585 36.375486 
L 167.799442 36.665952 
L 168.516871 37.076529 
L 168.779928 37.228112 
L 169.066899 37.389029 
L 169.497357 37.587101 
L 169.736499 37.684854 
L 171.123528 37.760506 
L 172.343157 37.199802 
L 172.869271 36.890062 
L 174.615014 36.189907 
L 174.997642 36.182655 
L 175.810728 36.397097 
L 176.480328 36.710978 
L 176.719471 36.859504 
L 178.345642 37.720295 
L 179.397871 37.836743 
L 179.732671 37.774918 
L 180.067471 37.659278 
L 180.521842 37.438048 
L 181.717557 36.709642 
L 182.076271 36.512381 
L 183.558957 36.121363 
L 183.869842 36.160977 
L 184.061157 36.207304 
L 184.635099 36.408417 
L 184.993814 36.621069 
L 185.161214 36.70166 
L 185.974299 37.196354 
L 187.050442 37.684215 
L 188.007014 37.775791 
L 189.681014 37.077076 
L 190.350614 36.66924 
L 191.522414 36.184146 
L 192.024614 36.130564 
L 192.550728 36.182789 
L 192.933357 36.31597 
L 193.268157 36.469316 
L 193.698614 36.710738 
L 194.989985 37.462933 
L 195.755242 37.750406 
L 196.400928 37.818786 
L 197.596642 37.465269 
L 198.098842 37.183682 
L 199.055414 36.581473 
L 199.653271 36.287522 
L 200.992471 36.117529 
L 201.494671 36.245409 
L 203.503471 37.34294 
L 203.838271 37.519406 
L 204.005671 37.58627 
L 204.531785 37.736561 
L 204.938328 37.768354 
L 205.368785 37.725075 
L 206.086214 37.484287 
L 206.875385 37.05104 
L 207.090614 36.886067 
L 207.210185 36.839001 
L 207.736299 36.522491 
L 209.505957 36.122715 
L 210.151642 36.28986 
L 210.366871 36.412451 
L 211.227785 36.871205 
L 212.016957 37.366362 
L 212.232185 37.469957 
L 212.853957 37.714418 
L 213.236585 37.787775 
L 213.977928 37.753365 
L 215.173642 37.228597 
L 215.747585 36.862342 
L 217.708557 36.058469 
L 218.689042 36.228766 
L 221.821814 37.737672 
L 222.682728 37.684648 
L 223.471899 37.370631 
L 225.863328 36.124275 
L 226.030728 36.11662 
L 226.532928 36.086658 
L 227.441671 36.328341 
L 227.704728 36.466818 
L 227.896042 36.563684 
L 230.287471 37.763079 
L 230.933157 37.78787 
L 231.794071 37.517736 
L 231.961471 37.440346 
L 232.463671 37.153584 
L 232.774557 36.961412 
L 234.568128 36.077373 
L 236.218214 36.36309 
L 236.457357 36.496118 
L 236.863899 36.727103 
L 238.585728 37.635155 
L 239.518385 37.741067 
L 240.522785 37.428851 
L 241.024985 37.149896 
L 241.742414 36.712845 
L 242.101128 36.503032 
L 242.579414 36.284989 
L 243.105528 36.126945 
L 243.344671 36.088584 
L 243.655557 36.075116 
L 244.325157 36.211027 
L 244.779528 36.414036 
L 245.186071 36.606363 
L 245.664357 36.900098 
L 245.903499 37.059526 
L 246.931814 37.611416 
L 247.194871 37.688776 
L 247.720985 37.788325 
L 249.012357 37.504897 
L 249.442814 37.272324 
L 250.279814 36.743676 
L 251.642928 36.084653 
L 251.905985 36.049046 
L 252.145128 36.043918 
L 252.910385 36.169586 
L 253.245185 36.284429 
L 253.938699 36.657987 
L 255.038757 37.313115 
L 256.784499 37.711823 
L 257.214957 37.619759 
L 259.702042 36.297595 
L 260.921671 36.074491 
L 262.523928 36.700439 
L 263.576157 37.348617 
L 263.863128 37.472249 
L 264.221842 37.638073 
L 265.130585 37.785356 
L 266.326299 37.43207 
L 267.043728 36.995652 
L 267.258957 36.873173 
L 267.832899 36.506553 
L 269.004699 36.061175 
L 269.626471 36.039703 
L 269.865614 36.102119 
L 270.798271 36.467718 
L 271.659185 36.999899 
L 271.778757 37.049076 
L 272.089642 37.234667 
L 273.141871 37.683247 
L 274.241928 37.668719 
L 275.150671 37.295067 
L 275.485471 37.0719 
L 275.628957 37.000237 
L 275.844185 36.868803 
L 276.442042 36.510775 
L 277.159471 36.195026 
L 278.163871 36.084469 
L 278.570414 36.172462 
L 279.455242 36.555058 
L 280.722699 37.318655 
L 281.009671 37.461453 
L 282.205385 37.786305 
L 283.281528 37.538874 
L 284.429414 36.880966 
L 284.788128 36.654718 
L 285.362071 36.328652 
L 286.677357 36.033806 
L 286.988242 36.100378 
L 288.040471 36.496583 
L 288.423099 36.722177 
L 290.240585 37.663004 
L 291.938499 37.481519 
L 292.584185 37.136191 
L 293.301614 36.695269 
L 293.564671 36.5282 
L 293.779899 36.434518 
L 294.353842 36.191915 
L 295.119099 36.066246 
L 295.764785 36.172695 
L 296.936585 36.719812 
L 297.701842 37.204651 
L 297.988814 37.366604 
L 298.538842 37.6158 
L 299.232357 37.768077 
L 299.638899 37.779251 
L 300.093271 37.684265 
L 301.002014 37.259827 
L 303.465185 36.034387 
L 304.780471 36.269328 
L 307.243642 37.596803 
L 308.319785 37.715437 
L 309.539414 37.266667 
L 310.639471 36.601889 
L 310.950357 36.4411 
L 311.500385 36.19699 
L 312.576528 36.078747 
L 313.270042 36.27721 
L 313.557014 36.405866 
L 314.130957 36.727987 
L 314.824471 37.167798 
L 316.331071 37.764427 
L 316.905014 37.753245 
L 317.670271 37.526109 
L 320.516071 36.063168 
L 321.185671 36.051239 
L 322.548785 36.58603 
L 323.768414 37.306802 
L 324.581499 37.646279 
L 324.892385 37.721905 
L 325.825042 37.659323 
L 328.694757 36.19641 
L 329.651328 36.066029 
L 330.392671 36.254854 
L 330.775299 36.415582 
L 330.990528 36.542717 
L 333.023242 37.65596 
L 334.362442 37.711044 
L 334.912471 37.512957 
L 335.199442 37.353056 
L 336.945185 36.312921 
L 337.614785 36.066858 
L 338.069157 36.035762 
L 338.643099 36.107643 
L 339.599671 36.503951 
L 339.982299 36.726273 
L 341.704128 37.629451 
L 342.493299 37.735 
L 343.593357 37.440787 
L 344.119471 37.142133 
L 346.367414 36.085743 
L 346.845699 36.071381 
L 348.041414 36.462743 
L 350.026299 37.600368 
L 351.437242 37.732898 
L 352.226414 37.433996 
L 353.159071 36.876405 
L 353.685185 36.548681 
L 354.211299 36.274446 
L 355.143957 36.028622 
L 356.363585 36.286416 
L 356.674471 36.446377 
L 357.535385 36.947 
L 357.870185 37.159469 
L 358.850671 37.620096 
L 359.711585 37.734059 
L 360.261614 37.626628 
L 360.668157 37.480408 
L 361.170357 37.221896 
L 361.600814 36.943781 
L 361.720385 36.879423 
L 361.983442 36.718507 
L 363.896585 36.056905 
L 364.900985 36.306753 
L 365.164042 36.451636 
L 365.307528 36.510635 
L 366.527157 37.248216 
L 367.651128 37.721824 
L 369.014242 37.61653 
L 369.420785 37.428586 
L 370.592585 36.714402 
L 371.046957 36.449797 
L 371.286099 36.321163 
L 372.529642 36.029598 
L 373.199242 36.16565 
L 376.308099 37.690469 
L 376.977699 37.731048 
L 377.695128 37.541167 
L 378.006014 37.401737 
L 378.556042 37.096549 
L 378.938671 36.859295 
L 379.129985 36.745487 
L 379.751757 36.395081 
L 381.354014 36.088883 
L 381.664899 36.168221 
L 382.358414 36.443977 
L 382.358414 36.443977 
" clip-path="url(#pfeef9f08ca)" style="fill: none; stroke: #ffffff; stroke-width: 1.5; stroke-linecap: square"/>
   </g>
   <g id="line2d_13">
    <path d="M 47.510585 40.632637 
L 48.443242 40.748017 
L 49.112842 40.803992 
L 51.408614 40.465123 
L 51.719499 40.360303 
L 54.613128 39.762535 
L 55.402299 39.835614 
L 58.511157 40.25628 
L 59.395985 40.109901 
L 60.137328 39.878141 
L 63.102699 39.087544 
L 63.915785 39.164558 
L 67.024642 39.760283 
L 67.789899 39.676391 
L 68.602985 39.445099 
L 69.559557 39.072872 
L 71.855328 38.555083 
L 72.429271 38.632781 
L 72.931471 38.736443 
L 73.385842 38.876114 
L 75.370728 39.390253 
L 77.116471 39.101261 
L 79.603557 38.111783 
L 80.631871 38.031147 
L 80.823185 38.070091 
L 81.444957 38.220985 
L 82.831985 38.717482 
L 83.310271 38.867935 
L 84.075528 39.030237 
L 84.745128 39.009987 
L 85.677785 38.771823 
L 86.443042 38.426189 
L 86.993071 38.172675 
L 88.164871 37.730142 
L 89.408414 37.700051 
L 91.345471 38.394862 
L 92.230299 38.691931 
L 93.473842 38.765324 
L 94.717385 38.31972 
L 95.482642 37.823548 
L 95.769614 37.732528 
L 95.984842 37.883631 
L 96.200071 37.917264 
L 96.367471 37.91391 
L 97.443614 38.26806 
L 98.615414 39.148864 
L 100.026357 40.082945 
L 100.863357 40.311748 
L 101.796014 39.76667 
L 102.633014 39.256717 
L 102.872157 39.170976 
L 103.517842 38.893479 
L 103.733071 38.857352 
L 104.928785 38.650733 
L 107.320214 39.708549 
L 107.726757 39.947849 
L 109.496414 40.568741 
L 109.855128 40.702052 
L 110.261671 40.70564 
L 112.677014 40.387366 
L 115.020614 40.706473 
L 116.718528 41.092556 
L 116.981585 41.141337 
L 117.914242 41.214142 
L 118.655585 41.261744 
L 122.099242 41.649655 
L 128.245214 42.48437 
L 133.912899 42.868797 
L 138.121814 43.111511 
L 142.880757 43.312456 
L 147.257071 43.436049 
L 149.744157 43.545571 
L 152.087757 43.613986 
L 154.957471 43.570639 
L 158.448957 43.684374 
L 166.053699 43.811321 
L 169.066899 43.82887 
L 170.430014 43.838611 
L 174.997642 43.848631 
L 177.819528 43.96134 
L 232.918042 44.184617 
L 382.358414 44.247013 
L 382.358414 44.247013 
" clip-path="url(#pfeef9f08ca)" style="fill: none; stroke: #8dd3c7; stroke-width: 1.5; stroke-linecap: square"/>
   </g>
   <g id="line2d_14">
    <path d="M 47.510585 40.632637 
L 48.443242 40.748017 
L 49.112842 40.803992 
L 51.408614 40.465123 
L 51.719499 40.360303 
L 54.613128 39.762535 
L 55.402299 39.835614 
L 58.511157 40.25628 
L 59.395985 40.109901 
L 60.137328 39.878141 
L 63.102699 39.087544 
L 63.915785 39.164558 
L 67.024642 39.760283 
L 67.789899 39.676391 
L 68.602985 39.445099 
L 69.559557 39.072872 
L 71.855328 38.555083 
L 72.429271 38.632781 
L 72.931471 38.736443 
L 73.385842 38.876114 
L 75.370728 39.390253 
L 77.116471 39.101261 
L 79.603557 38.111783 
L 80.631871 38.031147 
L 80.823185 38.070091 
L 81.444957 38.220985 
L 82.831985 38.717482 
L 83.310271 38.867935 
L 84.075528 39.030237 
L 84.745128 39.009987 
L 85.677785 38.771823 
L 86.443042 38.426189 
L 86.993071 38.172675 
L 88.164871 37.730142 
L 89.408414 37.700051 
L 91.345471 38.394862 
L 92.230299 38.691931 
L 93.473842 38.765324 
L 94.717385 38.31972 
L 96.295728 37.646678 
L 96.487042 37.685305 
L 96.917499 37.790756 
L 97.850157 38.240101 
L 99.069785 39.178 
L 100.169842 39.82954 
L 100.695957 40.037915 
L 100.911185 40.087814 
L 101.126414 40.007417 
L 101.365557 39.80295 
L 101.963414 39.851908 
L 102.178642 39.595355 
L 102.537357 39.329943 
L 103.278699 38.850119 
L 104.283099 38.572445 
L 104.976614 38.525302 
L 106.267985 39.045971 
L 106.626699 39.282518 
L 107.081071 39.562531 
L 108.061557 40.124315 
L 108.802899 40.342946 
L 109.018128 40.269626 
L 110.046442 40.341446 
L 110.763871 40.141327 
L 112.605271 40.055097 
L 114.064042 40.268452 
L 114.351014 40.427469 
L 114.590157 40.419534 
L 114.972785 40.511557 
L 115.283671 40.702463 
L 117.340299 41.382669 
L 119.038214 41.572318 
L 120.879614 41.448689 
L 122.266642 41.616539 
L 122.744928 41.672391 
L 126.762528 41.955052 
L 127.432128 42.014071 
L 127.862585 42.021948 
L 128.149557 42.088457 
L 130.301842 42.272425 
L 131.043185 42.308472 
L 131.282328 42.335888 
L 132.478042 42.53245 
L 134.391185 42.841833 
L 135.276014 42.805929 
L 140.417585 42.683173 
L 140.824128 42.712051 
L 141.039357 42.667899 
L 144.148214 42.941941 
L 144.506928 42.915884 
L 145.846128 42.911987 
L 148.620185 42.899932 
L 149.528928 42.816598 
L 149.791985 42.802351 
L 150.389842 42.931074 
L 150.820299 42.988882 
L 151.800785 43.059238 
L 152.111671 43.134919 
L 152.781271 43.074182 
L 152.996499 42.951986 
L 153.259557 42.99578 
L 153.474785 43.120359 
L 154.024814 43.040319 
L 155.674899 42.89119 
L 156.320585 42.969681 
L 157.564128 42.829915 
L 159.501185 42.880231 
L 159.788157 42.95887 
L 160.577328 43.014516 
L 161.414328 43.050526 
L 161.892614 43.101669 
L 162.825271 43.059031 
L 163.781842 43.108832 
L 164.188385 43.151122 
L 165.336271 43.100587 
L 170.573499 43.40754 
L 172.319242 43.355967 
L 175.715071 43.443772 
L 177.747785 43.502706 
L 183.271985 43.597768 
L 188.820099 43.807679 
L 197.381414 43.875503 
L 204.890499 43.982338 
L 303.943471 44.157974 
L 307.076242 44.17445 
L 316.857185 44.147642 
L 319.702985 44.159296 
L 328.096899 44.169448 
L 335.008128 44.150332 
L 348.376214 44.138256 
L 353.613442 44.158314 
L 360.142042 44.174536 
L 382.023614 44.153561 
L 382.358414 44.149038 
L 382.358414 44.149038 
" clip-path="url(#pfeef9f08ca)" style="fill: none; stroke-dasharray: 5.55,2.4; stroke-dashoffset: 0; stroke: #feffb3; stroke-width: 1.5"/>
   </g>
   <g id="line2d_15">
    <path d="M 95.363071 59.291765 
L 95.363071 26.68 
" clip-path="url(#pfeef9f08ca)" style="fill: none; stroke-dasharray: 1.5,2.475; stroke-dashoffset: 0; stroke: #ffffff; stroke-width: 1.5"/>
   </g>
   <g id="patch_3">
    <path d="M 47.534499 59.291765 
L 47.534499 26.68 
" style="fill: none; stroke: #ffffff; stroke-width: 0.8; stroke-linejoin: miter; stroke-linecap: square"/>
   </g>
   <g id="patch_4">
    <path d="M 382.334499 59.291765 
L 382.334499 26.68 
" style="fill: none; stroke: #ffffff; stroke-width: 0.8; stroke-linejoin: miter; stroke-linecap: square"/>
   </g>
   <g id="patch_5">
    <path d="M 47.534499 59.291765 
L 382.334499 59.291765 
" style="fill: none; stroke: #ffffff; stroke-width: 0.8; stroke-linejoin: miter; stroke-linecap: square"/>
   </g>
   <g id="patch_6">
    <path d="M 47.534499 26.68 
L 382.334499 26.68 
" style="fill: none; stroke: #ffffff; stroke-width: 0.8; stroke-linejoin: miter; stroke-linecap: square"/>
   </g>
   <g id="text_5">
    <!-- controlled $\rightarrow$ -->
    <g style="fill: #ffffff" transform="translate(97.754499 56.030588) scale(0.1 -0.1)">
     <defs>
      <path id="CMSS17-63" d="M 2464 2541 
C 2464 2585 2170 2714 2093 2739 
C 1882 2816 1613 2816 1542 2816 
C 710 2816 211 2093 211 1363 
C 211 595 768 -64 1517 -64 
C 1946 -64 2253 76 2502 242 
L 2464 664 
C 2189 453 1869 337 1523 337 
C 1024 337 698 774 698 1369 
C 698 1831 909 2414 1549 2414 
C 1901 2414 2099 2343 2394 2145 
L 2464 2541 
z
" transform="scale(0.015625)"/>
      <path id="CMSS17-6f" d="M 2829 1356 
C 2829 2176 2221 2816 1504 2816 
C 768 2816 173 2157 173 1356 
C 173 544 787 -64 1498 -64 
C 2227 -64 2829 563 2829 1356 
z
M 1504 337 
C 1050 337 659 709 659 1408 
C 659 2151 1114 2427 1498 2427 
C 1914 2427 2342 2126 2342 1408 
C 2342 683 1926 337 1504 337 
z
" transform="scale(0.015625)"/>
      <path id="CMSS17-6e" d="M 2618 1877 
C 2618 2283 2522 2816 1798 2816 
C 1389 2816 1120 2606 941 2389 
L 941 2758 
L 474 2758 
L 474 0 
L 960 0 
L 960 1559 
C 960 1964 1114 2428 1549 2428 
C 2112 2428 2131 2048 2131 1829 
L 2131 0 
L 2618 0 
L 2618 1877 
z
" transform="scale(0.015625)"/>
      <path id="CMSS17-74" d="M 1069 2368 
L 1901 2368 
L 1901 2737 
L 1069 2737 
L 1069 3520 
L 614 3520 
L 614 2737 
L 109 2737 
L 109 2368 
L 602 2368 
L 602 749 
C 602 384 685 -64 1107 -64 
C 1427 -64 1722 25 2003 172 
L 1901 548 
C 1747 414 1562 337 1363 337 
C 1082 337 1069 696 1069 856 
L 1069 2368 
z
" transform="scale(0.015625)"/>
      <path id="CMSS17-72" d="M 954 1363 
C 954 1965 1395 2368 1958 2368 
L 1958 2789 
C 1549 2789 1165 2585 934 2253 
L 934 2758 
L 480 2758 
L 480 0 
L 954 0 
L 954 1363 
z
" transform="scale(0.015625)"/>
      <path id="CMSS17-6c" d="M 947 4416 
L 474 4416 
L 474 0 
L 947 0 
L 947 4416 
z
" transform="scale(0.015625)"/>
      <path id="CMSS17-65" d="M 2502 1377 
C 2502 1590 2490 2003 2285 2345 
C 2061 2713 1696 2816 1421 2816 
C 755 2816 192 2188 192 1375 
C 192 582 774 -64 1510 -64 
C 1798 -64 2150 19 2470 248 
C 2470 274 2458 414 2451 420 
C 2451 433 2432 630 2432 656 
C 2125 407 1773 325 1517 325 
C 1107 325 666 667 646 1377 
L 2502 1377 
z
M 698 1728 
C 781 2084 1062 2421 1421 2421 
C 1517 2421 1965 2421 2080 1728 
L 698 1728 
z
" transform="scale(0.015625)"/>
      <path id="CMSS17-64" d="M 2611 4416 
L 2138 4416 
L 2138 2438 
C 1939 2603 1613 2756 1254 2756 
C 672 2756 211 2131 211 1347 
C 211 562 666 -64 1235 -64 
C 1677 -64 1971 172 2125 306 
L 2125 -13 
L 2611 -13 
L 2611 4416 
z
M 2125 836 
C 2125 747 2125 653 1926 482 
C 1798 375 1645 325 1498 325 
C 1152 325 698 576 698 1340 
C 698 2134 1210 2368 1562 2368 
C 1798 2368 1990 2254 2125 2065 
L 2125 836 
z
" transform="scale(0.015625)"/>
      <path id="CMSY10-21" d="M 5338 1472 
C 4986 1203 4813 941 4762 858 
C 4474 416 4422 13 4422 6 
C 4422 -70 4499 -70 4550 -70 
C 4659 -70 4666 -58 4691 58 
C 4838 685 5216 1222 5939 1517 
C 6016 1542 6035 1555 6035 1600 
C 6035 1645 5997 1664 5984 1670 
C 5702 1779 4928 2099 4685 3174 
C 4666 3251 4659 3270 4550 3270 
C 4499 3270 4422 3270 4422 3193 
C 4422 3180 4480 2777 4749 2349 
C 4877 2157 5062 1933 5338 1728 
L 582 1728 
C 467 1728 352 1728 352 1600 
C 352 1472 467 1472 582 1472 
L 5338 1472 
z
" transform="scale(0.015625)"/>
     </defs>
     <use xlink:href="#CMSS17-63" transform="scale(0.996264)"/>
     <use xlink:href="#CMSS17-6f" transform="translate(41.638822 0) scale(0.996264)"/>
     <use xlink:href="#CMSS17-6e" transform="translate(88.482446 0) scale(0.996264)"/>
     <use xlink:href="#CMSS17-74" transform="translate(136.687389 0) scale(0.996264)"/>
     <use xlink:href="#CMSS17-72" transform="translate(170.518955 0) scale(0.996264)"/>
     <use xlink:href="#CMSS17-6f" transform="translate(202.428728 0) scale(0.996264)"/>
     <use xlink:href="#CMSS17-6c" transform="translate(249.272351 0) scale(0.996264)"/>
     <use xlink:href="#CMSS17-6c" transform="translate(271.453075 0) scale(0.996264)"/>
     <use xlink:href="#CMSS17-65" transform="translate(293.633798 0) scale(0.996264)"/>
     <use xlink:href="#CMSS17-64" transform="translate(335.27262 0) scale(0.996264)"/>
     <use xlink:href="#CMSY10-21" transform="translate(414.706676 0) scale(0.996264)"/>
    </g>
   </g>
  </g>
  <g id="axes_2">
   <g id="patch_7">
    <path d="M 47.534499 98.425882 
L 382.334499 98.425882 
L 382.334499 65.814118 
L 47.534499 65.814118 
L 47.534499 98.425882 
z
" style="fill: none"/>
   </g>
   <g id="matplotlib.axis_3">
    <g id="xtick_9">
     <g id="line2d_16">
      <g>
       <use xlink:href="#m76dec0bf30" x="47.534499" y="98.425882" style="fill: #ffffff; stroke: #ffffff; stroke-width: 0.8"/>
      </g>
     </g>
    </g>
    <g id="xtick_10">
     <g id="line2d_17">
      <g>
       <use xlink:href="#m76dec0bf30" x="95.363071" y="98.425882" style="fill: #ffffff; stroke: #ffffff; stroke-width: 0.8"/>
      </g>
     </g>
    </g>
    <g id="xtick_11">
     <g id="line2d_18">
      <g>
       <use xlink:href="#m76dec0bf30" x="143.191642" y="98.425882" style="fill: #ffffff; stroke: #ffffff; stroke-width: 0.8"/>
      </g>
     </g>
    </g>
    <g id="xtick_12">
     <g id="line2d_19">
      <g>
       <use xlink:href="#m76dec0bf30" x="191.020214" y="98.425882" style="fill: #ffffff; stroke: #ffffff; stroke-width: 0.8"/>
      </g>
     </g>
    </g>
    <g id="xtick_13">
     <g id="line2d_20">
      <g>
       <use xlink:href="#m76dec0bf30" x="238.848785" y="98.425882" style="fill: #ffffff; stroke: #ffffff; stroke-width: 0.8"/>
      </g>
     </g>
    </g>
    <g id="xtick_14">
     <g id="line2d_21">
      <g>
       <use xlink:href="#m76dec0bf30" x="286.677357" y="98.425882" style="fill: #ffffff; stroke: #ffffff; stroke-width: 0.8"/>
      </g>
     </g>
    </g>
    <g id="xtick_15">
     <g id="line2d_22">
      <g>
       <use xlink:href="#m76dec0bf30" x="334.505928" y="98.425882" style="fill: #ffffff; stroke: #ffffff; stroke-width: 0.8"/>
      </g>
     </g>
    </g>
    <g id="xtick_16">
     <g id="line2d_23">
      <g>
       <use xlink:href="#m76dec0bf30" x="382.334499" y="98.425882" style="fill: #ffffff; stroke: #ffffff; stroke-width: 0.8"/>
      </g>
     </g>
    </g>
   </g>
   <g id="matplotlib.axis_4">
    <g id="ytick_4">
     <g id="line2d_24">
      <g>
       <use xlink:href="#mb92dcdea50" x="47.534499" y="96.557861" style="fill: #ffffff; stroke: #ffffff; stroke-width: 0.8"/>
      </g>
     </g>
     <g id="text_6">
      <!-- $\mathdefault{−1}$ -->
      <g style="fill: #ffffff" transform="translate(27.80442 100.01711) scale(0.1 -0.1)">
       <defs>
        <path id="CMSY10-0" d="M 4218 1472 
C 4326 1472 4442 1472 4442 1600 
C 4442 1728 4326 1728 4218 1728 
L 755 1728 
C 646 1728 531 1728 531 1600 
C 531 1472 646 1472 755 1472 
L 4218 1472 
z
" transform="scale(0.015625)"/>
        <path id="CMR17-31" d="M 1702 4058 
C 1702 4192 1696 4192 1606 4192 
C 1357 3916 979 3827 621 3827 
C 602 3827 570 3827 563 3808 
C 557 3795 557 3782 557 3648 
C 755 3648 1088 3686 1344 3839 
L 1344 461 
C 1344 236 1331 160 781 160 
L 589 160 
L 589 0 
C 896 0 1216 0 1523 0 
C 1830 0 2150 0 2458 0 
L 2458 160 
L 2266 160 
C 1715 160 1702 230 1702 458 
L 1702 4058 
z
" transform="scale(0.015625)"/>
       </defs>
       <use xlink:href="#CMSY10-0" transform="scale(0.996264)"/>
       <use xlink:href="#CMR17-31" transform="translate(77.487468 0) scale(0.996264)"/>
      </g>
     </g>
    </g>
    <g id="ytick_5">
     <g id="line2d_25">
      <g>
       <use xlink:href="#mb92dcdea50" x="47.534499" y="81.791422" style="fill: #ffffff; stroke: #ffffff; stroke-width: 0.8"/>
      </g>
     </g>
     <g id="text_7">
      <!-- $\mathdefault{0}$ -->
      <g style="fill: #ffffff" transform="translate(35.553164 85.250671) scale(0.1 -0.1)">
       <use xlink:href="#CMR17-30" transform="scale(0.996264)"/>
      </g>
     </g>
    </g>
    <g id="ytick_6">
     <g id="line2d_26">
      <g>
       <use xlink:href="#mb92dcdea50" x="47.534499" y="67.024983" style="fill: #ffffff; stroke: #ffffff; stroke-width: 0.8"/>
      </g>
     </g>
     <g id="text_8">
      <!-- $\mathdefault{1}$ -->
      <g style="fill: #ffffff" transform="translate(35.553164 70.484232) scale(0.1 -0.1)">
       <use xlink:href="#CMR17-31" transform="scale(0.996264)"/>
      </g>
     </g>
    </g>
    <g id="text_9">
     <!-- $c_y$ -->
     <g style="fill: #ffffff" transform="translate(20.954025 86.295914) rotate(-90) scale(0.1 -0.1)">
      <defs>
       <path id="CMMI12-79" d="M 1683 -700 
C 1510 -939 1261 -1152 947 -1152 
C 870 -1152 563 -1152 467 -889 
C 486 -895 518 -895 531 -895 
C 723 -895 851 -729 851 -582 
C 851 -435 730 -384 634 -384 
C 531 -384 307 -458 307 -759 
C 307 -1071 582 -1286 947 -1286 
C 1587 -1286 2234 -700 2413 6 
L 3040 2485 
C 3046 2517 3059 2556 3059 2594 
C 3059 2689 2982 2753 2886 2753 
C 2829 2753 2694 2727 2643 2535 
L 2170 658 
C 2138 543 2138 530 2086 460 
C 1958 281 1747 64 1440 64 
C 1082 64 1050 415 1050 588 
C 1050 952 1222 1443 1395 1903 
C 1466 2088 1504 2178 1504 2305 
C 1504 2574 1312 2816 998 2816 
C 410 2816 173 1890 173 1839 
C 173 1814 198 1782 243 1782 
C 301 1782 307 1807 333 1897 
C 486 2433 730 2689 979 2689 
C 1037 2689 1146 2689 1146 2478 
C 1146 2312 1075 2127 979 1884 
C 666 1047 666 837 666 683 
C 666 77 1101 -64 1421 -64 
C 1606 -64 1837 -6 2061 230 
L 2067 224 
C 1971 -147 1907 -392 1683 -700 
z
" transform="scale(0.015625)"/>
      </defs>
      <use xlink:href="#CMMI12-63" transform="scale(0.996264)"/>
      <use xlink:href="#CMMI12-79" transform="translate(41.983234 -14.943915) scale(0.697382)"/>
     </g>
    </g>
   </g>
   <g id="line2d_27">
    <path d="M 47.510585 79.061981 
L 48.562814 82.33888 
L 50.356385 87.835137 
L 51.169471 89.758667 
L 51.886899 90.94822 
L 52.413014 91.462775 
L 52.795642 91.630473 
L 53.321757 91.579479 
L 53.776128 91.244058 
L 54.421814 90.355402 
L 54.995757 89.189245 
L 55.641442 87.498761 
L 56.908899 83.36339 
L 59.946014 73.578918 
L 60.950414 71.948582 
L 61.524357 71.608077 
L 62.026557 71.680137 
L 62.361357 71.913025 
L 62.767899 72.395305 
L 63.246185 73.240979 
L 63.748385 74.400136 
L 64.920185 78.072876 
L 65.828928 81.523561 
L 67.933385 89.367336 
L 68.961699 92.01255 
L 69.416071 92.801149 
L 70.013928 93.367848 
L 70.444385 93.45673 
L 70.850928 93.29181 
L 71.544442 92.457229 
L 72.405357 90.51654 
L 73.314099 87.588162 
L 77.044728 73.055472 
L 77.690414 71.456927 
L 78.168699 70.641954 
L 78.790471 70.101631 
L 79.268757 70.0935 
L 79.675299 70.369672 
L 80.225328 71.147836 
L 81.157985 73.468748 
L 82.114557 76.854693 
L 83.071128 80.906965 
L 84.003785 85.061203 
L 85.223414 90.02624 
L 86.036499 92.554048 
L 86.730014 94.008786 
L 87.327871 94.656656 
L 87.710499 94.7629 
L 87.997471 94.673547 
L 88.451842 94.273149 
L 89.073614 93.211131 
L 90.341071 89.343098 
L 91.249814 85.581675 
L 92.469442 79.923544 
L 93.689071 74.590129 
L 94.836957 70.855147 
L 95.673957 69.356631 
L 96.247899 68.987032 
L 96.941414 69.32424 
L 97.371871 69.934328 
L 98.256699 72.113538 
L 98.830642 74.083523 
L 99.548071 77.011488 
L 100.982928 83.80197 
L 102.752585 91.479379 
L 103.948299 94.728871 
L 104.426585 95.375821 
L 104.857042 95.62082 
L 105.311414 95.522212 
L 106.220157 94.209886 
L 106.698442 92.991281 
L 107.535442 90.121313 
L 109.329014 81.824417 
L 111.194328 73.207582 
L 111.887842 70.839275 
L 112.533528 69.276899 
L 113.035728 68.566627 
L 113.705328 68.313628 
L 114.231442 68.720058 
L 114.590157 69.259037 
L 115.092357 70.383784 
L 115.857614 72.832772 
L 116.551128 75.660368 
L 118.320785 84.322601 
L 119.181699 88.486865 
L 120.233928 92.741803 
L 120.855699 94.522976 
L 121.190499 95.234578 
L 121.740528 95.983795 
L 122.194899 96.170524 
L 122.697099 95.917879 
L 123.318871 94.985225 
L 123.821071 93.757298 
L 125.375499 87.752665 
L 128.986557 70.897655 
L 129.536585 69.342531 
L 130.636642 67.911655 
L 130.995357 67.924995 
L 131.473642 68.33788 
L 132.047585 69.367568 
L 132.597614 70.874387 
L 133.434614 73.97823 
L 135.156442 82.393322 
L 136.902185 90.887239 
L 137.882671 94.343935 
L 138.408785 95.561123 
L 138.982728 96.334023 
L 139.484928 96.480405 
L 139.747985 96.37534 
L 140.130614 95.975477 
L 140.584985 95.176171 
L 142.235071 89.50809 
L 145.726557 72.368221 
L 147.041842 68.515378 
L 147.352728 68.04094 
L 147.783185 67.691535 
L 148.022328 67.643407 
L 148.333214 67.742704 
L 149.098471 68.811968 
L 149.768071 70.566869 
L 151.011614 75.535067 
L 151.729042 79.059203 
L 153.379128 87.656113 
L 154.933557 94.052436 
L 155.650985 95.819123 
L 156.224928 96.552064 
L 156.798871 96.637572 
L 157.396728 96.061451 
L 158.161985 94.387001 
L 159.525099 89.176363 
L 160.625157 83.666655 
L 162.897014 72.393827 
L 163.447042 70.395931 
L 164.068814 68.712319 
L 164.642757 67.778835 
L 164.929728 67.56782 
L 165.264528 67.50365 
L 165.647157 67.70528 
L 166.125442 68.34872 
L 166.603728 69.411308 
L 167.584214 72.72461 
L 168.516871 76.959243 
L 169.401699 81.560176 
L 170.621328 87.922921 
L 171.290928 91.053985 
L 172.295328 94.663871 
L 173.108414 96.334409 
L 173.419299 96.667618 
L 174.017157 96.731379 
L 174.471528 96.318535 
L 174.878071 95.637093 
L 175.523757 93.949602 
L 176.241185 91.323761 
L 176.910785 88.313542 
L 178.202157 81.60946 
L 180.258785 71.643972 
L 181.024042 69.189684 
L 181.550157 68.076854 
L 181.980614 67.571403 
L 182.363242 67.410436 
L 182.889357 67.678121 
L 183.248071 68.160445 
L 183.678528 69.047675 
L 184.252471 70.728184 
L 185.161214 74.337334 
L 186.141699 79.149139 
L 186.859128 83.006471 
L 188.867928 92.665718 
L 189.728842 95.34092 
L 190.350614 96.472411 
L 190.804985 96.816458 
L 191.187614 96.817605 
L 192.072442 95.681889 
L 192.670299 94.140052 
L 194.368214 87.003623 
L 197.764042 70.488992 
L 198.553214 68.377325 
L 199.031499 67.636288 
L 199.581528 67.369633 
L 199.988071 67.552266 
L 200.538099 68.284176 
L 201.638157 71.382975 
L 202.236014 73.809697 
L 203.168671 78.328185 
L 205.416614 89.999999 
L 206.875385 95.282109 
L 207.329757 96.202566 
L 207.760214 96.744624 
L 208.238499 96.871168 
L 208.597214 96.697527 
L 209.003757 96.200083 
L 209.816842 94.283064 
L 210.725585 90.926369 
L 212.184357 83.722667 
L 214.193157 73.414518 
L 215.317128 69.332676 
L 216.082385 67.77474 
L 216.656328 67.334114 
L 217.254185 67.596912 
L 217.708557 68.237132 
L 218.115099 69.129633 
L 219.215157 72.906056 
L 220.219557 77.643484 
L 221.271785 83.221139 
L 222.993614 91.738511 
L 223.639299 94.104788 
L 224.308899 95.864021 
L 224.954585 96.771739 
L 225.289385 96.888404 
L 225.600271 96.838839 
L 225.982899 96.509662 
L 226.724242 95.076293 
L 227.393842 92.985765 
L 228.159099 89.827592 
L 229.283071 84.176993 
L 232.224528 70.157616 
L 232.822385 68.522719 
L 233.683299 67.390229 
L 233.970271 67.329203 
L 234.544214 67.684025 
L 235.237728 68.975866 
L 235.811671 70.678569 
L 236.433442 73.037513 
L 240.546699 93.151595 
L 241.072814 94.865863 
L 241.598928 96.071912 
L 242.148957 96.786391 
L 242.459842 96.898501 
L 242.770728 96.857463 
L 243.129442 96.563405 
L 243.488157 96.03189 
L 244.277328 94.017277 
L 244.946928 91.572347 
L 246.405699 84.525337 
L 247.529671 78.46456 
L 249.084099 71.244401 
L 249.921099 68.706563 
L 250.471128 67.7264 
L 251.092899 67.313842 
L 251.475528 67.440583 
L 251.738585 67.681659 
L 252.073385 68.209959 
L 252.408185 68.933391 
L 253.101699 71.033251 
L 253.771299 73.710039 
L 254.727871 78.348548 
L 257.023642 90.277065 
L 257.884557 93.727825 
L 258.506328 95.501186 
L 259.032442 96.47621 
L 259.702042 96.919866 
L 259.941185 96.879482 
L 260.586871 96.173874 
L 261.423871 94.146991 
L 262.691328 89.068923 
L 263.863128 83.057563 
L 265.656699 73.786535 
L 266.493699 70.464459 
L 267.330699 68.239007 
L 267.856814 67.497655 
L 268.406842 67.324515 
L 268.693814 67.450224 
L 269.578642 68.903208 
L 270.056928 70.23597 
L 271.228728 74.948415 
L 275.102842 93.850069 
L 275.820271 95.814062 
L 276.657271 96.886856 
L 277.111642 96.899559 
L 278.139957 95.436297 
L 279.096528 92.442615 
L 280.698785 84.926182 
L 282.635842 74.733596 
L 283.664157 70.500283 
L 284.477242 68.309196 
L 285.051185 67.487685 
L 285.529471 67.313808 
L 286.103414 67.672065 
L 286.438214 68.200226 
L 286.773014 68.922257 
L 287.466528 71.020899 
L 288.207871 74.00004 
L 289.236185 79.073179 
L 292.345042 94.05629 
L 293.564671 96.671656 
L 293.995128 96.917919 
L 294.616899 96.645284 
L 294.975614 96.132372 
L 295.238671 95.617615 
L 295.597385 94.720084 
L 296.386557 92.027772 
L 296.936585 89.648335 
L 299.041042 78.664229 
L 299.997614 73.899087 
L 300.882442 70.389784 
L 301.575957 68.472016 
L 302.221642 67.49408 
L 302.747757 67.316912 
L 303.058642 67.44499 
L 303.895642 68.78558 
L 304.326099 69.945878 
L 304.804385 71.580581 
L 306.908842 81.699541 
L 307.482785 84.815903 
L 309.348099 93.43977 
L 310.017699 95.42879 
L 310.782957 96.702239 
L 311.332985 96.920129 
L 311.787357 96.664787 
L 312.337385 95.80171 
L 312.887414 94.413166 
L 313.485271 92.342494 
L 314.107042 89.699839 
L 314.920128 85.665076 
L 317.478957 72.592646 
L 318.292042 69.650012 
L 318.889899 68.212047 
L 319.487757 67.436427 
L 319.846471 67.302281 
L 320.253014 67.453509 
L 321.353071 69.48186 
L 322.046585 71.817076 
L 322.859671 75.342708 
L 324.461928 83.704872 
L 325.538071 89.250597 
L 326.638128 93.809715 
L 327.379471 95.842434 
L 328.359957 96.920592 
L 329.005642 96.624047 
L 329.173042 96.403607 
L 329.746985 95.290009 
L 330.105699 94.302461 
L 330.870957 91.541942 
L 332.688442 82.550181 
L 334.314614 74.127312 
L 335.414671 69.847522 
L 335.845128 68.677845 
L 336.395157 67.707898 
L 336.993014 67.303842 
L 337.279985 67.360966 
L 337.662614 67.683823 
L 338.093071 68.416233 
L 338.284385 68.832157 
L 338.977899 70.884369 
L 339.743157 73.945742 
L 340.795385 79.119455 
L 341.847614 84.812365 
L 343.760757 93.59971 
L 344.406442 95.474852 
L 345.052128 96.614498 
L 345.554328 96.917376 
L 345.960871 96.810611 
L 346.343499 96.421417 
L 346.869614 95.446514 
L 347.826185 92.453596 
L 349.524099 84.409702 
L 351.222014 75.441409 
L 352.322071 70.733328 
L 353.613442 67.671952 
L 353.900414 67.408139 
L 354.139557 67.305823 
L 354.498271 67.382387 
L 354.713499 67.549883 
L 355.311357 68.478585 
L 355.885299 69.973378 
L 356.459242 71.986393 
L 358.659357 82.811602 
L 360.548585 92.125827 
L 361.313842 94.771444 
L 361.816042 95.964184 
L 362.294328 96.672119 
L 362.724785 96.921328 
L 363.370471 96.625539 
L 363.537871 96.405626 
L 364.111814 95.291483 
L 364.446614 94.382887 
L 365.283614 91.335466 
L 365.953214 88.285296 
L 367.675042 79.191201 
L 368.535957 74.799262 
L 369.588185 70.468437 
L 370.377357 68.336535 
L 370.975214 67.479662 
L 371.381757 67.299784 
L 371.812214 67.473346 
L 372.481814 68.445785 
L 373.366642 70.964519 
L 374.418871 75.394127 
L 376.284185 85.167565 
L 377.073357 89.189337 
L 378.197328 93.845237 
L 378.914757 95.81029 
L 379.488699 96.683221 
L 379.943071 96.917391 
L 380.277871 96.85015 
L 380.708328 96.422188 
L 381.210528 95.512031 
L 382.023614 93.069812 
L 382.358414 91.79359 
L 382.358414 91.79359 
" clip-path="url(#pc71994fe25)" style="fill: none; stroke: #ffffff; stroke-width: 1.5; stroke-linecap: square"/>
   </g>
   <g id="line2d_28">
    <path d="M 47.510585 79.061981 
L 48.562814 82.33888 
L 50.356385 87.835137 
L 51.169471 89.758667 
L 51.886899 90.94822 
L 52.413014 91.462775 
L 52.795642 91.630473 
L 53.321757 91.579479 
L 53.776128 91.244058 
L 54.421814 90.355402 
L 54.995757 89.189245 
L 55.641442 87.498761 
L 56.908899 83.36339 
L 59.946014 73.578918 
L 60.950414 71.948582 
L 61.524357 71.608077 
L 62.026557 71.680137 
L 62.361357 71.913025 
L 62.767899 72.395305 
L 63.246185 73.240979 
L 63.748385 74.400136 
L 64.920185 78.072876 
L 65.828928 81.523561 
L 67.933385 89.367336 
L 68.961699 92.01255 
L 69.416071 92.801149 
L 70.013928 93.367848 
L 70.444385 93.45673 
L 70.850928 93.29181 
L 71.544442 92.457229 
L 72.405357 90.51654 
L 73.314099 87.588162 
L 77.044728 73.055472 
L 77.690414 71.456927 
L 78.168699 70.641954 
L 78.790471 70.101631 
L 79.268757 70.0935 
L 79.675299 70.369672 
L 80.225328 71.147836 
L 81.157985 73.468748 
L 82.114557 76.854693 
L 83.071128 80.906965 
L 84.003785 85.061203 
L 85.223414 90.02624 
L 86.036499 92.554048 
L 86.730014 94.008786 
L 87.327871 94.656656 
L 87.710499 94.7629 
L 87.997471 94.673547 
L 88.451842 94.273149 
L 89.073614 93.211131 
L 90.341071 89.343098 
L 91.249814 85.581675 
L 92.469442 79.923544 
L 93.689071 74.590129 
L 94.836957 70.855147 
L 96.439214 67.773713 
L 96.989242 67.585954 
L 97.587099 67.794058 
L 98.806728 69.351571 
L 99.882871 71.672441 
L 101.078585 75.745966 
L 102.417785 81.506764 
L 105.215757 90.733443 
L 106.004928 92.106953 
L 106.411471 92.484838 
L 107.057157 92.69338 
L 107.463699 92.646968 
L 107.822414 92.466454 
L 108.205042 92.201537 
L 108.492014 91.916105 
L 109.161614 91.091398 
L 109.711642 89.838321 
L 111.074757 86.347121 
L 112.079157 83.649928 
L 113.561842 79.274039 
L 114.422757 77.367931 
L 115.546728 75.476455 
L 115.929357 75.269445 
L 116.216328 75.267382 
L 116.694614 75.445245 
L 117.579442 76.165554 
L 118.440357 77.522131 
L 119.086042 78.826225 
L 122.386214 85.786555 
L 123.151471 86.724223 
L 123.940642 87.213986 
L 124.658071 87.407204 
L 125.136357 87.313946 
L 125.542899 87.027547 
L 128.006071 84.27632 
L 130.517071 80.77336 
L 131.162757 80.294791 
L 131.832357 79.965933 
L 132.621528 79.797521 
L 133.434614 79.862357 
L 134.199871 80.150771 
L 135.873871 81.086316 
L 136.423899 81.532984 
L 137.763099 82.613564 
L 140.178442 83.878722 
L 141.302414 84.154331 
L 142.187242 84.136184 
L 143.406871 83.787151 
L 144.196042 83.38087 
L 145.320014 82.604709 
L 147.328814 80.975002 
L 150.461585 78.425464 
L 151.107271 78.193039 
L 151.920357 78.158428 
L 153.116071 78.561635 
L 154.072642 79.323899 
L 155.603157 80.882309 
L 158.161985 83.367578 
L 159.788157 84.514252 
L 161.175185 85.143404 
L 162.179585 85.364587 
L 163.183985 85.33799 
L 164.020985 85.193844 
L 164.690585 84.899461 
L 165.814557 84.010655 
L 166.938528 82.866078 
L 168.827757 80.925149 
L 169.545185 80.471512 
L 170.286528 80.283763 
L 171.195271 80.302331 
L 172.056185 80.650045 
L 172.821442 81.178907 
L 174.399785 82.378344 
L 175.523757 82.986003 
L 177.269499 83.528706 
L 178.752185 83.721506 
L 181.765385 83.699744 
L 183.869842 83.796314 
L 184.850328 83.581114 
L 186.333014 83.034484 
L 187.528728 82.374043 
L 189.609271 81.09435 
L 190.948471 80.671686 
L 192.000699 80.610305 
L 192.933357 80.769837 
L 197.142271 82.155125 
L 198.624957 82.275081 
L 200.705499 82.049265 
L 203.957842 81.353289 
L 207.473242 80.476885 
L 209.482042 80.201548 
L 211.203871 80.244519 
L 212.997442 80.514325 
L 217.349842 81.227182 
L 219.478214 81.300791 
L 221.797899 81.16405 
L 224.548042 80.793261 
L 227.346014 80.516932 
L 229.163499 80.582077 
L 231.650585 80.928971 
L 234.879014 81.330428 
L 237.653071 81.355244 
L 240.546699 81.118277 
L 247.912299 80.325456 
L 250.303728 80.491378 
L 254.751785 80.858875 
L 257.454099 80.797025 
L 266.087157 80.351373 
L 269.578642 80.59325 
L 273.596242 80.777594 
L 276.752928 80.668111 
L 283.281528 80.409758 
L 287.992642 80.602506 
L 291.364557 80.625266 
L 295.525642 80.428769 
L 299.160614 80.334442 
L 302.819499 80.470864 
L 307.865414 80.646156 
L 311.356899 80.507075 
L 316.809357 80.286071 
L 319.989957 80.401284 
L 326.207671 80.637131 
L 329.890471 80.461947 
L 334.625499 80.257449 
L 337.566957 80.340843 
L 344.980385 80.610126 
L 349.141471 80.392967 
L 353.302557 80.252795 
L 356.841871 80.381697 
L 362.461728 80.602278 
L 366.168442 80.470055 
L 372.027442 80.265463 
L 376.212442 80.430846 
L 380.947471 80.578591 
L 382.358414 80.553975 
L 382.358414 80.553975 
" clip-path="url(#pc71994fe25)" style="fill: none; stroke: #8dd3c7; stroke-width: 1.5; stroke-linecap: square"/>
   </g>
   <g id="line2d_29">
    <path d="M 47.510585 79.061981 
L 48.562814 82.33888 
L 50.356385 87.835137 
L 51.169471 89.758667 
L 51.886899 90.94822 
L 52.413014 91.462775 
L 52.795642 91.630473 
L 53.321757 91.579479 
L 53.776128 91.244058 
L 54.421814 90.355402 
L 54.995757 89.189245 
L 55.641442 87.498761 
L 56.908899 83.36339 
L 59.946014 73.578918 
L 60.950414 71.948582 
L 61.524357 71.608077 
L 62.026557 71.680137 
L 62.361357 71.913025 
L 62.767899 72.395305 
L 63.246185 73.240979 
L 63.748385 74.400136 
L 64.920185 78.072876 
L 65.828928 81.523561 
L 67.933385 89.367336 
L 68.961699 92.01255 
L 69.416071 92.801149 
L 70.013928 93.367848 
L 70.444385 93.45673 
L 70.850928 93.29181 
L 71.544442 92.457229 
L 72.405357 90.51654 
L 73.314099 87.588162 
L 77.044728 73.055472 
L 77.690414 71.456927 
L 78.168699 70.641954 
L 78.790471 70.101631 
L 79.268757 70.0935 
L 79.675299 70.369672 
L 80.225328 71.147836 
L 81.157985 73.468748 
L 82.114557 76.854693 
L 83.071128 80.906965 
L 84.003785 85.061203 
L 85.223414 90.02624 
L 86.036499 92.554048 
L 86.730014 94.008786 
L 87.327871 94.656656 
L 87.710499 94.7629 
L 87.997471 94.673547 
L 88.451842 94.273149 
L 89.073614 93.211131 
L 90.341071 89.343098 
L 91.249814 85.581675 
L 92.469442 79.923544 
L 93.689071 74.590129 
L 94.836957 70.855147 
L 95.841357 69.028155 
L 96.439214 68.344208 
L 97.060985 68.174122 
L 97.706671 68.61715 
L 98.256699 69.419962 
L 98.758899 70.379305 
L 100.432899 74.887543 
L 100.767699 75.934604 
L 101.867757 79.83274 
L 102.704757 83.603551 
L 104.498328 89.466045 
L 105.407071 91.787442 
L 105.765785 92.476918 
L 106.985414 93.67443 
L 107.487614 93.685938 
L 107.822414 93.583317 
L 108.826814 92.622946 
L 109.113785 91.840153 
L 113.155299 77.949818 
L 114.398842 75.12382 
L 114.972785 74.401235 
L 115.355414 74.056584 
L 115.833699 73.933345 
L 116.742442 74.377673 
L 117.101157 74.701803 
L 117.866414 75.618128 
L 118.679499 76.906949 
L 119.277357 78.327271 
L 120.186099 80.238491 
L 120.855699 81.410049 
L 122.242728 83.228414 
L 122.864499 83.543768 
L 123.342785 83.52727 
L 124.490671 82.503446 
L 125.016785 81.920145 
L 125.614642 81.331608 
L 127.169071 79.47121 
L 127.743014 78.960109 
L 128.364785 78.304628 
L 128.986557 77.862962 
L 129.751814 77.632041 
L 130.445328 77.646064 
L 131.617128 77.689687 
L 133.434614 77.763831 
L 134.104214 78.118897 
L 134.630328 78.615614 
L 136.041271 80.046745 
L 137.093499 80.660144 
L 137.667442 81.156019 
L 138.217471 82.026366 
L 139.054471 83.341283 
L 139.365357 83.428034 
L 139.795814 83.513471 
L 140.130614 83.66199 
L 140.632814 84.083915 
L 141.756785 85.274114 
L 142.761185 85.646057 
L 143.119899 85.550699 
L 143.789499 85.298493 
L 144.865642 84.898235 
L 145.630899 84.492815 
L 145.941785 84.293396 
L 146.348328 83.884514 
L 148.572357 81.067251 
L 149.337614 80.632346 
L 149.720242 80.385449 
L 150.557242 79.295773 
L 151.657299 78.566856 
L 152.087757 78.515504 
L 152.566042 78.750523 
L 153.044328 78.90637 
L 153.690014 78.805627 
L 154.431357 79.371151 
L 155.364014 80.429608 
L 156.464071 81.755918 
L 157.803271 84.287097 
L 158.831585 85.859123 
L 159.190299 86.079681 
L 160.625157 86.267959 
L 160.912128 86.261361 
L 161.223014 86.149883 
L 161.629557 85.796739 
L 162.275242 85.179352 
L 162.705699 84.529034 
L 164.355785 81.582088 
L 164.953642 80.775891 
L 167.895099 77.007576 
L 168.445128 76.755599 
L 170.358271 76.868642 
L 171.314842 77.427866 
L 172.797528 78.868693 
L 175.117214 81.302396 
L 176.002042 81.721292 
L 176.934699 81.895321 
L 177.795614 81.820166 
L 178.489128 81.50234 
L 179.110899 81.100536 
L 182.721957 78.363156 
L 185.424271 76.741137 
L 186.476499 76.559045 
L 187.672214 76.603752 
L 188.604871 76.877358 
L 189.346214 77.272347 
L 190.494099 78.132276 
L 192.096357 79.614002 
L 194.320385 81.586944 
L 195.540014 82.388183 
L 196.687899 82.878051 
L 197.955357 83.175266 
L 199.461957 83.257959 
L 200.801157 83.120721 
L 203.910014 82.356123 
L 206.229699 81.860244 
L 207.664557 81.812328 
L 209.242899 82.014875 
L 214.312728 82.93696 
L 216.775899 82.957747 
L 218.952099 82.788961 
L 221.319614 82.429514 
L 225.145899 81.905463 
L 227.585157 81.898644 
L 232.057128 81.91871 
L 235.979071 81.6845 
L 240.187985 81.03757 
L 243.392499 80.607784 
L 245.807842 80.463716 
L 252.408185 80.304196 
L 256.067071 80.140853 
L 259.247671 80.034863 
L 261.495614 80.204968 
L 266.063242 80.540339 
L 269.626471 80.456858 
L 273.524499 80.137493 
L 275.676785 80.055397 
L 277.302957 80.220517 
L 279.048699 80.629103 
L 280.842271 81.02006 
L 282.229299 81.198227 
L 283.448928 81.170898 
L 285.218585 80.960598 
L 292.010242 79.878662 
L 293.684242 79.893804 
L 295.095185 80.174661 
L 299.591071 81.400018 
L 300.882442 81.387776 
L 302.508614 81.179061 
L 304.326099 80.834169 
L 306.382728 80.3962 
L 309.658985 79.8099 
L 311.285157 79.826751 
L 312.552614 80.084142 
L 317.574614 81.384027 
L 320.826957 81.061267 
L 324.461928 80.296787 
L 326.398985 79.914087 
L 328.312128 79.799228 
L 329.651328 79.974944 
L 330.823128 80.293965 
L 333.812414 81.121689 
L 335.008128 81.269769 
L 336.586471 81.218499 
L 340.173614 80.680102 
L 344.836899 79.888623 
L 346.271757 79.918831 
L 347.563128 80.16403 
L 352.561214 81.266232 
L 354.283042 81.170506 
L 357.678871 80.641323 
L 362.150842 79.918007 
L 363.944414 80.00454 
L 366.957614 80.807557 
L 368.559871 81.183259 
L 369.827328 81.315112 
L 371.381757 81.235702 
L 374.442785 80.761489 
L 379.393042 79.911837 
L 380.540928 79.900474 
L 381.856214 80.080713 
L 382.358414 80.201367 
L 382.358414 80.201367 
" clip-path="url(#pc71994fe25)" style="fill: none; stroke-dasharray: 5.55,2.4; stroke-dashoffset: 0; stroke: #feffb3; stroke-width: 1.5"/>
   </g>
   <g id="line2d_30">
    <path d="M 95.363071 98.425882 
L 95.363071 65.814118 
" clip-path="url(#pc71994fe25)" style="fill: none; stroke-dasharray: 1.5,2.475; stroke-dashoffset: 0; stroke: #ffffff; stroke-width: 1.5"/>
   </g>
   <g id="patch_8">
    <path d="M 47.534499 98.425882 
L 47.534499 65.814118 
" style="fill: none; stroke: #ffffff; stroke-width: 0.8; stroke-linejoin: miter; stroke-linecap: square"/>
   </g>
   <g id="patch_9">
    <path d="M 382.334499 98.425882 
L 382.334499 65.814118 
" style="fill: none; stroke: #ffffff; stroke-width: 0.8; stroke-linejoin: miter; stroke-linecap: square"/>
   </g>
   <g id="patch_10">
    <path d="M 47.534499 98.425882 
L 382.334499 98.425882 
" style="fill: none; stroke: #ffffff; stroke-width: 0.8; stroke-linejoin: miter; stroke-linecap: square"/>
   </g>
   <g id="patch_11">
    <path d="M 47.534499 65.814118 
L 382.334499 65.814118 
" style="fill: none; stroke: #ffffff; stroke-width: 0.8; stroke-linejoin: miter; stroke-linecap: square"/>
   </g>
  </g>
  <g id="axes_3">
   <g id="patch_12">
    <path d="M 47.534499 137.56 
L 382.334499 137.56 
L 382.334499 104.948235 
L 47.534499 104.948235 
L 47.534499 137.56 
z
" style="fill: none"/>
   </g>
   <g id="matplotlib.axis_5">
    <g id="xtick_17">
     <g id="line2d_31">
      <g>
       <use xlink:href="#m76dec0bf30" x="47.534499" y="137.56" style="fill: #ffffff; stroke: #ffffff; stroke-width: 0.8"/>
      </g>
     </g>
     <g id="text_10">
      <!-- $\mathdefault{30}$ -->
      <g style="fill: #ffffff" transform="translate(42.553164 151.478498) scale(0.1 -0.1)">
       <use xlink:href="#CMR17-33" transform="scale(0.996264)"/>
       <use xlink:href="#CMR17-30" transform="translate(45.690477 0) scale(0.996264)"/>
      </g>
     </g>
    </g>
    <g id="xtick_18">
     <g id="line2d_32">
      <g>
       <use xlink:href="#m76dec0bf30" x="95.363071" y="137.56" style="fill: #ffffff; stroke: #ffffff; stroke-width: 0.8"/>
      </g>
     </g>
     <g id="text_11">
      <!-- $\mathdefault{40}$ -->
      <g style="fill: #ffffff" transform="translate(90.381736 151.478498) scale(0.1 -0.1)">
       <defs>
        <path id="CMR17-34" d="M 2150 4122 
C 2150 4256 2144 4256 2029 4256 
L 128 1254 
L 128 1088 
L 1779 1088 
L 1779 457 
C 1779 224 1766 160 1318 160 
L 1197 160 
L 1197 0 
C 1402 0 1747 0 1965 0 
C 2182 0 2528 0 2733 0 
L 2733 160 
L 2611 160 
C 2163 160 2150 224 2150 457 
L 2150 1088 
L 2803 1088 
L 2803 1254 
L 2150 1254 
L 2150 4122 
z
M 1798 3703 
L 1798 1254 
L 256 1254 
L 1798 3703 
z
" transform="scale(0.015625)"/>
       </defs>
       <use xlink:href="#CMR17-34" transform="scale(0.996264)"/>
       <use xlink:href="#CMR17-30" transform="translate(45.690477 0) scale(0.996264)"/>
      </g>
     </g>
    </g>
    <g id="xtick_19">
     <g id="line2d_33">
      <g>
       <use xlink:href="#m76dec0bf30" x="143.191642" y="137.56" style="fill: #ffffff; stroke: #ffffff; stroke-width: 0.8"/>
      </g>
     </g>
     <g id="text_12">
      <!-- $\mathdefault{50}$ -->
      <g style="fill: #ffffff" transform="translate(138.210307 151.478498) scale(0.1 -0.1)">
       <use xlink:href="#CMR17-35" transform="scale(0.996264)"/>
       <use xlink:href="#CMR17-30" transform="translate(45.690477 0) scale(0.996264)"/>
      </g>
     </g>
    </g>
    <g id="xtick_20">
     <g id="line2d_34">
      <g>
       <use xlink:href="#m76dec0bf30" x="191.020214" y="137.56" style="fill: #ffffff; stroke: #ffffff; stroke-width: 0.8"/>
      </g>
     </g>
     <g id="text_13">
      <!-- $\mathdefault{60}$ -->
      <g style="fill: #ffffff" transform="translate(186.038878 151.478498) scale(0.1 -0.1)">
       <defs>
        <path id="CMR17-36" d="M 678 2176 
C 678 3690 1395 4032 1811 4032 
C 1946 4032 2272 4009 2400 3776 
C 2298 3776 2106 3776 2106 3553 
C 2106 3381 2246 3323 2336 3323 
C 2394 3323 2566 3348 2566 3560 
C 2566 3954 2246 4179 1805 4179 
C 1043 4179 243 3390 243 1984 
C 243 253 966 -128 1478 -128 
C 2099 -128 2688 427 2688 1283 
C 2688 2081 2170 2662 1517 2662 
C 1126 2662 838 2407 678 1960 
L 678 2176 
z
M 1478 25 
C 691 25 691 1200 691 1436 
C 691 1896 909 2560 1504 2560 
C 1613 2560 1926 2560 2138 2120 
C 2253 1870 2253 1609 2253 1289 
C 2253 944 2253 690 2118 434 
C 1978 171 1773 25 1478 25 
z
" transform="scale(0.015625)"/>
       </defs>
       <use xlink:href="#CMR17-36" transform="scale(0.996264)"/>
       <use xlink:href="#CMR17-30" transform="translate(45.690477 0) scale(0.996264)"/>
      </g>
     </g>
    </g>
    <g id="xtick_21">
     <g id="line2d_35">
      <g>
       <use xlink:href="#m76dec0bf30" x="238.848785" y="137.56" style="fill: #ffffff; stroke: #ffffff; stroke-width: 0.8"/>
      </g>
     </g>
     <g id="text_14">
      <!-- $\mathdefault{70}$ -->
      <g style="fill: #ffffff" transform="translate(233.86745 151.478498) scale(0.1 -0.1)">
       <defs>
        <path id="CMR17-37" d="M 2886 3941 
L 2886 4081 
L 1382 4081 
C 634 4081 621 4165 595 4288 
L 480 4288 
L 294 3094 
L 410 3094 
C 429 3215 474 3540 550 3661 
C 589 3712 1062 3712 1171 3712 
L 2579 3712 
L 1869 2661 
C 1395 1954 1069 999 1069 165 
C 1069 89 1069 -128 1299 -128 
C 1530 -128 1530 89 1530 171 
L 1530 465 
C 1530 1508 1709 2196 2003 2636 
L 2886 3941 
z
" transform="scale(0.015625)"/>
       </defs>
       <use xlink:href="#CMR17-37" transform="scale(0.996264)"/>
       <use xlink:href="#CMR17-30" transform="translate(45.690477 0) scale(0.996264)"/>
      </g>
     </g>
    </g>
    <g id="xtick_22">
     <g id="line2d_36">
      <g>
       <use xlink:href="#m76dec0bf30" x="286.677357" y="137.56" style="fill: #ffffff; stroke: #ffffff; stroke-width: 0.8"/>
      </g>
     </g>
     <g id="text_15">
      <!-- $\mathdefault{80}$ -->
      <g style="fill: #ffffff" transform="translate(281.696021 151.478498) scale(0.1 -0.1)">
       <defs>
        <path id="CMR17-38" d="M 1741 2264 
C 2144 2467 2554 2773 2554 3263 
C 2554 3841 1990 4179 1472 4179 
C 890 4179 378 3759 378 3180 
C 378 3021 416 2747 666 2505 
C 730 2442 998 2251 1171 2130 
C 883 1983 211 1634 211 934 
C 211 279 838 -128 1459 -128 
C 2144 -128 2720 362 2720 1010 
C 2720 1590 2330 1857 2074 2029 
L 1741 2264 
z
M 902 2822 
C 851 2854 595 3051 595 3351 
C 595 3739 998 4032 1459 4032 
C 1965 4032 2336 3676 2336 3262 
C 2336 2669 1670 2331 1638 2331 
C 1632 2331 1626 2331 1574 2370 
L 902 2822 
z
M 2080 1519 
C 2176 1449 2483 1240 2483 851 
C 2483 381 2010 25 1472 25 
C 890 25 448 438 448 940 
C 448 1443 838 1862 1280 2060 
L 2080 1519 
z
" transform="scale(0.015625)"/>
       </defs>
       <use xlink:href="#CMR17-38" transform="scale(0.996264)"/>
       <use xlink:href="#CMR17-30" transform="translate(45.690477 0) scale(0.996264)"/>
      </g>
     </g>
    </g>
    <g id="xtick_23">
     <g id="line2d_37">
      <g>
       <use xlink:href="#m76dec0bf30" x="334.505928" y="137.56" style="fill: #ffffff; stroke: #ffffff; stroke-width: 0.8"/>
      </g>
     </g>
     <g id="text_16">
      <!-- $\mathdefault{90}$ -->
      <g style="fill: #ffffff" transform="translate(329.524593 151.478498) scale(0.1 -0.1)">
       <defs>
        <path id="CMR17-39" d="M 2253 1864 
C 2253 464 1670 31 1190 31 
C 1043 31 685 31 538 294 
C 704 268 826 357 826 518 
C 826 692 685 749 595 749 
C 538 749 365 723 365 506 
C 365 71 742 -128 1203 -128 
C 1939 -128 2688 674 2688 2073 
C 2688 3817 1971 4179 1485 4179 
C 851 4179 243 3628 243 2778 
C 243 1991 762 1408 1414 1408 
C 1952 1408 2189 1903 2253 2112 
L 2253 1864 
z
M 1427 1510 
C 1254 1510 1011 1542 813 1922 
C 678 2169 678 2461 678 2771 
C 678 3146 678 3405 858 3684 
C 947 3817 1114 4032 1485 4032 
C 2240 4032 2240 2885 2240 2632 
C 2240 2182 2035 1510 1427 1510 
z
" transform="scale(0.015625)"/>
       </defs>
       <use xlink:href="#CMR17-39" transform="scale(0.996264)"/>
       <use xlink:href="#CMR17-30" transform="translate(45.690477 0) scale(0.996264)"/>
      </g>
     </g>
    </g>
    <g id="xtick_24">
     <g id="line2d_38">
      <g>
       <use xlink:href="#m76dec0bf30" x="382.334499" y="137.56" style="fill: #ffffff; stroke: #ffffff; stroke-width: 0.8"/>
      </g>
     </g>
     <g id="text_17">
      <!-- $\mathdefault{100}$ -->
      <g style="fill: #ffffff" transform="translate(374.862497 151.478498) scale(0.1 -0.1)">
       <use xlink:href="#CMR17-31" transform="scale(0.996264)"/>
       <use xlink:href="#CMR17-30" transform="translate(45.690477 0) scale(0.996264)"/>
       <use xlink:href="#CMR17-30" transform="translate(91.380954 0) scale(0.996264)"/>
      </g>
     </g>
    </g>
    <g id="text_18">
     <!-- $t^\ast$ -->
     <g style="fill: #ffffff" transform="translate(211.094727 164.334175) scale(0.1 -0.1)">
      <defs>
       <path id="CMMI12-74" d="M 1286 2566 
L 1875 2566 
C 1997 2566 2061 2566 2061 2681 
C 2061 2752 2022 2752 1894 2752 
L 1331 2752 
L 1568 3692 
C 1594 3781 1594 3794 1594 3840 
C 1594 3943 1510 4000 1427 4000 
C 1376 4000 1229 3981 1178 3775 
L 928 2752 
L 326 2752 
C 198 2752 141 2752 141 2630 
C 141 2566 186 2566 307 2566 
L 877 2566 
L 454 881 
C 403 658 384 594 384 511 
C 384 211 595 -64 954 -64 
C 1600 -64 1946 868 1946 912 
C 1946 951 1920 970 1882 970 
C 1869 970 1843 970 1830 944 
C 1824 938 1818 931 1773 829 
C 1638 511 1344 64 973 64 
C 781 64 768 224 768 364 
C 768 370 768 492 787 568 
L 1286 2566 
z
" transform="scale(0.015625)"/>
       <path id="CMSY10-3" d="M 1760 2719 
C 1766 2808 1766 2962 1600 2962 
C 1498 2962 1414 2879 1434 2795 
L 1434 2712 
L 1523 1720 
L 704 2316 
C 646 2348 634 2360 589 2360 
C 499 2360 416 2271 416 2181 
C 416 2079 480 2053 544 2021 
L 1453 1586 
L 570 1158 
C 467 1107 416 1081 416 985 
C 416 889 499 806 589 806 
C 634 806 646 806 806 928 
L 1523 1446 
L 1427 371 
C 1427 236 1542 204 1594 204 
C 1670 204 1766 248 1766 371 
L 1670 1446 
L 2490 851 
C 2547 819 2560 806 2605 806 
C 2694 806 2778 896 2778 985 
C 2778 1081 2720 1113 2643 1152 
C 2259 1343 2246 1343 1741 1580 
L 2624 2008 
C 2726 2060 2778 2085 2778 2181 
C 2778 2277 2694 2360 2605 2360 
C 2560 2360 2547 2360 2387 2239 
L 1670 1720 
L 1760 2719 
z
" transform="scale(0.015625)"/>
      </defs>
      <use xlink:href="#CMMI12-74" transform="scale(0.996264)"/>
      <use xlink:href="#CMSY10-3" transform="translate(35.22633 36.153639) scale(0.697382)"/>
     </g>
    </g>
   </g>
   <g id="matplotlib.axis_6">
    <g id="ytick_7">
     <g id="line2d_39">
      <g>
       <use xlink:href="#mb92dcdea50" x="47.534499" y="136.354326" style="fill: #ffffff; stroke: #ffffff; stroke-width: 0.8"/>
      </g>
     </g>
     <g id="text_19">
      <!-- $\mathdefault{−0.5}$ -->
      <g style="fill: #ffffff" transform="translate(20.055677 139.813575) scale(0.1 -0.1)">
       <use xlink:href="#CMSY10-0" transform="scale(0.996264)"/>
       <use xlink:href="#CMR17-30" transform="translate(77.487468 0) scale(0.996264)"/>
       <use xlink:href="#CMMI12-3a" transform="translate(123.177945 0) scale(0.996264)"/>
       <use xlink:href="#CMR17-35" transform="translate(150.275122 0) scale(0.996264)"/>
      </g>
     </g>
    </g>
    <g id="ytick_8">
     <g id="line2d_40">
      <g>
       <use xlink:href="#mb92dcdea50" x="47.534499" y="121.256216" style="fill: #ffffff; stroke: #ffffff; stroke-width: 0.8"/>
      </g>
     </g>
     <g id="text_20">
      <!-- $\mathdefault{0.0}$ -->
      <g style="fill: #ffffff" transform="translate(27.80442 124.715465) scale(0.1 -0.1)">
       <use xlink:href="#CMR17-30" transform="scale(0.996264)"/>
       <use xlink:href="#CMMI12-3a" transform="translate(45.690477 0) scale(0.996264)"/>
       <use xlink:href="#CMR17-30" transform="translate(72.787654 0) scale(0.996264)"/>
      </g>
     </g>
    </g>
    <g id="ytick_9">
     <g id="line2d_41">
      <g>
       <use xlink:href="#mb92dcdea50" x="47.534499" y="106.158106" style="fill: #ffffff; stroke: #ffffff; stroke-width: 0.8"/>
      </g>
     </g>
     <g id="text_21">
      <!-- $\mathdefault{0.5}$ -->
      <g style="fill: #ffffff" transform="translate(27.80442 109.617355) scale(0.1 -0.1)">
       <use xlink:href="#CMR17-30" transform="scale(0.996264)"/>
       <use xlink:href="#CMMI12-3a" transform="translate(45.690477 0) scale(0.996264)"/>
       <use xlink:href="#CMR17-35" transform="translate(72.787654 0) scale(0.996264)"/>
      </g>
     </g>
    </g>
    <g id="text_22">
     <!-- $\omega^\ast$ -->
     <g style="fill: #ffffff" transform="translate(14.118498 126.574437) rotate(-90) scale(0.1 -0.1)">
      <defs>
       <path id="CMMI12-21" d="M 3802 2395 
C 3802 2580 3750 2816 3526 2816 
C 3398 2816 3251 2657 3251 2529 
C 3251 2472 3277 2434 3328 2376 
C 3424 2268 3546 2096 3546 1797 
C 3546 1567 3405 1204 3302 1007 
C 3123 656 2829 357 2496 357 
C 2093 357 1939 615 1869 975 
C 1939 1143 2086 1560 2086 1728 
C 2086 1798 2061 1856 1978 1856 
C 1933 1856 1882 1831 1850 1779 
C 1760 1638 1677 1129 1683 994 
C 1562 756 1216 357 806 357 
C 378 357 262 733 262 1096 
C 262 1758 678 2338 794 2497 
C 858 2593 902 2657 902 2669 
C 902 2714 877 2784 819 2784 
C 717 2784 685 2701 634 2625 
C 307 2121 77 1414 77 803 
C 77 408 224 -64 704 -64 
C 1235 -64 1568 391 1702 634 
C 1754 275 1946 -64 2413 -64 
C 2899 -64 3206 363 3437 879 
C 3603 1249 3802 2045 3802 2395 
z
" transform="scale(0.015625)"/>
      </defs>
      <use xlink:href="#CMMI12-21" transform="scale(0.996264)"/>
      <use xlink:href="#CMSY10-3" transform="translate(64.318346 36.153639) scale(0.697382)"/>
     </g>
    </g>
   </g>
   <g id="line2d_42">
    <path d="M 95.363071 135.92702 
L 96.797928 136.077647 
L 97.754499 136.019542 
L 98.232785 135.92874 
L 98.711071 135.695865 
L 99.189357 135.256657 
L 99.667642 134.520734 
L 100.145928 129.508927 
L 100.624214 115.839756 
L 101.102499 111.922582 
L 101.580785 110.830056 
L 102.059071 120.189518 
L 102.537357 121.163133 
L 103.015642 121.014586 
L 103.493928 110.238651 
L 103.972214 108.514273 
L 104.450499 110.839968 
L 104.928785 108.531205 
L 105.407071 108.596146 
L 105.885357 109.620828 
L 106.363642 110.136923 
L 107.320214 108.841995 
L 107.798499 107.703901 
L 108.276785 107.115416 
L 108.755071 107.248089 
L 109.233357 120.007837 
L 109.711642 121.256216 
L 110.668214 121.256239 
L 111.146499 121.369501 
L 111.624785 132.194007 
L 112.103071 134.672782 
L 112.581357 135.292619 
L 113.059642 135.487929 
L 113.537928 132.980597 
L 114.016214 134.129293 
L 114.494499 133.528239 
L 114.972785 131.360641 
L 115.451071 123.998826 
L 115.929357 119.05199 
L 116.885928 117.739166 
L 117.364214 117.47594 
L 118.320785 119.784869 
L 118.799071 120.399907 
L 119.277357 120.200528 
L 119.755642 119.417748 
L 120.233928 119.431159 
L 120.712214 118.490064 
L 121.190499 116.04113 
L 121.668785 114.399963 
L 122.147071 113.937705 
L 122.625357 113.899375 
L 123.103642 115.557472 
L 123.581928 115.768095 
L 124.060214 115.83243 
L 124.538499 117.902648 
L 125.016785 122.208745 
L 125.495071 122.649952 
L 125.973357 122.294426 
L 126.451642 121.56344 
L 127.886499 121.149829 
L 128.364785 120.677082 
L 128.843071 121.675794 
L 129.321357 124.748517 
L 129.799642 122.705422 
L 130.277928 121.199458 
L 130.756214 120.397967 
L 131.234499 120.185074 
L 131.712785 120.458244 
L 133.147642 122.600813 
L 133.625928 122.925317 
L 134.582499 124.66389 
L 135.060785 125.003719 
L 135.539071 123.320878 
L 136.495642 119.46636 
L 136.973928 119.489673 
L 137.930499 120.046976 
L 139.365357 119.946847 
L 140.321928 119.376433 
L 140.800214 119.196902 
L 141.756785 119.482683 
L 142.713357 119.987475 
L 144.148214 121.251548 
L 144.626499 122.160296 
L 145.583071 122.497215 
L 146.061357 122.6136 
L 146.539642 123.729461 
L 147.017928 125.403437 
L 147.974499 127.864927 
L 148.452785 128.142817 
L 149.887642 126.119803 
L 150.365928 124.686359 
L 150.844214 122.830048 
L 151.322499 121.50012 
L 151.800785 121.115584 
L 152.757357 119.349809 
L 153.235642 118.94887 
L 155.148785 121.700262 
L 155.627071 121.970023 
L 156.105357 121.930103 
L 156.583642 122.014351 
L 157.061928 121.318531 
L 158.018499 118.706997 
L 158.975071 115.6932 
L 159.453357 114.95765 
L 159.931642 114.871151 
L 160.409928 115.253922 
L 160.888214 115.801341 
L 161.844785 118.231073 
L 162.323071 119.70485 
L 162.801357 119.956538 
L 163.279642 120.018806 
L 163.757928 120.727698 
L 164.714499 123.597209 
L 165.192785 124.689101 
L 165.671071 125.389123 
L 166.149357 125.65446 
L 166.627642 125.448671 
L 167.105928 125.103501 
L 168.062499 123.812846 
L 168.540785 122.067119 
L 169.497357 116.909065 
L 169.975642 116.308424 
L 170.453928 116.270826 
L 170.932214 116.427796 
L 171.410499 116.811875 
L 171.888785 117.713915 
L 172.367071 118.279351 
L 172.845357 119.595294 
L 173.323642 121.825216 
L 174.280214 124.660998 
L 174.758499 125.454604 
L 175.236785 125.126509 
L 175.715071 123.960222 
L 176.193357 122.335818 
L 177.149928 117.992972 
L 177.628214 116.943884 
L 178.106499 117.204394 
L 179.541357 119.530391 
L 180.019642 119.403972 
L 180.976214 118.346635 
L 181.454499 117.566957 
L 181.932785 117.130139 
L 182.889357 116.986404 
L 183.367642 117.938502 
L 183.845928 120.375148 
L 184.324214 122.036678 
L 185.280785 124.380779 
L 185.759071 124.95555 
L 186.237357 125.215919 
L 186.715642 125.327839 
L 187.193928 125.163227 
L 187.672214 124.827212 
L 188.150499 124.223839 
L 189.107071 121.91727 
L 189.585357 120.799993 
L 190.063642 120.000648 
L 190.541928 119.600361 
L 191.498499 120.063083 
L 192.933357 120.81436 
L 193.889928 121.215585 
L 194.846499 121.730959 
L 195.803071 122.566755 
L 201.064214 121.569536 
L 202.020785 121.853447 
L 202.977357 122.410167 
L 204.412214 123.50555 
L 204.890499 123.657133 
L 206.325357 123.685945 
L 207.760214 123.401793 
L 210.629928 122.569205 
L 211.586499 122.533796 
L 213.977928 122.480783 
L 215.891071 122.323413 
L 218.760785 122.156397 
L 219.717357 122.304921 
L 221.152214 122.746892 
L 223.065357 123.385212 
L 223.543642 123.458411 
L 224.978499 123.207595 
L 226.891642 122.662815 
L 228.326499 122.211339 
L 229.283071 122.132363 
L 233.109357 122.363803 
L 236.457357 122.151041 
L 237.413928 122.187198 
L 238.848785 122.542599 
L 241.240214 123.311144 
L 242.675071 123.501131 
L 244.109928 123.471182 
L 248.892785 122.66643 
L 252.240785 122.753293 
L 257.023642 123.124678 
L 259.415071 123.332584 
L 261.806499 123.369293 
L 264.197928 123.168538 
L 268.502499 122.754114 
L 271.850499 122.850678 
L 274.720214 123.107562 
L 277.111642 123.295258 
L 279.503071 123.306908 
L 287.633928 122.944911 
L 296.721357 123.355696 
L 300.069357 123.121922 
L 303.417357 122.928017 
L 306.287071 123.005899 
L 313.939642 123.404204 
L 317.287642 123.208468 
L 321.113928 122.966497 
L 323.983642 123.01288 
L 333.071071 123.391785 
L 342.636785 123.055928 
L 351.245928 123.400721 
L 355.550499 123.124007 
L 358.898499 123.026144 
L 362.724785 123.164066 
L 368.942499 123.406664 
L 372.768785 123.216796 
L 376.595071 123.054276 
L 380.899642 123.161129 
L 387.595642 123.384841 
L 391.900214 123.177495 
L 395.726499 123.080558 
L 398.006502 123.123183 
L 398.006502 123.123183 
" clip-path="url(#p08a3a952f0)" style="fill: none; stroke: #8dd3c7; stroke-width: 1.5; stroke-linecap: square"/>
   </g>
   <g id="line2d_43">
    <path d="M 95.363071 126.38813 
L 95.841357 131.141363 
L 96.319642 134.370955 
L 96.797928 134.885783 
L 97.276214 135.000171 
L 97.754499 134.676635 
L 99.189357 131.641265 
L 100.145928 133.633455 
L 100.624214 123.237194 
L 101.102499 131.821487 
L 101.580785 113.638833 
L 102.059071 109.633547 
L 102.537357 109.727062 
L 103.015642 112.211246 
L 103.493928 113.120745 
L 103.972214 108.398216 
L 104.450499 107.143212 
L 104.928785 106.697806 
L 105.407071 106.480836 
L 106.363642 106.43447 
L 107.798499 106.57315 
L 108.276785 106.837982 
L 108.755071 128.942636 
L 109.233357 135.576294 
L 110.189928 135.296292 
L 110.668214 133.697276 
L 111.146499 121.944536 
L 111.624785 121.256342 
L 112.103071 121.247541 
L 112.581357 121.377257 
L 113.059642 119.889883 
L 113.537928 131.095154 
L 114.016214 127.730811 
L 114.494499 134.594196 
L 114.972785 134.500607 
L 115.451071 133.133634 
L 115.929357 130.752904 
L 116.407642 128.936765 
L 116.885928 126.616136 
L 117.842499 123.773419 
L 118.320785 118.912488 
L 118.799071 111.84655 
L 119.277357 117.425975 
L 119.755642 116.86715 
L 120.233928 123.279162 
L 120.712214 126.774514 
L 121.190499 123.786542 
L 121.668785 130.827964 
L 122.147071 130.209609 
L 122.625357 130.900528 
L 123.103642 132.243387 
L 124.060214 130.448732 
L 124.538499 121.711024 
L 125.016785 116.238251 
L 125.495071 115.850831 
L 126.451642 111.335906 
L 126.929928 110.945775 
L 127.408214 117.882728 
L 127.886499 121.717623 
L 128.364785 124.232768 
L 128.843071 125.319391 
L 129.321357 125.588189 
L 129.799642 124.476271 
L 130.277928 125.230155 
L 130.756214 125.729377 
L 131.712785 129.289965 
L 132.191071 130.493198 
L 132.669357 131.180468 
L 133.147642 129.228892 
L 133.625928 126.094221 
L 134.104214 122.053222 
L 135.060785 119.736644 
L 136.017357 129.193432 
L 136.495642 131.591212 
L 136.973928 130.399172 
L 137.930499 112.319959 
L 138.408785 110.684489 
L 138.887071 121.077047 
L 139.365357 121.19804 
L 139.843642 118.910758 
L 140.321928 109.810783 
L 140.800214 108.397477 
L 141.278499 108.850261 
L 142.235071 113.347436 
L 142.713357 121.520781 
L 143.191642 121.551252 
L 143.669928 119.978811 
L 144.148214 120.85623 
L 144.626499 120.785614 
L 145.104785 115.606666 
L 145.583071 117.066951 
L 146.061357 122.524042 
L 146.539642 126.536907 
L 147.017928 127.20887 
L 148.452785 122.246962 
L 148.931071 118.045476 
L 149.409357 128.834168 
L 149.887642 134.011105 
L 150.365928 134.311814 
L 150.844214 133.951049 
L 151.322499 132.118998 
L 151.800785 123.698954 
L 152.279071 118.050708 
L 152.757357 128.647851 
L 153.235642 121.957015 
L 154.192214 116.388268 
L 154.670499 113.820888 
L 155.148785 117.994967 
L 155.627071 117.64704 
L 156.105357 109.902257 
L 156.583642 108.747906 
L 157.061928 108.610775 
L 157.540214 108.66585 
L 158.018499 109.840534 
L 158.496785 117.661634 
L 158.975071 127.99725 
L 159.453357 128.282415 
L 159.931642 126.578054 
L 160.409928 123.693663 
L 160.888214 125.613568 
L 161.844785 120.993936 
L 162.323071 126.772504 
L 162.801357 130.727884 
L 163.279642 127.326167 
L 163.757928 118.658414 
L 164.236214 119.032755 
L 164.714499 121.891418 
L 165.192785 123.683384 
L 165.671071 124.54338 
L 166.149357 131.077683 
L 166.627642 133.644716 
L 167.105928 133.458622 
L 167.584214 131.774199 
L 168.540785 122.924511 
L 169.019071 121.958415 
L 169.497357 123.541173 
L 169.975642 120.991499 
L 170.453928 120.709595 
L 170.932214 121.054009 
L 171.888785 121.37964 
L 172.367071 121.319183 
L 172.845357 121.08668 
L 173.323642 121.982217 
L 173.801928 121.447606 
L 174.758499 125.837311 
L 175.236785 126.084482 
L 175.715071 126.038007 
L 176.193357 125.78902 
L 177.149928 123.376024 
L 177.628214 124.021308 
L 178.106499 124.111981 
L 178.584785 124.680642 
L 179.063071 125.42552 
L 179.541357 125.343918 
L 180.019642 124.959128 
L 180.976214 125.186237 
L 181.454499 124.895458 
L 181.932785 124.379021 
L 182.411071 125.28917 
L 183.367642 129.459 
L 183.845928 129.857614 
L 184.324214 129.548357 
L 186.237357 125.505343 
L 187.193928 124.978121 
L 187.672214 124.778018 
L 188.628785 123.941113 
L 191.498499 121.097554 
L 192.455071 120.90948 
L 192.933357 120.498058 
L 193.411642 120.881367 
L 194.368214 120.821247 
L 195.324785 120.998656 
L 195.803071 121.043269 
L 196.759642 120.547689 
L 197.716214 119.688378 
L 198.194499 119.517736 
L 199.151071 119.763622 
L 199.629357 120.010209 
L 200.107642 120.664737 
L 200.585928 121.799572 
L 202.499071 122.235952 
L 202.977357 122.13254 
L 203.933928 121.67732 
L 205.368785 121.136484 
L 206.803642 120.400654 
L 208.238499 119.988163 
L 209.195071 119.998213 
L 210.629928 120.321859 
L 211.586499 120.707246 
L 213.021357 120.526867 
L 214.456214 120.494053 
L 215.412785 120.264348 
L 216.369357 119.996102 
L 217.325928 120.638919 
L 218.282499 120.993327 
L 219.239071 121.671853 
L 219.717357 121.904636 
L 220.673928 121.971505 
L 221.630499 121.820413 
L 223.543642 121.176144 
L 224.500214 120.928493 
L 225.456785 120.883965 
L 226.413357 121.00946 
L 228.804785 121.60411 
L 230.239642 121.416491 
L 233.587642 121.611683 
L 235.022499 122.212925 
L 236.935642 123.279862 
L 237.892214 123.399324 
L 239.327071 123.360739 
L 242.196785 122.752537 
L 246.023071 122.971265 
L 247.936214 122.849668 
L 249.371071 123.018086 
L 251.762499 123.531813 
L 253.675642 124.334556 
L 254.632214 124.656169 
L 256.067071 124.479271 
L 257.023642 124.157424 
L 258.458499 123.145551 
L 259.893357 122.585313 
L 260.849928 122.523933 
L 262.284785 122.929982 
L 262.763071 123.058439 
L 265.154499 122.683374 
L 266.111071 122.730289 
L 268.980785 123.407467 
L 271.372214 124.674931 
L 272.328785 124.945427 
L 272.807071 125.00236 
L 273.763642 124.361988 
L 275.198499 122.879998 
L 277.111642 121.451809 
L 277.589928 121.268616 
L 278.068214 121.287267 
L 279.024785 121.847169 
L 279.981357 122.59872 
L 280.459642 122.799554 
L 280.937928 122.635827 
L 281.416214 122.596402 
L 282.851071 122.995497 
L 283.807642 122.937901 
L 284.285928 122.800894 
L 285.242499 122.399209 
L 285.720785 122.576281 
L 286.677357 123.475083 
L 288.112214 124.414654 
L 289.068785 125.19871 
L 289.547071 125.347829 
L 290.025357 125.291458 
L 290.503642 125.007008 
L 291.460214 123.943038 
L 294.808214 121.069806 
L 295.286499 120.939491 
L 295.764785 121.054812 
L 297.677928 122.712679 
L 298.634499 122.552667 
L 300.069357 123.159921 
L 300.547642 123.149415 
L 302.460785 122.209653 
L 302.939071 122.118393 
L 303.417357 122.497365 
L 303.895642 123.258012 
L 306.765357 125.364942 
L 307.243642 125.378111 
L 307.721928 125.210676 
L 311.548214 121.5846 
L 312.504785 121.132034 
L 312.983071 121.080667 
L 314.417928 122.18756 
L 314.896214 122.614413 
L 315.374499 122.678313 
L 315.852785 122.487638 
L 317.765928 123.117628 
L 320.157357 122.174204 
L 320.635642 122.369057 
L 321.592214 123.479191 
L 323.027071 124.421777 
L 323.983642 125.190309 
L 324.461928 125.351111 
L 324.940214 125.238447 
L 325.418499 124.957045 
L 326.375071 123.914112 
L 329.244785 121.581703 
L 330.201357 121.28743 
L 330.679642 121.463103 
L 331.636214 122.087728 
L 332.592785 122.79518 
L 333.071071 122.573328 
L 333.549357 122.487436 
L 334.984214 122.978212 
L 335.462499 122.977116 
L 336.419071 122.604765 
L 337.375642 122.292367 
L 337.853928 122.363817 
L 338.332214 122.701885 
L 338.810499 123.317258 
L 340.723642 124.541599 
L 341.201928 125.018776 
L 341.680214 125.191667 
L 342.158499 125.180201 
L 342.636785 125.009679 
L 343.115071 124.587442 
L 343.593357 123.99962 
L 346.463071 121.693793 
L 347.419642 121.316002 
L 347.897928 121.374567 
L 349.332785 122.377564 
L 349.811071 122.7483 
L 350.767642 122.481126 
L 351.245928 122.55611 
L 352.202499 122.892049 
L 352.680785 122.971237 
L 354.115642 122.562096 
L 354.593928 122.37736 
L 355.072214 122.333456 
L 355.550499 122.606112 
L 356.028785 123.16762 
L 357.463642 124.057428 
L 357.941928 124.368647 
L 358.420214 124.843164 
L 358.898499 125.111367 
L 359.376785 125.144676 
L 359.855071 125.000774 
L 360.333357 124.662685 
L 360.811642 124.073912 
L 363.681357 121.748112 
L 364.637928 121.300149 
L 365.116214 121.257188 
L 366.551071 122.18616 
L 367.029357 122.592647 
L 367.507642 122.698472 
L 367.985928 122.507663 
L 368.464214 122.490334 
L 369.420785 122.846477 
L 370.377357 122.940256 
L 371.333928 122.612893 
L 372.290499 122.231589 
L 372.768785 122.495568 
L 374.203642 123.66616 
L 375.638499 124.625822 
L 376.116785 125.041621 
L 376.595071 125.191369 
L 377.551642 124.831759 
L 378.986499 123.449702 
L 381.377928 121.62269 
L 382.334499 121.313741 
L 382.812785 121.468545 
L 384.725928 122.792377 
L 385.682499 122.451301 
L 387.595642 122.948383 
L 388.552214 122.619715 
L 389.987071 122.40739 
L 390.465357 122.702266 
L 390.943642 123.249008 
L 393.813357 125.11552 
L 394.291642 125.121501 
L 394.769928 124.984118 
L 395.248214 124.621141 
L 395.726499 124.050716 
L 398.006502 122.242877 
L 398.006502 122.242877 
" clip-path="url(#p08a3a952f0)" style="fill: none; stroke-dasharray: 5.55,2.4; stroke-dashoffset: 0; stroke: #feffb3; stroke-width: 1.5"/>
   </g>
   <g id="line2d_44">
    <path d="M 95.363071 137.56 
L 95.363071 104.948235 
" clip-path="url(#p08a3a952f0)" style="fill: none; stroke-dasharray: 1.5,2.475; stroke-dashoffset: 0; stroke: #ffffff; stroke-width: 1.5"/>
   </g>
   <g id="patch_13">
    <path d="M 47.534499 137.56 
L 47.534499 104.948235 
" style="fill: none; stroke: #ffffff; stroke-width: 0.8; stroke-linejoin: miter; stroke-linecap: square"/>
   </g>
   <g id="patch_14">
    <path d="M 382.334499 137.56 
L 382.334499 104.948235 
" style="fill: none; stroke: #ffffff; stroke-width: 0.8; stroke-linejoin: miter; stroke-linecap: square"/>
   </g>
   <g id="patch_15">
    <path d="M 47.534499 137.56 
L 382.334499 137.56 
" style="fill: none; stroke: #ffffff; stroke-width: 0.8; stroke-linejoin: miter; stroke-linecap: square"/>
   </g>
   <g id="patch_16">
    <path d="M 47.534499 104.948235 
L 382.334499 104.948235 
" style="fill: none; stroke: #ffffff; stroke-width: 0.8; stroke-linejoin: miter; stroke-linecap: square"/>
   </g>
  </g>
  <g id="legend_1">
   <g id="patch_17">
    <path d="M 61.142587 24.137178 
L 357.926411 24.137178 
Q 359.926411 24.137178 359.926411 22.137178 
L 359.926411 9.2 
Q 359.926411 7.2 357.926411 7.2 
L 61.142587 7.2 
Q 59.142587 7.2 59.142587 9.2 
L 59.142587 22.137178 
Q 59.142587 24.137178 61.142587 24.137178 
z
" style="opacity: 0.8; stroke: #cccccc; stroke-linejoin: miter"/>
   </g>
   <g id="line2d_45">
    <path d="M 63.142587 14.7 
L 73.142587 14.7 
L 83.142587 14.7 
" style="fill: none; stroke: #ffffff; stroke-width: 1.5; stroke-linecap: square"/>
   </g>
   <g id="text_23">
    <!-- uncontrolled -->
    <g style="fill: #ffffff" transform="translate(91.142587 18.2) scale(0.1 -0.1)">
     <defs>
      <path id="CMSS17-75" d="M 2618 2739 
L 2131 2739 
L 2131 972 
C 2131 498 1786 306 1421 306 
C 998 306 960 447 960 709 
L 960 2739 
L 474 2739 
L 474 678 
C 474 179 646 -64 1088 -64 
C 1306 -64 1798 -13 2144 306 
L 2144 0 
L 2618 0 
L 2618 2739 
z
" transform="scale(0.015625)"/>
     </defs>
     <use xlink:href="#CMSS17-75" transform="scale(0.996264)"/>
     <use xlink:href="#CMSS17-6e" transform="translate(48.204943 0) scale(0.996264)"/>
     <use xlink:href="#CMSS17-63" transform="translate(96.409886 0) scale(0.996264)"/>
     <use xlink:href="#CMSS17-6f" transform="translate(138.048708 0) scale(0.996264)"/>
     <use xlink:href="#CMSS17-6e" transform="translate(184.892332 0) scale(0.996264)"/>
     <use xlink:href="#CMSS17-74" transform="translate(233.097275 0) scale(0.996264)"/>
     <use xlink:href="#CMSS17-72" transform="translate(266.928842 0) scale(0.996264)"/>
     <use xlink:href="#CMSS17-6f" transform="translate(298.838614 0) scale(0.996264)"/>
     <use xlink:href="#CMSS17-6c" transform="translate(345.682238 0) scale(0.996264)"/>
     <use xlink:href="#CMSS17-6c" transform="translate(367.862961 0) scale(0.996264)"/>
     <use xlink:href="#CMSS17-65" transform="translate(390.043684 0) scale(0.996264)"/>
     <use xlink:href="#CMSS17-64" transform="translate(431.682506 0) scale(0.996264)"/>
    </g>
   </g>
   <g id="line2d_46">
    <path d="M 162.311878 14.7 
L 172.311878 14.7 
L 182.311878 14.7 
" style="fill: none; stroke: #8dd3c7; stroke-width: 1.5; stroke-linecap: square"/>
   </g>
   <g id="text_24">
    <!-- MB, $N_\mathrm{m}=10$, $N_\mathrm{thr}=5$ -->
    <g style="fill: #ffffff" transform="translate(190.311878 18.2) scale(0.1 -0.1)">
     <defs>
      <path id="CMSS17-4d" d="M 3194 2371 
L 2886 1473 
C 2835 1307 2662 791 2624 587 
L 2618 587 
C 2598 715 2560 849 2458 1174 
C 2400 1365 2336 1562 2272 1741 
L 1325 4416 
L 576 4416 
L 576 0 
L 1075 0 
L 1075 3900 
L 1082 3900 
C 1082 3894 1139 3613 1530 2499 
L 2374 96 
L 2848 96 
L 3610 2231 
C 3661 2378 3821 2843 3891 3066 
C 3955 3257 4115 3728 4154 3913 
L 4160 3913 
L 4160 0 
L 4666 0 
L 4666 4416 
L 3923 4416 
L 3194 2371 
z
" transform="scale(0.015625)"/>
      <path id="CMSS17-42" d="M 570 4416 
L 570 0 
L 2163 0 
C 3034 0 3667 574 3667 1200 
C 3667 1685 3251 2176 2502 2317 
C 3334 2558 3501 3040 3501 3313 
C 3501 3883 2874 4416 1997 4416 
L 570 4416 
z
M 1088 2496 
L 1088 4059 
L 1824 4059 
C 2483 4059 3002 3724 3002 3306 
C 3002 2926 2592 2496 1766 2496 
L 1088 2496 
z
M 1088 357 
L 1088 2107 
L 1939 2107 
C 2630 2107 3162 1679 3162 1206 
C 3162 772 2694 357 1984 357 
L 1088 357 
z
" transform="scale(0.015625)"/>
      <path id="CMSS17-2c" d="M 1088 6 
L 1088 510 
L 576 510 
L 576 0 
L 736 0 
L 570 -800 
L 826 -800 
L 1088 6 
z
" transform="scale(0.015625)"/>
      <path id="CMMI12-4e" d="M 4736 3698 
C 4806 3974 4909 4166 5395 4166 
C 5414 4166 5491 4166 5491 4279 
C 5491 4352 5434 4352 5408 4352 
C 5280 4352 4954 4352 4826 4352 
L 4518 4352 
C 4429 4352 4314 4352 4224 4352 
C 4186 4352 4109 4352 4109 4230 
C 4109 4166 4160 4166 4205 4166 
C 4589 4166 4614 4019 4614 3903 
C 4614 3846 4608 3826 4589 3737 
L 3866 850 
L 2496 4249 
C 2451 4352 2445 4352 2304 4352 
L 1523 4352 
C 1395 4352 1338 4352 1338 4230 
C 1338 4166 1382 4166 1504 4166 
C 1536 4166 1914 4166 1914 4115 
C 1914 4102 1901 4051 1894 4032 
L 1043 635 
C 966 320 813 186 390 186 
C 358 186 294 186 294 67 
C 294 0 358 0 378 0 
C 506 0 832 0 960 0 
L 1267 0 
C 1357 0 1466 0 1555 0 
C 1600 0 1670 0 1670 122 
C 1670 180 1606 186 1581 186 
C 1370 186 1165 224 1165 454 
C 1165 505 1178 562 1190 613 
L 2054 4032 
C 2093 3968 2093 3956 2118 3898 
L 3642 115 
C 3674 38 3686 0 3744 0 
C 3808 0 3814 19 3840 128 
L 4736 3698 
z
" transform="scale(0.015625)"/>
      <path id="CMR17-6d" d="M 4326 1933 
C 4326 2252 4269 2790 3507 2790 
C 3072 2790 2771 2496 2656 2151 
L 2650 2151 
C 2573 2676 2195 2790 1837 2790 
C 1331 2790 1069 2400 973 2144 
L 966 2144 
L 966 2790 
L 211 2720 
L 211 2554 
C 589 2554 646 2515 646 2208 
L 646 428 
C 646 184 621 153 211 153 
L 211 -13 
C 365 0 646 0 813 0 
C 979 0 1267 0 1421 -13 
L 1421 153 
C 1011 153 986 178 986 428 
L 986 1658 
C 986 2247 1344 2688 1792 2688 
C 2266 2688 2317 2266 2317 1958 
L 2317 428 
C 2317 184 2291 153 1882 153 
L 1882 -13 
C 2035 0 2317 0 2483 0 
C 2650 0 2938 0 3091 -13 
L 3091 153 
C 2682 153 2656 178 2656 428 
L 2656 1658 
C 2656 2247 3014 2688 3462 2688 
C 3936 2688 3987 2266 3987 1958 
L 3987 428 
C 3987 184 3962 153 3552 153 
L 3552 -13 
C 3706 0 3987 0 4154 0 
C 4320 0 4608 0 4762 -13 
L 4762 153 
C 4352 153 4326 178 4326 428 
L 4326 1933 
z
" transform="scale(0.015625)"/>
      <path id="CMR17-3d" d="M 4115 2017 
C 4211 2017 4307 2017 4307 2125 
C 4307 2240 4198 2240 4090 2240 
L 512 2240 
C 403 2240 294 2240 294 2125 
C 294 2017 390 2017 486 2017 
L 4115 2017 
z
M 4090 896 
C 4198 896 4307 896 4307 1011 
C 4307 1119 4211 1119 4115 1119 
L 486 1119 
C 390 1119 294 1119 294 1011 
C 294 896 403 896 512 896 
L 4090 896 
z
" transform="scale(0.015625)"/>
      <path id="CMR17-74" d="M 966 2560 
L 1862 2560 
L 1862 2725 
L 966 2725 
L 966 3904 
L 851 3904 
C 838 3245 614 2668 70 2668 
L 70 2560 
L 627 2560 
L 627 771 
C 627 650 627 -64 1370 -64 
C 1747 -64 1965 306 1965 777 
L 1965 1140 
L 1850 1140 
L 1850 783 
C 1850 344 1677 51 1408 51 
C 1222 51 966 178 966 758 
L 966 2560 
z
" transform="scale(0.015625)"/>
      <path id="CMR17-68" d="M 2656 1933 
C 2656 2259 2592 2790 1837 2790 
C 1312 2790 1056 2368 979 2157 
L 973 2157 
L 973 4396 
L 211 4326 
L 211 4160 
C 589 4160 646 4122 646 3817 
L 646 426 
C 646 184 621 153 211 153 
L 211 -13 
C 365 0 646 0 813 0 
C 979 0 1267 0 1421 -13 
L 1421 153 
C 1011 153 986 178 986 428 
L 986 1658 
C 986 2247 1344 2688 1792 2688 
C 2266 2688 2317 2266 2317 1958 
L 2317 428 
C 2317 184 2291 153 1882 153 
L 1882 -13 
C 2035 0 2317 0 2483 0 
C 2650 0 2938 0 3091 -13 
L 3091 153 
C 2682 153 2656 178 2656 428 
L 2656 1933 
z
" transform="scale(0.015625)"/>
      <path id="CMR17-72" d="M 960 1497 
C 960 2112 1222 2688 1702 2688 
C 1747 2688 1792 2682 1837 2662 
C 1837 2662 1696 2617 1696 2452 
C 1696 2298 1818 2234 1914 2234 
C 1990 2234 2131 2279 2131 2458 
C 2131 2663 1926 2790 1709 2790 
C 1222 2790 1011 2317 947 2093 
L 941 2093 
L 941 2790 
L 198 2720 
L 198 2554 
C 576 2554 634 2515 634 2208 
L 634 428 
C 634 184 608 153 198 153 
L 198 -13 
C 352 0 646 0 813 0 
C 998 0 1325 0 1498 -13 
L 1498 153 
C 1037 153 960 153 960 440 
L 960 1497 
z
" transform="scale(0.015625)"/>
     </defs>
     <use xlink:href="#CMSS17-4d" transform="scale(0.996264)"/>
     <use xlink:href="#CMSS17-42" transform="translate(81.67603 0) scale(0.996264)"/>
     <use xlink:href="#CMSS17-2c" transform="translate(144.01407 0) scale(0.996264)"/>
     <use xlink:href="#CMMI12-4e" transform="translate(201.267388 0) scale(0.996264)"/>
     <use xlink:href="#CMR17-6d" transform="translate(279.382507 -14.943915) scale(0.697382)"/>
     <use xlink:href="#CMR17-3d" transform="translate(361.398114 0) scale(0.996264)"/>
     <use xlink:href="#CMR17-31" transform="translate(460.786911 0) scale(0.996264)"/>
     <use xlink:href="#CMR17-30" transform="translate(506.477388 0) scale(0.996264)"/>
     <use xlink:href="#CMSS17-2c" transform="translate(552.167865 0) scale(0.996264)"/>
     <use xlink:href="#CMMI12-4e" transform="translate(609.421183 0) scale(0.996264)"/>
     <use xlink:href="#CMR17-74" transform="translate(687.536302 -14.943915) scale(0.697382)"/>
     <use xlink:href="#CMR17-68" transform="translate(712.232722 -14.943915) scale(0.697382)"/>
     <use xlink:href="#CMR17-72" transform="translate(747.859331 -14.943915) scale(0.697382)"/>
     <use xlink:href="#CMR17-3d" transform="translate(800.727892 0) scale(0.996264)"/>
     <use xlink:href="#CMR17-35" transform="translate(900.116689 0) scale(0.996264)"/>
    </g>
   </g>
   <g id="line2d_47">
    <path d="M 313.535857 14.7 
L 323.535857 14.7 
L 333.535857 14.7 
" style="fill: none; stroke-dasharray: 5.55,2.4; stroke-dashoffset: 0; stroke: #feffb3; stroke-width: 1.5"/>
   </g>
   <g id="text_25">
    <!-- MF -->
    <g style="fill: #ffffff" transform="translate(341.535857 18.2) scale(0.1 -0.1)">
     <defs>
      <path id="CMSS17-46" d="M 2918 1984 
L 2918 2373 
L 1101 2373 
L 1101 3968 
L 1882 3968 
C 1958 3968 2035 3968 2112 3968 
L 3168 3968 
L 3168 4375 
L 563 4375 
L 563 -32 
L 1101 -32 
L 1101 1984 
L 2918 1984 
z
" transform="scale(0.015625)"/>
     </defs>
     <use xlink:href="#CMSS17-4d" transform="scale(0.996264)"/>
     <use xlink:href="#CMSS17-46" transform="translate(81.67603 0) scale(0.996264)"/>
    </g>
   </g>
  </g>
 </g>
 <defs>
  <clipPath id="pfeef9f08ca">
   <rect x="47.534499" y="26.68" width="334.8" height="32.611765"/>
  </clipPath>
  <clipPath id="pc71994fe25">
   <rect x="47.534499" y="65.814118" width="334.8" height="32.611765"/>
  </clipPath>
  <clipPath id="p08a3a952f0">
   <rect x="47.534499" y="104.948235" width="334.8" height="32.611765"/>
  </clipPath>
 </defs>
</svg>
