<?xml version="1.0" encoding="utf-8" standalone="no"?>
<!DOCTYPE svg PUBLIC "-//W3C//DTD SVG 1.1//EN"
  "http://www.w3.org/Graphics/SVG/1.1/DTD/svg11.dtd">
<svg xmlns:xlink="http://www.w3.org/1999/xlink" width="292.755pt" height="193.875498pt" viewBox="0 0 292.755 193.875498" xmlns="http://www.w3.org/2000/svg" version="1.1">
 <metadata>
  <rdf:RDF xmlns:dc="http://purl.org/dc/elements/1.1/" xmlns:cc="http://creativecommons.org/ns#" xmlns:rdf="http://www.w3.org/1999/02/22-rdf-syntax-ns#">
   <cc:Work>
    <dc:type rdf:resource="http://purl.org/dc/dcmitype/StillImage"/>
    <dc:date>2025-02-17T20:35:35.712230</dc:date>
    <dc:format>image/svg+xml</dc:format>
    <dc:creator>
     <cc:Agent>
      <dc:title>Matplotlib v3.10.0, https://matplotlib.org/</dc:title>
     </cc:Agent>
    </dc:creator>
   </cc:Work>
  </rdf:RDF>
 </metadata>
 <defs>
  <style type="text/css">*{stroke-linejoin: round; stroke-linecap: butt}</style>
 </defs>
 <g id="figure_1">
  <g id="patch_1">
   <path d="M 0 193.875498 
L 292.755 193.875498 
L 292.755 0 
L 0 0 
L 0 193.875498 
z
" style="fill: none"/>
  </g>
  <g id="axes_1">
   <g id="patch_2">
    <path d="M 17.595 186.675498 
L 285.555 186.675498 
L 285.555 20.355498 
L 17.595 20.355498 
L 17.595 186.675498 
z
" style="fill: none"/>
   </g>
   <g id="patch_3">
    <path d="M 64.74672 117.375498 
C 68.422435 117.375498 71.948097 115.915121 74.54722 113.315998 
C 77.146343 110.716875 78.60672 107.191213 78.60672 103.515498 
C 78.60672 99.839783 77.146343 96.314121 74.54722 93.714998 
C 71.948097 91.115875 68.422435 89.655498 64.74672 89.655498 
C 61.071005 89.655498 57.545343 91.115875 54.94622 93.714998 
C 52.347097 96.314121 50.88672 99.839783 50.88672 103.515498 
C 50.88672 107.191213 52.347097 110.716875 54.94622 113.315998 
C 57.545343 115.915121 61.071005 117.375498 64.74672 117.375498 
z
" clip-path="url(#p127211e14f)" style="fill: #808080; stroke: #808080; stroke-linejoin: miter"/>
   </g>
   <g id="PathCollection_1">
    <defs>
     <path id="m8fdd8c1745" d="M -1.936492 0 
L 1.936492 0 
M 0 1.936492 
L 0 -1.936492 
" style="stroke: #000000"/>
    </defs>
    <g clip-path="url(#p127211e14f)">
     <use xlink:href="#m8fdd8c1745" x="64.74672" y="103.515498" style="stroke: #000000"/>
    </g>
   </g>
   <g id="patch_4">
    <path d="M 73.06272 103.515498 
C 73.06272 102.055844 72.678414 100.621596 71.948587 99.357498 
C 71.21876 98.093401 70.168818 97.043458 68.90472 96.313631 
C 67.640622 95.583804 66.206374 95.199498 64.74672 95.199498 
C 63.287066 95.199498 61.852818 95.583804 60.58872 96.313631 
C 59.324622 97.043458 58.27468 98.093401 57.544853 99.357498 
C 56.815026 100.621596 56.43072 102.055844 56.43072 103.515498 
C 56.43072 104.975153 56.815026 106.409401 57.544853 107.673498 
C 58.27468 108.937596 59.324622 109.987539 60.58872 110.717366 
" clip-path="url(#p127211e14f)" style="fill: none; stroke: #feffb3; stroke-linejoin: miter; stroke-linecap: round"/>
   </g>
   <g id="patch_5">
    <path d="M 62.189135 111.641366 
L 60.58872 108.869366 
L 58.988305 111.641366 
z
" clip-path="url(#p127211e14f)" style="fill: #feffb3; stroke: #feffb3; stroke-linejoin: miter"/>
   </g>
   <g id="patch_6">
    <path d="M 100.755 96.585498 
C 104.430715 96.585498 107.956377 95.125121 110.5555 92.525998 
C 113.154623 89.926875 114.615 86.401213 114.615 82.725498 
C 114.615 79.049783 113.154623 75.524121 110.5555 72.924998 
C 107.956377 70.325875 104.430715 68.865498 100.755 68.865498 
C 97.079285 68.865498 93.553623 70.325875 90.9545 72.924998 
C 88.355377 75.524121 86.895 79.049783 86.895 82.725498 
C 86.895 86.401213 88.355377 89.926875 90.9545 92.525998 
C 93.553623 95.125121 97.079285 96.585498 100.755 96.585498 
z
" clip-path="url(#p127211e14f)" style="fill: #808080; stroke: #808080; stroke-linejoin: miter"/>
   </g>
   <g id="PathCollection_2">
    <g clip-path="url(#p127211e14f)">
     <use xlink:href="#m8fdd8c1745" x="100.755" y="82.725498" style="stroke: #000000"/>
    </g>
   </g>
   <g id="patch_7">
    <path d="M 109.071 82.725498 
C 109.071 81.265844 108.686694 79.831596 107.956867 78.567498 
C 107.22704 77.303401 106.177098 76.253458 104.913 75.523631 
C 103.648902 74.793804 102.214654 74.409498 100.755 74.409498 
C 99.295346 74.409498 97.861098 74.793804 96.597 75.523631 
C 95.332902 76.253458 94.28296 77.303401 93.553133 78.567498 
C 92.823306 79.831596 92.439 81.265844 92.439 82.725498 
C 92.439 84.185153 92.823306 85.619401 93.553133 86.883498 
C 94.28296 88.147596 95.332902 89.197539 96.597 89.927366 
" clip-path="url(#p127211e14f)" style="fill: none; stroke: #feffb3; stroke-linejoin: miter; stroke-linecap: round"/>
   </g>
   <g id="patch_8">
    <path d="M 98.197415 90.851366 
L 96.597 88.079366 
L 94.996585 90.851366 
z
" clip-path="url(#p127211e14f)" style="fill: #feffb3; stroke: #feffb3; stroke-linejoin: miter"/>
   </g>
   <g id="patch_9">
    <path d="M 100.755 138.165498 
C 104.430715 138.165498 107.956377 136.705121 110.5555 134.105998 
C 113.154623 131.506875 114.615 127.981213 114.615 124.305498 
C 114.615 120.629783 113.154623 117.104121 110.5555 114.504998 
C 107.956377 111.905875 104.430715 110.445498 100.755 110.445498 
C 97.079285 110.445498 93.553623 111.905875 90.9545 114.504998 
C 88.355377 117.104121 86.895 120.629783 86.895 124.305498 
C 86.895 127.981213 88.355377 131.506875 90.9545 134.105998 
C 93.553623 136.705121 97.079285 138.165498 100.755 138.165498 
z
" clip-path="url(#p127211e14f)" style="fill: #808080; stroke: #808080; stroke-linejoin: miter"/>
   </g>
   <g id="PathCollection_3">
    <g clip-path="url(#p127211e14f)">
     <use xlink:href="#m8fdd8c1745" x="100.755" y="124.305498" style="stroke: #000000"/>
    </g>
   </g>
   <g id="patch_10">
    <path d="M 109.071 124.305498 
C 109.071 122.845844 108.686694 121.411596 107.956867 120.147498 
C 107.22704 118.883401 106.177098 117.833458 104.913 117.103631 
C 103.648902 116.373804 102.214654 115.989498 100.755 115.989498 
C 99.295346 115.989498 97.861098 116.373804 96.597 117.103631 
C 95.332902 117.833458 94.28296 118.883401 93.553133 120.147498 
C 92.823306 121.411596 92.439 122.845844 92.439 124.305498 
C 92.439 125.765153 92.823306 127.199401 93.553133 128.463498 
C 94.28296 129.727596 95.332902 130.777539 96.597 131.507366 
" clip-path="url(#p127211e14f)" style="fill: none; stroke: #feffb3; stroke-linejoin: miter; stroke-linecap: round"/>
   </g>
   <g id="patch_11">
    <path d="M 98.197415 132.431366 
L 96.597 129.659366 
L 94.996585 132.431366 
z
" clip-path="url(#p127211e14f)" style="fill: #feffb3; stroke: #feffb3; stroke-linejoin: miter"/>
   </g>
   <g id="patch_12">
    <path d="M 17.595 186.675498 
L 285.555 186.675498 
L 285.555 20.355498 
L 17.595 20.355498 
L 17.595 186.675498 
z
" clip-path="url(#p127211e14f)" style="fill: none; stroke: #000000; stroke-width: 2; stroke-linejoin: miter"/>
   </g>
   <g id="matplotlib.axis_1"/>
   <g id="matplotlib.axis_2"/>
   <g id="line2d_1">
    <path d="M 17.595 103.515498 
L 285.555 103.515498 
" clip-path="url(#p127211e14f)" style="fill: none; stroke-dasharray: 3.7,1.6; stroke-dashoffset: 0; stroke: #ffffff"/>
   </g>
   <g id="line2d_2">
    <path d="M 100.755 186.675498 
L 100.755 20.355498 
" clip-path="url(#p127211e14f)" style="fill: none; stroke-dasharray: 3.7,1.6; stroke-dashoffset: 0; stroke: #ffffff"/>
   </g>
   <g id="line2d_3">
    <path d="M 27.99 186.675498 
L 27.99 103.515498 
L 25.911 103.515498 
L 25.911 20.355498 
" clip-path="url(#p127211e14f)" style="fill: none; stroke: #8dd3c7; stroke-linecap: square"/>
   </g>
   <g id="patch_13">
    <path d="M 17.595 186.675498 
L 17.595 20.355498 
" style="fill: none; stroke: #ffffff; stroke-width: 0.8; stroke-linejoin: miter; stroke-linecap: square"/>
   </g>
   <g id="patch_14">
    <path d="M 285.555 186.675498 
L 285.555 20.355498 
" style="fill: none; stroke: #ffffff; stroke-width: 0.8; stroke-linejoin: miter; stroke-linecap: square"/>
   </g>
   <g id="patch_15">
    <path d="M 17.595 186.675498 
L 285.555 186.675498 
" style="fill: none; stroke: #ffffff; stroke-width: 0.8; stroke-linejoin: miter; stroke-linecap: square"/>
   </g>
   <g id="patch_16">
    <path d="M 17.595 20.355498 
L 285.555 20.355498 
" style="fill: none; stroke: #ffffff; stroke-width: 0.8; stroke-linejoin: miter; stroke-linecap: square"/>
   </g>
   <g id="text_1">
    <!-- $\omega_1$ -->
    <g style="fill: #feffb3" transform="translate(63.818462 110.164158) scale(0.1 -0.1)">
     <defs>
      <path id="CMMI12-21" d="M 3802 2395 
C 3802 2580 3750 2816 3526 2816 
C 3398 2816 3251 2657 3251 2529 
C 3251 2472 3277 2434 3328 2376 
C 3424 2268 3546 2096 3546 1797 
C 3546 1567 3405 1204 3302 1007 
C 3123 656 2829 357 2496 357 
C 2093 357 1939 615 1869 975 
C 1939 1143 2086 1560 2086 1728 
C 2086 1798 2061 1856 1978 1856 
C 1933 1856 1882 1831 1850 1779 
C 1760 1638 1677 1129 1683 994 
C 1562 756 1216 357 806 357 
C 378 357 262 733 262 1096 
C 262 1758 678 2338 794 2497 
C 858 2593 902 2657 902 2669 
C 902 2714 877 2784 819 2784 
C 717 2784 685 2701 634 2625 
C 307 2121 77 1414 77 803 
C 77 408 224 -64 704 -64 
C 1235 -64 1568 391 1702 634 
C 1754 275 1946 -64 2413 -64 
C 2899 -64 3206 363 3437 879 
C 3603 1249 3802 2045 3802 2395 
z
" transform="scale(0.015625)"/>
      <path id="CMR17-31" d="M 1702 4058 
C 1702 4192 1696 4192 1606 4192 
C 1357 3916 979 3827 621 3827 
C 602 3827 570 3827 563 3808 
C 557 3795 557 3782 557 3648 
C 755 3648 1088 3686 1344 3839 
L 1344 461 
C 1344 236 1331 160 781 160 
L 589 160 
L 589 0 
C 896 0 1216 0 1523 0 
C 1830 0 2150 0 2458 0 
L 2458 160 
L 2266 160 
C 1715 160 1702 230 1702 458 
L 1702 4058 
z
" transform="scale(0.015625)"/>
     </defs>
     <use xlink:href="#CMMI12-21" transform="scale(0.996264)"/>
     <use xlink:href="#CMR17-31" transform="translate(60.743753 -14.943915) scale(0.697382)"/>
    </g>
   </g>
   <g id="text_2">
    <!-- $\omega_3$ -->
    <g style="fill: #feffb3" transform="translate(99.826742 89.374158) scale(0.1 -0.1)">
     <defs>
      <path id="CMR17-33" d="M 1414 2157 
C 1984 2157 2234 1662 2234 1090 
C 2234 320 1824 25 1453 25 
C 1114 25 563 194 390 693 
C 422 680 454 680 486 680 
C 640 680 755 782 755 948 
C 755 1133 614 1216 486 1216 
C 378 1216 211 1165 211 926 
C 211 335 787 -128 1466 -128 
C 2176 -128 2720 430 2720 1085 
C 2720 1707 2208 2157 1600 2227 
C 2086 2328 2554 2756 2554 3329 
C 2554 3820 2048 4179 1472 4179 
C 890 4179 378 3829 378 3329 
C 378 3110 544 3072 627 3072 
C 762 3072 877 3155 877 3321 
C 877 3486 762 3569 627 3569 
C 602 3569 570 3569 544 3557 
C 730 3959 1235 4032 1459 4032 
C 1683 4032 2106 3925 2106 3320 
C 2106 3143 2080 2828 1862 2550 
C 1670 2304 1453 2304 1242 2284 
C 1210 2284 1062 2269 1037 2269 
C 992 2263 966 2257 966 2208 
C 966 2163 973 2157 1101 2157 
L 1414 2157 
z
" transform="scale(0.015625)"/>
     </defs>
     <use xlink:href="#CMMI12-21" transform="scale(0.996264)"/>
     <use xlink:href="#CMR17-33" transform="translate(60.743753 -14.943915) scale(0.697382)"/>
    </g>
   </g>
   <g id="text_3">
    <!-- $\omega_2$ -->
    <g style="fill: #feffb3" transform="translate(99.826742 130.954158) scale(0.1 -0.1)">
     <defs>
      <path id="CMR17-32" d="M 2669 989 
L 2554 989 
C 2490 536 2438 459 2413 420 
C 2381 369 1920 369 1830 369 
L 602 369 
C 832 619 1280 1072 1824 1597 
C 2214 1967 2669 2402 2669 3035 
C 2669 3790 2067 4224 1395 4224 
C 691 4224 262 3604 262 3030 
C 262 2780 448 2748 525 2748 
C 589 2748 781 2787 781 3010 
C 781 3207 614 3264 525 3264 
C 486 3264 448 3258 422 3245 
C 544 3790 915 4058 1306 4058 
C 1862 4058 2227 3617 2227 3035 
C 2227 2479 1901 2000 1536 1584 
L 262 146 
L 262 0 
L 2515 0 
L 2669 989 
z
" transform="scale(0.015625)"/>
     </defs>
     <use xlink:href="#CMMI12-21" transform="scale(0.996264)"/>
     <use xlink:href="#CMR17-32" transform="translate(60.743753 -14.943915) scale(0.697382)"/>
    </g>
   </g>
   <g id="patch_17">
    <path d="M 26.871966 178.359496 
Q 23.293724 178.359496 18.597448 178.359496 
" style="fill: none; stroke: #8dd3c7; stroke-linecap: round"/>
    <path d="M 23.671966 176.759496 
L 26.871966 178.359496 
L 23.671966 179.959496 
" style="fill: none; stroke: #8dd3c7; stroke-linecap: round"/>
   </g>
   <g id="patch_18">
    <path d="M 26.871966 161.727497 
Q 23.293724 161.727497 18.597448 161.727497 
" style="fill: none; stroke: #8dd3c7; stroke-linecap: round"/>
    <path d="M 23.671966 160.127497 
L 26.871966 161.727497 
L 23.671966 163.327497 
" style="fill: none; stroke: #8dd3c7; stroke-linecap: round"/>
   </g>
   <g id="patch_19">
    <path d="M 26.871966 145.095498 
Q 23.293724 145.095498 18.597448 145.095498 
" style="fill: none; stroke: #8dd3c7; stroke-linecap: round"/>
    <path d="M 23.671966 143.495498 
L 26.871966 145.095498 
L 23.671966 146.695498 
" style="fill: none; stroke: #8dd3c7; stroke-linecap: round"/>
   </g>
   <g id="patch_20">
    <path d="M 26.871966 128.463499 
Q 23.293724 128.463499 18.597448 128.463499 
" style="fill: none; stroke: #8dd3c7; stroke-linecap: round"/>
    <path d="M 23.671966 126.863499 
L 26.871966 128.463499 
L 23.671966 130.063499 
" style="fill: none; stroke: #8dd3c7; stroke-linecap: round"/>
   </g>
   <g id="patch_21">
    <path d="M 26.871966 111.8315 
Q 23.293724 111.8315 18.597448 111.8315 
" style="fill: none; stroke: #8dd3c7; stroke-linecap: round"/>
    <path d="M 23.671966 110.2315 
L 26.871966 111.8315 
L 23.671966 113.4315 
" style="fill: none; stroke: #8dd3c7; stroke-linecap: round"/>
   </g>
   <g id="patch_22">
    <path d="M 24.792966 95.199496 
Q 22.254478 95.199496 18.597955 95.199496 
" style="fill: none; stroke: #8dd3c7; stroke-linecap: round"/>
    <path d="M 21.592966 93.599496 
L 24.792966 95.199496 
L 21.592966 96.799496 
" style="fill: none; stroke: #8dd3c7; stroke-linecap: round"/>
   </g>
   <g id="patch_23">
    <path d="M 24.792966 78.567497 
Q 22.254478 78.567497 18.597955 78.567497 
" style="fill: none; stroke: #8dd3c7; stroke-linecap: round"/>
    <path d="M 21.592966 76.967497 
L 24.792966 78.567497 
L 21.592966 80.167497 
" style="fill: none; stroke: #8dd3c7; stroke-linecap: round"/>
   </g>
   <g id="patch_24">
    <path d="M 24.792966 61.935498 
Q 22.254478 61.935498 18.597955 61.935498 
" style="fill: none; stroke: #8dd3c7; stroke-linecap: round"/>
    <path d="M 21.592966 60.335498 
L 24.792966 61.935498 
L 21.592966 63.535498 
" style="fill: none; stroke: #8dd3c7; stroke-linecap: round"/>
   </g>
   <g id="patch_25">
    <path d="M 24.792966 45.303499 
Q 22.254478 45.303499 18.597955 45.303499 
" style="fill: none; stroke: #8dd3c7; stroke-linecap: round"/>
    <path d="M 21.592966 43.703499 
L 24.792966 45.303499 
L 21.592966 46.903499 
" style="fill: none; stroke: #8dd3c7; stroke-linecap: round"/>
   </g>
   <g id="patch_26">
    <path d="M 24.792966 28.6715 
Q 22.254478 28.6715 18.597955 28.6715 
" style="fill: none; stroke: #8dd3c7; stroke-linecap: round"/>
    <path d="M 21.592966 27.0715 
L 24.792966 28.6715 
L 21.592966 30.2715 
" style="fill: none; stroke: #8dd3c7; stroke-linecap: round"/>
   </g>
   <g id="text_4">
    <!-- $U_\mathrm{in}+\varepsilon$ -->
    <g style="fill: #8dd3c7" transform="translate(30.758778 129.706369) rotate(-270) scale(0.1 -0.1)">
     <defs>
      <path id="CMMI12-55" d="M 3238 1474 
C 3014 581 2272 57 1670 57 
C 1210 57 896 363 896 891 
C 896 916 896 1107 966 1387 
L 1594 3887 
C 1651 4103 1664 4167 2118 4167 
C 2234 4167 2298 4167 2298 4282 
C 2298 4352 2240 4352 2202 4352 
C 2086 4352 1952 4352 1830 4352 
L 1075 4352 
C 954 4352 819 4352 698 4352 
C 653 4352 576 4352 576 4231 
C 576 4167 621 4167 742 4167 
C 1126 4167 1126 4116 1126 4046 
C 1126 4008 1082 3824 1050 3715 
L 493 1488 
C 474 1418 435 1246 435 1075 
C 435 374 941 -128 1638 -128 
C 2285 -128 3002 384 3328 1197 
C 3373 1305 3430 1530 3469 1702 
C 3533 1933 3667 2496 3712 2662 
L 3955 3623 
C 4038 3956 4090 4167 4653 4167 
C 4704 4173 4730 4224 4730 4282 
C 4730 4352 4672 4352 4646 4352 
C 4557 4352 4442 4352 4352 4352 
L 4051 4352 
C 3654 4352 3450 4352 3443 4352 
C 3405 4352 3328 4352 3328 4231 
C 3328 4167 3379 4167 3424 4167 
C 3808 4167 3834 4020 3834 3905 
C 3834 3848 3834 3828 3808 3739 
L 3238 1474 
z
" transform="scale(0.015625)"/>
      <path id="CMR17-69" d="M 992 3909 
C 992 4049 877 4170 730 4170 
C 589 4170 467 4056 467 3909 
C 467 3769 582 3648 730 3648 
C 870 3648 992 3763 992 3909 
z
M 243 2706 
L 243 2541 
C 602 2541 653 2502 653 2197 
L 653 427 
C 653 184 627 153 218 153 
L 218 -13 
C 371 0 646 0 806 0 
C 960 0 1222 0 1370 -13 
L 1370 153 
C 992 153 979 191 979 420 
L 979 2776 
L 243 2706 
z
" transform="scale(0.015625)"/>
      <path id="CMR17-6e" d="M 2656 1933 
C 2656 2259 2592 2790 1837 2790 
C 1331 2790 1069 2400 973 2144 
L 966 2144 
L 966 2790 
L 211 2720 
L 211 2554 
C 589 2554 646 2515 646 2208 
L 646 428 
C 646 184 621 153 211 153 
L 211 -13 
C 365 0 646 0 813 0 
C 979 0 1267 0 1421 -13 
L 1421 153 
C 1011 153 986 178 986 428 
L 986 1658 
C 986 2247 1344 2688 1792 2688 
C 2266 2688 2317 2266 2317 1958 
L 2317 428 
C 2317 184 2291 153 1882 153 
L 1882 -13 
C 2035 0 2317 0 2483 0 
C 2650 0 2938 0 3091 -13 
L 3091 153 
C 2682 153 2656 178 2656 428 
L 2656 1933 
z
" transform="scale(0.015625)"/>
      <path id="CMR17-2b" d="M 2413 1472 
L 4109 1472 
C 4198 1472 4307 1472 4307 1580 
C 4307 1695 4205 1695 4109 1695 
L 2413 1695 
L 2413 3386 
C 2413 3475 2413 3584 2304 3584 
C 2189 3584 2189 3482 2189 3386 
L 2189 1695 
L 493 1695 
C 403 1695 294 1695 294 1587 
C 294 1472 397 1472 493 1472 
L 2189 1472 
L 2189 -218 
C 2189 -307 2189 -416 2298 -416 
C 2413 -416 2413 -314 2413 -218 
L 2413 1472 
z
" transform="scale(0.015625)"/>
      <path id="CMMI12-22" d="M 890 1427 
C 1094 1345 1312 1345 1434 1345 
C 1600 1345 1933 1345 1933 1550 
C 1933 1678 1811 1728 1485 1728 
C 1325 1728 1133 1709 909 1613 
C 710 1708 634 1852 634 1990 
C 634 2379 1261 2606 1830 2606 
C 1939 2606 2170 2606 2438 2411 
C 2477 2387 2496 2367 2541 2367 
C 2618 2367 2701 2449 2701 2526 
C 2701 2639 2330 2880 1888 2880 
C 1171 2880 493 2449 493 1972 
C 493 1734 646 1586 755 1509 
C 384 1301 166 961 166 652 
C 166 219 563 -128 1178 -128 
C 2022 -128 2362 424 2362 512 
C 2362 543 2336 568 2304 568 
C 2272 568 2259 549 2234 512 
C 2163 395 1997 146 1235 146 
C 838 146 314 245 314 686 
C 314 898 474 1214 890 1427 
z
M 1088 1518 
C 1261 1600 1427 1600 1472 1600 
C 1651 1600 1683 1583 1786 1545 
C 1677 1472 1664 1472 1434 1472 
C 1318 1472 1216 1472 1088 1518 
z
" transform="scale(0.015625)"/>
     </defs>
     <use xlink:href="#CMMI12-55" transform="scale(0.996264)"/>
     <use xlink:href="#CMR17-69" transform="translate(66.252119 -14.943915) scale(0.697382)"/>
     <use xlink:href="#CMR17-6e" transform="translate(83.661778 -14.943915) scale(0.697382)"/>
     <use xlink:href="#CMR17-2b" transform="translate(141.925725 0) scale(0.996264)"/>
     <use xlink:href="#CMMI12-22" transform="translate(235.779721 0) scale(0.996264)"/>
    </g>
   </g>
   <g id="text_5">
    <!-- $U_\mathrm{in}-\varepsilon$ -->
    <g style="fill: #8dd3c7" transform="translate(29.511378 46.546369) rotate(-270) scale(0.1 -0.1)">
     <defs>
      <path id="CMSY10-0" d="M 4218 1472 
C 4326 1472 4442 1472 4442 1600 
C 4442 1728 4326 1728 4218 1728 
L 755 1728 
C 646 1728 531 1728 531 1600 
C 531 1472 646 1472 755 1472 
L 4218 1472 
z
" transform="scale(0.015625)"/>
     </defs>
     <use xlink:href="#CMMI12-55" transform="scale(0.996264)"/>
     <use xlink:href="#CMR17-69" transform="translate(66.252119 -14.943915) scale(0.697382)"/>
     <use xlink:href="#CMR17-6e" transform="translate(83.661778 -14.943915) scale(0.697382)"/>
     <use xlink:href="#CMSY10-0" transform="translate(141.925725 0) scale(0.996264)"/>
     <use xlink:href="#CMMI12-22" transform="translate(241.5524 0) scale(0.996264)"/>
    </g>
   </g>
   <g id="text_6">
    <!-- $x$ -->
    <g style="fill: #ffffff" transform="translate(109.071 110.999898) scale(0.1 -0.1)">
     <defs>
      <path id="CMMI12-78" d="M 3034 2606 
C 2829 2567 2752 2414 2752 2293 
C 2752 2139 2874 2088 2963 2088 
C 3155 2088 3290 2254 3290 2427 
C 3290 2695 2982 2816 2714 2816 
C 2323 2816 2106 2433 2048 2312 
C 1901 2816 1504 2816 1389 2816 
C 736 2816 390 1980 390 1839 
C 390 1814 416 1782 461 1782 
C 512 1782 525 1820 538 1846 
C 755 2555 1184 2689 1370 2689 
C 1658 2689 1715 2420 1715 2267 
C 1715 2127 1677 1980 1600 1673 
L 1382 798 
C 1286 415 1101 64 762 64 
C 730 64 570 64 435 147 
C 666 192 717 383 717 460 
C 717 588 621 664 499 664 
C 346 664 179 530 179 326 
C 179 57 480 -64 755 -64 
C 1062 -64 1280 179 1414 441 
C 1517 64 1837 -64 2074 -64 
C 2726 -64 3072 773 3072 913 
C 3072 945 3046 971 3008 971 
C 2950 971 2944 939 2925 888 
C 2752 326 2381 64 2093 64 
C 1869 64 1747 230 1747 492 
C 1747 632 1773 734 1875 1156 
L 2099 2024 
C 2195 2408 2413 2689 2707 2689 
C 2720 2689 2899 2689 3034 2606 
z
" transform="scale(0.015625)"/>
     </defs>
     <use xlink:href="#CMMI12-78" transform="scale(0.996264)"/>
    </g>
   </g>
   <g id="text_7">
    <!-- $y$ -->
    <g style="fill: #ffffff" transform="translate(93.2706 97.278498) scale(0.1 -0.1)">
     <defs>
      <path id="CMMI12-79" d="M 1683 -700 
C 1510 -939 1261 -1152 947 -1152 
C 870 -1152 563 -1152 467 -889 
C 486 -895 518 -895 531 -895 
C 723 -895 851 -729 851 -582 
C 851 -435 730 -384 634 -384 
C 531 -384 307 -458 307 -759 
C 307 -1071 582 -1286 947 -1286 
C 1587 -1286 2234 -700 2413 6 
L 3040 2485 
C 3046 2517 3059 2556 3059 2594 
C 3059 2689 2982 2753 2886 2753 
C 2829 2753 2694 2727 2643 2535 
L 2170 658 
C 2138 543 2138 530 2086 460 
C 1958 281 1747 64 1440 64 
C 1082 64 1050 415 1050 588 
C 1050 952 1222 1443 1395 1903 
C 1466 2088 1504 2178 1504 2305 
C 1504 2574 1312 2816 998 2816 
C 410 2816 173 1890 173 1839 
C 173 1814 198 1782 243 1782 
C 301 1782 307 1807 333 1897 
C 486 2433 730 2689 979 2689 
C 1037 2689 1146 2689 1146 2478 
C 1146 2312 1075 2127 979 1884 
C 666 1047 666 837 666 683 
C 666 77 1101 -64 1421 -64 
C 1606 -64 1837 -6 2061 230 
L 2067 224 
C 1971 -147 1907 -392 1683 -700 
z
" transform="scale(0.015625)"/>
     </defs>
     <use xlink:href="#CMMI12-79" transform="scale(0.996264)"/>
    </g>
   </g>
   <g id="patch_27">
    <path d="M 284.436966 16.197498 
Q 151.575 16.197498 18.713034 16.197498 
" style="fill: none; stroke: #ffffff; stroke-linecap: round"/>
    <path d="M 280.436966 14.197498 
L 284.436966 16.197498 
L 280.436966 18.197498 
" style="fill: none; stroke: #ffffff; stroke-linecap: round"/>
    <path d="M 22.713034 18.197498 
L 18.713034 16.197498 
L 22.713034 14.197498 
" style="fill: none; stroke: #ffffff; stroke-linecap: round"/>
   </g>
   <g id="patch_28">
    <path d="M 239.355 21.473532 
Q 239.355 61.935498 239.355 102.397464 
" style="fill: none; stroke: #ffffff; stroke-linecap: round"/>
    <path d="M 237.355 25.473532 
L 239.355 21.473532 
L 241.355 25.473532 
" style="fill: none; stroke: #ffffff; stroke-linecap: round"/>
    <path d="M 241.355 98.397464 
L 239.355 102.397464 
L 237.355 98.397464 
" style="fill: none; stroke: #ffffff; stroke-linecap: round"/>
   </g>
   <g id="patch_29">
    <path d="M 239.355 185.557464 
Q 239.355 145.095498 239.355 104.633532 
" style="fill: none; stroke: #ffffff; stroke-linecap: round"/>
    <path d="M 241.355 181.557464 
L 239.355 185.557464 
L 237.355 181.557464 
" style="fill: none; stroke: #ffffff; stroke-linecap: round"/>
    <path d="M 237.355 108.633532 
L 239.355 104.633532 
L 241.355 108.633532 
" style="fill: none; stroke: #ffffff; stroke-linecap: round"/>
   </g>
   <g id="patch_30">
    <path d="M 99.636966 165.885498 
Q 59.175 165.885498 18.713034 165.885498 
" style="fill: none; stroke: #ffffff; stroke-linecap: round"/>
    <path d="M 95.636966 163.885498 
L 99.636966 165.885498 
L 95.636966 167.885498 
" style="fill: none; stroke: #ffffff; stroke-linecap: round"/>
    <path d="M 22.713034 167.885498 
L 18.713034 165.885498 
L 22.713034 163.885498 
" style="fill: none; stroke: #ffffff; stroke-linecap: round"/>
   </g>
   <g id="patch_31">
    <path d="M 46.701 90.773532 
Q 46.701 103.515498 46.701 116.257464 
" style="fill: none; stroke: #ffffff; stroke-linecap: round"/>
    <path d="M 44.701 94.773532 
L 46.701 90.773532 
L 48.701 94.773532 
" style="fill: none; stroke: #ffffff; stroke-linecap: round"/>
    <path d="M 48.701 112.257464 
L 46.701 116.257464 
L 44.701 112.257464 
" style="fill: none; stroke: #ffffff; stroke-linecap: round"/>
   </g>
   <g id="patch_32">
    <path d="M 128.475 83.843532 
Q 128.475 103.515498 128.475 123.187464 
" style="fill: none; stroke: #ffffff; stroke-linecap: round"/>
    <path d="M 126.475 87.843532 
L 128.475 83.843532 
L 130.475 87.843532 
" style="fill: none; stroke: #ffffff; stroke-linecap: round"/>
    <path d="M 130.475 119.187464 
L 128.475 123.187464 
L 126.475 119.187464 
" style="fill: none; stroke: #ffffff; stroke-linecap: round"/>
   </g>
   <g id="patch_33">
    <path d="M 99.636966 61.935498 
Q 82.737 61.935498 65.837034 61.935498 
" style="fill: none; stroke: #ffffff; stroke-linecap: round"/>
    <path d="M 95.636966 59.935498 
L 99.636966 61.935498 
L 95.636966 63.935498 
" style="fill: none; stroke: #ffffff; stroke-linecap: round"/>
    <path d="M 69.837034 63.935498 
L 65.837034 61.935498 
L 69.837034 59.935498 
" style="fill: none; stroke: #ffffff; stroke-linecap: round"/>
   </g>
   <g id="patch_34">
    <path d="M 17.595 14.118498 
Q 17.595 17.236998 17.595 20.355498 
" style="fill: none; stroke-dasharray: 3.7,1.6; stroke-dashoffset: 0; stroke: #ffffff; stroke-linecap: round"/>
   </g>
   <g id="patch_35">
    <path d="M 285.555 14.118498 
Q 285.555 17.236998 285.555 20.355498 
" style="fill: none; stroke-dasharray: 3.7,1.6; stroke-dashoffset: 0; stroke: #ffffff; stroke-linecap: round"/>
   </g>
   <g id="patch_36">
    <path d="M 64.719 89.655498 
Q 54.6705 89.655498 44.622 89.655498 
" style="fill: none; stroke-dasharray: 3.7,1.6; stroke-dashoffset: 0; stroke: #ffffff; stroke-linecap: round"/>
   </g>
   <g id="patch_37">
    <path d="M 64.719 117.375498 
Q 54.6705 117.375498 44.622 117.375498 
" style="fill: none; stroke-dasharray: 3.7,1.6; stroke-dashoffset: 0; stroke: #ffffff; stroke-linecap: round"/>
   </g>
   <g id="patch_38">
    <path d="M 130.554 82.725498 
Q 115.6545 82.725498 100.755 82.725498 
" style="fill: none; stroke-dasharray: 3.7,1.6; stroke-dashoffset: 0; stroke: #ffffff; stroke-linecap: round"/>
   </g>
   <g id="patch_39">
    <path d="M 130.554 124.305498 
Q 115.6545 124.305498 100.755 124.305498 
" style="fill: none; stroke-dasharray: 3.7,1.6; stroke-dashoffset: 0; stroke: #ffffff; stroke-linecap: round"/>
   </g>
   <g id="patch_40">
    <path d="M 64.719 59.856498 
Q 64.719 81.685998 64.719 103.515498 
" style="fill: none; stroke-dasharray: 3.7,1.6; stroke-dashoffset: 0; stroke: #ffffff; stroke-linecap: round"/>
   </g>
   <g id="text_8">
    <!-- $d$ -->
    <g style="fill: #ffffff" transform="translate(45.303498 101.950208) rotate(-90) scale(0.1 -0.1)">
     <defs>
      <path id="CMMI12-64" d="M 3219 4257 
C 3226 4282 3238 4320 3238 4352 
C 3238 4416 3174 4416 3162 4416 
C 3155 4416 2842 4388 2810 4380 
C 2701 4373 2605 4358 2490 4358 
C 2330 4345 2285 4339 2285 4224 
C 2285 4160 2336 4160 2426 4160 
C 2739 4160 2746 4103 2746 4040 
C 2746 4002 2733 3952 2726 3933 
L 2336 2395 
C 2266 2561 2093 2816 1760 2816 
C 1037 2816 256 1884 256 939 
C 256 307 627 -64 1062 -64 
C 1414 -64 1715 211 1894 422 
C 1958 45 2259 -64 2451 -64 
C 2643 -64 2797 51 2912 281 
C 3014 498 3104 888 3104 913 
C 3104 945 3078 971 3040 971 
C 2982 971 2976 939 2950 843 
C 2854 466 2733 64 2470 64 
C 2285 64 2272 229 2272 357 
C 2272 382 2272 515 2317 694 
L 3219 4257 
z
M 1926 760 
C 1894 651 1894 639 1805 517 
C 1664 338 1382 64 1082 64 
C 819 64 672 300 672 677 
C 672 1028 870 1743 992 2012 
C 1210 2459 1510 2689 1760 2689 
C 2182 2689 2266 2165 2266 2114 
C 2266 2108 2246 2024 2240 2012 
L 1926 760 
z
" transform="scale(0.015625)"/>
     </defs>
     <use xlink:href="#CMMI12-64" transform="scale(0.996264)"/>
    </g>
   </g>
   <g id="text_9">
    <!-- $1.5d$ -->
    <g style="fill: #ffffff" transform="translate(127.077498 108.315247) rotate(-90) scale(0.1 -0.1)">
     <defs>
      <path id="CMMI12-3a" d="M 1178 307 
C 1178 492 1024 619 870 619 
C 685 619 557 466 557 313 
C 557 128 710 0 864 0 
C 1050 0 1178 153 1178 307 
z
" transform="scale(0.015625)"/>
      <path id="CMR17-35" d="M 730 3692 
C 794 3666 1056 3584 1325 3584 
C 1920 3584 2246 3911 2432 4100 
C 2432 4157 2432 4192 2394 4192 
C 2387 4192 2374 4192 2323 4163 
C 2099 4058 1837 3973 1517 3973 
C 1325 3973 1037 3999 723 4139 
C 653 4171 640 4171 634 4171 
C 602 4171 595 4164 595 4037 
L 595 2203 
C 595 2089 595 2057 659 2057 
C 691 2057 704 2070 736 2114 
C 941 2401 1222 2522 1542 2522 
C 1766 2522 2246 2382 2246 1289 
C 2246 1085 2246 715 2054 421 
C 1894 159 1645 25 1370 25 
C 947 25 518 320 403 814 
C 429 807 480 795 506 795 
C 589 795 749 840 749 1038 
C 749 1210 627 1280 506 1280 
C 358 1280 262 1190 262 1011 
C 262 454 704 -128 1382 -128 
C 2042 -128 2669 440 2669 1264 
C 2669 2030 2170 2624 1549 2624 
C 1222 2624 947 2503 730 2274 
L 730 3692 
z
" transform="scale(0.015625)"/>
     </defs>
     <use xlink:href="#CMR17-31" transform="scale(0.996264)"/>
     <use xlink:href="#CMMI12-3a" transform="translate(45.690477 0) scale(0.996264)"/>
     <use xlink:href="#CMR17-35" transform="translate(72.787654 0) scale(0.996264)"/>
     <use xlink:href="#CMMI12-64" transform="translate(118.478131 0) scale(0.996264)"/>
    </g>
   </g>
   <g id="text_10">
    <!-- $6d$ -->
    <g style="fill: #ffffff" transform="translate(237.957498 67.018876) rotate(-90) scale(0.1 -0.1)">
     <defs>
      <path id="CMR17-36" d="M 678 2176 
C 678 3690 1395 4032 1811 4032 
C 1946 4032 2272 4009 2400 3776 
C 2298 3776 2106 3776 2106 3553 
C 2106 3381 2246 3323 2336 3323 
C 2394 3323 2566 3348 2566 3560 
C 2566 3954 2246 4179 1805 4179 
C 1043 4179 243 3390 243 1984 
C 243 253 966 -128 1478 -128 
C 2099 -128 2688 427 2688 1283 
C 2688 2081 2170 2662 1517 2662 
C 1126 2662 838 2407 678 1960 
L 678 2176 
z
M 1478 25 
C 691 25 691 1200 691 1436 
C 691 1896 909 2560 1504 2560 
C 1613 2560 1926 2560 2138 2120 
C 2253 1870 2253 1609 2253 1289 
C 2253 944 2253 690 2118 434 
C 1978 171 1773 25 1478 25 
z
" transform="scale(0.015625)"/>
     </defs>
     <use xlink:href="#CMR17-36" transform="scale(0.996264)"/>
     <use xlink:href="#CMMI12-64" transform="translate(45.690477 0) scale(0.996264)"/>
    </g>
   </g>
   <g id="text_11">
    <!-- $6d$ -->
    <g style="fill: #ffffff" transform="translate(237.957498 150.178876) rotate(-90) scale(0.1 -0.1)">
     <use xlink:href="#CMR17-36" transform="scale(0.996264)"/>
     <use xlink:href="#CMMI12-64" transform="translate(45.690477 0) scale(0.996264)"/>
    </g>
   </g>
   <g id="text_12">
    <!-- $22d$ -->
    <g style="fill: #ffffff" transform="translate(144.000955 14.118498) scale(0.1 -0.1)">
     <use xlink:href="#CMR17-32" transform="scale(0.996264)"/>
     <use xlink:href="#CMR17-32" transform="translate(45.690477 0) scale(0.996264)"/>
     <use xlink:href="#CMMI12-64" transform="translate(91.380954 0) scale(0.996264)"/>
    </g>
   </g>
   <g id="text_13">
    <!-- $1.3d$ -->
    <g style="fill: #ffffff" transform="translate(73.779251 59.856498) scale(0.1 -0.1)">
     <use xlink:href="#CMR17-31" transform="scale(0.996264)"/>
     <use xlink:href="#CMMI12-3a" transform="translate(45.690477 0) scale(0.996264)"/>
     <use xlink:href="#CMR17-33" transform="translate(72.787654 0) scale(0.996264)"/>
     <use xlink:href="#CMMI12-64" transform="translate(118.478131 0) scale(0.996264)"/>
    </g>
   </g>
   <g id="text_14">
    <!-- $6d$ -->
    <g style="fill: #ffffff" transform="translate(54.091623 163.806498) scale(0.1 -0.1)">
     <use xlink:href="#CMR17-36" transform="scale(0.996264)"/>
     <use xlink:href="#CMMI12-64" transform="translate(45.690477 0) scale(0.996264)"/>
    </g>
   </g>
   <g id="text_15">
    <!-- inlet -->
    <g style="fill: #ffffff" transform="translate(14.118498 112.481874) rotate(-90) scale(0.1 -0.1)">
     <defs>
      <path id="CMSS17-69" d="M 979 4183 
L 442 4183 
L 442 3648 
L 979 3648 
L 979 4183 
z
M 947 2739 
L 474 2739 
L 474 0 
L 947 0 
L 947 2739 
z
" transform="scale(0.015625)"/>
      <path id="CMSS17-6e" d="M 2618 1877 
C 2618 2283 2522 2816 1798 2816 
C 1389 2816 1120 2606 941 2389 
L 941 2758 
L 474 2758 
L 474 0 
L 960 0 
L 960 1559 
C 960 1964 1114 2428 1549 2428 
C 2112 2428 2131 2048 2131 1829 
L 2131 0 
L 2618 0 
L 2618 1877 
z
" transform="scale(0.015625)"/>
      <path id="CMSS17-6c" d="M 947 4416 
L 474 4416 
L 474 0 
L 947 0 
L 947 4416 
z
" transform="scale(0.015625)"/>
      <path id="CMSS17-65" d="M 2502 1377 
C 2502 1590 2490 2003 2285 2345 
C 2061 2713 1696 2816 1421 2816 
C 755 2816 192 2188 192 1375 
C 192 582 774 -64 1510 -64 
C 1798 -64 2150 19 2470 248 
C 2470 274 2458 414 2451 420 
C 2451 433 2432 630 2432 656 
C 2125 407 1773 325 1517 325 
C 1107 325 666 667 646 1377 
L 2502 1377 
z
M 698 1728 
C 781 2084 1062 2421 1421 2421 
C 1517 2421 1965 2421 2080 1728 
L 698 1728 
z
" transform="scale(0.015625)"/>
      <path id="CMSS17-74" d="M 1069 2368 
L 1901 2368 
L 1901 2737 
L 1069 2737 
L 1069 3520 
L 614 3520 
L 614 2737 
L 109 2737 
L 109 2368 
L 602 2368 
L 602 749 
C 602 384 685 -64 1107 -64 
C 1427 -64 1722 25 2003 172 
L 1901 548 
C 1747 414 1562 337 1363 337 
C 1082 337 1069 696 1069 856 
L 1069 2368 
z
" transform="scale(0.015625)"/>
     </defs>
     <use xlink:href="#CMSS17-69" transform="scale(0.996264)"/>
     <use xlink:href="#CMSS17-6e" transform="translate(22.180723 0) scale(0.996264)"/>
     <use xlink:href="#CMSS17-6c" transform="translate(70.385666 0) scale(0.996264)"/>
     <use xlink:href="#CMSS17-65" transform="translate(92.566389 0) scale(0.996264)"/>
     <use xlink:href="#CMSS17-74" transform="translate(134.205211 0) scale(0.996264)"/>
    </g>
   </g>
   <g id="text_16">
    <!-- outlet -->
    <g style="fill: #ffffff" transform="translate(282.078498 87.861373) rotate(-90) scale(0.1 -0.1)">
     <defs>
      <path id="CMSS17-6f" d="M 2829 1356 
C 2829 2176 2221 2816 1504 2816 
C 768 2816 173 2157 173 1356 
C 173 544 787 -64 1498 -64 
C 2227 -64 2829 563 2829 1356 
z
M 1504 337 
C 1050 337 659 709 659 1408 
C 659 2151 1114 2427 1498 2427 
C 1914 2427 2342 2126 2342 1408 
C 2342 683 1926 337 1504 337 
z
" transform="scale(0.015625)"/>
      <path id="CMSS17-75" d="M 2618 2739 
L 2131 2739 
L 2131 972 
C 2131 498 1786 306 1421 306 
C 998 306 960 447 960 709 
L 960 2739 
L 474 2739 
L 474 678 
C 474 179 646 -64 1088 -64 
C 1306 -64 1798 -13 2144 306 
L 2144 0 
L 2618 0 
L 2618 2739 
z
" transform="scale(0.015625)"/>
     </defs>
     <use xlink:href="#CMSS17-6f" transform="scale(0.996264)"/>
     <use xlink:href="#CMSS17-75" transform="translate(46.843624 0) scale(0.996264)"/>
     <use xlink:href="#CMSS17-74" transform="translate(95.048567 0) scale(0.996264)"/>
     <use xlink:href="#CMSS17-6c" transform="translate(128.880133 0) scale(0.996264)"/>
     <use xlink:href="#CMSS17-65" transform="translate(151.060856 0) scale(0.996264)"/>
     <use xlink:href="#CMSS17-74" transform="translate(192.699678 0) scale(0.996264)"/>
    </g>
   </g>
   <g id="patch_41">
    <path d="M 111.5658 103.515498 
L 109.071 104.347098 
L 109.071 103.557078 
L 100.755 103.557078 
L 100.755 103.473918 
L 109.071 103.473918 
L 109.071 102.683898 
z
" style="fill: #fa8174; stroke: #fa8174; stroke-width: 1.5; stroke-linejoin: miter"/>
   </g>
   <g id="patch_42">
    <path d="M 100.755 92.704698 
L 101.5866 95.199498 
L 100.79658 95.199498 
L 100.79658 103.515498 
L 100.71342 103.515498 
L 100.71342 95.199498 
L 99.9234 95.199498 
z
" style="fill: #fa8174; stroke: #fa8174; stroke-width: 1.5; stroke-linejoin: miter"/>
   </g>
   <g id="PathCollection_4">
    <defs>
     <path id="me8da3bb1b0" d="M -1.581139 1.581139 
L 1.581139 -1.581139 
M -1.581139 -1.581139 
L 1.581139 1.581139 
" style="stroke: #feffb3"/>
    </defs>
    <g clip-path="url(#p127211e14f)">
     <use xlink:href="#me8da3bb1b0" x="85.509" y="82.725498" style="fill: #feffb3; stroke: #feffb3"/>
     <use xlink:href="#me8da3bb1b0" x="85.509" y="124.305498" style="fill: #feffb3; stroke: #feffb3"/>
     <use xlink:href="#me8da3bb1b0" x="100.755" y="66.647896" style="fill: #feffb3; stroke: #feffb3"/>
     <use xlink:href="#me8da3bb1b0" x="100.755" y="140.3831" style="fill: #feffb3; stroke: #feffb3"/>
     <use xlink:href="#me8da3bb1b0" x="113.228999" y="73.023498" style="fill: #feffb3; stroke: #feffb3"/>
     <use xlink:href="#me8da3bb1b0" x="113.228999" y="134.007499" style="fill: #feffb3; stroke: #feffb3"/>
     <use xlink:href="#me8da3bb1b0" x="138.177001" y="60.5495" style="fill: #feffb3; stroke: #feffb3"/>
     <use xlink:href="#me8da3bb1b0" x="138.177001" y="146.481497" style="fill: #feffb3; stroke: #feffb3"/>
     <use xlink:href="#me8da3bb1b0" x="138.177001" y="81.339497" style="fill: #feffb3; stroke: #feffb3"/>
     <use xlink:href="#me8da3bb1b0" x="138.177001" y="125.6915" style="fill: #feffb3; stroke: #feffb3"/>
     <use xlink:href="#me8da3bb1b0" x="165.896997" y="60.5495" style="fill: #feffb3; stroke: #feffb3"/>
     <use xlink:href="#me8da3bb1b0" x="165.896997" y="146.481497" style="fill: #feffb3; stroke: #feffb3"/>
     <use xlink:href="#me8da3bb1b0" x="165.896997" y="81.339497" style="fill: #feffb3; stroke: #feffb3"/>
     <use xlink:href="#me8da3bb1b0" x="165.896997" y="125.6915" style="fill: #feffb3; stroke: #feffb3"/>
    </g>
   </g>
  </g>
 </g>
 <defs>
  <clipPath id="p127211e14f">
   <rect x="17.595" y="20.355498" width="267.96" height="166.32"/>
  </clipPath>
 </defs>
</svg>
