<?xml version="1.0" encoding="utf-8" standalone="no"?>
<!DOCTYPE svg PUBLIC "-//W3C//DTD SVG 1.1//EN"
  "http://www.w3.org/Graphics/SVG/1.1/DTD/svg11.dtd">
<svg xmlns:xlink="http://www.w3.org/1999/xlink" width="387.874054pt" height="240.695053pt" viewBox="0 0 387.874054 240.695053" xmlns="http://www.w3.org/2000/svg" version="1.1">
 <metadata>
  <rdf:RDF xmlns:dc="http://purl.org/dc/elements/1.1/" xmlns:cc="http://creativecommons.org/ns#" xmlns:rdf="http://www.w3.org/1999/02/22-rdf-syntax-ns#">
   <cc:Work>
    <dc:type rdf:resource="http://purl.org/dc/dcmitype/StillImage"/>
    <dc:date>2025-02-12T16:36:45.823207</dc:date>
    <dc:format>image/svg+xml</dc:format>
    <dc:creator>
     <cc:Agent>
      <dc:title>Matplotlib v3.10.0, https://matplotlib.org/</dc:title>
     </cc:Agent>
    </dc:creator>
   </cc:Work>
  </rdf:RDF>
 </metadata>
 <defs>
  <style type="text/css">*{stroke-linejoin: round; stroke-linecap: butt}</style>
 </defs>
 <g id="figure_1">
  <g id="patch_1">
   <path d="M 0 240.695053 
L 387.874054 240.695053 
L 387.874054 0 
L 0 0 
L 0 240.695053 
z
" style="fill: none"/>
  </g>
  <g id="axes_1">
   <g id="patch_2">
    <path d="M 45.874054 207.4 
L 380.674054 207.4 
L 380.674054 41.08 
L 45.874054 41.08 
L 45.874054 207.4 
z
" style="fill: none"/>
   </g>
   <g id="patch_3">
    <path d="M 61.092236 207.4 
L 148.053275 207.4 
L 148.053275 87.361486 
L 61.092236 87.361486 
z
" clip-path="url(#p4610aa9016)" style="fill: #8dd3c7"/>
   </g>
   <g id="patch_4">
    <path d="M 61.092236 87.361486 
L 148.053275 87.361486 
L 148.053275 76.11724 
L 61.092236 76.11724 
z
" clip-path="url(#p4610aa9016)" style="fill: #feffb3"/>
   </g>
   <g id="patch_5">
    <path d="M 61.092236 76.11724 
L 148.053275 76.11724 
L 148.053275 74.960145 
L 61.092236 74.960145 
z
" clip-path="url(#p4610aa9016)" style="fill: #bfbbd9"/>
   </g>
   <g id="patch_6">
    <path d="M 61.092236 74.960145 
L 148.053275 74.960145 
L 148.053275 72.11505 
L 61.092236 72.11505 
z
" clip-path="url(#p4610aa9016)" style="fill: #fa8174"/>
   </g>
   <g id="patch_7">
    <path d="M 61.092236 72.11505 
L 148.053275 72.11505 
L 148.053275 71.271056 
L 61.092236 71.271056 
z
" clip-path="url(#p4610aa9016)" style="fill: #81b1d2"/>
   </g>
   <g id="patch_8">
    <path d="M 169.793535 207.4 
L 256.754574 207.4 
L 256.754574 98.753969 
L 169.793535 98.753969 
z
" clip-path="url(#p4610aa9016)" style="fill: #8dd3c7"/>
   </g>
   <g id="patch_9">
    <path d="M 169.793535 98.753969 
L 256.754574 98.753969 
L 256.754574 97.247713 
L 169.793535 97.247713 
z
" clip-path="url(#p4610aa9016)" style="fill: #feffb3"/>
   </g>
   <g id="patch_10">
    <path d="M 169.793535 97.247713 
L 256.754574 97.247713 
L 256.754574 95.879433 
L 169.793535 95.879433 
z
" clip-path="url(#p4610aa9016)" style="fill: #bfbbd9"/>
   </g>
   <g id="patch_11">
    <path d="M 169.793535 95.879433 
L 256.754574 95.879433 
L 256.754574 93.085377 
L 169.793535 93.085377 
z
" clip-path="url(#p4610aa9016)" style="fill: #fa8174"/>
   </g>
   <g id="patch_12">
    <path d="M 169.793535 93.085377 
L 256.754574 93.085377 
L 256.754574 92.418488 
L 169.793535 92.418488 
z
" clip-path="url(#p4610aa9016)" style="fill: #81b1d2"/>
   </g>
   <g id="patch_13">
    <path d="M 278.494834 207.4 
L 365.455873 207.4 
L 365.455873 56.619033 
L 278.494834 56.619033 
z
" clip-path="url(#p4610aa9016)" style="fill: #8dd3c7"/>
   </g>
   <g id="patch_14">
    <path d="M 278.494834 56.619033 
L 365.455873 56.619033 
L 365.455873 54.765757 
L 278.494834 54.765757 
z
" clip-path="url(#p4610aa9016)" style="fill: #feffb3"/>
   </g>
   <g id="patch_15">
    <path d="M 278.494834 54.765757 
L 365.455873 54.765757 
L 365.455873 52.738238 
L 278.494834 52.738238 
z
" clip-path="url(#p4610aa9016)" style="fill: #bfbbd9"/>
   </g>
   <g id="patch_16">
    <path d="M 278.494834 52.738238 
L 365.455873 52.738238 
L 365.455873 49.887039 
L 278.494834 49.887039 
z
" clip-path="url(#p4610aa9016)" style="fill: #fa8174"/>
   </g>
   <g id="patch_17">
    <path d="M 278.494834 49.887039 
L 365.455873 49.887039 
L 365.455873 49 
L 278.494834 49 
z
" clip-path="url(#p4610aa9016)" style="fill: #81b1d2"/>
   </g>
   <g id="matplotlib.axis_1">
    <g id="xtick_1">
     <g id="line2d_1">
      <defs>
       <path id="m2fd77caa54" d="M 0 0 
L 0 3.5 
" style="stroke: #ffffff; stroke-width: 0.8"/>
      </defs>
      <g>
       <use xlink:href="#m2fd77caa54" x="104.572756" y="207.4" style="fill: #ffffff; stroke: #ffffff; stroke-width: 0.8"/>
      </g>
     </g>
     <g id="text_1">
      <!-- $N_\mathrm{m} = 1$ -->
      <g style="fill: #ffffff" transform="translate(87.916505 221.318498) scale(0.1 -0.1)">
       <defs>
        <path id="CMMI12-4e" d="M 4736 3698 
C 4806 3974 4909 4166 5395 4166 
C 5414 4166 5491 4166 5491 4279 
C 5491 4352 5434 4352 5408 4352 
C 5280 4352 4954 4352 4826 4352 
L 4518 4352 
C 4429 4352 4314 4352 4224 4352 
C 4186 4352 4109 4352 4109 4230 
C 4109 4166 4160 4166 4205 4166 
C 4589 4166 4614 4019 4614 3903 
C 4614 3846 4608 3826 4589 3737 
L 3866 850 
L 2496 4249 
C 2451 4352 2445 4352 2304 4352 
L 1523 4352 
C 1395 4352 1338 4352 1338 4230 
C 1338 4166 1382 4166 1504 4166 
C 1536 4166 1914 4166 1914 4115 
C 1914 4102 1901 4051 1894 4032 
L 1043 635 
C 966 320 813 186 390 186 
C 358 186 294 186 294 67 
C 294 0 358 0 378 0 
C 506 0 832 0 960 0 
L 1267 0 
C 1357 0 1466 0 1555 0 
C 1600 0 1670 0 1670 122 
C 1670 180 1606 186 1581 186 
C 1370 186 1165 224 1165 454 
C 1165 505 1178 562 1190 613 
L 2054 4032 
C 2093 3968 2093 3956 2118 3898 
L 3642 115 
C 3674 38 3686 0 3744 0 
C 3808 0 3814 19 3840 128 
L 4736 3698 
z
" transform="scale(0.015625)"/>
        <path id="CMR17-6d" d="M 4326 1933 
C 4326 2252 4269 2790 3507 2790 
C 3072 2790 2771 2496 2656 2151 
L 2650 2151 
C 2573 2676 2195 2790 1837 2790 
C 1331 2790 1069 2400 973 2144 
L 966 2144 
L 966 2790 
L 211 2720 
L 211 2554 
C 589 2554 646 2515 646 2208 
L 646 428 
C 646 184 621 153 211 153 
L 211 -13 
C 365 0 646 0 813 0 
C 979 0 1267 0 1421 -13 
L 1421 153 
C 1011 153 986 178 986 428 
L 986 1658 
C 986 2247 1344 2688 1792 2688 
C 2266 2688 2317 2266 2317 1958 
L 2317 428 
C 2317 184 2291 153 1882 153 
L 1882 -13 
C 2035 0 2317 0 2483 0 
C 2650 0 2938 0 3091 -13 
L 3091 153 
C 2682 153 2656 178 2656 428 
L 2656 1658 
C 2656 2247 3014 2688 3462 2688 
C 3936 2688 3987 2266 3987 1958 
L 3987 428 
C 3987 184 3962 153 3552 153 
L 3552 -13 
C 3706 0 3987 0 4154 0 
C 4320 0 4608 0 4762 -13 
L 4762 153 
C 4352 153 4326 178 4326 428 
L 4326 1933 
z
" transform="scale(0.015625)"/>
        <path id="CMR17-3d" d="M 4115 2017 
C 4211 2017 4307 2017 4307 2125 
C 4307 2240 4198 2240 4090 2240 
L 512 2240 
C 403 2240 294 2240 294 2125 
C 294 2017 390 2017 486 2017 
L 4115 2017 
z
M 4090 896 
C 4198 896 4307 896 4307 1011 
C 4307 1119 4211 1119 4115 1119 
L 486 1119 
C 390 1119 294 1119 294 1011 
C 294 896 403 896 512 896 
L 4090 896 
z
" transform="scale(0.015625)"/>
        <path id="CMR17-31" d="M 1702 4058 
C 1702 4192 1696 4192 1606 4192 
C 1357 3916 979 3827 621 3827 
C 602 3827 570 3827 563 3808 
C 557 3795 557 3782 557 3648 
C 755 3648 1088 3686 1344 3839 
L 1344 461 
C 1344 236 1331 160 781 160 
L 589 160 
L 589 0 
C 896 0 1216 0 1523 0 
C 1830 0 2150 0 2458 0 
L 2458 160 
L 2266 160 
C 1715 160 1702 230 1702 458 
L 1702 4058 
z
" transform="scale(0.015625)"/>
       </defs>
       <use xlink:href="#CMMI12-4e" transform="scale(0.996264)"/>
       <use xlink:href="#CMR17-6d" transform="translate(78.115119 -14.943915) scale(0.697382)"/>
       <use xlink:href="#CMR17-3d" transform="translate(160.130726 0) scale(0.996264)"/>
       <use xlink:href="#CMR17-31" transform="translate(259.519523 0) scale(0.996264)"/>
      </g>
     </g>
    </g>
    <g id="xtick_2">
     <g id="line2d_2">
      <g>
       <use xlink:href="#m2fd77caa54" x="213.274054" y="207.4" style="fill: #ffffff; stroke: #ffffff; stroke-width: 0.8"/>
      </g>
     </g>
     <g id="text_2">
      <!-- $N_\mathrm{m} = 5$ -->
      <g style="fill: #ffffff" transform="translate(196.617803 221.318498) scale(0.1 -0.1)">
       <defs>
        <path id="CMR17-35" d="M 730 3692 
C 794 3666 1056 3584 1325 3584 
C 1920 3584 2246 3911 2432 4100 
C 2432 4157 2432 4192 2394 4192 
C 2387 4192 2374 4192 2323 4163 
C 2099 4058 1837 3973 1517 3973 
C 1325 3973 1037 3999 723 4139 
C 653 4171 640 4171 634 4171 
C 602 4171 595 4164 595 4037 
L 595 2203 
C 595 2089 595 2057 659 2057 
C 691 2057 704 2070 736 2114 
C 941 2401 1222 2522 1542 2522 
C 1766 2522 2246 2382 2246 1289 
C 2246 1085 2246 715 2054 421 
C 1894 159 1645 25 1370 25 
C 947 25 518 320 403 814 
C 429 807 480 795 506 795 
C 589 795 749 840 749 1038 
C 749 1210 627 1280 506 1280 
C 358 1280 262 1190 262 1011 
C 262 454 704 -128 1382 -128 
C 2042 -128 2669 440 2669 1264 
C 2669 2030 2170 2624 1549 2624 
C 1222 2624 947 2503 730 2274 
L 730 3692 
z
" transform="scale(0.015625)"/>
       </defs>
       <use xlink:href="#CMMI12-4e" transform="scale(0.996264)"/>
       <use xlink:href="#CMR17-6d" transform="translate(78.115119 -14.943915) scale(0.697382)"/>
       <use xlink:href="#CMR17-3d" transform="translate(160.130726 0) scale(0.996264)"/>
       <use xlink:href="#CMR17-35" transform="translate(259.519523 0) scale(0.996264)"/>
      </g>
      <!-- $N_\mathrm{thr} = 2$ -->
      <g style="fill: #ffffff" transform="translate(194.576835 231.557875) scale(0.1 -0.1)">
       <defs>
        <path id="CMR17-74" d="M 966 2560 
L 1862 2560 
L 1862 2725 
L 966 2725 
L 966 3904 
L 851 3904 
C 838 3245 614 2668 70 2668 
L 70 2560 
L 627 2560 
L 627 771 
C 627 650 627 -64 1370 -64 
C 1747 -64 1965 306 1965 777 
L 1965 1140 
L 1850 1140 
L 1850 783 
C 1850 344 1677 51 1408 51 
C 1222 51 966 178 966 758 
L 966 2560 
z
" transform="scale(0.015625)"/>
        <path id="CMR17-68" d="M 2656 1933 
C 2656 2259 2592 2790 1837 2790 
C 1312 2790 1056 2368 979 2157 
L 973 2157 
L 973 4396 
L 211 4326 
L 211 4160 
C 589 4160 646 4122 646 3817 
L 646 426 
C 646 184 621 153 211 153 
L 211 -13 
C 365 0 646 0 813 0 
C 979 0 1267 0 1421 -13 
L 1421 153 
C 1011 153 986 178 986 428 
L 986 1658 
C 986 2247 1344 2688 1792 2688 
C 2266 2688 2317 2266 2317 1958 
L 2317 428 
C 2317 184 2291 153 1882 153 
L 1882 -13 
C 2035 0 2317 0 2483 0 
C 2650 0 2938 0 3091 -13 
L 3091 153 
C 2682 153 2656 178 2656 428 
L 2656 1933 
z
" transform="scale(0.015625)"/>
        <path id="CMR17-72" d="M 960 1497 
C 960 2112 1222 2688 1702 2688 
C 1747 2688 1792 2682 1837 2662 
C 1837 2662 1696 2617 1696 2452 
C 1696 2298 1818 2234 1914 2234 
C 1990 2234 2131 2279 2131 2458 
C 2131 2663 1926 2790 1709 2790 
C 1222 2790 1011 2317 947 2093 
L 941 2093 
L 941 2790 
L 198 2720 
L 198 2554 
C 576 2554 634 2515 634 2208 
L 634 428 
C 634 184 608 153 198 153 
L 198 -13 
C 352 0 646 0 813 0 
C 998 0 1325 0 1498 -13 
L 1498 153 
C 1037 153 960 153 960 440 
L 960 1497 
z
" transform="scale(0.015625)"/>
        <path id="CMR17-32" d="M 2669 989 
L 2554 989 
C 2490 536 2438 459 2413 420 
C 2381 369 1920 369 1830 369 
L 602 369 
C 832 619 1280 1072 1824 1597 
C 2214 1967 2669 2402 2669 3035 
C 2669 3790 2067 4224 1395 4224 
C 691 4224 262 3604 262 3030 
C 262 2780 448 2748 525 2748 
C 589 2748 781 2787 781 3010 
C 781 3207 614 3264 525 3264 
C 486 3264 448 3258 422 3245 
C 544 3790 915 4058 1306 4058 
C 1862 4058 2227 3617 2227 3035 
C 2227 2479 1901 2000 1536 1584 
L 262 146 
L 262 0 
L 2515 0 
L 2669 989 
z
" transform="scale(0.015625)"/>
       </defs>
       <use xlink:href="#CMMI12-4e" transform="scale(0.996264)"/>
       <use xlink:href="#CMR17-74" transform="translate(78.115119 -14.943915) scale(0.697382)"/>
       <use xlink:href="#CMR17-68" transform="translate(102.811539 -14.943915) scale(0.697382)"/>
       <use xlink:href="#CMR17-72" transform="translate(138.438148 -14.943915) scale(0.697382)"/>
       <use xlink:href="#CMR17-3d" transform="translate(191.306709 0) scale(0.996264)"/>
       <use xlink:href="#CMR17-32" transform="translate(290.695506 0) scale(0.996264)"/>
      </g>
     </g>
    </g>
    <g id="xtick_3">
     <g id="line2d_3">
      <g>
       <use xlink:href="#m2fd77caa54" x="321.975353" y="207.4" style="fill: #ffffff; stroke: #ffffff; stroke-width: 0.8"/>
      </g>
     </g>
     <g id="text_3">
      <!-- $N_\mathrm{m} = 10$ -->
      <g style="fill: #ffffff" transform="translate(302.828434 221.318498) scale(0.1 -0.1)">
       <defs>
        <path id="CMR17-30" d="M 2688 2025 
C 2688 2416 2682 3080 2413 3591 
C 2176 4039 1798 4198 1466 4198 
C 1158 4198 768 4058 525 3597 
C 269 3118 243 2524 243 2025 
C 243 1661 250 1106 448 619 
C 723 -39 1216 -128 1466 -128 
C 1760 -128 2208 -7 2470 600 
C 2662 1042 2688 1559 2688 2025 
z
M 1466 -26 
C 1056 -26 813 325 723 812 
C 653 1188 653 1738 653 2096 
C 653 2588 653 2997 736 3387 
C 858 3929 1216 4096 1466 4096 
C 1728 4096 2067 3923 2189 3400 
C 2272 3036 2278 2607 2278 2096 
C 2278 1680 2278 1169 2202 792 
C 2067 95 1690 -26 1466 -26 
z
" transform="scale(0.015625)"/>
       </defs>
       <use xlink:href="#CMMI12-4e" transform="scale(0.996264)"/>
       <use xlink:href="#CMR17-6d" transform="translate(78.115119 -14.943915) scale(0.697382)"/>
       <use xlink:href="#CMR17-3d" transform="translate(160.130726 0) scale(0.996264)"/>
       <use xlink:href="#CMR17-31" transform="translate(259.519523 0) scale(0.996264)"/>
       <use xlink:href="#CMR17-30" transform="translate(305.21 0) scale(0.996264)"/>
      </g>
      <!-- $N_\mathrm{thr} = 5$ -->
      <g style="fill: #ffffff" transform="translate(303.278134 231.557875) scale(0.1 -0.1)">
       <use xlink:href="#CMMI12-4e" transform="scale(0.996264)"/>
       <use xlink:href="#CMR17-74" transform="translate(78.115119 -14.943915) scale(0.697382)"/>
       <use xlink:href="#CMR17-68" transform="translate(102.811539 -14.943915) scale(0.697382)"/>
       <use xlink:href="#CMR17-72" transform="translate(138.438148 -14.943915) scale(0.697382)"/>
       <use xlink:href="#CMR17-3d" transform="translate(191.306709 0) scale(0.996264)"/>
       <use xlink:href="#CMR17-35" transform="translate(290.695506 0) scale(0.996264)"/>
      </g>
     </g>
    </g>
   </g>
   <g id="matplotlib.axis_2">
    <g id="ytick_1">
     <g id="line2d_4">
      <defs>
       <path id="mcb86a5d4a4" d="M 0 0 
L -3.5 0 
" style="stroke: #ffffff; stroke-width: 0.8"/>
      </defs>
      <g>
       <use xlink:href="#mcb86a5d4a4" x="45.874054" y="207.4" style="fill: #ffffff; stroke: #ffffff; stroke-width: 0.8"/>
      </g>
     </g>
     <g id="text_4">
      <!-- $\mathdefault{0.00}$ -->
      <g style="fill: #ffffff" transform="translate(21.16264 210.859249) scale(0.1 -0.1)">
       <defs>
        <path id="CMMI12-3a" d="M 1178 307 
C 1178 492 1024 619 870 619 
C 685 619 557 466 557 313 
C 557 128 710 0 864 0 
C 1050 0 1178 153 1178 307 
z
" transform="scale(0.015625)"/>
       </defs>
       <use xlink:href="#CMR17-30" transform="scale(0.996264)"/>
       <use xlink:href="#CMMI12-3a" transform="translate(45.690477 0) scale(0.996264)"/>
       <use xlink:href="#CMR17-30" transform="translate(72.787654 0) scale(0.996264)"/>
       <use xlink:href="#CMR17-30" transform="translate(118.478131 0) scale(0.996264)"/>
      </g>
     </g>
    </g>
    <g id="ytick_2">
     <g id="line2d_5">
      <g>
       <use xlink:href="#mcb86a5d4a4" x="45.874054" y="168.975862" style="fill: #ffffff; stroke: #ffffff; stroke-width: 0.8"/>
      </g>
     </g>
     <g id="text_5">
      <!-- $\mathdefault{0.05}$ -->
      <g style="fill: #ffffff" transform="translate(21.16264 172.435111) scale(0.1 -0.1)">
       <use xlink:href="#CMR17-30" transform="scale(0.996264)"/>
       <use xlink:href="#CMMI12-3a" transform="translate(45.690477 0) scale(0.996264)"/>
       <use xlink:href="#CMR17-30" transform="translate(72.787654 0) scale(0.996264)"/>
       <use xlink:href="#CMR17-35" transform="translate(118.478131 0) scale(0.996264)"/>
      </g>
     </g>
    </g>
    <g id="ytick_3">
     <g id="line2d_6">
      <g>
       <use xlink:href="#mcb86a5d4a4" x="45.874054" y="130.551723" style="fill: #ffffff; stroke: #ffffff; stroke-width: 0.8"/>
      </g>
     </g>
     <g id="text_6">
      <!-- $\mathdefault{0.10}$ -->
      <g style="fill: #ffffff" transform="translate(21.16264 134.010972) scale(0.1 -0.1)">
       <use xlink:href="#CMR17-30" transform="scale(0.996264)"/>
       <use xlink:href="#CMMI12-3a" transform="translate(45.690477 0) scale(0.996264)"/>
       <use xlink:href="#CMR17-31" transform="translate(72.787654 0) scale(0.996264)"/>
       <use xlink:href="#CMR17-30" transform="translate(118.478131 0) scale(0.996264)"/>
      </g>
     </g>
    </g>
    <g id="ytick_4">
     <g id="line2d_7">
      <g>
       <use xlink:href="#mcb86a5d4a4" x="45.874054" y="92.127585" style="fill: #ffffff; stroke: #ffffff; stroke-width: 0.8"/>
      </g>
     </g>
     <g id="text_7">
      <!-- $\mathdefault{0.15}$ -->
      <g style="fill: #ffffff" transform="translate(21.16264 95.586834) scale(0.1 -0.1)">
       <use xlink:href="#CMR17-30" transform="scale(0.996264)"/>
       <use xlink:href="#CMMI12-3a" transform="translate(45.690477 0) scale(0.996264)"/>
       <use xlink:href="#CMR17-31" transform="translate(72.787654 0) scale(0.996264)"/>
       <use xlink:href="#CMR17-35" transform="translate(118.478131 0) scale(0.996264)"/>
      </g>
     </g>
    </g>
    <g id="ytick_5">
     <g id="line2d_8">
      <g>
       <use xlink:href="#mcb86a5d4a4" x="45.874054" y="53.703446" style="fill: #ffffff; stroke: #ffffff; stroke-width: 0.8"/>
      </g>
     </g>
     <g id="text_8">
      <!-- $\mathdefault{0.20}$ -->
      <g style="fill: #ffffff" transform="translate(21.16264 57.162695) scale(0.1 -0.1)">
       <use xlink:href="#CMR17-30" transform="scale(0.996264)"/>
       <use xlink:href="#CMMI12-3a" transform="translate(45.690477 0) scale(0.996264)"/>
       <use xlink:href="#CMR17-32" transform="translate(72.787654 0) scale(0.996264)"/>
       <use xlink:href="#CMR17-30" transform="translate(118.478131 0) scale(0.996264)"/>
      </g>
     </g>
    </g>
    <g id="text_9">
     <!-- $T_\mathrm{MB} \,/\, T_\mathrm{MF}$ -->
     <g style="fill: #ffffff" transform="translate(14.67198 146.984603) rotate(-90) scale(0.1 -0.1)">
      <defs>
       <path id="CMMI12-54" d="M 2669 3910 
C 2707 4064 2720 4121 2816 4147 
C 2867 4160 3078 4160 3213 4160 
C 3853 4160 4154 4134 4154 3634 
C 4154 3537 4128 3295 4090 3057 
L 4083 2980 
C 4083 2954 4109 2916 4147 2916 
C 4211 2916 4211 2948 4230 3050 
L 4416 4184 
C 4429 4243 4429 4256 4429 4275 
C 4429 4345 4390 4345 4262 4345 
L 762 4345 
C 614 4345 608 4339 570 4224 
L 179 3070 
C 173 3056 154 2986 154 2980 
C 154 2948 179 2916 218 2916 
C 269 2916 282 2941 307 3024 
C 576 3801 710 4160 1562 4160 
L 1990 4160 
C 2144 4160 2208 4160 2208 4089 
C 2208 4069 2208 4057 2176 3941 
L 1318 499 
C 1254 249 1242 185 563 185 
C 403 185 358 185 358 64 
C 358 0 429 0 461 0 
C 621 0 787 0 947 0 
L 1946 0 
C 2106 0 2278 0 2438 0 
C 2509 0 2573 0 2573 121 
C 2573 185 2528 185 2362 185 
C 1786 185 1786 243 1786 339 
C 1786 346 1786 391 1811 494 
L 2669 3910 
z
" transform="scale(0.015625)"/>
       <path id="CMR17-4d" d="M 1338 4224 
C 1299 4320 1293 4320 1158 4320 
L 339 4320 
L 339 4160 
C 781 4160 851 4160 851 3875 
L 851 610 
C 851 451 851 153 339 153 
L 339 -13 
C 486 0 755 0 915 0 
C 1075 0 1344 0 1491 -13 
L 1491 153 
C 979 153 979 451 979 610 
L 979 4135 
L 986 4135 
L 2490 89 
C 2515 25 2528 -13 2579 -13 
C 2630 -13 2643 25 2669 89 
L 4186 4166 
L 4192 4166 
L 4192 438 
C 4192 153 4122 153 3680 153 
L 3680 -13 
C 3853 0 4198 0 4384 0 
C 4570 0 4922 0 5094 -13 
L 5094 153 
C 4653 153 4582 153 4582 438 
L 4582 3875 
C 4582 4160 4653 4160 5094 4160 
L 5094 4320 
L 4282 4320 
C 4147 4320 4141 4314 4102 4218 
L 2720 502 
L 1338 4224 
z
" transform="scale(0.015625)"/>
       <path id="CMR17-42" d="M 333 4352 
L 333 4186 
C 774 4186 845 4186 845 3900 
L 845 452 
C 845 166 774 166 333 166 
L 333 0 
L 2534 0 
C 3354 0 3885 583 3885 1164 
C 3885 1741 3360 2233 2675 2233 
C 3290 2356 3718 2771 3718 3264 
C 3718 3802 3194 4352 2368 4352 
L 333 4352 
z
M 1248 2304 
L 1248 3937 
C 1248 4155 1261 4186 1517 4186 
L 2336 4186 
C 2970 4186 3251 3674 3251 3277 
C 3251 2791 2861 2304 2170 2304 
L 1248 2304 
z
M 1517 166 
C 1261 166 1248 197 1248 413 
L 1248 2202 
L 2432 2202 
C 3091 2202 3411 1625 3411 1162 
C 3411 699 3046 166 2349 166 
L 1517 166 
z
" transform="scale(0.015625)"/>
       <path id="CMMI12-3d" d="M 2746 4562 
C 2746 4569 2784 4666 2784 4678 
C 2784 4755 2720 4800 2669 4800 
C 2637 4800 2579 4800 2528 4659 
L 384 -1363 
C 384 -1370 346 -1465 346 -1478 
C 346 -1555 410 -1600 461 -1600 
C 499 -1600 557 -1593 602 -1459 
L 2746 4562 
z
" transform="scale(0.015625)"/>
       <path id="CMR17-46" d="M 3482 4325 
L 326 4325 
L 326 4160 
C 768 4160 838 4160 838 3874 
L 838 446 
C 838 160 768 160 326 160 
L 326 0 
C 512 0 870 0 1069 0 
C 1331 0 1638 0 1901 0 
L 1901 160 
L 1760 160 
C 1274 160 1261 223 1261 452 
L 1261 2075 
L 1837 2075 
C 2432 2075 2490 1865 2490 1332 
L 2605 1332 
L 2605 2987 
L 2490 2987 
C 2490 2450 2432 2240 1837 2240 
L 1261 2240 
L 1261 3911 
C 1261 4128 1274 4160 1530 4160 
L 2355 4160 
C 3322 4160 3430 3765 3520 2916 
L 3635 2916 
L 3482 4325 
z
" transform="scale(0.015625)"/>
      </defs>
      <use xlink:href="#CMMI12-54" transform="scale(0.996264)"/>
      <use xlink:href="#CMR17-4d" transform="translate(57.175044 -14.943915) scale(0.697382)"/>
      <use xlink:href="#CMR17-42" transform="translate(116.455641 -14.943915) scale(0.697382)"/>
      <use xlink:href="#CMMI12-3d" transform="translate(179.190098 0) scale(0.996264)"/>
      <use xlink:href="#CMMI12-54" transform="translate(244.569422 0) scale(0.996264)"/>
      <use xlink:href="#CMR17-4d" transform="translate(301.744465 -14.943915) scale(0.697382)"/>
      <use xlink:href="#CMR17-46" transform="translate(361.025062 -14.943915) scale(0.697382)"/>
     </g>
    </g>
   </g>
   <g id="patch_18">
    <path d="M 45.874054 207.4 
L 45.874054 41.08 
" style="fill: none; stroke: #ffffff; stroke-width: 0.8; stroke-linejoin: miter; stroke-linecap: square"/>
   </g>
   <g id="patch_19">
    <path d="M 380.674054 207.4 
L 380.674054 41.08 
" style="fill: none; stroke: #ffffff; stroke-width: 0.8; stroke-linejoin: miter; stroke-linecap: square"/>
   </g>
   <g id="patch_20">
    <path d="M 45.874054 207.4 
L 380.674054 207.4 
" style="fill: none; stroke: #ffffff; stroke-width: 0.8; stroke-linejoin: miter; stroke-linecap: square"/>
   </g>
   <g id="patch_21">
    <path d="M 45.874054 41.08 
L 380.674054 41.08 
" style="fill: none; stroke: #ffffff; stroke-width: 0.8; stroke-linejoin: miter; stroke-linecap: square"/>
   </g>
   <g id="text_10">
    <!-- 88.18\% -->
    <g transform="translate(91.399742 149.373271) scale(0.08 -0.08)">
     <defs>
      <path id="CMSS17-38" d="M 1933 2222 
C 2419 2380 2669 2760 2669 3134 
C 2669 3722 2157 4229 1504 4229 
C 826 4229 333 3708 333 3144 
C 333 2780 576 2403 1069 2241 
C 442 1997 250 1512 250 1149 
C 250 446 819 -128 1498 -128 
C 2202 -128 2752 455 2752 1138 
C 2752 1557 2502 2000 1933 2222 
z
M 1504 2432 
C 1075 2432 787 2712 787 3136 
C 787 3566 1075 3840 1504 3840 
C 1901 3840 2214 3591 2214 3136 
C 2214 2687 1907 2432 1504 2432 
z
M 1504 267 
C 1139 267 749 517 749 1156 
C 749 1813 1184 2043 1498 2043 
C 1843 2043 2253 1800 2253 1156 
C 2253 491 1830 267 1504 267 
z
" transform="scale(0.015625)"/>
      <path id="CMSS17-2e" d="M 1088 510 
L 576 510 
L 576 0 
L 1088 0 
L 1088 510 
z
" transform="scale(0.015625)"/>
      <path id="CMSS17-31" d="M 1818 4288 
L 1696 4288 
C 1350 3940 947 3890 538 3890 
L 538 3520 
C 723 3520 1024 3520 1325 3667 
L 1325 369 
L 570 369 
L 570 0 
L 2573 0 
L 2573 369 
L 1818 369 
L 1818 4288 
z
" transform="scale(0.015625)"/>
      <path id="CMSS17-25" d="M 3923 4583 
C 3962 4647 3962 4679 3962 4685 
C 3962 4755 3904 4800 3853 4800 
C 3782 4800 3750 4749 3718 4685 
L 1101 -104 
C 1088 -129 1062 -167 1062 -206 
C 1062 -276 1120 -320 1178 -320 
C 1235 -320 1248 -295 1299 -206 
L 3923 4583 
z
M 4678 959 
C 4678 1698 4282 2240 3846 2240 
C 3418 2240 3008 1711 3008 959 
C 3008 208 3418 -320 3846 -320 
C 4288 -320 4678 221 4678 959 
z
M 3846 68 
C 3712 68 3494 189 3494 959 
C 3494 1724 3712 1851 3846 1851 
C 4083 1851 4211 1386 4211 959 
C 4211 533 4083 68 3846 68 
z
M 2003 3519 
C 2003 4258 1606 4800 1171 4800 
C 742 4800 333 4271 333 3519 
C 333 2768 742 2240 1171 2240 
C 1613 2240 2003 2781 2003 3519 
z
M 1171 2628 
C 1037 2628 819 2749 819 3519 
C 819 4284 1037 4411 1171 4411 
C 1408 4411 1536 3946 1536 3519 
C 1536 3093 1408 2628 1171 2628 
z
" transform="scale(0.015625)"/>
     </defs>
     <use xlink:href="#CMSS17-38" transform="scale(0.996264)"/>
     <use xlink:href="#CMSS17-38" transform="translate(46.843624 0) scale(0.996264)"/>
     <use xlink:href="#CMSS17-2e" transform="translate(93.687247 0) scale(0.996264)"/>
     <use xlink:href="#CMSS17-31" transform="translate(119.711452 0) scale(0.996264)"/>
     <use xlink:href="#CMSS17-38" transform="translate(166.555075 0) scale(0.996264)"/>
     <use xlink:href="#CMSS17-25" transform="translate(213.398699 0) scale(0.996264)"/>
    </g>
   </g>
   <g id="text_11">
    <!-- 8.26\% -->
    <g transform="translate(93.516834 83.731891) scale(0.08 -0.08)">
     <defs>
      <path id="CMSS17-32" d="M 1651 1357 
C 1830 1541 2099 1764 2285 1987 
C 2464 2204 2701 2511 2701 2957 
C 2701 3657 2227 4288 1421 4288 
C 787 4288 422 3893 250 3274 
L 499 2929 
C 640 3510 838 3880 1338 3880 
C 1888 3880 2195 3433 2195 2942 
C 2195 2355 1747 1901 1408 1563 
C 1030 1187 659 804 301 408 
L 301 0 
L 2701 0 
L 2701 433 
L 1613 433 
C 1536 433 1459 433 1382 433 
L 742 433 
L 742 439 
L 1651 1357 
z
" transform="scale(0.015625)"/>
      <path id="CMSS17-36" d="M 2496 4101 
C 2227 4210 2035 4229 1856 4229 
C 1024 4229 250 3368 250 2006 
C 250 265 986 -128 1510 -128 
C 1798 -128 2086 -39 2362 280 
C 2643 617 2752 898 2752 1389 
C 2752 2179 2362 2880 1779 2880 
C 1357 2880 992 2657 768 2376 
C 832 3258 1254 3840 1862 3840 
C 2029 3840 2246 3816 2496 3710 
L 2496 4101 
z
M 774 1369 
C 774 1420 774 1452 781 1548 
C 781 2045 1069 2491 1536 2491 
C 1837 2491 1990 2332 2106 2135 
C 2240 1886 2246 1650 2246 1388 
C 2246 1140 2246 891 2099 637 
C 1978 439 1818 267 1510 267 
C 902 267 800 1114 774 1369 
z
" transform="scale(0.015625)"/>
     </defs>
     <use xlink:href="#CMSS17-38" transform="scale(0.996264)"/>
     <use xlink:href="#CMSS17-2e" transform="translate(46.843624 0) scale(0.996264)"/>
     <use xlink:href="#CMSS17-32" transform="translate(72.867828 0) scale(0.996264)"/>
     <use xlink:href="#CMSS17-36" transform="translate(119.711452 0) scale(0.996264)"/>
     <use xlink:href="#CMSS17-25" transform="translate(166.555075 0) scale(0.996264)"/>
    </g>
   </g>
   <g id="text_12">
    <!-- 94.49\% -->
    <g transform="translate(200.101041 155.069513) scale(0.08 -0.08)">
     <defs>
      <path id="CMSS17-39" d="M 435 174 
C 614 21 845 -128 1235 -128 
C 2010 -128 2752 721 2752 2095 
C 2752 3932 1952 4229 1523 4229 
C 1094 4229 819 4041 582 3741 
C 301 3397 250 3090 250 2733 
C 250 2307 326 2045 506 1745 
C 749 1357 973 1275 1222 1275 
C 1600 1275 1978 1459 2234 1776 
C 2189 902 1798 267 1235 267 
C 1005 267 819 339 634 516 
L 435 174 
z
M 2214 2746 
C 2221 2703 2221 2622 2221 2596 
C 2221 2074 1914 1664 1466 1664 
C 1171 1664 1018 1813 902 2006 
C 762 2249 755 2485 755 2733 
C 755 2976 755 3244 934 3511 
C 1069 3703 1235 3840 1523 3840 
C 2112 3840 2208 3000 2214 2746 
z
" transform="scale(0.015625)"/>
      <path id="CMSS17-34" d="M 2253 1088 
L 2835 1088 
L 2835 1477 
L 2253 1477 
L 2253 4192 
L 1690 4192 
L 166 1477 
L 166 1088 
L 1747 1088 
L 1747 0 
L 2253 0 
L 2253 1088 
z
M 659 1477 
C 1030 2127 1766 3439 1766 3885 
L 1766 1477 
L 659 1477 
z
" transform="scale(0.015625)"/>
     </defs>
     <use xlink:href="#CMSS17-39" transform="scale(0.996264)"/>
     <use xlink:href="#CMSS17-34" transform="translate(46.843624 0) scale(0.996264)"/>
     <use xlink:href="#CMSS17-2e" transform="translate(93.687247 0) scale(0.996264)"/>
     <use xlink:href="#CMSS17-34" transform="translate(119.711452 0) scale(0.996264)"/>
     <use xlink:href="#CMSS17-39" transform="translate(166.555075 0) scale(0.996264)"/>
     <use xlink:href="#CMSS17-25" transform="translate(213.398699 0) scale(0.996264)"/>
    </g>
   </g>
   <g id="text_13">
    <!-- 95.19\% -->
    <g transform="translate(308.80234 134.002044) scale(0.08 -0.08)">
     <defs>
      <path id="CMSS17-35" d="M 934 3752 
L 2502 3752 
L 2502 4160 
L 467 4160 
L 467 1781 
L 896 1781 
C 1011 2046 1248 2240 1555 2240 
C 1843 2240 2163 1989 2163 1266 
C 2163 493 1709 267 1376 267 
C 966 267 589 512 422 851 
L 218 499 
C 512 49 992 -128 1376 -128 
C 2118 -128 2701 497 2701 1253 
C 2701 2030 2182 2629 1562 2629 
C 1338 2629 1120 2553 934 2399 
L 934 3752 
z
" transform="scale(0.015625)"/>
     </defs>
     <use xlink:href="#CMSS17-39" transform="scale(0.996264)"/>
     <use xlink:href="#CMSS17-35" transform="translate(46.843624 0) scale(0.996264)"/>
     <use xlink:href="#CMSS17-2e" transform="translate(93.687247 0) scale(0.996264)"/>
     <use xlink:href="#CMSS17-31" transform="translate(119.711452 0) scale(0.996264)"/>
     <use xlink:href="#CMSS17-39" transform="translate(166.555075 0) scale(0.996264)"/>
     <use xlink:href="#CMSS17-25" transform="translate(213.398699 0) scale(0.996264)"/>
    </g>
   </g>
  </g>
  <g id="legend_1">
   <g id="patch_22">
    <path d="M 75.048699 38.074357 
L 340.69941 38.074357 
Q 342.69941 38.074357 342.69941 36.074357 
L 342.69941 9.2 
Q 342.69941 7.2 340.69941 7.2 
L 75.048699 7.2 
Q 73.048699 7.2 73.048699 9.2 
L 73.048699 36.074357 
Q 73.048699 38.074357 75.048699 38.074357 
z
" style="stroke: #cccccc; stroke-linejoin: miter"/>
   </g>
   <g id="patch_23">
    <path d="M 77.048699 18.2 
L 97.048699 18.2 
L 97.048699 11.2 
L 77.048699 11.2 
z
" style="fill: #8dd3c7"/>
   </g>
   <g id="text_14">
    <!-- CFD sampling -->
    <g style="fill: #ffffff" transform="translate(105.048699 18.2) scale(0.1 -0.1)">
     <defs>
      <path id="CMSS17-43" d="M 3501 714 
C 3072 427 2874 344 2355 344 
C 1459 344 934 1303 934 2179 
C 934 3112 1472 4032 2381 4032 
C 2790 4032 3059 3918 3386 3715 
L 3475 4217 
C 3168 4370 2778 4440 2387 4440 
C 1158 4440 397 3316 397 2179 
C 397 927 1299 -64 2323 -64 
C 2874 -64 3066 -19 3539 280 
L 3501 714 
z
" transform="scale(0.015625)"/>
      <path id="CMSS17-46" d="M 2918 1984 
L 2918 2373 
L 1101 2373 
L 1101 3968 
L 1882 3968 
C 1958 3968 2035 3968 2112 3968 
L 3168 3968 
L 3168 4375 
L 563 4375 
L 563 -32 
L 1101 -32 
L 1101 1984 
L 2918 1984 
z
" transform="scale(0.015625)"/>
      <path id="CMSS17-44" d="M 570 4416 
L 570 0 
L 2144 0 
C 3194 0 4000 980 4000 2170 
C 4000 3398 3194 4416 2144 4416 
L 570 4416 
z
M 1094 357 
L 1094 4059 
L 2003 4059 
C 2861 4059 3475 3277 3475 2170 
C 3475 1107 2867 357 2003 357 
L 1094 357 
z
" transform="scale(0.015625)"/>
      <path id="CMSS17-73" d="M 2061 2627 
C 1683 2807 1389 2807 1197 2807 
C 742 2807 198 2648 198 2003 
C 198 1359 902 1218 1094 1179 
C 1389 1122 1715 1058 1715 740 
C 1715 337 1254 337 1171 337 
C 915 337 563 407 243 638 
L 166 210 
C 531 0 883 -64 1178 -64 
C 1965 -64 2163 416 2163 781 
C 2163 1094 1984 1305 1862 1401 
C 1651 1568 1574 1587 1050 1696 
C 960 1709 646 1779 646 2066 
C 646 2432 1050 2432 1139 2432 
C 1555 2432 1811 2303 1984 2208 
L 2061 2627 
z
" transform="scale(0.015625)"/>
      <path id="CMSS17-61" d="M 2406 1791 
C 2406 2392 1978 2808 1402 2808 
C 1120 2808 813 2757 461 2553 
L 499 2135 
C 659 2248 934 2432 1395 2432 
C 1722 2432 1920 2180 1920 1782 
L 1920 1536 
C 896 1536 256 1238 256 726 
C 256 461 416 -64 947 -64 
C 1043 -64 1562 -64 1933 217 
L 1933 -19 
L 2406 -19 
L 2406 1791 
z
M 1920 816 
C 1920 701 1920 548 1728 434 
C 1562 325 1350 325 1261 325 
C 941 325 723 511 723 744 
C 723 1211 1722 1211 1920 1211 
L 1920 816 
z
" transform="scale(0.015625)"/>
      <path id="CMSS17-6d" d="M 4288 1877 
C 4288 2308 4179 2816 3462 2816 
C 2982 2816 2694 2516 2566 2331 
C 2451 2670 2182 2816 1798 2816 
C 1363 2816 1088 2568 941 2389 
L 941 2758 
L 474 2758 
L 474 0 
L 960 0 
L 960 1559 
C 960 1939 1101 2428 1555 2428 
C 2138 2428 2138 2016 2138 1829 
L 2138 0 
L 2624 0 
L 2624 1559 
C 2624 1939 2765 2428 3219 2428 
C 3802 2428 3802 2016 3802 1829 
L 3802 0 
L 4288 0 
L 4288 1877 
z
" transform="scale(0.015625)"/>
      <path id="CMSS17-70" d="M 966 333 
C 1178 129 1466 -5 1773 -5 
C 2368 -5 2880 603 2880 1412 
C 2880 2159 2496 2816 1946 2816 
C 1626 2816 1242 2702 954 2472 
L 954 2765 
L 480 2765 
L 480 -1216 
L 966 -1216 
L 966 333 
z
M 966 2100 
C 1018 2176 1235 2415 1587 2415 
C 2035 2415 2394 1960 2394 1412 
C 2394 787 1958 384 1530 384 
C 1402 384 1267 415 1139 523 
C 966 674 966 768 966 857 
L 966 2100 
z
" transform="scale(0.015625)"/>
      <path id="CMSS17-6c" d="M 947 4416 
L 474 4416 
L 474 0 
L 947 0 
L 947 4416 
z
" transform="scale(0.015625)"/>
      <path id="CMSS17-69" d="M 979 4183 
L 442 4183 
L 442 3648 
L 979 3648 
L 979 4183 
z
M 947 2739 
L 474 2739 
L 474 0 
L 947 0 
L 947 2739 
z
" transform="scale(0.015625)"/>
      <path id="CMSS17-6e" d="M 2618 1877 
C 2618 2283 2522 2816 1798 2816 
C 1389 2816 1120 2606 941 2389 
L 941 2758 
L 474 2758 
L 474 0 
L 960 0 
L 960 1559 
C 960 1964 1114 2428 1549 2428 
C 2112 2428 2131 2048 2131 1829 
L 2131 0 
L 2618 0 
L 2618 1877 
z
" transform="scale(0.015625)"/>
      <path id="CMSS17-67" d="M 2848 2808 
C 2483 2808 2170 2738 1914 2617 
C 1702 2777 1485 2808 1338 2808 
C 781 2808 358 2349 358 1814 
C 358 1468 550 1207 563 1195 
C 448 1035 384 863 384 672 
C 384 448 474 289 544 200 
C 211 -3 166 -314 166 -435 
C 166 -898 749 -1280 1498 -1280 
C 2253 -1280 2835 -898 2835 -428 
C 2835 448 1856 448 1587 448 
L 1069 448 
C 973 448 717 448 717 791 
C 717 921 774 1004 781 1010 
C 877 940 1075 832 1338 832 
C 1869 832 2310 1278 2310 1827 
C 2310 2132 2170 2355 2112 2432 
L 2131 2432 
C 2150 2432 2419 2432 2515 2432 
C 2720 2432 2739 2429 2918 2419 
L 2848 2808 
z
M 1338 1182 
C 1120 1182 813 1315 813 1823 
C 813 2375 1165 2464 1331 2464 
C 1549 2464 1856 2331 1856 1823 
C 1856 1271 1504 1182 1338 1182 
z
M 1581 -10 
C 1734 -10 2381 -10 2381 -442 
C 2381 -714 1984 -929 1504 -929 
C 1018 -929 621 -720 621 -435 
C 621 -403 621 -10 1062 -10 
L 1581 -10 
z
" transform="scale(0.015625)"/>
     </defs>
     <use xlink:href="#CMSS17-43" transform="scale(0.996264)"/>
     <use xlink:href="#CMSS17-46" transform="translate(59.855772 0) scale(0.996264)"/>
     <use xlink:href="#CMSS17-44" transform="translate(113.145331 0) scale(0.996264)"/>
     <use xlink:href="#CMSS17-73" transform="translate(211.917285 0) scale(0.996264)"/>
     <use xlink:href="#CMSS17-61" transform="translate(247.830827 0) scale(0.996264)"/>
     <use xlink:href="#CMSS17-6d" transform="translate(292.752748 0) scale(0.996264)"/>
     <use xlink:href="#CMSS17-70" transform="translate(366.982002 0) scale(0.996264)"/>
     <use xlink:href="#CMSS17-6c" transform="translate(415.186945 0) scale(0.996264)"/>
     <use xlink:href="#CMSS17-69" transform="translate(437.367668 0) scale(0.996264)"/>
     <use xlink:href="#CMSS17-6e" transform="translate(459.548392 0) scale(0.996264)"/>
     <use xlink:href="#CMSS17-67" transform="translate(507.753335 0) scale(0.996264)"/>
    </g>
   </g>
   <g id="patch_24">
    <path d="M 77.048699 32.137178 
L 97.048699 32.137178 
L 97.048699 25.137178 
L 77.048699 25.137178 
z
" style="fill: #feffb3"/>
   </g>
   <g id="text_15">
    <!-- MB sampling -->
    <g style="fill: #ffffff" transform="translate(105.048699 32.137178) scale(0.1 -0.1)">
     <defs>
      <path id="CMSS17-4d" d="M 3194 2371 
L 2886 1473 
C 2835 1307 2662 791 2624 587 
L 2618 587 
C 2598 715 2560 849 2458 1174 
C 2400 1365 2336 1562 2272 1741 
L 1325 4416 
L 576 4416 
L 576 0 
L 1075 0 
L 1075 3900 
L 1082 3900 
C 1082 3894 1139 3613 1530 2499 
L 2374 96 
L 2848 96 
L 3610 2231 
C 3661 2378 3821 2843 3891 3066 
C 3955 3257 4115 3728 4154 3913 
L 4160 3913 
L 4160 0 
L 4666 0 
L 4666 4416 
L 3923 4416 
L 3194 2371 
z
" transform="scale(0.015625)"/>
      <path id="CMSS17-42" d="M 570 4416 
L 570 0 
L 2163 0 
C 3034 0 3667 574 3667 1200 
C 3667 1685 3251 2176 2502 2317 
C 3334 2558 3501 3040 3501 3313 
C 3501 3883 2874 4416 1997 4416 
L 570 4416 
z
M 1088 2496 
L 1088 4059 
L 1824 4059 
C 2483 4059 3002 3724 3002 3306 
C 3002 2926 2592 2496 1766 2496 
L 1088 2496 
z
M 1088 357 
L 1088 2107 
L 1939 2107 
C 2630 2107 3162 1679 3162 1206 
C 3162 772 2694 357 1984 357 
L 1088 357 
z
" transform="scale(0.015625)"/>
     </defs>
     <use xlink:href="#CMSS17-4d" transform="scale(0.996264)"/>
     <use xlink:href="#CMSS17-42" transform="translate(81.67603 0) scale(0.996264)"/>
     <use xlink:href="#CMSS17-73" transform="translate(175.243183 0) scale(0.996264)"/>
     <use xlink:href="#CMSS17-61" transform="translate(211.156725 0) scale(0.996264)"/>
     <use xlink:href="#CMSS17-6d" transform="translate(256.078646 0) scale(0.996264)"/>
     <use xlink:href="#CMSS17-70" transform="translate(330.3079 0) scale(0.996264)"/>
     <use xlink:href="#CMSS17-6c" transform="translate(378.512843 0) scale(0.996264)"/>
     <use xlink:href="#CMSS17-69" transform="translate(400.693566 0) scale(0.996264)"/>
     <use xlink:href="#CMSS17-6e" transform="translate(422.874289 0) scale(0.996264)"/>
     <use xlink:href="#CMSS17-67" transform="translate(471.079232 0) scale(0.996264)"/>
    </g>
   </g>
   <g id="patch_25">
    <path d="M 184.16048 18.2 
L 204.16048 18.2 
L 204.16048 11.2 
L 184.16048 11.2 
z
" style="fill: #bfbbd9"/>
   </g>
   <g id="text_16">
    <!-- model update -->
    <g style="fill: #ffffff" transform="translate(212.16048 18.2) scale(0.1 -0.1)">
     <defs>
      <path id="CMSS17-6f" d="M 2829 1356 
C 2829 2176 2221 2816 1504 2816 
C 768 2816 173 2157 173 1356 
C 173 544 787 -64 1498 -64 
C 2227 -64 2829 563 2829 1356 
z
M 1504 337 
C 1050 337 659 709 659 1408 
C 659 2151 1114 2427 1498 2427 
C 1914 2427 2342 2126 2342 1408 
C 2342 683 1926 337 1504 337 
z
" transform="scale(0.015625)"/>
      <path id="CMSS17-64" d="M 2611 4416 
L 2138 4416 
L 2138 2438 
C 1939 2603 1613 2756 1254 2756 
C 672 2756 211 2131 211 1347 
C 211 562 666 -64 1235 -64 
C 1677 -64 1971 172 2125 306 
L 2125 -13 
L 2611 -13 
L 2611 4416 
z
M 2125 836 
C 2125 747 2125 653 1926 482 
C 1798 375 1645 325 1498 325 
C 1152 325 698 576 698 1340 
C 698 2134 1210 2368 1562 2368 
C 1798 2368 1990 2254 2125 2065 
L 2125 836 
z
" transform="scale(0.015625)"/>
      <path id="CMSS17-65" d="M 2502 1377 
C 2502 1590 2490 2003 2285 2345 
C 2061 2713 1696 2816 1421 2816 
C 755 2816 192 2188 192 1375 
C 192 582 774 -64 1510 -64 
C 1798 -64 2150 19 2470 248 
C 2470 274 2458 414 2451 420 
C 2451 433 2432 630 2432 656 
C 2125 407 1773 325 1517 325 
C 1107 325 666 667 646 1377 
L 2502 1377 
z
M 698 1728 
C 781 2084 1062 2421 1421 2421 
C 1517 2421 1965 2421 2080 1728 
L 698 1728 
z
" transform="scale(0.015625)"/>
      <path id="CMSS17-75" d="M 2618 2739 
L 2131 2739 
L 2131 972 
C 2131 498 1786 306 1421 306 
C 998 306 960 447 960 709 
L 960 2739 
L 474 2739 
L 474 678 
C 474 179 646 -64 1088 -64 
C 1306 -64 1798 -13 2144 306 
L 2144 0 
L 2618 0 
L 2618 2739 
z
" transform="scale(0.015625)"/>
      <path id="CMSS17-74" d="M 1069 2368 
L 1901 2368 
L 1901 2737 
L 1069 2737 
L 1069 3520 
L 614 3520 
L 614 2737 
L 109 2737 
L 109 2368 
L 602 2368 
L 602 749 
C 602 384 685 -64 1107 -64 
C 1427 -64 1722 25 2003 172 
L 1901 548 
C 1747 414 1562 337 1363 337 
C 1082 337 1069 696 1069 856 
L 1069 2368 
z
" transform="scale(0.015625)"/>
     </defs>
     <use xlink:href="#CMSS17-6d" transform="scale(0.996264)"/>
     <use xlink:href="#CMSS17-6f" transform="translate(74.229254 0) scale(0.996264)"/>
     <use xlink:href="#CMSS17-64" transform="translate(123.675317 0) scale(0.996264)"/>
     <use xlink:href="#CMSS17-65" transform="translate(171.88026 0) scale(0.996264)"/>
     <use xlink:href="#CMSS17-6c" transform="translate(213.519082 0) scale(0.996264)"/>
     <use xlink:href="#CMSS17-75" transform="translate(266.928918 0) scale(0.996264)"/>
     <use xlink:href="#CMSS17-70" transform="translate(315.133861 0) scale(0.996264)"/>
     <use xlink:href="#CMSS17-64" transform="translate(365.941243 0) scale(0.996264)"/>
     <use xlink:href="#CMSS17-61" transform="translate(414.146186 0) scale(0.996264)"/>
     <use xlink:href="#CMSS17-74" transform="translate(459.068106 0) scale(0.996264)"/>
     <use xlink:href="#CMSS17-65" transform="translate(492.899673 0) scale(0.996264)"/>
    </g>
   </g>
   <g id="patch_26">
    <path d="M 184.16048 32.137178 
L 204.16048 32.137178 
L 204.16048 25.137178 
L 184.16048 25.137178 
z
" style="fill: #fa8174"/>
   </g>
   <g id="text_17">
    <!-- PPO update -->
    <g style="fill: #ffffff" transform="translate(212.16048 32.137178) scale(0.1 -0.1)">
     <defs>
      <path id="CMSS17-50" d="M 2106 1856 
C 2874 1856 3501 2453 3501 3158 
C 3501 3850 2899 4453 2067 4453 
L 570 4453 
L 570 0 
L 1107 0 
L 1107 1856 
L 2106 1856 
z
M 1926 4096 
C 2669 4096 2995 3627 2995 3157 
C 2995 2720 2694 2226 1926 2226 
L 1094 2226 
L 1094 4096 
L 1926 4096 
z
" transform="scale(0.015625)"/>
      <path id="CMSS17-4f" d="M 4096 2178 
C 4096 3503 3219 4497 2214 4497 
C 1210 4497 333 3497 333 2178 
C 333 847 1222 -128 2214 -128 
C 3206 -128 4096 847 4096 2178 
z
M 2214 273 
C 1510 273 870 1057 870 2261 
C 870 3433 1549 4096 2214 4096 
C 2880 4096 3558 3433 3558 2261 
C 3558 1051 2912 273 2214 273 
z
" transform="scale(0.015625)"/>
     </defs>
     <use xlink:href="#CMSS17-50" transform="scale(0.996264)"/>
     <use xlink:href="#CMSS17-50" transform="translate(59.735586 0) scale(0.996264)"/>
     <use xlink:href="#CMSS17-4f" transform="translate(119.471173 0) scale(0.996264)"/>
     <use xlink:href="#CMSS17-75" transform="translate(219.724541 0) scale(0.996264)"/>
     <use xlink:href="#CMSS17-70" transform="translate(267.929484 0) scale(0.996264)"/>
     <use xlink:href="#CMSS17-64" transform="translate(318.736866 0) scale(0.996264)"/>
     <use xlink:href="#CMSS17-61" transform="translate(366.941809 0) scale(0.996264)"/>
     <use xlink:href="#CMSS17-74" transform="translate(411.863729 0) scale(0.996264)"/>
     <use xlink:href="#CMSS17-65" transform="translate(445.695296 0) scale(0.996264)"/>
    </g>
   </g>
   <g id="patch_27">
    <path d="M 289.141321 18.2 
L 309.141321 18.2 
L 309.141321 11.2 
L 289.141321 11.2 
z
" style="fill: #81b1d2"/>
   </g>
   <g id="text_18">
    <!-- other -->
    <g style="fill: #ffffff" transform="translate(317.141321 18.2) scale(0.1 -0.1)">
     <defs>
      <path id="CMSS17-68" d="M 2618 1891 
C 2618 2292 2522 2820 1798 2820 
C 1395 2820 1133 2623 947 2407 
L 947 4448 
L 474 4448 
L 474 32 
L 960 32 
L 960 1573 
C 960 1973 1114 2432 1549 2432 
C 2112 2432 2131 2056 2131 1839 
L 2131 32 
L 2618 32 
L 2618 1891 
z
" transform="scale(0.015625)"/>
      <path id="CMSS17-72" d="M 954 1363 
C 954 1965 1395 2368 1958 2368 
L 1958 2789 
C 1549 2789 1165 2585 934 2253 
L 934 2758 
L 480 2758 
L 480 0 
L 954 0 
L 954 1363 
z
" transform="scale(0.015625)"/>
     </defs>
     <use xlink:href="#CMSS17-6f" transform="scale(0.996264)"/>
     <use xlink:href="#CMSS17-74" transform="translate(46.843624 0) scale(0.996264)"/>
     <use xlink:href="#CMSS17-68" transform="translate(80.67519 0) scale(0.996264)"/>
     <use xlink:href="#CMSS17-65" transform="translate(128.880133 0) scale(0.996264)"/>
     <use xlink:href="#CMSS17-72" transform="translate(170.518955 0) scale(0.996264)"/>
    </g>
   </g>
  </g>
 </g>
 <defs>
  <clipPath id="p4610aa9016">
   <rect x="45.874054" y="41.08" width="334.8" height="166.32"/>
  </clipPath>
 </defs>
</svg>
