<?xml version="1.0" encoding="utf-8" standalone="no"?>
<!DOCTYPE svg PUBLIC "-//W3C//DTD SVG 1.1//EN"
  "http://www.w3.org/Graphics/SVG/1.1/DTD/svg11.dtd">
<svg xmlns:xlink="http://www.w3.org/1999/xlink" width="409.805312pt" height="173.471353pt" viewBox="0 0 409.805312 173.471353" xmlns="http://www.w3.org/2000/svg" version="1.1">
 <metadata>
  <rdf:RDF xmlns:dc="http://purl.org/dc/elements/1.1/" xmlns:cc="http://creativecommons.org/ns#" xmlns:rdf="http://www.w3.org/1999/02/22-rdf-syntax-ns#">
   <cc:Work>
    <dc:type rdf:resource="http://purl.org/dc/dcmitype/StillImage"/>
    <dc:date>2025-02-17T21:12:02.054534</dc:date>
    <dc:format>image/svg+xml</dc:format>
    <dc:creator>
     <cc:Agent>
      <dc:title>Matplotlib v3.10.0, https://matplotlib.org/</dc:title>
     </cc:Agent>
    </dc:creator>
   </cc:Work>
  </rdf:RDF>
 </metadata>
 <defs>
  <style type="text/css">*{stroke-linejoin: round; stroke-linecap: butt}</style>
 </defs>
 <g id="figure_1">
  <g id="patch_1">
   <path d="M 0 173.471353 
L 409.805312 173.471353 
L 409.805312 0 
L 0 0 
L 0 173.471353 
z
" style="fill: none"/>
  </g>
  <g id="axes_1">
   <g id="patch_2">
    <path d="M 54.121036 59.291765 
L 388.921036 59.291765 
L 388.921036 26.68 
L 54.121036 26.68 
L 54.121036 59.291765 
z
" style="fill: none"/>
   </g>
   <g id="matplotlib.axis_1">
    <g id="xtick_1">
     <g id="line2d_1">
      <defs>
       <path id="me414889e7f" d="M 0 0 
L 0 3.5 
" style="stroke: #ffffff; stroke-width: 0.8"/>
      </defs>
      <g>
       <use xlink:href="#me414889e7f" x="84.5574" y="59.291765" style="fill: #ffffff; stroke: #ffffff; stroke-width: 0.8"/>
      </g>
     </g>
    </g>
    <g id="xtick_2">
     <g id="line2d_2">
      <g>
       <use xlink:href="#me414889e7f" x="145.430127" y="59.291765" style="fill: #ffffff; stroke: #ffffff; stroke-width: 0.8"/>
      </g>
     </g>
    </g>
    <g id="xtick_3">
     <g id="line2d_3">
      <g>
       <use xlink:href="#me414889e7f" x="206.302855" y="59.291765" style="fill: #ffffff; stroke: #ffffff; stroke-width: 0.8"/>
      </g>
     </g>
    </g>
    <g id="xtick_4">
     <g id="line2d_4">
      <g>
       <use xlink:href="#me414889e7f" x="267.175582" y="59.291765" style="fill: #ffffff; stroke: #ffffff; stroke-width: 0.8"/>
      </g>
     </g>
    </g>
    <g id="xtick_5">
     <g id="line2d_5">
      <g>
       <use xlink:href="#me414889e7f" x="328.048309" y="59.291765" style="fill: #ffffff; stroke: #ffffff; stroke-width: 0.8"/>
      </g>
     </g>
    </g>
    <g id="xtick_6">
     <g id="line2d_6">
      <g>
       <use xlink:href="#me414889e7f" x="388.921036" y="59.291765" style="fill: #ffffff; stroke: #ffffff; stroke-width: 0.8"/>
      </g>
     </g>
    </g>
   </g>
   <g id="matplotlib.axis_2">
    <g id="ytick_1">
     <g id="line2d_7">
      <defs>
       <path id="m8c491b5fca" d="M 0 0 
L -3.5 0 
" style="stroke: #ffffff; stroke-width: 0.8"/>
      </defs>
      <g>
       <use xlink:href="#m8c491b5fca" x="54.121036" y="59.291765" style="fill: #ffffff; stroke: #ffffff; stroke-width: 0.8"/>
      </g>
     </g>
     <g id="text_1">
      <!-- $\mathdefault{0}$ -->
      <g style="fill: #ffffff" transform="translate(42.139701 62.751014) scale(0.1 -0.1)">
       <defs>
        <path id="CMR17-30" d="M 2688 2025 
C 2688 2416 2682 3080 2413 3591 
C 2176 4039 1798 4198 1466 4198 
C 1158 4198 768 4058 525 3597 
C 269 3118 243 2524 243 2025 
C 243 1661 250 1106 448 619 
C 723 -39 1216 -128 1466 -128 
C 1760 -128 2208 -7 2470 600 
C 2662 1042 2688 1559 2688 2025 
z
M 1466 -26 
C 1056 -26 813 325 723 812 
C 653 1188 653 1738 653 2096 
C 653 2588 653 2997 736 3387 
C 858 3929 1216 4096 1466 4096 
C 1728 4096 2067 3923 2189 3400 
C 2272 3036 2278 2607 2278 2096 
C 2278 1680 2278 1169 2202 792 
C 2067 95 1690 -26 1466 -26 
z
" transform="scale(0.015625)"/>
       </defs>
       <use xlink:href="#CMR17-30" transform="scale(0.996264)"/>
      </g>
     </g>
    </g>
    <g id="ytick_2">
     <g id="line2d_8">
      <g>
       <use xlink:href="#m8c491b5fca" x="54.121036" y="44.688198" style="fill: #ffffff; stroke: #ffffff; stroke-width: 0.8"/>
      </g>
     </g>
     <g id="text_2">
      <!-- $\mathdefault{1}$ -->
      <g style="fill: #ffffff" transform="translate(42.139701 48.147448) scale(0.1 -0.1)">
       <defs>
        <path id="CMR17-31" d="M 1702 4058 
C 1702 4192 1696 4192 1606 4192 
C 1357 3916 979 3827 621 3827 
C 602 3827 570 3827 563 3808 
C 557 3795 557 3782 557 3648 
C 755 3648 1088 3686 1344 3839 
L 1344 461 
C 1344 236 1331 160 781 160 
L 589 160 
L 589 0 
C 896 0 1216 0 1523 0 
C 1830 0 2150 0 2458 0 
L 2458 160 
L 2266 160 
C 1715 160 1702 230 1702 458 
L 1702 4058 
z
" transform="scale(0.015625)"/>
       </defs>
       <use xlink:href="#CMR17-31" transform="scale(0.996264)"/>
      </g>
     </g>
    </g>
    <g id="ytick_3">
     <g id="line2d_9">
      <g>
       <use xlink:href="#m8c491b5fca" x="54.121036" y="30.084632" style="fill: #ffffff; stroke: #ffffff; stroke-width: 0.8"/>
      </g>
     </g>
     <g id="text_3">
      <!-- $\mathdefault{2}$ -->
      <g style="fill: #ffffff" transform="translate(42.139701 33.543881) scale(0.1 -0.1)">
       <defs>
        <path id="CMR17-32" d="M 2669 989 
L 2554 989 
C 2490 536 2438 459 2413 420 
C 2381 369 1920 369 1830 369 
L 602 369 
C 832 619 1280 1072 1824 1597 
C 2214 1967 2669 2402 2669 3035 
C 2669 3790 2067 4224 1395 4224 
C 691 4224 262 3604 262 3030 
C 262 2780 448 2748 525 2748 
C 589 2748 781 2787 781 3010 
C 781 3207 614 3264 525 3264 
C 486 3264 448 3258 422 3245 
C 544 3790 915 4058 1306 4058 
C 1862 4058 2227 3617 2227 3035 
C 2227 2479 1901 2000 1536 1584 
L 262 146 
L 262 0 
L 2515 0 
L 2669 989 
z
" transform="scale(0.015625)"/>
       </defs>
       <use xlink:href="#CMR17-32" transform="scale(0.996264)"/>
      </g>
     </g>
    </g>
    <g id="text_4">
     <!-- $\sum_i c_{x,i}$ -->
     <g style="fill: #ffffff" transform="translate(35.150864 57.739592) rotate(-90) scale(0.1 -0.1)">
      <defs>
       <path id="CMEX10-50" d="M 2694 -3418 
L 422 -6227 
C 371 -6291 365 -6304 365 -6330 
C 365 -6400 422 -6400 538 -6400 
L 5843 -6400 
L 6394 -4806 
L 6234 -4806 
C 6074 -5286 5645 -5677 5101 -5862 
C 4998 -5894 4557 -6048 3616 -6048 
L 896 -6048 
L 3117 -3302 
C 3162 -3245 3174 -3226 3174 -3200 
C 3174 -3174 3168 -3168 3130 -3110 
L 1050 -256 
L 3584 -256 
C 4314 -256 5786 -301 6234 -1498 
L 6394 -1498 
L 5843 0 
L 538 0 
C 365 0 358 -6 358 -205 
L 2694 -3418 
z
" transform="scale(0.015625)"/>
       <path id="CMMI12-69" d="M 1811 913 
C 1811 945 1786 971 1747 971 
C 1690 971 1683 952 1651 843 
C 1485 262 1222 64 1011 64 
C 934 64 845 83 845 275 
C 845 447 922 639 992 830 
L 1440 2018 
C 1459 2069 1504 2184 1504 2305 
C 1504 2574 1312 2816 998 2816 
C 410 2816 173 1890 173 1839 
C 173 1814 198 1782 243 1782 
C 301 1782 307 1807 333 1896 
C 486 2428 730 2682 979 2682 
C 1037 2682 1146 2682 1146 2478 
C 1146 2312 1062 2101 1011 1961 
L 563 773 
C 525 671 486 568 486 453 
C 486 166 685 -64 992 -64 
C 1581 -64 1811 869 1811 913 
z
M 1760 4013 
C 1760 4109 1683 4224 1542 4224 
C 1395 4224 1229 4083 1229 3917 
C 1229 3758 1363 3707 1440 3707 
C 1613 3707 1760 3873 1760 4013 
z
" transform="scale(0.015625)"/>
       <path id="CMMI12-63" d="M 2502 2431 
C 2381 2431 2323 2431 2234 2355 
C 2195 2323 2125 2227 2125 2125 
C 2125 1997 2221 1920 2342 1920 
C 2496 1920 2669 2044 2669 2292 
C 2669 2588 2374 2816 1933 2816 
C 1094 2816 256 1903 256 996 
C 256 441 602 -64 1254 -64 
C 2125 -64 2675 622 2675 706 
C 2675 744 2637 776 2611 776 
C 2592 776 2586 770 2528 713 
C 2118 162 1510 64 1267 64 
C 826 64 685 446 685 764 
C 685 988 794 1605 1024 2039 
C 1190 2338 1536 2682 1939 2682 
C 2022 2682 2374 2682 2502 2431 
z
" transform="scale(0.015625)"/>
       <path id="CMMI12-78" d="M 3034 2606 
C 2829 2567 2752 2414 2752 2293 
C 2752 2139 2874 2088 2963 2088 
C 3155 2088 3290 2254 3290 2427 
C 3290 2695 2982 2816 2714 2816 
C 2323 2816 2106 2433 2048 2312 
C 1901 2816 1504 2816 1389 2816 
C 736 2816 390 1980 390 1839 
C 390 1814 416 1782 461 1782 
C 512 1782 525 1820 538 1846 
C 755 2555 1184 2689 1370 2689 
C 1658 2689 1715 2420 1715 2267 
C 1715 2127 1677 1980 1600 1673 
L 1382 798 
C 1286 415 1101 64 762 64 
C 730 64 570 64 435 147 
C 666 192 717 383 717 460 
C 717 588 621 664 499 664 
C 346 664 179 530 179 326 
C 179 57 480 -64 755 -64 
C 1062 -64 1280 179 1414 441 
C 1517 64 1837 -64 2074 -64 
C 2726 -64 3072 773 3072 913 
C 3072 945 3046 971 3008 971 
C 2950 971 2944 939 2925 888 
C 2752 326 2381 64 2093 64 
C 1869 64 1747 230 1747 492 
C 1747 632 1773 734 1875 1156 
L 2099 2024 
C 2195 2408 2413 2689 2707 2689 
C 2720 2689 2899 2689 3034 2606 
z
" transform="scale(0.015625)"/>
       <path id="CMMI12-3b" d="M 1248 -31 
C 1248 343 1126 619 864 619 
C 659 619 557 453 557 313 
C 557 172 653 0 870 0 
C 954 0 1024 26 1082 83 
C 1094 96 1101 96 1107 96 
C 1120 96 1120 5 1120 -27 
C 1120 -240 1082 -659 710 -1080 
C 640 -1157 640 -1170 640 -1183 
C 640 -1216 672 -1248 704 -1248 
C 755 -1248 1248 -771 1248 -31 
z
" transform="scale(0.015625)"/>
      </defs>
      <use xlink:href="#CMEX10-50" transform="translate(0 74.720454) scale(0.996264)"/>
      <use xlink:href="#CMMI12-69" transform="translate(105.161552 -28.394178) scale(0.697382)"/>
      <use xlink:href="#CMMI12-63" transform="translate(145.558997 0) scale(0.996264)"/>
      <use xlink:href="#CMMI12-78" transform="translate(187.542231 -14.943915) scale(0.697382)"/>
      <use xlink:href="#CMMI12-3b" transform="translate(226.34589 -14.943915) scale(0.697382)"/>
      <use xlink:href="#CMMI12-69" transform="translate(245.313823 -14.943915) scale(0.697382)"/>
     </g>
    </g>
   </g>
   <g id="line2d_10">
    <path d="M -1 36.808593 
L 23.684673 36.849228 
L 48.033764 36.829908 
L 78.470127 36.860613 
L 102.819218 36.829358 
L 130.211946 36.857088 
L 157.604673 36.820073 
L 191.084673 36.859547 
L 395.008309 36.82902 
L 410.805312 36.829976 
L 410.805312 36.829976 
" clip-path="url(#pc7d28145be)" style="fill: none; stroke-dasharray: 5.55,2.4; stroke-dashoffset: 0; stroke: #ffffff; stroke-width: 1.5"/>
   </g>
   <g id="line2d_11">
    <path d="M -1 36.808593 
L 23.684673 36.849228 
L 48.033764 36.829908 
L 78.470127 36.860613 
L 84.5574 36.86984 
L 87.601036 37.427545 
L 90.644673 37.84633 
L 93.688309 40.927585 
L 99.775582 48.329509 
L 102.819218 49.806871 
L 105.862855 49.931145 
L 114.993764 52.329741 
L 118.0374 52.931748 
L 121.081036 53.239251 
L 124.124673 53.291945 
L 130.211946 53.141916 
L 133.255582 53.280679 
L 136.299218 54.068606 
L 139.342855 55.275844 
L 142.386491 56.313049 
L 145.430127 56.670967 
L 148.473764 56.510529 
L 151.5174 56.189921 
L 172.822855 54.895466 
L 175.866491 54.945828 
L 178.910127 55.184248 
L 188.041036 56.701702 
L 191.084673 56.991192 
L 194.128309 57.071173 
L 200.215582 56.835096 
L 215.433764 56.019576 
L 218.4774 55.916495 
L 230.651946 56.105168 
L 239.782855 56.625883 
L 245.870127 56.771331 
L 248.913764 56.827429 
L 264.131946 56.403118 
L 273.262855 56.253904 
L 309.786491 56.665695 
L 325.004673 56.43983 
L 331.091946 56.431827 
L 337.179218 56.468204 
L 352.3974 56.635299 
L 382.833764 56.484954 
L 385.8774 56.553957 
L 391.964673 56.537113 
L 410.805312 56.580644 
L 410.805312 56.580644 
" clip-path="url(#pc7d28145be)" style="fill: none; stroke: #8dd3c7; stroke-width: 1.5; stroke-linecap: square"/>
   </g>
   <g id="line2d_12">
    <path d="M 84.5574 59.291765 
L 84.5574 26.68 
" clip-path="url(#pc7d28145be)" style="fill: none; stroke-dasharray: 1.5,2.475; stroke-dashoffset: 0; stroke: #ffffff; stroke-width: 1.5"/>
   </g>
   <g id="patch_3">
    <path d="M 54.121036 59.291765 
L 54.121036 26.68 
" style="fill: none; stroke: #ffffff; stroke-width: 0.8; stroke-linejoin: miter; stroke-linecap: square"/>
   </g>
   <g id="patch_4">
    <path d="M 388.921036 59.291765 
L 388.921036 26.68 
" style="fill: none; stroke: #ffffff; stroke-width: 0.8; stroke-linejoin: miter; stroke-linecap: square"/>
   </g>
   <g id="patch_5">
    <path d="M 54.121036 59.291765 
L 388.921036 59.291765 
" style="fill: none; stroke: #ffffff; stroke-width: 0.8; stroke-linejoin: miter; stroke-linecap: square"/>
   </g>
   <g id="patch_6">
    <path d="M 54.121036 26.68 
L 388.921036 26.68 
" style="fill: none; stroke: #ffffff; stroke-width: 0.8; stroke-linejoin: miter; stroke-linecap: square"/>
   </g>
   <g id="text_5">
    <!-- controlled $\rightarrow$ -->
    <g style="fill: #ffffff" transform="translate(87.601036 35.19588) scale(0.1 -0.1)">
     <defs>
      <path id="CMSS17-63" d="M 2464 2541 
C 2464 2585 2170 2714 2093 2739 
C 1882 2816 1613 2816 1542 2816 
C 710 2816 211 2093 211 1363 
C 211 595 768 -64 1517 -64 
C 1946 -64 2253 76 2502 242 
L 2464 664 
C 2189 453 1869 337 1523 337 
C 1024 337 698 774 698 1369 
C 698 1831 909 2414 1549 2414 
C 1901 2414 2099 2343 2394 2145 
L 2464 2541 
z
" transform="scale(0.015625)"/>
      <path id="CMSS17-6f" d="M 2829 1356 
C 2829 2176 2221 2816 1504 2816 
C 768 2816 173 2157 173 1356 
C 173 544 787 -64 1498 -64 
C 2227 -64 2829 563 2829 1356 
z
M 1504 337 
C 1050 337 659 709 659 1408 
C 659 2151 1114 2427 1498 2427 
C 1914 2427 2342 2126 2342 1408 
C 2342 683 1926 337 1504 337 
z
" transform="scale(0.015625)"/>
      <path id="CMSS17-6e" d="M 2618 1877 
C 2618 2283 2522 2816 1798 2816 
C 1389 2816 1120 2606 941 2389 
L 941 2758 
L 474 2758 
L 474 0 
L 960 0 
L 960 1559 
C 960 1964 1114 2428 1549 2428 
C 2112 2428 2131 2048 2131 1829 
L 2131 0 
L 2618 0 
L 2618 1877 
z
" transform="scale(0.015625)"/>
      <path id="CMSS17-74" d="M 1069 2368 
L 1901 2368 
L 1901 2737 
L 1069 2737 
L 1069 3520 
L 614 3520 
L 614 2737 
L 109 2737 
L 109 2368 
L 602 2368 
L 602 749 
C 602 384 685 -64 1107 -64 
C 1427 -64 1722 25 2003 172 
L 1901 548 
C 1747 414 1562 337 1363 337 
C 1082 337 1069 696 1069 856 
L 1069 2368 
z
" transform="scale(0.015625)"/>
      <path id="CMSS17-72" d="M 954 1363 
C 954 1965 1395 2368 1958 2368 
L 1958 2789 
C 1549 2789 1165 2585 934 2253 
L 934 2758 
L 480 2758 
L 480 0 
L 954 0 
L 954 1363 
z
" transform="scale(0.015625)"/>
      <path id="CMSS17-6c" d="M 947 4416 
L 474 4416 
L 474 0 
L 947 0 
L 947 4416 
z
" transform="scale(0.015625)"/>
      <path id="CMSS17-65" d="M 2502 1377 
C 2502 1590 2490 2003 2285 2345 
C 2061 2713 1696 2816 1421 2816 
C 755 2816 192 2188 192 1375 
C 192 582 774 -64 1510 -64 
C 1798 -64 2150 19 2470 248 
C 2470 274 2458 414 2451 420 
C 2451 433 2432 630 2432 656 
C 2125 407 1773 325 1517 325 
C 1107 325 666 667 646 1377 
L 2502 1377 
z
M 698 1728 
C 781 2084 1062 2421 1421 2421 
C 1517 2421 1965 2421 2080 1728 
L 698 1728 
z
" transform="scale(0.015625)"/>
      <path id="CMSS17-64" d="M 2611 4416 
L 2138 4416 
L 2138 2438 
C 1939 2603 1613 2756 1254 2756 
C 672 2756 211 2131 211 1347 
C 211 562 666 -64 1235 -64 
C 1677 -64 1971 172 2125 306 
L 2125 -13 
L 2611 -13 
L 2611 4416 
z
M 2125 836 
C 2125 747 2125 653 1926 482 
C 1798 375 1645 325 1498 325 
C 1152 325 698 576 698 1340 
C 698 2134 1210 2368 1562 2368 
C 1798 2368 1990 2254 2125 2065 
L 2125 836 
z
" transform="scale(0.015625)"/>
      <path id="CMSY10-21" d="M 5338 1472 
C 4986 1203 4813 941 4762 858 
C 4474 416 4422 13 4422 6 
C 4422 -70 4499 -70 4550 -70 
C 4659 -70 4666 -58 4691 58 
C 4838 685 5216 1222 5939 1517 
C 6016 1542 6035 1555 6035 1600 
C 6035 1645 5997 1664 5984 1670 
C 5702 1779 4928 2099 4685 3174 
C 4666 3251 4659 3270 4550 3270 
C 4499 3270 4422 3270 4422 3193 
C 4422 3180 4480 2777 4749 2349 
C 4877 2157 5062 1933 5338 1728 
L 582 1728 
C 467 1728 352 1728 352 1600 
C 352 1472 467 1472 582 1472 
L 5338 1472 
z
" transform="scale(0.015625)"/>
     </defs>
     <use xlink:href="#CMSS17-63" transform="scale(0.996264)"/>
     <use xlink:href="#CMSS17-6f" transform="translate(41.638822 0) scale(0.996264)"/>
     <use xlink:href="#CMSS17-6e" transform="translate(88.482446 0) scale(0.996264)"/>
     <use xlink:href="#CMSS17-74" transform="translate(136.687389 0) scale(0.996264)"/>
     <use xlink:href="#CMSS17-72" transform="translate(170.518955 0) scale(0.996264)"/>
     <use xlink:href="#CMSS17-6f" transform="translate(202.428728 0) scale(0.996264)"/>
     <use xlink:href="#CMSS17-6c" transform="translate(249.272351 0) scale(0.996264)"/>
     <use xlink:href="#CMSS17-6c" transform="translate(271.453075 0) scale(0.996264)"/>
     <use xlink:href="#CMSS17-65" transform="translate(293.633798 0) scale(0.996264)"/>
     <use xlink:href="#CMSS17-64" transform="translate(335.27262 0) scale(0.996264)"/>
     <use xlink:href="#CMSY10-21" transform="translate(414.706676 0) scale(0.996264)"/>
    </g>
   </g>
  </g>
  <g id="axes_2">
   <g id="patch_7">
    <path d="M 54.121036 98.425882 
L 388.921036 98.425882 
L 388.921036 65.814118 
L 54.121036 65.814118 
L 54.121036 98.425882 
z
" style="fill: none"/>
   </g>
   <g id="matplotlib.axis_3">
    <g id="xtick_7">
     <g id="line2d_13">
      <g>
       <use xlink:href="#me414889e7f" x="84.5574" y="98.425882" style="fill: #ffffff; stroke: #ffffff; stroke-width: 0.8"/>
      </g>
     </g>
    </g>
    <g id="xtick_8">
     <g id="line2d_14">
      <g>
       <use xlink:href="#me414889e7f" x="145.430127" y="98.425882" style="fill: #ffffff; stroke: #ffffff; stroke-width: 0.8"/>
      </g>
     </g>
    </g>
    <g id="xtick_9">
     <g id="line2d_15">
      <g>
       <use xlink:href="#me414889e7f" x="206.302855" y="98.425882" style="fill: #ffffff; stroke: #ffffff; stroke-width: 0.8"/>
      </g>
     </g>
    </g>
    <g id="xtick_10">
     <g id="line2d_16">
      <g>
       <use xlink:href="#me414889e7f" x="267.175582" y="98.425882" style="fill: #ffffff; stroke: #ffffff; stroke-width: 0.8"/>
      </g>
     </g>
    </g>
    <g id="xtick_11">
     <g id="line2d_17">
      <g>
       <use xlink:href="#me414889e7f" x="328.048309" y="98.425882" style="fill: #ffffff; stroke: #ffffff; stroke-width: 0.8"/>
      </g>
     </g>
    </g>
    <g id="xtick_12">
     <g id="line2d_18">
      <g>
       <use xlink:href="#me414889e7f" x="388.921036" y="98.425882" style="fill: #ffffff; stroke: #ffffff; stroke-width: 0.8"/>
      </g>
     </g>
    </g>
   </g>
   <g id="matplotlib.axis_4">
    <g id="ytick_4">
     <g id="line2d_19">
      <g>
       <use xlink:href="#m8c491b5fca" x="54.121036" y="97.476002" style="fill: #ffffff; stroke: #ffffff; stroke-width: 0.8"/>
      </g>
     </g>
     <g id="text_6">
      <!-- $\mathdefault{−0.25}$ -->
      <g style="fill: #ffffff" transform="translate(21.660879 100.935252) scale(0.1 -0.1)">
       <defs>
        <path id="CMSY10-0" d="M 4218 1472 
C 4326 1472 4442 1472 4442 1600 
C 4442 1728 4326 1728 4218 1728 
L 755 1728 
C 646 1728 531 1728 531 1600 
C 531 1472 646 1472 755 1472 
L 4218 1472 
z
" transform="scale(0.015625)"/>
        <path id="CMMI12-3a" d="M 1178 307 
C 1178 492 1024 619 870 619 
C 685 619 557 466 557 313 
C 557 128 710 0 864 0 
C 1050 0 1178 153 1178 307 
z
" transform="scale(0.015625)"/>
        <path id="CMR17-35" d="M 730 3692 
C 794 3666 1056 3584 1325 3584 
C 1920 3584 2246 3911 2432 4100 
C 2432 4157 2432 4192 2394 4192 
C 2387 4192 2374 4192 2323 4163 
C 2099 4058 1837 3973 1517 3973 
C 1325 3973 1037 3999 723 4139 
C 653 4171 640 4171 634 4171 
C 602 4171 595 4164 595 4037 
L 595 2203 
C 595 2089 595 2057 659 2057 
C 691 2057 704 2070 736 2114 
C 941 2401 1222 2522 1542 2522 
C 1766 2522 2246 2382 2246 1289 
C 2246 1085 2246 715 2054 421 
C 1894 159 1645 25 1370 25 
C 947 25 518 320 403 814 
C 429 807 480 795 506 795 
C 589 795 749 840 749 1038 
C 749 1210 627 1280 506 1280 
C 358 1280 262 1190 262 1011 
C 262 454 704 -128 1382 -128 
C 2042 -128 2669 440 2669 1264 
C 2669 2030 2170 2624 1549 2624 
C 1222 2624 947 2503 730 2274 
L 730 3692 
z
" transform="scale(0.015625)"/>
       </defs>
       <use xlink:href="#CMSY10-0" transform="scale(0.996264)"/>
       <use xlink:href="#CMR17-30" transform="translate(77.487468 0) scale(0.996264)"/>
       <use xlink:href="#CMMI12-3a" transform="translate(123.177945 0) scale(0.996264)"/>
       <use xlink:href="#CMR17-32" transform="translate(150.275122 0) scale(0.996264)"/>
       <use xlink:href="#CMR17-35" transform="translate(195.965599 0) scale(0.996264)"/>
      </g>
     </g>
    </g>
    <g id="ytick_5">
     <g id="line2d_20">
      <g>
       <use xlink:href="#m8c491b5fca" x="54.121036" y="84.884705" style="fill: #ffffff; stroke: #ffffff; stroke-width: 0.8"/>
      </g>
     </g>
     <g id="text_7">
      <!-- $\mathdefault{0.00}$ -->
      <g style="fill: #ffffff" transform="translate(29.409622 88.343954) scale(0.1 -0.1)">
       <use xlink:href="#CMR17-30" transform="scale(0.996264)"/>
       <use xlink:href="#CMMI12-3a" transform="translate(45.690477 0) scale(0.996264)"/>
       <use xlink:href="#CMR17-30" transform="translate(72.787654 0) scale(0.996264)"/>
       <use xlink:href="#CMR17-30" transform="translate(118.478131 0) scale(0.996264)"/>
      </g>
     </g>
    </g>
    <g id="ytick_6">
     <g id="line2d_21">
      <g>
       <use xlink:href="#m8c491b5fca" x="54.121036" y="72.293407" style="fill: #ffffff; stroke: #ffffff; stroke-width: 0.8"/>
      </g>
     </g>
     <g id="text_8">
      <!-- $\mathdefault{0.25}$ -->
      <g style="fill: #ffffff" transform="translate(29.409622 75.752656) scale(0.1 -0.1)">
       <use xlink:href="#CMR17-30" transform="scale(0.996264)"/>
       <use xlink:href="#CMMI12-3a" transform="translate(45.690477 0) scale(0.996264)"/>
       <use xlink:href="#CMR17-32" transform="translate(72.787654 0) scale(0.996264)"/>
       <use xlink:href="#CMR17-35" transform="translate(118.478131 0) scale(0.996264)"/>
      </g>
     </g>
    </g>
    <g id="text_9">
     <!-- $\sum_i c_{y,i}$ -->
     <g style="fill: #ffffff" transform="translate(14.672041 96.760145) rotate(-90) scale(0.1 -0.1)">
      <defs>
       <path id="CMMI12-79" d="M 1683 -700 
C 1510 -939 1261 -1152 947 -1152 
C 870 -1152 563 -1152 467 -889 
C 486 -895 518 -895 531 -895 
C 723 -895 851 -729 851 -582 
C 851 -435 730 -384 634 -384 
C 531 -384 307 -458 307 -759 
C 307 -1071 582 -1286 947 -1286 
C 1587 -1286 2234 -700 2413 6 
L 3040 2485 
C 3046 2517 3059 2556 3059 2594 
C 3059 2689 2982 2753 2886 2753 
C 2829 2753 2694 2727 2643 2535 
L 2170 658 
C 2138 543 2138 530 2086 460 
C 1958 281 1747 64 1440 64 
C 1082 64 1050 415 1050 588 
C 1050 952 1222 1443 1395 1903 
C 1466 2088 1504 2178 1504 2305 
C 1504 2574 1312 2816 998 2816 
C 410 2816 173 1890 173 1839 
C 173 1814 198 1782 243 1782 
C 301 1782 307 1807 333 1897 
C 486 2433 730 2689 979 2689 
C 1037 2689 1146 2689 1146 2478 
C 1146 2312 1075 2127 979 1884 
C 666 1047 666 837 666 683 
C 666 77 1101 -64 1421 -64 
C 1606 -64 1837 -6 2061 230 
L 2067 224 
C 1971 -147 1907 -392 1683 -700 
z
" transform="scale(0.015625)"/>
      </defs>
      <use xlink:href="#CMEX10-50" transform="translate(0 74.720454) scale(0.996264)"/>
      <use xlink:href="#CMMI12-69" transform="translate(105.161552 -28.394178) scale(0.697382)"/>
      <use xlink:href="#CMMI12-63" transform="translate(145.558997 0) scale(0.996264)"/>
      <use xlink:href="#CMMI12-79" transform="translate(187.542231 -14.943915) scale(0.697382)"/>
      <use xlink:href="#CMMI12-3b" transform="translate(223.339205 -14.943915) scale(0.697382)"/>
      <use xlink:href="#CMMI12-69" transform="translate(242.307138 -14.943915) scale(0.697382)"/>
     </g>
    </g>
   </g>
   <g id="line2d_22">
    <path d="M -1 82.986198 
L 11.510127 83.921948 
L 14.553764 83.874458 
L 20.641036 83.487945 
L 29.771946 82.864873 
L 38.902855 82.528536 
L 44.990127 82.5477 
L 51.0774 82.86592 
L 63.251946 83.847415 
L 66.295582 83.881527 
L 72.382855 83.597501 
L 81.513764 82.972291 
L 90.644673 82.569764 
L 96.731946 82.500271 
L 102.819218 82.72982 
L 111.950127 83.493616 
L 118.0374 83.874957 
L 121.081036 83.841948 
L 127.168309 83.491313 
L 139.342855 82.762931 
L 148.473764 82.492897 
L 154.561036 82.611869 
L 160.648309 83.040757 
L 169.779218 83.805938 
L 172.822855 83.860434 
L 178.910127 83.626326 
L 191.084673 82.862424 
L 200.215582 82.518147 
L 206.302855 82.540127 
L 212.390127 82.899832 
L 224.564673 83.858681 
L 227.608309 83.847083 
L 233.695582 83.524097 
L 242.826491 82.950514 
L 251.9574 82.557521 
L 258.044673 82.503137 
L 264.131946 82.786725 
L 279.350127 83.877787 
L 285.4374 83.641148 
L 297.611946 82.858802 
L 303.699218 82.58567 
L 309.786491 82.499984 
L 315.873764 82.701474 
L 325.004673 83.491053 
L 328.048309 83.752977 
L 331.091946 83.888448 
L 334.135582 83.864969 
L 340.222855 83.516114 
L 349.353764 82.929509 
L 358.484673 82.549231 
L 364.571946 82.518218 
L 370.659218 82.834896 
L 382.833764 83.857577 
L 385.8774 83.892448 
L 391.964673 83.619444 
L 401.095582 82.989141 
L 410.805312 82.544622 
L 410.805312 82.544622 
" clip-path="url(#p313dd7cc5c)" style="fill: none; stroke-dasharray: 5.55,2.4; stroke-dashoffset: 0; stroke: #ffffff; stroke-width: 1.5"/>
   </g>
   <g id="line2d_23">
    <path d="M -1 82.986198 
L 11.510127 83.921948 
L 14.553764 83.874458 
L 20.641036 83.487945 
L 29.771946 82.864873 
L 38.902855 82.528536 
L 44.990127 82.5477 
L 51.0774 82.86592 
L 63.251946 83.847415 
L 66.295582 83.881527 
L 72.382855 83.597501 
L 81.513764 82.972291 
L 84.5574 82.813939 
L 87.601036 90.407346 
L 90.644673 96.943529 
L 93.688309 93.66958 
L 96.731946 86.027572 
L 99.775582 73.679463 
L 102.819218 67.296471 
L 105.862855 72.066444 
L 108.906491 75.874846 
L 111.950127 74.667191 
L 114.993764 71.877423 
L 118.0374 70.116106 
L 121.081036 70.07353 
L 124.124673 72.021408 
L 127.168309 75.704883 
L 130.211946 79.568652 
L 133.255582 82.484786 
L 136.299218 84.003473 
L 139.342855 84.134476 
L 142.386491 83.536527 
L 145.430127 83.423765 
L 148.473764 84.596179 
L 151.5174 86.38214 
L 154.561036 87.653192 
L 157.604673 87.828485 
L 160.648309 86.738495 
L 163.691946 85.063326 
L 169.779218 81.099092 
L 172.822855 79.449016 
L 175.866491 78.302665 
L 178.910127 77.734778 
L 181.953764 77.515133 
L 184.9974 77.660562 
L 188.041036 77.934565 
L 191.084673 78.721829 
L 194.128309 80.014649 
L 200.215582 83.238631 
L 203.259218 84.628786 
L 206.302855 85.517303 
L 209.346491 86.000399 
L 212.390127 85.899545 
L 215.433764 85.222181 
L 227.608309 81.736028 
L 230.651946 81.05592 
L 233.695582 80.699115 
L 236.739218 80.63219 
L 239.782855 80.710325 
L 242.826491 81.009997 
L 251.9574 82.690038 
L 258.044673 83.500496 
L 264.131946 83.982039 
L 267.175582 84.018623 
L 270.219218 83.654491 
L 279.350127 82.112503 
L 282.393764 81.704946 
L 288.481036 81.482259 
L 294.568309 81.680288 
L 297.611946 81.812689 
L 306.742855 82.821699 
L 309.786491 83.189475 
L 312.830127 83.336722 
L 321.961036 83.281563 
L 328.048309 82.982012 
L 334.135582 82.71832 
L 337.179218 82.411726 
L 343.266491 82.084736 
L 352.3974 82.266226 
L 358.484673 82.647502 
L 364.571946 82.95896 
L 373.702855 83.051876 
L 379.790127 83.158643 
L 388.921036 83.149738 
L 395.008309 82.903424 
L 410.805312 82.827942 
L 410.805312 82.827942 
" clip-path="url(#p313dd7cc5c)" style="fill: none; stroke: #8dd3c7; stroke-width: 1.5; stroke-linecap: square"/>
   </g>
   <g id="line2d_24">
    <path d="M 84.5574 98.425882 
L 84.5574 65.814118 
" clip-path="url(#p313dd7cc5c)" style="fill: none; stroke-dasharray: 1.5,2.475; stroke-dashoffset: 0; stroke: #ffffff; stroke-width: 1.5"/>
   </g>
   <g id="patch_8">
    <path d="M 54.121036 98.425882 
L 54.121036 65.814118 
" style="fill: none; stroke: #ffffff; stroke-width: 0.8; stroke-linejoin: miter; stroke-linecap: square"/>
   </g>
   <g id="patch_9">
    <path d="M 388.921036 98.425882 
L 388.921036 65.814118 
" style="fill: none; stroke: #ffffff; stroke-width: 0.8; stroke-linejoin: miter; stroke-linecap: square"/>
   </g>
   <g id="patch_10">
    <path d="M 54.121036 98.425882 
L 388.921036 98.425882 
" style="fill: none; stroke: #ffffff; stroke-width: 0.8; stroke-linejoin: miter; stroke-linecap: square"/>
   </g>
   <g id="patch_11">
    <path d="M 54.121036 65.814118 
L 388.921036 65.814118 
" style="fill: none; stroke: #ffffff; stroke-width: 0.8; stroke-linejoin: miter; stroke-linecap: square"/>
   </g>
  </g>
  <g id="axes_3">
   <g id="patch_12">
    <path d="M 54.121036 137.56 
L 388.921036 137.56 
L 388.921036 104.948235 
L 54.121036 104.948235 
L 54.121036 137.56 
z
" style="fill: none"/>
   </g>
   <g id="matplotlib.axis_5">
    <g id="xtick_13">
     <g id="line2d_25">
      <g>
       <use xlink:href="#me414889e7f" x="84.5574" y="137.56" style="fill: #ffffff; stroke: #ffffff; stroke-width: 0.8"/>
      </g>
     </g>
     <g id="text_10">
      <!-- $\mathdefault{200}$ -->
      <g style="fill: #ffffff" transform="translate(77.085397 151.478498) scale(0.1 -0.1)">
       <use xlink:href="#CMR17-32" transform="scale(0.996264)"/>
       <use xlink:href="#CMR17-30" transform="translate(45.690477 0) scale(0.996264)"/>
       <use xlink:href="#CMR17-30" transform="translate(91.380954 0) scale(0.996264)"/>
      </g>
     </g>
    </g>
    <g id="xtick_14">
     <g id="line2d_26">
      <g>
       <use xlink:href="#me414889e7f" x="145.430127" y="137.56" style="fill: #ffffff; stroke: #ffffff; stroke-width: 0.8"/>
      </g>
     </g>
     <g id="text_11">
      <!-- $\mathdefault{210}$ -->
      <g style="fill: #ffffff" transform="translate(137.958125 151.478498) scale(0.1 -0.1)">
       <use xlink:href="#CMR17-32" transform="scale(0.996264)"/>
       <use xlink:href="#CMR17-31" transform="translate(45.690477 0) scale(0.996264)"/>
       <use xlink:href="#CMR17-30" transform="translate(91.380954 0) scale(0.996264)"/>
      </g>
     </g>
    </g>
    <g id="xtick_15">
     <g id="line2d_27">
      <g>
       <use xlink:href="#me414889e7f" x="206.302855" y="137.56" style="fill: #ffffff; stroke: #ffffff; stroke-width: 0.8"/>
      </g>
     </g>
     <g id="text_12">
      <!-- $\mathdefault{220}$ -->
      <g style="fill: #ffffff" transform="translate(198.830852 151.478498) scale(0.1 -0.1)">
       <use xlink:href="#CMR17-32" transform="scale(0.996264)"/>
       <use xlink:href="#CMR17-32" transform="translate(45.690477 0) scale(0.996264)"/>
       <use xlink:href="#CMR17-30" transform="translate(91.380954 0) scale(0.996264)"/>
      </g>
     </g>
    </g>
    <g id="xtick_16">
     <g id="line2d_28">
      <g>
       <use xlink:href="#me414889e7f" x="267.175582" y="137.56" style="fill: #ffffff; stroke: #ffffff; stroke-width: 0.8"/>
      </g>
     </g>
     <g id="text_13">
      <!-- $\mathdefault{230}$ -->
      <g style="fill: #ffffff" transform="translate(259.703579 151.478498) scale(0.1 -0.1)">
       <defs>
        <path id="CMR17-33" d="M 1414 2157 
C 1984 2157 2234 1662 2234 1090 
C 2234 320 1824 25 1453 25 
C 1114 25 563 194 390 693 
C 422 680 454 680 486 680 
C 640 680 755 782 755 948 
C 755 1133 614 1216 486 1216 
C 378 1216 211 1165 211 926 
C 211 335 787 -128 1466 -128 
C 2176 -128 2720 430 2720 1085 
C 2720 1707 2208 2157 1600 2227 
C 2086 2328 2554 2756 2554 3329 
C 2554 3820 2048 4179 1472 4179 
C 890 4179 378 3829 378 3329 
C 378 3110 544 3072 627 3072 
C 762 3072 877 3155 877 3321 
C 877 3486 762 3569 627 3569 
C 602 3569 570 3569 544 3557 
C 730 3959 1235 4032 1459 4032 
C 1683 4032 2106 3925 2106 3320 
C 2106 3143 2080 2828 1862 2550 
C 1670 2304 1453 2304 1242 2284 
C 1210 2284 1062 2269 1037 2269 
C 992 2263 966 2257 966 2208 
C 966 2163 973 2157 1101 2157 
L 1414 2157 
z
" transform="scale(0.015625)"/>
       </defs>
       <use xlink:href="#CMR17-32" transform="scale(0.996264)"/>
       <use xlink:href="#CMR17-33" transform="translate(45.690477 0) scale(0.996264)"/>
       <use xlink:href="#CMR17-30" transform="translate(91.380954 0) scale(0.996264)"/>
      </g>
     </g>
    </g>
    <g id="xtick_17">
     <g id="line2d_29">
      <g>
       <use xlink:href="#me414889e7f" x="328.048309" y="137.56" style="fill: #ffffff; stroke: #ffffff; stroke-width: 0.8"/>
      </g>
     </g>
     <g id="text_14">
      <!-- $\mathdefault{240}$ -->
      <g style="fill: #ffffff" transform="translate(320.576306 151.478498) scale(0.1 -0.1)">
       <defs>
        <path id="CMR17-34" d="M 2150 4122 
C 2150 4256 2144 4256 2029 4256 
L 128 1254 
L 128 1088 
L 1779 1088 
L 1779 457 
C 1779 224 1766 160 1318 160 
L 1197 160 
L 1197 0 
C 1402 0 1747 0 1965 0 
C 2182 0 2528 0 2733 0 
L 2733 160 
L 2611 160 
C 2163 160 2150 224 2150 457 
L 2150 1088 
L 2803 1088 
L 2803 1254 
L 2150 1254 
L 2150 4122 
z
M 1798 3703 
L 1798 1254 
L 256 1254 
L 1798 3703 
z
" transform="scale(0.015625)"/>
       </defs>
       <use xlink:href="#CMR17-32" transform="scale(0.996264)"/>
       <use xlink:href="#CMR17-34" transform="translate(45.690477 0) scale(0.996264)"/>
       <use xlink:href="#CMR17-30" transform="translate(91.380954 0) scale(0.996264)"/>
      </g>
     </g>
    </g>
    <g id="xtick_18">
     <g id="line2d_30">
      <g>
       <use xlink:href="#me414889e7f" x="388.921036" y="137.56" style="fill: #ffffff; stroke: #ffffff; stroke-width: 0.8"/>
      </g>
     </g>
     <g id="text_15">
      <!-- $\mathdefault{250}$ -->
      <g style="fill: #ffffff" transform="translate(381.449034 151.478498) scale(0.1 -0.1)">
       <use xlink:href="#CMR17-32" transform="scale(0.996264)"/>
       <use xlink:href="#CMR17-35" transform="translate(45.690477 0) scale(0.996264)"/>
       <use xlink:href="#CMR17-30" transform="translate(91.380954 0) scale(0.996264)"/>
      </g>
     </g>
    </g>
    <g id="text_16">
     <!-- $t^\ast$ -->
     <g style="fill: #ffffff" transform="translate(217.681264 164.334175) scale(0.1 -0.1)">
      <defs>
       <path id="CMMI12-74" d="M 1286 2566 
L 1875 2566 
C 1997 2566 2061 2566 2061 2681 
C 2061 2752 2022 2752 1894 2752 
L 1331 2752 
L 1568 3692 
C 1594 3781 1594 3794 1594 3840 
C 1594 3943 1510 4000 1427 4000 
C 1376 4000 1229 3981 1178 3775 
L 928 2752 
L 326 2752 
C 198 2752 141 2752 141 2630 
C 141 2566 186 2566 307 2566 
L 877 2566 
L 454 881 
C 403 658 384 594 384 511 
C 384 211 595 -64 954 -64 
C 1600 -64 1946 868 1946 912 
C 1946 951 1920 970 1882 970 
C 1869 970 1843 970 1830 944 
C 1824 938 1818 931 1773 829 
C 1638 511 1344 64 973 64 
C 781 64 768 224 768 364 
C 768 370 768 492 787 568 
L 1286 2566 
z
" transform="scale(0.015625)"/>
       <path id="CMSY10-3" d="M 1760 2719 
C 1766 2808 1766 2962 1600 2962 
C 1498 2962 1414 2879 1434 2795 
L 1434 2712 
L 1523 1720 
L 704 2316 
C 646 2348 634 2360 589 2360 
C 499 2360 416 2271 416 2181 
C 416 2079 480 2053 544 2021 
L 1453 1586 
L 570 1158 
C 467 1107 416 1081 416 985 
C 416 889 499 806 589 806 
C 634 806 646 806 806 928 
L 1523 1446 
L 1427 371 
C 1427 236 1542 204 1594 204 
C 1670 204 1766 248 1766 371 
L 1670 1446 
L 2490 851 
C 2547 819 2560 806 2605 806 
C 2694 806 2778 896 2778 985 
C 2778 1081 2720 1113 2643 1152 
C 2259 1343 2246 1343 1741 1580 
L 2624 2008 
C 2726 2060 2778 2085 2778 2181 
C 2778 2277 2694 2360 2605 2360 
C 2560 2360 2547 2360 2387 2239 
L 1670 1720 
L 1760 2719 
z
" transform="scale(0.015625)"/>
      </defs>
      <use xlink:href="#CMMI12-74" transform="scale(0.996264)"/>
      <use xlink:href="#CMSY10-3" transform="translate(35.22633 36.153639) scale(0.697382)"/>
     </g>
    </g>
   </g>
   <g id="matplotlib.axis_6">
    <g id="ytick_7">
     <g id="line2d_31">
      <g>
       <use xlink:href="#m8c491b5fca" x="54.121036" y="136.786814" style="fill: #ffffff; stroke: #ffffff; stroke-width: 0.8"/>
      </g>
     </g>
     <g id="text_17">
      <!-- $\mathdefault{−5}$ -->
      <g style="fill: #ffffff" transform="translate(34.390957 140.246063) scale(0.1 -0.1)">
       <use xlink:href="#CMSY10-0" transform="scale(0.996264)"/>
       <use xlink:href="#CMR17-35" transform="translate(77.487468 0) scale(0.996264)"/>
      </g>
     </g>
    </g>
    <g id="ytick_8">
     <g id="line2d_32">
      <g>
       <use xlink:href="#m8c491b5fca" x="54.121036" y="120.7597" style="fill: #ffffff; stroke: #ffffff; stroke-width: 0.8"/>
      </g>
     </g>
     <g id="text_18">
      <!-- $\mathdefault{0}$ -->
      <g style="fill: #ffffff" transform="translate(42.139701 124.218949) scale(0.1 -0.1)">
       <use xlink:href="#CMR17-30" transform="scale(0.996264)"/>
      </g>
     </g>
    </g>
    <g id="text_19">
     <!-- $\omega^\ast_i$ -->
     <g style="fill: #ffffff" transform="translate(27.797761 126.574437) rotate(-90) scale(0.1 -0.1)">
      <defs>
       <path id="CMMI12-21" d="M 3802 2395 
C 3802 2580 3750 2816 3526 2816 
C 3398 2816 3251 2657 3251 2529 
C 3251 2472 3277 2434 3328 2376 
C 3424 2268 3546 2096 3546 1797 
C 3546 1567 3405 1204 3302 1007 
C 3123 656 2829 357 2496 357 
C 2093 357 1939 615 1869 975 
C 1939 1143 2086 1560 2086 1728 
C 2086 1798 2061 1856 1978 1856 
C 1933 1856 1882 1831 1850 1779 
C 1760 1638 1677 1129 1683 994 
C 1562 756 1216 357 806 357 
C 378 357 262 733 262 1096 
C 262 1758 678 2338 794 2497 
C 858 2593 902 2657 902 2669 
C 902 2714 877 2784 819 2784 
C 717 2784 685 2701 634 2625 
C 307 2121 77 1414 77 803 
C 77 408 224 -64 704 -64 
C 1235 -64 1568 391 1702 634 
C 1754 275 1946 -64 2413 -64 
C 2899 -64 3206 363 3437 879 
C 3603 1249 3802 2045 3802 2395 
z
" transform="scale(0.015625)"/>
      </defs>
      <use xlink:href="#CMMI12-21" transform="scale(0.996264)"/>
      <use xlink:href="#CMSY10-3" transform="translate(64.318346 36.153639) scale(0.697382)"/>
      <use xlink:href="#CMMI12-69" transform="translate(60.743753 -25.505809) scale(0.697382)"/>
     </g>
    </g>
   </g>
   <g id="line2d_33">
    <path d="M 54.121036 120.7597 
L 388.921036 120.7597 
" clip-path="url(#p5afcdd0123)" style="fill: none; stroke-dasharray: 1.5,2.475; stroke-dashoffset: 0; stroke: #ffffff; stroke-width: 1.5"/>
   </g>
   <g id="line2d_34">
    <path d="M 84.5574 108.168577 
L 87.601036 109.030001 
L 90.644673 126.824232 
L 93.688309 122.479222 
L 96.731946 117.72455 
L 99.775582 116.046757 
L 102.819218 115.779398 
L 105.862855 117.273735 
L 108.906491 117.420553 
L 111.950127 117.752012 
L 114.993764 117.342038 
L 118.0374 115.890927 
L 121.081036 114.256131 
L 124.124673 113.142156 
L 127.168309 113.355609 
L 130.211946 114.211748 
L 136.299218 116.393541 
L 139.342855 116.946815 
L 142.386491 117.247558 
L 151.5174 117.000753 
L 154.561036 116.667112 
L 166.735582 114.43477 
L 169.779218 114.205907 
L 172.822855 114.250687 
L 175.866491 114.49792 
L 178.910127 114.960894 
L 181.953764 115.576818 
L 188.041036 116.403278 
L 194.128309 116.841337 
L 197.171946 116.836592 
L 206.302855 116.288711 
L 215.433764 115.396462 
L 221.521036 115.138016 
L 227.608309 115.190626 
L 236.739218 115.776487 
L 248.913764 116.309253 
L 251.9574 116.316153 
L 267.175582 115.651543 
L 273.262855 115.523782 
L 285.4374 115.619054 
L 288.481036 115.805197 
L 303.699218 115.987669 
L 309.786491 115.98308 
L 325.004673 115.648134 
L 364.571946 115.929936 
L 379.790127 115.756126 
L 410.805312 115.87458 
L 410.805312 115.87458 
" clip-path="url(#p5afcdd0123)" style="fill: none; stroke: #8dd3c7; stroke-width: 1.5; stroke-linecap: square"/>
   </g>
   <g id="line2d_35">
    <path d="M 84.5574 135.416239 
L 87.601036 134.04421 
L 90.644673 128.177802 
L 93.688309 130.003049 
L 102.819218 133.981373 
L 108.906491 134.832165 
L 124.124673 135.78825 
L 130.211946 135.832925 
L 145.430127 135.503443 
L 151.5174 135.537259 
L 169.779218 136.059151 
L 181.953764 136.046349 
L 203.259218 135.825288 
L 218.4774 136.009068 
L 233.695582 136.026277 
L 261.088309 135.936806 
L 282.393764 136.023342 
L 303.699218 135.958883 
L 331.091946 135.994309 
L 370.659218 135.979346 
L 391.964673 135.989859 
L 410.805312 135.996115 
L 410.805312 135.996115 
" clip-path="url(#p5afcdd0123)" style="fill: none; stroke: #8dd3c7; stroke-width: 1.5; stroke-linecap: square"/>
   </g>
   <g id="line2d_36">
    <path d="M 84.5574 106.430588 
L 87.601036 106.705663 
L 90.644673 113.205706 
L 96.731946 114.807023 
L 99.775582 115.06688 
L 102.819218 112.68534 
L 105.862855 111.075828 
L 108.906491 109.194814 
L 111.950127 107.850507 
L 114.993764 107.458013 
L 121.081036 107.523593 
L 130.211946 108.080216 
L 133.255582 108.564911 
L 139.342855 109.046 
L 145.430127 108.868721 
L 157.604673 107.090562 
L 163.691946 106.794725 
L 169.779218 106.72802 
L 172.822855 106.806048 
L 188.041036 107.89992 
L 191.084673 107.993332 
L 203.259218 107.399006 
L 206.302855 107.143797 
L 215.433764 106.893545 
L 221.521036 106.88304 
L 236.739218 107.356063 
L 239.782855 107.560561 
L 242.826491 107.377661 
L 245.870127 107.422544 
L 258.044673 107.225782 
L 282.393764 107.074431 
L 285.4374 107.227402 
L 291.524673 107.187538 
L 303.699218 107.300321 
L 309.786491 107.172565 
L 312.830127 107.216352 
L 318.9174 107.051634 
L 328.048309 107.126996 
L 352.3974 107.200205 
L 355.441036 107.249605 
L 358.484673 107.126531 
L 361.528309 107.213805 
L 367.615582 107.121544 
L 379.790127 107.196411 
L 385.8774 107.05424 
L 388.921036 107.188642 
L 398.051946 107.149107 
L 404.139218 107.133129 
L 410.805312 107.115318 
L 410.805312 107.115318 
" clip-path="url(#p5afcdd0123)" style="fill: none; stroke: #8dd3c7; stroke-width: 1.5; stroke-linecap: square"/>
   </g>
   <g id="line2d_37">
    <path d="M 84.5574 137.56 
L 84.5574 104.948235 
" clip-path="url(#p5afcdd0123)" style="fill: none; stroke-dasharray: 1.5,2.475; stroke-dashoffset: 0; stroke: #ffffff; stroke-width: 1.5"/>
   </g>
   <g id="patch_13">
    <path d="M 54.121036 137.56 
L 54.121036 104.948235 
" style="fill: none; stroke: #ffffff; stroke-width: 0.8; stroke-linejoin: miter; stroke-linecap: square"/>
   </g>
   <g id="patch_14">
    <path d="M 388.921036 137.56 
L 388.921036 104.948235 
" style="fill: none; stroke: #ffffff; stroke-width: 0.8; stroke-linejoin: miter; stroke-linecap: square"/>
   </g>
   <g id="patch_15">
    <path d="M 54.121036 137.56 
L 388.921036 137.56 
" style="fill: none; stroke: #ffffff; stroke-width: 0.8; stroke-linejoin: miter; stroke-linecap: square"/>
   </g>
   <g id="patch_16">
    <path d="M 54.121036 104.948235 
L 388.921036 104.948235 
" style="fill: none; stroke: #ffffff; stroke-width: 0.8; stroke-linejoin: miter; stroke-linecap: square"/>
   </g>
   <g id="text_20">
    <!-- $\omega^\ast_1$ -->
    <g style="fill: #ffffff" transform="translate(391.964673 122.362411) scale(0.1 -0.1)">
     <use xlink:href="#CMMI12-21" transform="scale(0.996264)"/>
     <use xlink:href="#CMSY10-3" transform="translate(64.318346 36.153639) scale(0.697382)"/>
     <use xlink:href="#CMR17-31" transform="translate(60.743753 -24.740171) scale(0.697382)"/>
    </g>
   </g>
   <g id="text_21">
    <!-- $\omega^\ast_2$ -->
    <g style="fill: #ffffff" transform="translate(391.964673 107.938009) scale(0.1 -0.1)">
     <use xlink:href="#CMMI12-21" transform="scale(0.996264)"/>
     <use xlink:href="#CMSY10-3" transform="translate(64.318346 36.153639) scale(0.697382)"/>
     <use xlink:href="#CMR17-32" transform="translate(60.743753 -24.740171) scale(0.697382)"/>
    </g>
   </g>
   <g id="text_22">
    <!-- $\omega^\ast_3$ -->
    <g style="fill: #ffffff" transform="translate(391.964673 136.786814) scale(0.1 -0.1)">
     <use xlink:href="#CMMI12-21" transform="scale(0.996264)"/>
     <use xlink:href="#CMSY10-3" transform="translate(64.318346 36.153639) scale(0.697382)"/>
     <use xlink:href="#CMR17-33" transform="translate(60.743753 -24.740171) scale(0.697382)"/>
    </g>
   </g>
  </g>
  <g id="legend_1">
   <g id="patch_17">
    <path d="M 98.924402 24.137178 
L 333.317671 24.137178 
Q 335.317671 24.137178 335.317671 22.137178 
L 335.317671 9.2 
Q 335.317671 7.2 333.317671 7.2 
L 98.924402 7.2 
Q 96.924402 7.2 96.924402 9.2 
L 96.924402 22.137178 
Q 96.924402 24.137178 98.924402 24.137178 
z
" style="opacity: 0.8; stroke: #cccccc; stroke-linejoin: miter"/>
   </g>
   <g id="line2d_38">
    <path d="M 100.924402 14.7 
L 110.924402 14.7 
L 120.924402 14.7 
" style="fill: none; stroke-dasharray: 5.55,2.4; stroke-dashoffset: 0; stroke: #ffffff; stroke-width: 1.5"/>
   </g>
   <g id="text_23">
    <!-- uncontrolled -->
    <g style="fill: #ffffff" transform="translate(128.924402 18.2) scale(0.1 -0.1)">
     <defs>
      <path id="CMSS17-75" d="M 2618 2739 
L 2131 2739 
L 2131 972 
C 2131 498 1786 306 1421 306 
C 998 306 960 447 960 709 
L 960 2739 
L 474 2739 
L 474 678 
C 474 179 646 -64 1088 -64 
C 1306 -64 1798 -13 2144 306 
L 2144 0 
L 2618 0 
L 2618 2739 
z
" transform="scale(0.015625)"/>
     </defs>
     <use xlink:href="#CMSS17-75" transform="scale(0.996264)"/>
     <use xlink:href="#CMSS17-6e" transform="translate(48.204943 0) scale(0.996264)"/>
     <use xlink:href="#CMSS17-63" transform="translate(96.409886 0) scale(0.996264)"/>
     <use xlink:href="#CMSS17-6f" transform="translate(138.048708 0) scale(0.996264)"/>
     <use xlink:href="#CMSS17-6e" transform="translate(184.892332 0) scale(0.996264)"/>
     <use xlink:href="#CMSS17-74" transform="translate(233.097275 0) scale(0.996264)"/>
     <use xlink:href="#CMSS17-72" transform="translate(266.928842 0) scale(0.996264)"/>
     <use xlink:href="#CMSS17-6f" transform="translate(298.838614 0) scale(0.996264)"/>
     <use xlink:href="#CMSS17-6c" transform="translate(345.682238 0) scale(0.996264)"/>
     <use xlink:href="#CMSS17-6c" transform="translate(367.862961 0) scale(0.996264)"/>
     <use xlink:href="#CMSS17-65" transform="translate(390.043684 0) scale(0.996264)"/>
     <use xlink:href="#CMSS17-64" transform="translate(431.682506 0) scale(0.996264)"/>
    </g>
   </g>
   <g id="line2d_39">
    <path d="M 200.093692 14.7 
L 210.093692 14.7 
L 220.093692 14.7 
" style="fill: none; stroke: #8dd3c7; stroke-width: 1.5; stroke-linecap: square"/>
   </g>
   <g id="text_24">
    <!-- MB, $N_\mathrm{m}=10$, $N_\mathrm{thr}=5$ -->
    <g style="fill: #ffffff" transform="translate(228.093692 18.2) scale(0.1 -0.1)">
     <defs>
      <path id="CMSS17-4d" d="M 3194 2371 
L 2886 1473 
C 2835 1307 2662 791 2624 587 
L 2618 587 
C 2598 715 2560 849 2458 1174 
C 2400 1365 2336 1562 2272 1741 
L 1325 4416 
L 576 4416 
L 576 0 
L 1075 0 
L 1075 3900 
L 1082 3900 
C 1082 3894 1139 3613 1530 2499 
L 2374 96 
L 2848 96 
L 3610 2231 
C 3661 2378 3821 2843 3891 3066 
C 3955 3257 4115 3728 4154 3913 
L 4160 3913 
L 4160 0 
L 4666 0 
L 4666 4416 
L 3923 4416 
L 3194 2371 
z
" transform="scale(0.015625)"/>
      <path id="CMSS17-42" d="M 570 4416 
L 570 0 
L 2163 0 
C 3034 0 3667 574 3667 1200 
C 3667 1685 3251 2176 2502 2317 
C 3334 2558 3501 3040 3501 3313 
C 3501 3883 2874 4416 1997 4416 
L 570 4416 
z
M 1088 2496 
L 1088 4059 
L 1824 4059 
C 2483 4059 3002 3724 3002 3306 
C 3002 2926 2592 2496 1766 2496 
L 1088 2496 
z
M 1088 357 
L 1088 2107 
L 1939 2107 
C 2630 2107 3162 1679 3162 1206 
C 3162 772 2694 357 1984 357 
L 1088 357 
z
" transform="scale(0.015625)"/>
      <path id="CMSS17-2c" d="M 1088 6 
L 1088 510 
L 576 510 
L 576 0 
L 736 0 
L 570 -800 
L 826 -800 
L 1088 6 
z
" transform="scale(0.015625)"/>
      <path id="CMMI12-4e" d="M 4736 3698 
C 4806 3974 4909 4166 5395 4166 
C 5414 4166 5491 4166 5491 4279 
C 5491 4352 5434 4352 5408 4352 
C 5280 4352 4954 4352 4826 4352 
L 4518 4352 
C 4429 4352 4314 4352 4224 4352 
C 4186 4352 4109 4352 4109 4230 
C 4109 4166 4160 4166 4205 4166 
C 4589 4166 4614 4019 4614 3903 
C 4614 3846 4608 3826 4589 3737 
L 3866 850 
L 2496 4249 
C 2451 4352 2445 4352 2304 4352 
L 1523 4352 
C 1395 4352 1338 4352 1338 4230 
C 1338 4166 1382 4166 1504 4166 
C 1536 4166 1914 4166 1914 4115 
C 1914 4102 1901 4051 1894 4032 
L 1043 635 
C 966 320 813 186 390 186 
C 358 186 294 186 294 67 
C 294 0 358 0 378 0 
C 506 0 832 0 960 0 
L 1267 0 
C 1357 0 1466 0 1555 0 
C 1600 0 1670 0 1670 122 
C 1670 180 1606 186 1581 186 
C 1370 186 1165 224 1165 454 
C 1165 505 1178 562 1190 613 
L 2054 4032 
C 2093 3968 2093 3956 2118 3898 
L 3642 115 
C 3674 38 3686 0 3744 0 
C 3808 0 3814 19 3840 128 
L 4736 3698 
z
" transform="scale(0.015625)"/>
      <path id="CMR17-6d" d="M 4326 1933 
C 4326 2252 4269 2790 3507 2790 
C 3072 2790 2771 2496 2656 2151 
L 2650 2151 
C 2573 2676 2195 2790 1837 2790 
C 1331 2790 1069 2400 973 2144 
L 966 2144 
L 966 2790 
L 211 2720 
L 211 2554 
C 589 2554 646 2515 646 2208 
L 646 428 
C 646 184 621 153 211 153 
L 211 -13 
C 365 0 646 0 813 0 
C 979 0 1267 0 1421 -13 
L 1421 153 
C 1011 153 986 178 986 428 
L 986 1658 
C 986 2247 1344 2688 1792 2688 
C 2266 2688 2317 2266 2317 1958 
L 2317 428 
C 2317 184 2291 153 1882 153 
L 1882 -13 
C 2035 0 2317 0 2483 0 
C 2650 0 2938 0 3091 -13 
L 3091 153 
C 2682 153 2656 178 2656 428 
L 2656 1658 
C 2656 2247 3014 2688 3462 2688 
C 3936 2688 3987 2266 3987 1958 
L 3987 428 
C 3987 184 3962 153 3552 153 
L 3552 -13 
C 3706 0 3987 0 4154 0 
C 4320 0 4608 0 4762 -13 
L 4762 153 
C 4352 153 4326 178 4326 428 
L 4326 1933 
z
" transform="scale(0.015625)"/>
      <path id="CMR17-3d" d="M 4115 2017 
C 4211 2017 4307 2017 4307 2125 
C 4307 2240 4198 2240 4090 2240 
L 512 2240 
C 403 2240 294 2240 294 2125 
C 294 2017 390 2017 486 2017 
L 4115 2017 
z
M 4090 896 
C 4198 896 4307 896 4307 1011 
C 4307 1119 4211 1119 4115 1119 
L 486 1119 
C 390 1119 294 1119 294 1011 
C 294 896 403 896 512 896 
L 4090 896 
z
" transform="scale(0.015625)"/>
      <path id="CMR17-74" d="M 966 2560 
L 1862 2560 
L 1862 2725 
L 966 2725 
L 966 3904 
L 851 3904 
C 838 3245 614 2668 70 2668 
L 70 2560 
L 627 2560 
L 627 771 
C 627 650 627 -64 1370 -64 
C 1747 -64 1965 306 1965 777 
L 1965 1140 
L 1850 1140 
L 1850 783 
C 1850 344 1677 51 1408 51 
C 1222 51 966 178 966 758 
L 966 2560 
z
" transform="scale(0.015625)"/>
      <path id="CMR17-68" d="M 2656 1933 
C 2656 2259 2592 2790 1837 2790 
C 1312 2790 1056 2368 979 2157 
L 973 2157 
L 973 4396 
L 211 4326 
L 211 4160 
C 589 4160 646 4122 646 3817 
L 646 426 
C 646 184 621 153 211 153 
L 211 -13 
C 365 0 646 0 813 0 
C 979 0 1267 0 1421 -13 
L 1421 153 
C 1011 153 986 178 986 428 
L 986 1658 
C 986 2247 1344 2688 1792 2688 
C 2266 2688 2317 2266 2317 1958 
L 2317 428 
C 2317 184 2291 153 1882 153 
L 1882 -13 
C 2035 0 2317 0 2483 0 
C 2650 0 2938 0 3091 -13 
L 3091 153 
C 2682 153 2656 178 2656 428 
L 2656 1933 
z
" transform="scale(0.015625)"/>
      <path id="CMR17-72" d="M 960 1497 
C 960 2112 1222 2688 1702 2688 
C 1747 2688 1792 2682 1837 2662 
C 1837 2662 1696 2617 1696 2452 
C 1696 2298 1818 2234 1914 2234 
C 1990 2234 2131 2279 2131 2458 
C 2131 2663 1926 2790 1709 2790 
C 1222 2790 1011 2317 947 2093 
L 941 2093 
L 941 2790 
L 198 2720 
L 198 2554 
C 576 2554 634 2515 634 2208 
L 634 428 
C 634 184 608 153 198 153 
L 198 -13 
C 352 0 646 0 813 0 
C 998 0 1325 0 1498 -13 
L 1498 153 
C 1037 153 960 153 960 440 
L 960 1497 
z
" transform="scale(0.015625)"/>
     </defs>
     <use xlink:href="#CMSS17-4d" transform="scale(0.996264)"/>
     <use xlink:href="#CMSS17-42" transform="translate(81.67603 0) scale(0.996264)"/>
     <use xlink:href="#CMSS17-2c" transform="translate(144.01407 0) scale(0.996264)"/>
     <use xlink:href="#CMMI12-4e" transform="translate(201.267388 0) scale(0.996264)"/>
     <use xlink:href="#CMR17-6d" transform="translate(279.382507 -14.943915) scale(0.697382)"/>
     <use xlink:href="#CMR17-3d" transform="translate(361.398114 0) scale(0.996264)"/>
     <use xlink:href="#CMR17-31" transform="translate(460.786911 0) scale(0.996264)"/>
     <use xlink:href="#CMR17-30" transform="translate(506.477388 0) scale(0.996264)"/>
     <use xlink:href="#CMSS17-2c" transform="translate(552.167865 0) scale(0.996264)"/>
     <use xlink:href="#CMMI12-4e" transform="translate(609.421183 0) scale(0.996264)"/>
     <use xlink:href="#CMR17-74" transform="translate(687.536302 -14.943915) scale(0.697382)"/>
     <use xlink:href="#CMR17-68" transform="translate(712.232722 -14.943915) scale(0.697382)"/>
     <use xlink:href="#CMR17-72" transform="translate(747.859331 -14.943915) scale(0.697382)"/>
     <use xlink:href="#CMR17-3d" transform="translate(800.727892 0) scale(0.996264)"/>
     <use xlink:href="#CMR17-35" transform="translate(900.116689 0) scale(0.996264)"/>
    </g>
   </g>
  </g>
 </g>
 <defs>
  <clipPath id="pc7d28145be">
   <rect x="54.121036" y="26.68" width="334.8" height="32.611765"/>
  </clipPath>
  <clipPath id="p313dd7cc5c">
   <rect x="54.121036" y="65.814118" width="334.8" height="32.611765"/>
  </clipPath>
  <clipPath id="p5afcdd0123">
   <rect x="54.121036" y="104.948235" width="334.8" height="32.611765"/>
  </clipPath>
 </defs>
</svg>
