<?xml version="1.0" encoding="utf-8" standalone="no"?>
<!DOCTYPE svg PUBLIC "-//W3C//DTD SVG 1.1//EN"
  "http://www.w3.org/Graphics/SVG/1.1/DTD/svg11.dtd">
<svg xmlns:xlink="http://www.w3.org/1999/xlink" width="381.892243pt" height="149.8pt" viewBox="0 0 381.892243 149.8" xmlns="http://www.w3.org/2000/svg" version="1.1">
 <metadata>
  <rdf:RDF xmlns:dc="http://purl.org/dc/elements/1.1/" xmlns:cc="http://creativecommons.org/ns#" xmlns:rdf="http://www.w3.org/1999/02/22-rdf-syntax-ns#">
   <cc:Work>
    <dc:type rdf:resource="http://purl.org/dc/dcmitype/StillImage"/>
    <dc:date>2025-02-12T13:31:36.408188</dc:date>
    <dc:format>image/svg+xml</dc:format>
    <dc:creator>
     <cc:Agent>
      <dc:title>Matplotlib v3.9.2, https://matplotlib.org/</dc:title>
     </cc:Agent>
    </dc:creator>
   </cc:Work>
  </rdf:RDF>
 </metadata>
 <defs>
  <style type="text/css">*{stroke-linejoin: round; stroke-linecap: butt}</style>
 </defs>
 <g id="figure_1">
  <g id="patch_1">
   <path d="M 0 149.8 
L 381.892243 149.8 
L 381.892243 0 
L 0 0 
L 0 149.8 
z
" style="fill: none"/>
  </g>
  <g id="axes_1">
   <g id="patch_2">
    <path d="M 39.6 114.52 
L 138.070588 114.52 
L 138.070588 31.36 
L 39.6 31.36 
L 39.6 114.52 
z
" style="fill: none"/>
   </g>
   <g id="matplotlib.axis_1">
    <g id="xtick_1">
     <g id="line2d_1">
      <defs>
       <path id="mcb2a15a5f9" d="M 0 0 
L 0 3.5 
" style="stroke: #ffffff; stroke-width: 0.8"/>
      </defs>
      <g>
       <use xlink:href="#mcb2a15a5f9" x="39.6" y="114.52" style="fill: #ffffff; stroke: #ffffff; stroke-width: 0.8"/>
      </g>
     </g>
     <g id="text_1">
      <!-- $\mathdefault{0}$ -->
      <g style="fill: #ffffff" transform="translate(37.109332 128.438498) scale(0.1 -0.1)">
       <defs>
        <path id="CMR17-30" d="M 2688 2025 
C 2688 2416 2682 3080 2413 3591 
C 2176 4039 1798 4198 1466 4198 
C 1158 4198 768 4058 525 3597 
C 269 3118 243 2524 243 2025 
C 243 1661 250 1106 448 619 
C 723 -39 1216 -128 1466 -128 
C 1760 -128 2208 -7 2470 600 
C 2662 1042 2688 1559 2688 2025 
z
M 1466 -26 
C 1056 -26 813 325 723 812 
C 653 1188 653 1738 653 2096 
C 653 2588 653 2997 736 3387 
C 858 3929 1216 4096 1466 4096 
C 1728 4096 2067 3923 2189 3400 
C 2272 3036 2278 2607 2278 2096 
C 2278 1680 2278 1169 2202 792 
C 2067 95 1690 -26 1466 -26 
z
" transform="scale(0.015625)"/>
       </defs>
       <use xlink:href="#CMR17-30" transform="scale(0.996264)"/>
      </g>
     </g>
    </g>
    <g id="xtick_2">
     <g id="line2d_2">
      <g>
       <use xlink:href="#mcb2a15a5f9" x="86.490748" y="114.52" style="fill: #ffffff; stroke: #ffffff; stroke-width: 0.8"/>
      </g>
     </g>
     <g id="text_2">
      <!-- $\mathdefault{5}$ -->
      <g style="fill: #ffffff" transform="translate(84.00008 128.438498) scale(0.1 -0.1)">
       <defs>
        <path id="CMR17-35" d="M 730 3692 
C 794 3666 1056 3584 1325 3584 
C 1920 3584 2246 3911 2432 4100 
C 2432 4157 2432 4192 2394 4192 
C 2387 4192 2374 4192 2323 4163 
C 2099 4058 1837 3973 1517 3973 
C 1325 3973 1037 3999 723 4139 
C 653 4171 640 4171 634 4171 
C 602 4171 595 4164 595 4037 
L 595 2203 
C 595 2089 595 2057 659 2057 
C 691 2057 704 2070 736 2114 
C 941 2401 1222 2522 1542 2522 
C 1766 2522 2246 2382 2246 1289 
C 2246 1085 2246 715 2054 421 
C 1894 159 1645 25 1370 25 
C 947 25 518 320 403 814 
C 429 807 480 795 506 795 
C 589 795 749 840 749 1038 
C 749 1210 627 1280 506 1280 
C 358 1280 262 1190 262 1011 
C 262 454 704 -128 1382 -128 
C 2042 -128 2669 440 2669 1264 
C 2669 2030 2170 2624 1549 2624 
C 1222 2624 947 2503 730 2274 
L 730 3692 
z
" transform="scale(0.015625)"/>
       </defs>
       <use xlink:href="#CMR17-35" transform="scale(0.996264)"/>
      </g>
     </g>
    </g>
    <g id="xtick_3">
     <g id="line2d_3">
      <g>
       <use xlink:href="#mcb2a15a5f9" x="133.381496" y="114.52" style="fill: #ffffff; stroke: #ffffff; stroke-width: 0.8"/>
      </g>
     </g>
     <g id="text_3">
      <!-- $\mathdefault{10}$ -->
      <g style="fill: #ffffff" transform="translate(128.40016 128.438498) scale(0.1 -0.1)">
       <defs>
        <path id="CMR17-31" d="M 1702 4058 
C 1702 4192 1696 4192 1606 4192 
C 1357 3916 979 3827 621 3827 
C 602 3827 570 3827 563 3808 
C 557 3795 557 3782 557 3648 
C 755 3648 1088 3686 1344 3839 
L 1344 461 
C 1344 236 1331 160 781 160 
L 589 160 
L 589 0 
C 896 0 1216 0 1523 0 
C 1830 0 2150 0 2458 0 
L 2458 160 
L 2266 160 
C 1715 160 1702 230 1702 458 
L 1702 4058 
z
" transform="scale(0.015625)"/>
       </defs>
       <use xlink:href="#CMR17-31" transform="scale(0.996264)"/>
       <use xlink:href="#CMR17-30" transform="translate(45.690477 0) scale(0.996264)"/>
      </g>
     </g>
    </g>
   </g>
   <g id="matplotlib.axis_2">
    <g id="ytick_1">
     <g id="line2d_4">
      <defs>
       <path id="m0a1b98e504" d="M 0 0 
L -3.5 0 
" style="stroke: #ffffff; stroke-width: 0.8"/>
      </defs>
      <g>
       <use xlink:href="#m0a1b98e504" x="39.6" y="102.758703" style="fill: #ffffff; stroke: #ffffff; stroke-width: 0.8"/>
      </g>
     </g>
     <g id="text_4">
      <!-- $\mathdefault{−1}$ -->
      <g style="fill: #ffffff" transform="translate(19.869921 106.217952) scale(0.1 -0.1)">
       <defs>
        <path id="CMSY10-0" d="M 4218 1472 
C 4326 1472 4442 1472 4442 1600 
C 4442 1728 4326 1728 4218 1728 
L 755 1728 
C 646 1728 531 1728 531 1600 
C 531 1472 646 1472 755 1472 
L 4218 1472 
z
" transform="scale(0.015625)"/>
       </defs>
       <use xlink:href="#CMSY10-0" transform="scale(0.996264)"/>
       <use xlink:href="#CMR17-31" transform="translate(77.487468 0) scale(0.996264)"/>
      </g>
     </g>
    </g>
    <g id="ytick_2">
     <g id="line2d_5">
      <g>
       <use xlink:href="#m0a1b98e504" x="39.6" y="73.352801" style="fill: #ffffff; stroke: #ffffff; stroke-width: 0.8"/>
      </g>
     </g>
     <g id="text_5">
      <!-- $\mathdefault{0}$ -->
      <g style="fill: #ffffff" transform="translate(27.618665 76.81205) scale(0.1 -0.1)">
       <use xlink:href="#CMR17-30" transform="scale(0.996264)"/>
      </g>
     </g>
    </g>
    <g id="ytick_3">
     <g id="line2d_6">
      <g>
       <use xlink:href="#m0a1b98e504" x="39.6" y="43.946899" style="fill: #ffffff; stroke: #ffffff; stroke-width: 0.8"/>
      </g>
     </g>
     <g id="text_6">
      <!-- $\mathdefault{1}$ -->
      <g style="fill: #ffffff" transform="translate(27.618665 47.406148) scale(0.1 -0.1)">
       <use xlink:href="#CMR17-31" transform="scale(0.996264)"/>
      </g>
     </g>
    </g>
   </g>
   <g id="line2d_7">
    <path d="M 39.6 52.936464 
L 39.787549 43.376663 
L 39.975099 50.130009 
L 40.162648 47.142103 
L 40.350287 39.46044 
L 40.537836 50.587349 
L 40.912935 42.881787 
L 41.100485 45.619657 
L 41.288034 36.214703 
L 41.475673 52.488538 
L 41.663222 52.825001 
L 41.850772 50.389026 
L 42.038321 54.121354 
L 42.22587 45.192889 
L 42.41342 42.992672 
L 42.600969 44.040984 
L 42.788608 52.701823 
L 42.976157 53.925393 
L 43.163707 58.843448 
L 43.351256 56.871381 
L 43.538806 58.30336 
L 43.726355 61.866154 
L 43.913904 52.504017 
L 44.101543 55.121934 
L 44.289093 53.760965 
L 44.476642 63.31934 
L 44.664191 58.642311 
L 44.851741 58.118396 
L 45.03929 65.035016 
L 45.226929 54.187645 
L 45.789577 61.488668 
L 45.977127 62.948638 
L 46.352225 71.005928 
L 46.539864 62.707645 
L 46.727414 60.072545 
L 46.914963 69.16757 
L 47.290062 68.984107 
L 47.477611 73.023496 
L 47.66525 71.837585 
L 47.8528 67.26264 
L 48.040349 67.227376 
L 48.227898 68.439054 
L 48.415448 64.777875 
L 48.602997 77.528003 
L 48.790546 64.858684 
L 49.165735 80.592755 
L 49.353284 72.228889 
L 49.540834 77.554874 
L 49.728383 77.352172 
L 49.915932 70.270637 
L 50.103571 83.644301 
L 50.291121 84.124422 
L 50.47867 81.555522 
L 50.666219 86.739942 
L 50.853769 77.003288 
L 51.041318 77.684297 
L 51.228868 86.200009 
L 51.416506 87.408173 
L 51.604056 79.797599 
L 51.979155 88.760669 
L 52.166704 84.365211 
L 52.354253 86.862084 
L 52.541803 83.15693 
L 52.729442 84.698402 
L 52.916991 88.839554 
L 53.10454 81.352688 
L 53.29209 86.336099 
L 53.479639 88.117004 
L 53.667189 85.254057 
L 54.042377 96.279427 
L 54.229926 95.760365 
L 54.417476 88.348592 
L 54.605025 91.318184 
L 54.792574 100.387834 
L 54.980124 88.376277 
L 55.355312 98.332583 
L 55.542861 96.937107 
L 55.730411 101.139247 
L 55.91796 100.207996 
L 56.10551 96.095219 
L 56.293148 98.634785 
L 56.480698 96.641553 
L 56.668247 99.378652 
L 56.855797 97.998657 
L 57.043346 98.720031 
L 57.230895 96.703338 
L 57.418445 103.10853 
L 57.606084 100.977517 
L 57.793633 101.003536 
L 57.981182 98.432792 
L 58.168732 106.48724 
L 58.356281 102.079733 
L 58.543831 101.230055 
L 58.731469 95.875561 
L 58.919019 103.319376 
L 59.481667 97.034916 
L 59.856766 107.105946 
L 60.044405 105.511194 
L 60.419503 99.652723 
L 60.607053 103.710907 
L 60.794602 97.503015 
L 60.982152 105.907493 
L 61.169701 100.905992 
L 61.35734 101.360949 
L 61.732439 105.519537 
L 62.295087 97.081503 
L 62.482726 108.634027 
L 62.670275 100.95335 
L 62.857824 101.56279 
L 63.045374 106.655207 
L 63.232923 94.314643 
L 63.420473 106.512581 
L 63.608022 102.419038 
L 63.795661 105.253729 
L 64.17076 105.402472 
L 64.358309 96.03815 
L 64.733408 105.016984 
L 64.921047 95.436287 
L 65.108596 98.509165 
L 65.296146 92.81062 
L 65.671244 92.783281 
L 65.858794 98.447818 
L 66.046343 99.7823 
L 66.421531 96.009498 
L 66.609081 93.83738 
L 66.79663 96.992693 
L 66.98418 92.808986 
L 67.171729 93.747984 
L 67.359278 98.128969 
L 67.546917 94.491548 
L 67.734467 95.739587 
L 67.922016 86.806856 
L 68.109565 89.184086 
L 68.297115 85.822921 
L 68.484664 86.146711 
L 68.672303 85.851387 
L 68.859852 101.00687 
L 69.047402 82.10886 
L 69.422501 83.700543 
L 69.797599 89.938766 
L 69.985238 85.298655 
L 70.172788 88.423127 
L 70.360337 86.11987 
L 70.547886 91.339236 
L 70.735436 80.875555 
L 71.110624 83.648269 
L 71.298173 88.708154 
L 71.485723 81.578824 
L 71.860822 80.426204 
L 72.048371 78.083098 
L 72.23592 83.04093 
L 72.423559 75.458356 
L 72.611109 78.820015 
L 72.986207 72.826559 
L 73.173757 73.900262 
L 73.361306 79.988555 
L 73.736494 69.178949 
L 73.924044 74.039791 
L 74.299143 68.882858 
L 74.486692 70.677612 
L 74.674241 65.412613 
L 74.86188 66.183295 
L 75.04943 65.38801 
L 75.236979 65.236975 
L 75.424528 66.927595 
L 75.612078 65.412813 
L 75.799627 62.901291 
L 75.987177 67.088689 
L 76.174815 61.908098 
L 76.362365 63.219128 
L 76.549914 61.638842 
L 76.925013 56.612044 
L 77.112562 66.239662 
L 77.300201 57.338409 
L 77.6753 61.593095 
L 77.862849 59.477079 
L 78.050399 61.994159 
L 78.237948 52.099999 
L 78.425498 61.00473 
L 78.613137 48.59596 
L 78.800686 57.992366 
L 78.988235 52.058834 
L 79.175785 49.998088 
L 79.363334 49.908038 
L 79.550883 53.566996 
L 79.738522 47.628926 
L 79.926072 58.900762 
L 80.113621 51.685587 
L 80.301171 52.545544 
L 80.48872 52.648517 
L 80.676269 47.578536 
L 81.051458 53.298386 
L 81.239007 49.727416 
L 81.426556 52.068904 
L 81.614106 52.138738 
L 81.801655 52.503186 
L 81.989205 44.072268 
L 82.176843 54.408552 
L 82.364393 40.107912 
L 82.551942 48.431395 
L 82.739492 46.416257 
L 82.927041 47.185843 
L 83.11459 41.844712 
L 83.30214 44.312965 
L 83.489779 36.052667 
L 83.677328 50.880436 
L 83.864877 41.844323 
L 84.052427 41.154189 
L 84.427526 49.954936 
L 84.615075 39.534188 
L 84.802714 50.115789 
L 84.990263 42.139405 
L 85.177813 41.386878 
L 85.365362 44.570735 
L 85.552911 44.689639 
L 85.740461 47.423274 
L 86.115649 38.601565 
L 86.303198 48.230402 
L 86.865847 40.655268 
L 87.053396 42.819632 
L 87.241035 47.822332 
L 87.428584 44.221662 
L 87.616134 44.223182 
L 87.803683 43.281318 
L 87.991232 46.237648 
L 88.178782 52.824124 
L 88.366421 45.383482 
L 88.55397 52.774545 
L 88.741519 42.765027 
L 88.929069 40.540892 
L 89.116618 55.474017 
L 89.491717 42.547892 
L 89.866905 52.139263 
L 90.054455 53.600296 
L 90.429553 42.114365 
L 90.617103 41.383236 
L 90.804652 47.892312 
L 90.992291 46.340293 
L 91.17984 50.232088 
L 91.36739 58.949685 
L 91.554939 62.259433 
L 91.742489 49.894571 
L 91.930038 55.776034 
L 92.117677 52.548731 
L 92.305226 53.386244 
L 92.492776 55.571468 
L 92.680325 48.449131 
L 92.867874 52.698608 
L 93.055424 53.848007 
L 93.242973 47.760464 
L 93.430612 60.249448 
L 93.618161 61.015413 
L 93.805711 56.272412 
L 93.99326 59.242847 
L 94.18081 56.372115 
L 94.368359 61.491722 
L 94.555998 56.070477 
L 94.743547 58.057328 
L 94.931097 58.770814 
L 95.118646 64.130445 
L 95.306195 65.693539 
L 95.493745 65.753616 
L 95.681294 59.665737 
L 96.056483 68.387805 
L 96.244032 65.384325 
L 96.431581 68.235697 
L 96.619131 66.305319 
L 96.80668 75.723181 
L 96.994319 66.294232 
L 97.181868 80.575949 
L 97.369418 71.2913 
L 97.556967 75.570643 
L 97.744517 66.601083 
L 98.307254 77.15258 
L 98.494804 70.706816 
L 98.869902 81.933514 
L 99.057452 73.157392 
L 99.245001 77.611071 
L 99.432551 76.298103 
L 99.620189 84.569019 
L 99.807739 76.901799 
L 100.182838 85.544482 
L 100.370387 77.685532 
L 100.745575 79.639108 
L 100.933125 85.802479 
L 101.120674 79.880869 
L 101.308223 82.101357 
L 101.495773 86.173948 
L 101.683322 85.064479 
L 101.870872 84.623116 
L 102.05851 84.617319 
L 102.24606 84.216701 
L 102.433609 85.925657 
L 102.621159 94.779449 
L 102.808708 87.382688 
L 103.183896 91.791713 
L 103.371446 87.229961 
L 103.558995 87.525876 
L 103.934094 93.279892 
L 104.121643 86.413263 
L 104.309193 89.115788 
L 104.496831 101.380808 
L 104.684381 89.843724 
L 104.87193 97.961941 
L 105.05948 99.147604 
L 105.247029 98.694793 
L 105.434578 109.81226 
L 105.809767 96.368551 
L 105.997316 99.752302 
L 106.184865 96.679149 
L 106.372415 97.081686 
L 106.559964 104.508669 
L 106.747514 95.999006 
L 106.935152 106.847944 
L 107.122702 96.21755 
L 107.497801 106.507175 
L 107.68535 96.696608 
L 107.872899 97.225024 
L 108.060449 93.383366 
L 108.248088 96.103067 
L 108.435637 109.976417 
L 108.623186 103.002633 
L 108.810736 110.01905 
L 108.998285 95.128345 
L 109.373473 108.703624 
L 109.748572 99.698721 
L 109.936122 100.323327 
L 110.123671 102.779844 
L 110.31122 102.238426 
L 110.49877 102.939602 
L 110.686409 99.066833 
L 110.873958 105.585471 
L 111.061507 99.980465 
L 111.249057 104.441234 
L 111.436606 96.461602 
L 111.624156 98.232418 
L 111.999344 110.59153 
L 112.186893 110.74 
L 112.374443 103.937416 
L 112.561992 102.132735 
L 112.749542 98.156191 
L 113.12473 106.121193 
L 113.312279 104.052521 
L 113.499829 103.998989 
L 113.687378 96.611429 
L 113.874927 97.761229 
L 114.062477 101.998508 
L 114.250026 100.406126 
L 114.437665 95.134087 
L 114.625214 94.74787 
L 114.812764 98.107593 
L 115.000313 107.69984 
L 115.375412 96.445871 
L 115.563051 97.130499 
L 115.7506 104.557966 
L 115.93815 94.335564 
L 116.125699 93.744808 
L 116.313248 96.551482 
L 116.500798 95.994551 
L 116.688347 90.830089 
L 116.875986 82.255044 
L 117.251085 97.397871 
L 117.438634 93.332016 
L 117.626184 92.952941 
L 117.813733 90.719206 
L 118.001372 93.599333 
L 118.376471 82.237397 
L 118.56402 86.987682 
L 118.751569 84.716053 
L 118.939119 87.167827 
L 119.314307 81.754315 
L 119.501856 92.750061 
L 119.689406 83.355206 
L 119.876955 79.997646 
L 120.064505 85.496788 
L 120.252054 84.778131 
L 120.439693 76.186611 
L 120.627242 79.501261 
L 121.18989 74.000752 
L 121.37744 79.611867 
L 121.564989 79.358766 
L 121.752628 74.327536 
L 121.940177 79.493182 
L 122.127727 75.626361 
L 122.315276 77.110842 
L 122.502826 75.940046 
L 122.690375 81.987186 
L 122.877924 75.696417 
L 123.065563 75.357786 
L 123.253113 68.339048 
L 123.440662 73.844593 
L 123.628211 66.131078 
L 123.815761 70.392012 
L 124.00331 69.652776 
L 124.190949 71.284834 
L 124.378498 70.716362 
L 124.566048 68.910234 
L 124.753597 69.473334 
L 124.941147 65.807696 
L 125.128696 72.198939 
L 125.316245 71.812297 
L 125.503884 63.837584 
L 125.691434 69.5532 
L 125.878983 51.813768 
L 126.066532 54.057965 
L 126.254082 65.658955 
L 126.441631 56.08409 
L 126.816819 67.364984 
L 127.004369 57.157446 
L 127.191918 57.521775 
L 127.379468 57.554374 
L 127.567017 57.792959 
L 127.754566 52.481541 
L 127.942205 51.402734 
L 128.129755 53.095869 
L 128.504854 49.176569 
L 128.692403 64.760235 
L 128.879952 47.853829 
L 129.067591 51.35348 
L 129.255141 49.169842 
L 129.44269 50.605649 
L 129.630239 57.663095 
L 129.817789 48.615662 
L 130.005338 54.346635 
L 130.192888 47.45686 
L 130.380526 55.687334 
L 130.568076 47.686473 
L 130.755625 47.295246 
L 131.130724 57.20896 
L 131.318273 47.161308 
L 131.505823 51.123021 
L 131.693462 35.14 
L 131.881011 48.870564 
L 132.06856 53.455009 
L 132.443659 42.484012 
L 132.631209 51.777332 
L 132.818847 40.543164 
L 133.006397 40.060185 
L 133.381496 46.049901 
L 133.944144 38.61749 
L 134.319332 47.421681 
L 134.506881 39.647625 
L 134.694431 40.452453 
L 134.88198 49.987774 
L 135.257168 41.163731 
L 135.444718 42.747332 
L 135.632267 46.819086 
L 135.819817 43.234871 
L 136.007366 42.400947 
L 136.194915 45.523801 
L 136.382465 40.140962 
L 136.570104 42.71477 
L 136.757653 41.521971 
L 136.945202 42.386704 
L 137.132752 39.785242 
L 137.320301 49.65197 
L 137.507851 48.988966 
L 137.6954 45.718602 
L 137.883039 46.601141 
L 138.070588 45.218786 
L 138.070588 45.218786 
" clip-path="url(#pa62e982f7b)" style="fill: none; stroke: #8dd3c7; stroke-width: 1.5; stroke-linecap: square"/>
   </g>
   <g id="line2d_8">
    <path d="M 39.6 52.936467 
L 40.725386 54.625708 
L 41.850772 56.732975 
L 43.163707 59.722585 
L 44.664191 63.795941 
L 46.352225 69.060488 
L 52.729442 89.717932 
L 54.042377 92.959206 
L 55.355312 95.594951 
L 56.480698 97.342027 
L 57.418445 98.430207 
L 58.356281 99.184294 
L 59.106568 99.548209 
L 59.856766 99.700009 
L 60.607053 99.639326 
L 61.35734 99.3646 
L 62.107537 98.873055 
L 63.045374 97.948059 
L 63.98321 96.670694 
L 64.921047 95.034758 
L 66.046343 92.59655 
L 67.359278 89.114645 
L 68.859852 84.37177 
L 70.735436 77.559201 
L 75.799627 58.525156 
L 77.300201 54.013975 
L 78.425498 51.24258 
L 79.550883 49.046707 
L 80.48872 47.665629 
L 81.426556 46.685153 
L 82.176843 46.17798 
L 82.927041 45.904907 
L 83.677328 45.853426 
L 84.427526 46.011241 
L 85.177813 46.367324 
L 86.115649 47.077864 
L 87.053396 48.072629 
L 88.178782 49.634555 
L 89.304168 51.599632 
L 90.617103 54.410982 
L 91.930038 57.786721 
L 93.430612 62.313439 
L 95.118646 68.149414 
L 97.744517 78.183367 
L 100.557936 88.735568 
L 102.24606 94.170246 
L 103.558995 97.656805 
L 104.684381 100.042552 
L 105.622217 101.57837 
L 106.559964 102.694937 
L 107.310251 103.287276 
L 108.060449 103.61599 
L 108.810736 103.686148 
L 109.561023 103.503286 
L 110.31122 103.072588 
L 111.061507 102.398389 
L 111.999344 101.21793 
L 112.937091 99.66571 
L 114.062477 97.315566 
L 115.187863 94.438997 
L 116.500798 90.437045 
L 118.001372 85.077061 
L 119.876955 77.424712 
L 125.503884 53.550073 
L 126.816819 49.170773 
L 127.942205 46.100753 
L 128.879952 44.076138 
L 129.817789 42.556463 
L 130.568076 41.70531 
L 131.318273 41.171685 
L 132.06856 40.944402 
L 132.818847 41.008808 
L 133.569045 41.348132 
L 134.319332 41.944926 
L 135.257168 43.027292 
L 136.194915 44.456056 
L 137.320301 46.594786 
L 138.070588 48.264076 
L 138.070588 48.264076 
" clip-path="url(#pa62e982f7b)" style="fill: none; stroke-dasharray: 5.55,2.4; stroke-dashoffset: 0; stroke: #fa8174; stroke-width: 1.5"/>
   </g>
   <g id="patch_3">
    <path d="M 39.6 114.52 
L 39.6 31.36 
" style="fill: none; stroke: #ffffff; stroke-width: 0.8; stroke-linejoin: miter; stroke-linecap: square"/>
   </g>
   <g id="patch_4">
    <path d="M 138.070588 114.52 
L 138.070588 31.36 
" style="fill: none; stroke: #ffffff; stroke-width: 0.8; stroke-linejoin: miter; stroke-linecap: square"/>
   </g>
   <g id="patch_5">
    <path d="M 39.6 114.52 
L 138.070588 114.52 
" style="fill: none; stroke: #ffffff; stroke-width: 0.8; stroke-linejoin: miter; stroke-linecap: square"/>
   </g>
   <g id="patch_6">
    <path d="M 39.6 31.36 
L 138.070588 31.36 
" style="fill: none; stroke: #ffffff; stroke-width: 0.8; stroke-linejoin: miter; stroke-linecap: square"/>
   </g>
   <g id="text_7">
    <!-- $\tilde{x}_0$ -->
    <g style="fill: #ffffff" transform="translate(48.97815 46.887489) scale(0.1 -0.1)">
     <defs>
      <path id="CMR17-7e" d="M 2400 4184 
C 2182 3980 2061 3865 1862 3865 
C 1722 3865 1626 3932 1491 4024 
C 1363 4111 1261 4184 1120 4184 
C 890 4184 730 4004 461 3718 
L 531 3648 
C 749 3850 870 3968 1069 3968 
C 1210 3968 1306 3900 1440 3808 
C 1568 3722 1670 3648 1811 3648 
C 2042 3648 2202 3828 2470 4114 
L 2400 4184 
z
" transform="scale(0.015625)"/>
      <path id="CMMI12-78" d="M 3034 2606 
C 2829 2567 2752 2414 2752 2293 
C 2752 2139 2874 2088 2963 2088 
C 3155 2088 3290 2254 3290 2427 
C 3290 2695 2982 2816 2714 2816 
C 2323 2816 2106 2433 2048 2312 
C 1901 2816 1504 2816 1389 2816 
C 736 2816 390 1980 390 1839 
C 390 1814 416 1782 461 1782 
C 512 1782 525 1820 538 1846 
C 755 2555 1184 2689 1370 2689 
C 1658 2689 1715 2420 1715 2267 
C 1715 2127 1677 1980 1600 1673 
L 1382 798 
C 1286 415 1101 64 762 64 
C 730 64 570 64 435 147 
C 666 192 717 383 717 460 
C 717 588 621 664 499 664 
C 346 664 179 530 179 326 
C 179 57 480 -64 755 -64 
C 1062 -64 1280 179 1414 441 
C 1517 64 1837 -64 2074 -64 
C 2726 -64 3072 773 3072 913 
C 3072 945 3046 971 3008 971 
C 2950 971 2944 939 2925 888 
C 2752 326 2381 64 2093 64 
C 1869 64 1747 230 1747 492 
C 1747 632 1773 734 1875 1156 
L 2099 2024 
C 2195 2408 2413 2689 2707 2689 
C 2720 2689 2899 2689 3034 2606 
z
" transform="scale(0.015625)"/>
     </defs>
     <use xlink:href="#CMR17-7e" transform="translate(7.581509 0.006461) scale(0.996264)"/>
     <use xlink:href="#CMMI12-78" transform="scale(0.996264)"/>
     <use xlink:href="#CMR17-30" transform="translate(55.43406 -14.943915) scale(0.697382)"/>
    </g>
   </g>
  </g>
  <g id="axes_2">
   <g id="patch_7">
    <path d="M 157.764706 114.52 
L 256.235294 114.52 
L 256.235294 31.36 
L 157.764706 31.36 
L 157.764706 114.52 
z
" style="fill: none"/>
   </g>
   <g id="matplotlib.axis_3">
    <g id="xtick_4">
     <g id="line2d_9">
      <g>
       <use xlink:href="#mcb2a15a5f9" x="157.764706" y="114.52" style="fill: #ffffff; stroke: #ffffff; stroke-width: 0.8"/>
      </g>
     </g>
     <g id="text_8">
      <!-- $\mathdefault{0}$ -->
      <g style="fill: #ffffff" transform="translate(155.274038 128.438498) scale(0.1 -0.1)">
       <use xlink:href="#CMR17-30" transform="scale(0.996264)"/>
      </g>
     </g>
    </g>
    <g id="xtick_5">
     <g id="line2d_10">
      <g>
       <use xlink:href="#mcb2a15a5f9" x="204.655454" y="114.52" style="fill: #ffffff; stroke: #ffffff; stroke-width: 0.8"/>
      </g>
     </g>
     <g id="text_9">
      <!-- $\mathdefault{5}$ -->
      <g style="fill: #ffffff" transform="translate(202.164786 128.438498) scale(0.1 -0.1)">
       <use xlink:href="#CMR17-35" transform="scale(0.996264)"/>
      </g>
     </g>
    </g>
    <g id="xtick_6">
     <g id="line2d_11">
      <g>
       <use xlink:href="#mcb2a15a5f9" x="251.546201" y="114.52" style="fill: #ffffff; stroke: #ffffff; stroke-width: 0.8"/>
      </g>
     </g>
     <g id="text_10">
      <!-- $\mathdefault{10}$ -->
      <g style="fill: #ffffff" transform="translate(246.564866 128.438498) scale(0.1 -0.1)">
       <use xlink:href="#CMR17-31" transform="scale(0.996264)"/>
       <use xlink:href="#CMR17-30" transform="translate(45.690477 0) scale(0.996264)"/>
      </g>
     </g>
    </g>
   </g>
   <g id="matplotlib.axis_4">
    <g id="ytick_4">
     <g id="line2d_12">
      <g>
       <use xlink:href="#m0a1b98e504" x="157.764706" y="102.758703" style="fill: #ffffff; stroke: #ffffff; stroke-width: 0.8"/>
      </g>
     </g>
    </g>
    <g id="ytick_5">
     <g id="line2d_13">
      <g>
       <use xlink:href="#m0a1b98e504" x="157.764706" y="73.352801" style="fill: #ffffff; stroke: #ffffff; stroke-width: 0.8"/>
      </g>
     </g>
    </g>
    <g id="ytick_6">
     <g id="line2d_14">
      <g>
       <use xlink:href="#m0a1b98e504" x="157.764706" y="43.946899" style="fill: #ffffff; stroke: #ffffff; stroke-width: 0.8"/>
      </g>
     </g>
    </g>
   </g>
   <g id="line2d_15">
    <path d="M 157.764706 64.957605 
L 158.139805 66.865364 
L 158.327354 64.000311 
L 158.514993 63.418946 
L 158.702542 61.792267 
L 158.890092 67.191494 
L 159.077641 63.296951 
L 159.26519 66.62278 
L 159.45274 64.876807 
L 159.640379 61.179625 
L 159.827928 65.597673 
L 160.203027 62.476971 
L 160.390576 65.432288 
L 160.578126 62.428072 
L 160.765675 62.592759 
L 160.953314 65.009768 
L 161.140863 65.850442 
L 161.328413 64.614705 
L 161.703512 67.65758 
L 161.891061 67.148427 
L 162.07861 63.677311 
L 162.266249 67.022944 
L 162.453799 65.789006 
L 162.641348 67.207489 
L 162.828897 66.714769 
L 163.016447 65.546466 
L 163.203996 67.874768 
L 163.391635 65.007443 
L 163.579184 65.491181 
L 163.766734 71.192152 
L 164.141833 66.709879 
L 164.329382 71.578897 
L 164.516931 71.817982 
L 164.70457 70.070052 
L 164.89212 72.865023 
L 165.079669 72.63785 
L 165.267218 69.592109 
L 165.454768 71.945198 
L 165.642317 71.502204 
L 165.829956 75.209145 
L 166.017505 73.364432 
L 166.392604 75.200027 
L 166.580154 75.410378 
L 166.767703 75.870553 
L 166.955252 75.380285 
L 167.142891 79.103308 
L 167.330441 76.70956 
L 167.51799 80.095268 
L 167.705539 75.770494 
L 167.893089 77.556674 
L 168.080638 77.521285 
L 168.268277 77.937945 
L 168.455826 79.325292 
L 168.643376 78.920478 
L 168.830925 80.038183 
L 169.018475 82.707688 
L 169.206024 81.348367 
L 169.393573 81.466628 
L 169.581212 82.450535 
L 169.768762 79.517883 
L 170.14386 79.909239 
L 170.33141 81.889047 
L 170.518959 81.739036 
L 170.706509 84.127672 
L 170.894147 81.582222 
L 171.081697 83.033482 
L 171.269246 83.387755 
L 171.456796 82.199403 
L 171.644345 84.171763 
L 171.831894 83.858366 
L 172.207083 82.79464 
L 172.394632 82.777072 
L 172.582181 84.032245 
L 172.769731 83.498597 
L 172.95728 81.340139 
L 173.14483 83.941002 
L 173.332468 84.126392 
L 173.707567 81.24501 
L 173.895117 82.245157 
L 174.082666 81.429848 
L 174.270215 81.235879 
L 174.457854 82.472056 
L 174.645404 80.043719 
L 175.020502 80.916425 
L 175.395601 80.043378 
L 175.77079 81.767756 
L 175.958339 77.220627 
L 176.145888 76.980264 
L 176.333438 78.412295 
L 176.520987 78.655896 
L 176.708537 76.710258 
L 176.896175 77.353714 
L 177.083725 75.371948 
L 177.271274 76.878992 
L 177.646373 74.63593 
L 177.833922 74.910532 
L 178.021472 74.155349 
L 178.209111 74.378979 
L 178.39666 72.900538 
L 178.584209 73.508346 
L 178.959308 69.958675 
L 179.146858 70.342225 
L 179.334407 75.612521 
L 179.522046 71.153063 
L 179.709595 72.637911 
L 179.897145 70.462593 
L 180.084694 69.834183 
L 180.459793 66.411912 
L 180.647432 67.95619 
L 180.834981 67.345495 
L 181.02253 69.520274 
L 181.21008 64.930233 
L 181.397629 67.331869 
L 181.585179 67.435978 
L 181.772728 65.868673 
L 181.960367 67.407984 
L 182.147916 63.577546 
L 182.335466 65.217035 
L 182.523015 64.044613 
L 182.898114 64.418511 
L 183.085753 63.73969 
L 183.273302 66.045506 
L 183.460851 65.791672 
L 183.83595 64.619686 
L 184.0235 65.018726 
L 184.211049 63.002202 
L 184.398688 65.429107 
L 184.586237 64.111605 
L 184.773787 64.446611 
L 184.961336 63.420521 
L 185.148885 64.793956 
L 185.336435 64.512922 
L 185.523984 62.112953 
L 185.899172 66.167366 
L 186.274271 67.304664 
L 186.461821 62.941173 
L 186.64937 65.229606 
L 186.837009 63.359781 
L 187.024558 63.083834 
L 187.587206 66.867623 
L 187.774756 67.132872 
L 187.962305 68.088482 
L 188.149944 66.78843 
L 188.337493 67.051189 
L 188.525043 68.480765 
L 188.712592 66.169223 
L 189.087691 70.916687 
L 189.27533 71.37339 
L 189.462879 70.073626 
L 189.650429 69.591205 
L 190.025527 73.163922 
L 190.213077 73.232631 
L 190.400626 74.520835 
L 190.588265 71.6414 
L 190.963364 75.130659 
L 191.150913 76.125053 
L 191.338463 73.666817 
L 191.526012 73.331648 
L 191.713651 76.000049 
L 191.9012 75.328252 
L 192.276299 77.003979 
L 192.463849 79.648945 
L 192.651398 78.114622 
L 192.838947 79.639719 
L 193.026586 76.050707 
L 193.214136 79.981379 
L 193.401685 78.118605 
L 193.589234 80.754981 
L 193.776784 80.699353 
L 193.964333 81.436932 
L 194.151883 80.975401 
L 194.339521 79.575245 
L 194.71462 83.80589 
L 194.90217 81.396993 
L 195.089719 83.827392 
L 195.277268 81.107441 
L 195.464907 83.630948 
L 195.652457 84.040242 
L 195.840006 79.910208 
L 196.027555 83.441187 
L 196.215105 81.896692 
L 196.402654 84.528337 
L 196.590204 80.931197 
L 196.777842 83.70992 
L 196.965392 79.621012 
L 197.340491 83.598375 
L 197.52804 82.776326 
L 197.715589 83.898559 
L 197.903228 83.285041 
L 198.090778 82.232472 
L 198.278327 80.114034 
L 198.465876 81.683325 
L 198.653426 80.917918 
L 198.840975 82.295843 
L 199.028525 81.188767 
L 199.216163 80.965424 
L 199.403713 80.997632 
L 199.591262 81.917556 
L 199.778812 80.049844 
L 199.966361 80.686855 
L 200.15391 80.872664 
L 200.529099 78.639045 
L 200.904197 80.908287 
L 201.091747 78.785565 
L 201.466846 77.891727 
L 201.654484 74.778619 
L 201.842034 76.703803 
L 202.029583 75.834723 
L 202.217133 74.216859 
L 202.404682 75.71513 
L 202.592231 75.137398 
L 202.779781 73.562972 
L 202.96742 74.188146 
L 203.154969 72.689782 
L 203.342518 72.086789 
L 203.530068 71.931871 
L 203.717617 67.929298 
L 203.905167 71.263544 
L 204.092805 68.315489 
L 204.280355 69.998068 
L 204.467904 70.488493 
L 204.655454 71.710734 
L 205.030552 67.184503 
L 205.218102 68.637938 
L 205.405741 67.995662 
L 205.59329 67.849095 
L 205.780839 66.921924 
L 206.155938 66.331957 
L 206.343488 65.488591 
L 206.531127 67.921846 
L 206.718676 68.393949 
L 206.906225 64.95786 
L 207.093775 67.094122 
L 207.281324 62.67321 
L 207.656423 66.642819 
L 207.844062 65.862181 
L 208.031611 62.627134 
L 208.219161 62.171447 
L 208.40671 62.996808 
L 208.594259 62.704659 
L 208.969358 63.673817 
L 209.156997 63.734544 
L 209.344546 64.577817 
L 209.532096 61.507914 
L 209.719645 63.267673 
L 209.907195 63.241967 
L 210.094744 62.704551 
L 210.469932 66.732485 
L 210.657482 65.507874 
L 210.845031 67.56337 
L 211.03258 63.040757 
L 211.22013 65.491674 
L 211.407679 65.479217 
L 211.595318 62.856263 
L 211.782867 64.824754 
L 211.970417 63.606285 
L 212.157966 67.392831 
L 212.345516 65.677818 
L 212.720704 68.355639 
L 212.908253 67.261389 
L 213.095803 69.825704 
L 213.470901 67.71603 
L 213.846 71.324323 
L 214.033639 71.055993 
L 214.221188 71.897317 
L 214.596287 68.209737 
L 214.783837 71.563509 
L 214.971386 71.746396 
L 215.159025 73.292896 
L 215.346574 72.146598 
L 215.534124 74.464209 
L 215.721673 72.508453 
L 215.909222 73.664636 
L 216.096772 73.684129 
L 216.659509 75.879028 
L 217.034608 80.89614 
L 217.222158 76.216253 
L 217.409707 78.125512 
L 217.784895 78.787417 
L 217.972445 78.602634 
L 218.159994 77.359799 
L 218.347543 77.673295 
L 218.535093 81.380693 
L 218.722642 78.741556 
L 218.910281 82.661101 
L 219.09783 80.938581 
L 219.28538 81.600238 
L 219.472929 81.314249 
L 219.660479 82.897141 
L 219.848028 81.235199 
L 220.035577 82.328686 
L 220.223216 80.403529 
L 220.410766 84.587511 
L 220.598315 84.477954 
L 220.785864 83.105161 
L 220.973414 85.294631 
L 221.536151 81.241559 
L 221.723701 81.002801 
L 221.91125 83.551814 
L 222.0988 81.930781 
L 222.286349 83.76885 
L 222.473898 82.83861 
L 222.661537 78.932122 
L 222.849087 81.437671 
L 223.036636 81.904874 
L 223.224185 82.0287 
L 223.411735 81.510507 
L 223.599284 84.664962 
L 223.786923 83.262657 
L 223.974473 79.502222 
L 224.162022 79.848302 
L 224.537121 78.879559 
L 224.72467 78.744676 
L 224.91222 79.349889 
L 225.099858 77.813245 
L 225.287408 80.33944 
L 225.474957 78.751976 
L 225.662507 80.003432 
L 225.850056 77.760106 
L 226.037605 78.13277 
L 226.225155 75.723444 
L 226.412794 76.848735 
L 226.600343 74.964859 
L 226.787892 74.350617 
L 226.975442 74.541432 
L 227.162991 72.269573 
L 227.350541 74.440826 
L 227.725729 73.559229 
L 227.913278 74.479093 
L 228.100828 72.349643 
L 228.288377 71.988912 
L 228.475926 71.970124 
L 228.663476 71.289446 
L 228.851115 72.113278 
L 229.038664 69.316298 
L 229.226213 69.915794 
L 229.601312 66.28706 
L 229.9765 69.132504 
L 230.16405 69.429387 
L 230.351599 69.155205 
L 230.539149 66.332609 
L 230.726698 67.733414 
L 230.914247 68.112966 
L 231.101797 67.414758 
L 231.289436 64.420703 
L 231.476985 65.200054 
L 231.664534 65.455734 
L 232.039633 65.41222 
L 232.227183 65.808881 
L 232.414732 63.339658 
L 232.602371 64.653721 
L 232.78992 64.001272 
L 232.97747 65.926538 
L 233.352568 62.952376 
L 233.540118 63.586263 
L 233.727757 63.073997 
L 233.915306 65.414874 
L 234.102855 62.34468 
L 234.477954 64.047181 
L 234.665504 62.41197 
L 234.853053 67.756228 
L 235.228241 64.116555 
L 235.415791 64.542049 
L 235.790889 67.044306 
L 235.978439 67.981087 
L 236.166078 65.601535 
L 236.353627 65.619132 
L 236.541176 64.238801 
L 236.916275 68.162071 
L 237.103825 68.853602 
L 237.479013 67.483324 
L 237.666562 67.822871 
L 237.854112 67.72615 
L 238.22921 71.366436 
L 238.41676 68.485549 
L 238.604399 68.247269 
L 238.791948 68.652123 
L 238.979498 71.056521 
L 239.167047 67.786269 
L 239.354596 73.214432 
L 239.542146 72.837737 
L 239.729695 73.07843 
L 239.917334 73.858863 
L 240.104883 72.614164 
L 240.292433 74.919106 
L 240.479982 74.162763 
L 240.667532 74.922459 
L 240.855081 75.09752 
L 241.04263 77.019446 
L 241.230269 77.742745 
L 241.417819 80.067723 
L 241.792917 75.74569 
L 242.168016 78.806929 
L 242.355655 76.928944 
L 242.543204 78.297566 
L 242.730754 81.141961 
L 242.918303 80.915521 
L 243.105853 79.282139 
L 243.293402 79.342094 
L 243.480951 78.128169 
L 243.66859 82.365038 
L 243.85614 80.726194 
L 244.043689 83.859485 
L 244.231238 81.578736 
L 244.418788 81.49854 
L 244.606337 83.060999 
L 244.793976 81.53818 
L 244.981525 83.563666 
L 245.356624 81.392455 
L 245.544174 83.459439 
L 245.731723 83.501956 
L 245.919272 83.747547 
L 246.294461 80.162454 
L 246.48201 83.237427 
L 246.857109 81.250908 
L 247.044658 82.778625 
L 247.419846 83.213164 
L 247.794945 81.115269 
L 247.982495 83.505185 
L 248.170044 81.990862 
L 248.357593 81.945533 
L 248.732782 79.79695 
L 248.920331 80.886762 
L 249.10788 79.441984 
L 249.29543 80.056766 
L 249.482979 78.52927 
L 249.670529 80.640187 
L 249.858167 81.064066 
L 250.045717 77.748512 
L 250.420816 78.482466 
L 250.608365 80.155816 
L 250.795914 74.889048 
L 251.171103 77.632177 
L 251.358652 75.154736 
L 251.546201 76.965711 
L 251.733751 74.286655 
L 251.9213 77.279812 
L 252.296488 74.071208 
L 252.484038 72.968454 
L 252.671587 74.521121 
L 253.046686 72.318038 
L 253.421874 70.932527 
L 253.609424 72.757635 
L 253.984522 68.663033 
L 254.172072 68.847429 
L 254.547171 71.362365 
L 254.73481 67.562663 
L 254.922359 67.867759 
L 255.109908 66.637199 
L 255.485007 67.240747 
L 255.672556 67.34232 
L 255.860106 65.661364 
L 256.047745 66.901862 
L 256.235294 65.838294 
L 256.235294 65.838294 
" clip-path="url(#p4be6f93855)" style="fill: none; stroke: #8dd3c7; stroke-width: 1.5; stroke-linecap: square"/>
   </g>
   <g id="line2d_16">
    <path d="M 157.764706 64.957602 
L 158.702542 63.747956 
L 159.45274 63.120494 
L 160.015478 62.868026 
L 160.578126 62.811945 
L 161.140863 62.956717 
L 161.703512 63.302844 
L 162.453799 64.070714 
L 163.203996 65.1695 
L 164.141833 66.956667 
L 165.454768 70.060155 
L 169.768762 80.942017 
L 170.706509 82.526031 
L 171.456796 83.411622 
L 172.207083 83.919481 
L 172.769731 84.040158 
L 173.332468 83.93477 
L 173.895117 83.606212 
L 174.645404 82.835559 
L 175.395601 81.71547 
L 176.333438 79.896045 
L 177.646373 76.781234 
L 181.21008 67.926864 
L 182.335466 65.902179 
L 183.085753 64.926244 
L 183.83595 64.286694 
L 184.398688 64.038224 
L 184.961336 63.990308 
L 185.523984 64.140396 
L 186.086722 64.481805 
L 186.837009 65.215924 
L 187.774756 66.531728 
L 188.900142 68.577813 
L 190.588265 72.223236 
L 193.026586 77.509896 
L 194.339521 79.806595 
L 195.277268 81.046208 
L 196.027555 81.752715 
L 196.777842 82.184018 
L 197.52804 82.32862 
L 198.278327 82.183076 
L 199.028525 81.75188 
L 199.778812 81.047264 
L 200.716648 79.812624 
L 201.842034 77.885169 
L 203.342518 74.765375 
L 207.093775 66.608832 
L 208.219161 64.792753 
L 209.156997 63.719272 
L 209.907195 63.200628 
L 210.469932 63.027881 
L 211.03258 63.04859 
L 211.595318 63.266049 
L 212.345516 63.860362 
L 213.095803 64.790031 
L 214.033639 66.383187 
L 215.159025 68.82074 
L 216.847059 73.150673 
L 219.09783 78.931995 
L 220.223216 81.269974 
L 221.160963 82.725779 
L 221.91125 83.501439 
L 222.473898 83.835137 
L 223.036636 83.947812 
L 223.599284 83.837391 
L 224.162022 83.506963 
L 224.91222 82.739006 
L 225.662507 81.627769 
L 226.600343 79.828198 
L 227.913278 76.75701 
L 231.289436 68.469532 
L 232.414732 66.40668 
L 233.352568 65.184437 
L 234.102855 64.576466 
L 234.665504 64.346988 
L 235.228241 64.313266 
L 235.790889 64.472128 
L 236.541176 64.970528 
L 237.291374 65.770871 
L 238.22921 67.138286 
L 239.354596 69.196324 
L 241.417819 73.570412 
L 243.293402 77.401409 
L 244.418788 79.296698 
L 245.356624 80.526752 
L 246.294461 81.380396 
L 247.044658 81.767437 
L 247.794945 81.880194 
L 248.545232 81.716253 
L 249.29543 81.280574 
L 250.045717 80.585273 
L 250.983553 79.380604 
L 252.10885 77.512636 
L 253.609424 74.501746 
L 256.235294 68.811675 
L 256.235294 68.811675 
" clip-path="url(#p4be6f93855)" style="fill: none; stroke-dasharray: 5.55,2.4; stroke-dashoffset: 0; stroke: #fa8174; stroke-width: 1.5"/>
   </g>
   <g id="patch_8">
    <path d="M 157.764706 114.52 
L 157.764706 31.36 
" style="fill: none; stroke: #ffffff; stroke-width: 0.8; stroke-linejoin: miter; stroke-linecap: square"/>
   </g>
   <g id="patch_9">
    <path d="M 256.235294 114.52 
L 256.235294 31.36 
" style="fill: none; stroke: #ffffff; stroke-width: 0.8; stroke-linejoin: miter; stroke-linecap: square"/>
   </g>
   <g id="patch_10">
    <path d="M 157.764706 114.52 
L 256.235294 114.52 
" style="fill: none; stroke: #ffffff; stroke-width: 0.8; stroke-linejoin: miter; stroke-linecap: square"/>
   </g>
   <g id="patch_11">
    <path d="M 157.764706 31.36 
L 256.235294 31.36 
" style="fill: none; stroke: #ffffff; stroke-width: 0.8; stroke-linejoin: miter; stroke-linecap: square"/>
   </g>
   <g id="text_11">
    <!-- $\tilde{x}_2$ -->
    <g style="fill: #ffffff" transform="translate(167.142855 46.887489) scale(0.1 -0.1)">
     <defs>
      <path id="CMR17-32" d="M 2669 989 
L 2554 989 
C 2490 536 2438 459 2413 420 
C 2381 369 1920 369 1830 369 
L 602 369 
C 832 619 1280 1072 1824 1597 
C 2214 1967 2669 2402 2669 3035 
C 2669 3790 2067 4224 1395 4224 
C 691 4224 262 3604 262 3030 
C 262 2780 448 2748 525 2748 
C 589 2748 781 2787 781 3010 
C 781 3207 614 3264 525 3264 
C 486 3264 448 3258 422 3245 
C 544 3790 915 4058 1306 4058 
C 1862 4058 2227 3617 2227 3035 
C 2227 2479 1901 2000 1536 1584 
L 262 146 
L 262 0 
L 2515 0 
L 2669 989 
z
" transform="scale(0.015625)"/>
     </defs>
     <use xlink:href="#CMR17-7e" transform="translate(7.581509 0.006461) scale(0.996264)"/>
     <use xlink:href="#CMMI12-78" transform="scale(0.996264)"/>
     <use xlink:href="#CMR17-32" transform="translate(55.43406 -14.943915) scale(0.697382)"/>
    </g>
   </g>
  </g>
  <g id="axes_3">
   <g id="patch_12">
    <path d="M 275.929412 114.52 
L 374.4 114.52 
L 374.4 31.36 
L 275.929412 31.36 
L 275.929412 114.52 
z
" style="fill: none"/>
   </g>
   <g id="matplotlib.axis_5">
    <g id="xtick_7">
     <g id="line2d_17">
      <g>
       <use xlink:href="#mcb2a15a5f9" x="275.929412" y="114.52" style="fill: #ffffff; stroke: #ffffff; stroke-width: 0.8"/>
      </g>
     </g>
     <g id="text_12">
      <!-- $\mathdefault{0}$ -->
      <g style="fill: #ffffff" transform="translate(273.438744 128.438498) scale(0.1 -0.1)">
       <use xlink:href="#CMR17-30" transform="scale(0.996264)"/>
      </g>
     </g>
    </g>
    <g id="xtick_8">
     <g id="line2d_18">
      <g>
       <use xlink:href="#mcb2a15a5f9" x="322.82016" y="114.52" style="fill: #ffffff; stroke: #ffffff; stroke-width: 0.8"/>
      </g>
     </g>
     <g id="text_13">
      <!-- $\mathdefault{5}$ -->
      <g style="fill: #ffffff" transform="translate(320.329492 128.438498) scale(0.1 -0.1)">
       <use xlink:href="#CMR17-35" transform="scale(0.996264)"/>
      </g>
     </g>
    </g>
    <g id="xtick_9">
     <g id="line2d_19">
      <g>
       <use xlink:href="#mcb2a15a5f9" x="369.710907" y="114.52" style="fill: #ffffff; stroke: #ffffff; stroke-width: 0.8"/>
      </g>
     </g>
     <g id="text_14">
      <!-- $\mathdefault{10}$ -->
      <g style="fill: #ffffff" transform="translate(364.729572 128.438498) scale(0.1 -0.1)">
       <use xlink:href="#CMR17-31" transform="scale(0.996264)"/>
       <use xlink:href="#CMR17-30" transform="translate(45.690477 0) scale(0.996264)"/>
      </g>
     </g>
    </g>
   </g>
   <g id="matplotlib.axis_6">
    <g id="ytick_7">
     <g id="line2d_20">
      <g>
       <use xlink:href="#m0a1b98e504" x="275.929412" y="102.758703" style="fill: #ffffff; stroke: #ffffff; stroke-width: 0.8"/>
      </g>
     </g>
    </g>
    <g id="ytick_8">
     <g id="line2d_21">
      <g>
       <use xlink:href="#m0a1b98e504" x="275.929412" y="73.352801" style="fill: #ffffff; stroke: #ffffff; stroke-width: 0.8"/>
      </g>
     </g>
    </g>
    <g id="ytick_9">
     <g id="line2d_22">
      <g>
       <use xlink:href="#m0a1b98e504" x="275.929412" y="43.946899" style="fill: #ffffff; stroke: #ffffff; stroke-width: 0.8"/>
      </g>
     </g>
    </g>
   </g>
   <g id="line2d_23">
    <path d="M 275.929412 74.279265 
L 276.116961 73.226982 
L 276.304511 73.551841 
L 276.49206 70.754853 
L 276.679699 71.996572 
L 276.867248 70.146132 
L 277.054798 70.849828 
L 277.242347 70.046417 
L 277.429896 70.169231 
L 277.617446 69.263786 
L 277.805085 69.256387 
L 277.992634 70.513243 
L 278.367733 68.431888 
L 278.555282 68.339738 
L 278.742832 68.682264 
L 278.930381 67.953555 
L 279.11802 68.491285 
L 279.305569 67.831991 
L 279.493119 69.134395 
L 279.680668 68.199551 
L 279.868217 68.109758 
L 280.055767 65.612416 
L 280.243316 67.608925 
L 280.430955 67.027667 
L 280.618504 67.597232 
L 280.806054 67.616084 
L 280.993603 67.850094 
L 281.181153 68.494133 
L 281.368702 68.644876 
L 281.556341 70.235676 
L 281.74389 68.21167 
L 282.118989 69.548858 
L 282.306538 69.180905 
L 282.494088 70.051753 
L 282.681637 69.889223 
L 282.869276 70.74603 
L 283.056825 72.316535 
L 283.244375 70.914694 
L 283.619474 73.024055 
L 283.807023 72.616809 
L 283.994662 72.835985 
L 284.182211 74.469376 
L 284.369761 73.950402 
L 284.55731 75.54706 
L 285.119958 76.8337 
L 285.307597 76.627014 
L 285.495146 76.709459 
L 285.682696 77.679715 
L 285.870245 77.295519 
L 286.057795 78.712981 
L 286.245344 78.157821 
L 286.432983 78.489794 
L 286.808082 77.735261 
L 286.995631 79.52457 
L 287.183181 79.40398 
L 287.558279 78.722725 
L 287.745918 78.624845 
L 287.933468 79.770405 
L 288.121017 79.146238 
L 288.308566 79.193323 
L 288.496116 79.421904 
L 288.683665 78.731945 
L 288.871215 78.802169 
L 289.058853 77.932598 
L 289.246403 78.290985 
L 289.433952 77.613309 
L 289.621502 79.584428 
L 289.809051 77.198586 
L 289.9966 77.775365 
L 290.371789 75.3435 
L 290.746887 77.67972 
L 290.934437 75.663677 
L 291.121986 75.767802 
L 291.309536 74.71848 
L 291.497174 74.565424 
L 291.872273 75.209171 
L 292.247372 74.165119 
L 292.434921 75.410366 
L 292.62256 72.965191 
L 292.997659 71.507405 
L 293.185208 71.631107 
L 293.560307 69.415961 
L 293.747857 70.789851 
L 293.935495 69.469374 
L 294.123045 69.546293 
L 294.498144 68.820515 
L 294.685693 68.314734 
L 294.873242 70.202891 
L 295.060881 68.226541 
L 295.248431 68.674505 
L 295.43598 66.599786 
L 295.811079 68.665752 
L 295.998628 66.321111 
L 296.186178 67.089691 
L 296.373816 65.90137 
L 296.748915 67.549695 
L 297.124014 67.030952 
L 297.311563 67.057068 
L 297.499113 66.357332 
L 297.686752 70.042469 
L 297.874301 68.116793 
L 298.06185 71.09004 
L 298.2494 70.273098 
L 298.436949 70.415811 
L 298.624499 69.044871 
L 298.999687 71.513623 
L 299.187236 70.739471 
L 299.374786 71.167707 
L 299.562335 72.875106 
L 299.749884 71.17528 
L 299.937434 71.101173 
L 300.312622 73.386898 
L 300.87527 73.06703 
L 301.06282 73.575606 
L 301.250458 75.742771 
L 301.438008 75.524347 
L 301.625557 76.287781 
L 301.813107 75.049059 
L 302.375755 77.928138 
L 302.563394 76.348494 
L 302.750943 76.50994 
L 302.938493 78.031325 
L 303.126042 76.703413 
L 303.68869 79.213376 
L 303.876329 79.121142 
L 304.063878 79.488829 
L 304.251428 80.4325 
L 304.438977 79.264438 
L 304.626527 80.136233 
L 305.001715 79.182253 
L 305.189264 80.430384 
L 305.376814 78.747014 
L 305.564363 80.738688 
L 305.751912 79.09528 
L 306.127011 78.023701 
L 306.31465 77.798005 
L 306.502199 78.322364 
L 306.877298 76.94095 
L 307.064848 77.717517 
L 307.252397 76.907058 
L 307.440036 77.374436 
L 307.627585 76.795384 
L 307.815135 77.316668 
L 308.002684 75.07434 
L 308.190233 74.593578 
L 308.377783 73.800749 
L 308.565332 73.674446 
L 308.752971 72.459962 
L 308.94052 73.916524 
L 309.315619 72.148773 
L 309.503169 72.854792 
L 309.690718 70.950981 
L 309.878357 71.283524 
L 310.065906 70.596944 
L 310.253456 69.483498 
L 310.441005 69.591595 
L 310.628554 68.429434 
L 310.816104 68.809644 
L 311.003653 71.412752 
L 311.191292 70.943989 
L 311.378841 68.716015 
L 311.566391 68.619278 
L 311.75394 67.934267 
L 311.94149 66.613007 
L 312.129039 66.238175 
L 312.316588 66.415472 
L 312.504227 67.228828 
L 312.691777 66.831017 
L 312.879326 67.409634 
L 313.066875 69.090131 
L 313.254425 66.578711 
L 313.441974 66.596941 
L 313.629613 69.134292 
L 313.817162 66.743994 
L 314.192261 68.429996 
L 314.56736 67.651772 
L 314.942548 70.139796 
L 315.130098 68.822728 
L 315.317647 68.890657 
L 315.505196 69.41907 
L 315.880295 70.794676 
L 316.255483 70.974362 
L 316.630582 72.326356 
L 316.818132 72.631153 
L 317.005681 72.15489 
L 317.568419 76.320701 
L 317.755968 74.314008 
L 317.943517 76.656801 
L 318.131067 76.800415 
L 318.318616 76.471044 
L 318.881354 78.200062 
L 319.068903 77.129814 
L 319.444002 78.962481 
L 319.631551 77.134148 
L 319.81919 79.300417 
L 320.00674 78.674233 
L 320.194289 79.318645 
L 320.381839 78.890943 
L 320.569388 80.057911 
L 320.756937 80.010569 
L 320.944487 79.236581 
L 321.132126 79.464465 
L 321.319675 78.802077 
L 321.507224 80.376449 
L 321.694774 80.119932 
L 321.882323 78.736751 
L 322.069873 79.002222 
L 322.257511 78.996413 
L 322.445061 79.572109 
L 322.63261 79.612348 
L 323.007709 77.389831 
L 323.195258 77.344414 
L 323.382808 76.67667 
L 323.570447 74.750441 
L 323.945545 76.720391 
L 324.133095 78.033705 
L 324.508194 75.420262 
L 324.695832 75.651508 
L 324.883382 72.89868 
L 325.070931 72.706994 
L 325.258481 72.863353 
L 325.44603 74.172525 
L 325.633579 72.306548 
L 325.821129 72.083647 
L 326.008768 71.66925 
L 326.196317 70.133829 
L 326.383866 69.949016 
L 326.571416 71.318848 
L 326.758965 70.007112 
L 326.946515 69.707359 
L 327.134064 70.294511 
L 327.321703 68.7132 
L 327.509252 69.039621 
L 327.696802 70.535621 
L 327.884351 68.883193 
L 328.0719 68.224485 
L 328.25945 68.467773 
L 328.447089 66.86787 
L 328.634638 69.157212 
L 328.822187 66.353117 
L 329.197286 68.306452 
L 329.384836 66.204758 
L 329.760024 67.530808 
L 329.947573 67.666314 
L 330.135123 68.034878 
L 330.322672 67.595799 
L 330.510221 68.267332 
L 330.697771 67.791897 
L 330.88541 69.289353 
L 331.072959 69.619582 
L 331.260508 68.883761 
L 331.448058 69.538576 
L 331.635607 69.717122 
L 331.823157 71.20642 
L 332.010706 68.246941 
L 332.198345 70.687979 
L 332.385894 70.892389 
L 332.573444 70.544231 
L 332.760993 73.059918 
L 332.948542 71.123627 
L 333.323731 74.509422 
L 333.51128 73.669208 
L 333.698829 71.931651 
L 333.886379 73.186318 
L 334.073928 73.372081 
L 334.261478 74.451397 
L 334.449027 74.271344 
L 334.636666 77.502056 
L 334.824215 76.457368 
L 335.011765 76.64961 
L 335.199314 76.158355 
L 335.386863 76.886265 
L 335.574413 76.667116 
L 335.761962 78.836747 
L 335.949601 78.914137 
L 336.3247 79.749992 
L 336.512249 79.678807 
L 336.887348 79.13333 
L 337.074987 79.366422 
L 337.262536 77.698292 
L 337.450086 79.503868 
L 337.637635 79.293642 
L 337.825185 79.715851 
L 338.012734 79.578179 
L 338.200283 78.157176 
L 338.387922 79.094679 
L 338.575472 78.43838 
L 338.763021 79.855271 
L 338.95057 78.459728 
L 339.13812 78.589766 
L 339.325669 77.483536 
L 339.513308 78.360786 
L 339.700857 78.294748 
L 339.888407 77.820267 
L 340.075956 75.981262 
L 340.263506 76.675675 
L 340.451055 75.072185 
L 340.826243 77.668177 
L 341.013793 74.822104 
L 341.201342 75.246233 
L 341.388891 74.721689 
L 341.76399 72.426871 
L 341.951629 73.408562 
L 342.139178 71.188688 
L 342.326728 70.687447 
L 342.514277 71.46343 
L 342.889376 71.386032 
L 343.076925 70.29475 
L 343.264564 70.92635 
L 343.452114 68.298264 
L 343.639663 68.522916 
L 343.827212 67.158256 
L 344.014762 68.870341 
L 344.202311 69.230126 
L 344.389861 70.305281 
L 344.577499 66.899807 
L 344.952598 67.675458 
L 345.140148 65.738399 
L 345.327697 68.129061 
L 345.515246 67.637603 
L 345.702885 67.981872 
L 345.890435 66.867096 
L 346.077984 67.728189 
L 346.265533 67.829488 
L 346.453083 67.757802 
L 346.640632 66.080175 
L 346.828182 68.158819 
L 347.01582 66.934282 
L 347.390919 68.865435 
L 347.578469 69.174556 
L 347.766018 67.342867 
L 347.953567 69.219565 
L 348.141206 68.251607 
L 348.703854 71.034682 
L 348.891404 71.48053 
L 349.078953 73.577262 
L 349.266503 71.721883 
L 349.454141 71.202118 
L 349.82924 72.801382 
L 350.01679 74.335179 
L 350.204339 74.61888 
L 350.391888 73.155869 
L 350.579438 74.10133 
L 350.767077 75.991705 
L 350.954626 74.548303 
L 351.142176 76.391144 
L 351.329725 77.05738 
L 351.517274 75.893201 
L 351.892463 77.810051 
L 352.080012 77.611443 
L 352.267561 78.632613 
L 352.455111 77.842813 
L 352.64266 79.38631 
L 352.83021 77.953432 
L 353.017759 79.677062 
L 353.205398 78.260521 
L 353.392947 79.164971 
L 353.580497 81.239395 
L 353.768046 79.165546 
L 353.955595 78.645213 
L 354.330784 81.239269 
L 354.705882 78.362253 
L 354.893432 79.413673 
L 355.080981 78.752525 
L 355.268531 79.539076 
L 355.45608 78.181385 
L 355.643719 79.305812 
L 355.831268 78.731054 
L 356.018818 78.978643 
L 356.206367 77.169249 
L 356.393916 76.997675 
L 356.769105 76.125409 
L 356.956654 75.833632 
L 357.144203 75.16914 
L 357.331753 75.49613 
L 357.519302 76.539786 
L 357.706852 76.131503 
L 357.894401 74.064277 
L 358.08204 74.06816 
L 358.269589 74.613118 
L 358.457139 71.690375 
L 358.644688 73.291333 
L 358.832237 70.321019 
L 359.019787 70.53774 
L 359.207336 70.998311 
L 359.394975 70.525651 
L 359.770074 71.220576 
L 360.145173 68.313033 
L 360.332722 69.291629 
L 360.520361 67.196832 
L 360.70791 68.130981 
L 360.89546 66.352878 
L 361.083009 68.422135 
L 361.270558 69.03733 
L 361.458108 67.853371 
L 361.645657 68.024118 
L 361.833296 65.22886 
L 362.020845 67.430584 
L 362.395944 65.768808 
L 362.583494 68.036482 
L 362.771043 66.55887 
L 362.958682 67.426513 
L 363.146231 67.427468 
L 363.333781 66.879203 
L 363.52133 67.419839 
L 363.708879 69.437753 
L 363.896429 68.475152 
L 364.271617 68.830543 
L 364.459166 70.152323 
L 364.834265 71.278417 
L 365.021815 71.074525 
L 365.209364 71.205278 
L 365.397003 69.25012 
L 365.959651 73.736017 
L 366.1472 72.090058 
L 366.522299 74.537063 
L 366.709938 74.599733 
L 366.897488 75.117906 
L 367.085037 74.012694 
L 367.460136 77.392221 
L 367.835234 75.54891 
L 368.022873 75.976211 
L 368.210423 76.913621 
L 368.585522 77.083625 
L 368.773071 78.5399 
L 368.96062 77.800092 
L 369.148259 79.087722 
L 369.335809 78.891528 
L 369.523358 79.53194 
L 369.710907 79.688151 
L 369.898457 80.269903 
L 370.086006 80.089364 
L 370.273556 80.218549 
L 370.461194 80.07846 
L 370.648744 78.389256 
L 370.836293 78.90452 
L 371.023843 78.554326 
L 371.211392 79.525642 
L 371.398941 79.235109 
L 371.58658 78.167362 
L 371.77413 78.157438 
L 371.961679 79.168446 
L 372.149228 76.955564 
L 372.524327 78.398704 
L 372.899515 76.657673 
L 373.087065 76.898746 
L 373.274614 75.066974 
L 373.462164 76.214265 
L 373.837262 73.872229 
L 374.024812 75.231433 
L 374.212451 74.134058 
L 374.4 74.029097 
L 374.4 74.029097 
" clip-path="url(#p0b2a13e3d2)" style="fill: none; stroke: #8dd3c7; stroke-width: 1.5; stroke-linecap: square"/>
   </g>
   <g id="line2d_24">
    <path d="M 275.929412 74.27927 
L 277.805085 70.020285 
L 278.742832 68.424241 
L 279.493119 67.592495 
L 280.055767 67.272117 
L 280.618504 67.227212 
L 281.181153 67.458363 
L 281.74389 67.953853 
L 282.494088 68.983566 
L 283.431924 70.739675 
L 286.995631 78.040228 
L 287.745918 78.861465 
L 288.308566 79.182014 
L 288.871215 79.232017 
L 289.433952 79.009025 
L 289.9966 78.522906 
L 290.746887 77.504635 
L 291.684724 75.756447 
L 293.747857 71.140005 
L 294.873242 68.958703 
L 295.623529 67.906344 
L 296.186178 67.393119 
L 296.748915 67.144342 
L 297.311563 67.172343 
L 297.874301 67.477058 
L 298.436949 68.045997 
L 299.187236 69.17186 
L 300.125073 71.041635 
L 303.501141 78.331662 
L 304.251428 79.26384 
L 304.814076 79.661544 
L 305.376814 79.778751 
L 305.939462 79.608917 
L 306.502199 79.158234 
L 307.252397 78.154453 
L 308.190233 76.365189 
L 309.690718 72.798535 
L 311.191292 69.337229 
L 312.129039 67.713011 
L 312.879326 66.886379 
L 313.441974 66.589067 
L 314.004712 66.585322 
L 314.56736 66.876563 
L 315.130098 67.451272 
L 315.880295 68.61538 
L 316.818132 70.5808 
L 318.881354 75.735429 
L 320.00674 78.192948 
L 320.756937 79.404286 
L 321.319675 80.018612 
L 321.882323 80.350394 
L 322.445061 80.385592 
L 323.007709 80.123146 
L 323.570447 79.575019 
L 324.320644 78.44374 
L 325.258481 76.516638 
L 327.134064 71.893947 
L 328.25945 69.379627 
L 329.009737 68.090393 
L 329.760024 67.229693 
L 330.322672 66.90568 
L 330.88541 66.872825 
L 331.448058 67.131131 
L 332.010706 67.667633 
L 332.760993 68.77029 
L 333.698829 70.638478 
L 337.074987 78.050833 
L 337.825185 79.013838 
L 338.387922 79.432332 
L 338.95057 79.568115 
L 339.513308 79.414822 
L 340.075956 78.979122 
L 340.638604 78.28043 
L 341.388891 76.995371 
L 342.514277 74.528662 
L 344.952598 68.97909 
L 345.702885 67.777811 
L 346.453083 67.009599 
L 347.01582 66.757474 
L 347.578469 66.798202 
L 348.141206 67.131224 
L 348.703854 67.742879 
L 349.454141 68.944894 
L 350.391888 70.932337 
L 353.768046 78.635542 
L 354.518333 79.613612 
L 355.080981 80.028092 
L 355.643719 80.146192 
L 356.206367 79.961454 
L 356.769105 79.480849 
L 357.331753 78.724514 
L 358.08204 77.344839 
L 359.207336 74.706475 
L 361.645657 68.747726 
L 362.395944 67.437697 
L 363.146231 66.580571 
L 363.708879 66.278268 
L 364.271617 66.285214 
L 364.834265 66.602383 
L 365.397003 67.217116 
L 366.1472 68.453358 
L 367.085037 70.530789 
L 370.648744 79.198962 
L 371.398941 80.224513 
L 371.961679 80.658005 
L 372.524327 80.781872 
L 373.087065 80.591026 
L 373.649713 80.094168 
L 374.212451 79.313388 
L 374.4 78.99567 
L 374.4 78.99567 
" clip-path="url(#p0b2a13e3d2)" style="fill: none; stroke-dasharray: 5.55,2.4; stroke-dashoffset: 0; stroke: #fa8174; stroke-width: 1.5"/>
   </g>
   <g id="patch_13">
    <path d="M 275.929412 114.52 
L 275.929412 31.36 
" style="fill: none; stroke: #ffffff; stroke-width: 0.8; stroke-linejoin: miter; stroke-linecap: square"/>
   </g>
   <g id="patch_14">
    <path d="M 374.4 114.52 
L 374.4 31.36 
" style="fill: none; stroke: #ffffff; stroke-width: 0.8; stroke-linejoin: miter; stroke-linecap: square"/>
   </g>
   <g id="patch_15">
    <path d="M 275.929412 114.52 
L 374.4 114.52 
" style="fill: none; stroke: #ffffff; stroke-width: 0.8; stroke-linejoin: miter; stroke-linecap: square"/>
   </g>
   <g id="patch_16">
    <path d="M 275.929412 31.36 
L 374.4 31.36 
" style="fill: none; stroke: #ffffff; stroke-width: 0.8; stroke-linejoin: miter; stroke-linecap: square"/>
   </g>
   <g id="text_15">
    <!-- $\tilde{x}_4$ -->
    <g style="fill: #ffffff" transform="translate(285.307561 46.887489) scale(0.1 -0.1)">
     <defs>
      <path id="CMR17-34" d="M 2150 4122 
C 2150 4256 2144 4256 2029 4256 
L 128 1254 
L 128 1088 
L 1779 1088 
L 1779 457 
C 1779 224 1766 160 1318 160 
L 1197 160 
L 1197 0 
C 1402 0 1747 0 1965 0 
C 2182 0 2528 0 2733 0 
L 2733 160 
L 2611 160 
C 2163 160 2150 224 2150 457 
L 2150 1088 
L 2803 1088 
L 2803 1254 
L 2150 1254 
L 2150 4122 
z
M 1798 3703 
L 1798 1254 
L 256 1254 
L 1798 3703 
z
" transform="scale(0.015625)"/>
     </defs>
     <use xlink:href="#CMR17-7e" transform="translate(7.581509 0.006461) scale(0.996264)"/>
     <use xlink:href="#CMMI12-78" transform="scale(0.996264)"/>
     <use xlink:href="#CMR17-34" transform="translate(55.43406 -14.943915) scale(0.697382)"/>
    </g>
   </g>
  </g>
  <g id="text_16">
   <!-- $\tilde{t}$ -->
   <g style="fill: #ffffff" transform="translate(198.592213 140.275404) scale(0.12 -0.12)">
    <defs>
     <path id="CMMI12-74" d="M 1286 2566 
L 1875 2566 
C 1997 2566 2061 2566 2061 2681 
C 2061 2752 2022 2752 1894 2752 
L 1331 2752 
L 1568 3692 
C 1594 3781 1594 3794 1594 3840 
C 1594 3943 1510 4000 1427 4000 
C 1376 4000 1229 3981 1178 3775 
L 928 2752 
L 326 2752 
C 198 2752 141 2752 141 2630 
C 141 2566 186 2566 307 2566 
L 877 2566 
L 454 881 
C 403 658 384 594 384 511 
C 384 211 595 -64 954 -64 
C 1600 -64 1946 868 1946 912 
C 1946 951 1920 970 1882 970 
C 1869 970 1843 970 1830 944 
C 1824 938 1818 931 1773 829 
C 1638 511 1344 64 973 64 
C 781 64 768 224 768 364 
C 768 370 768 492 787 568 
L 1286 2566 
z
" transform="scale(0.015625)"/>
    </defs>
    <use xlink:href="#CMR17-7e" transform="translate(2.89708 18.389976) scale(0.996264)"/>
    <use xlink:href="#CMMI12-74" transform="scale(0.996264)"/>
   </g>
  </g>
  <g id="text_17">
   <!-- $\tilde{x}_i$ -->
   <g style="fill: #ffffff" transform="translate(15.50218 77.167613) rotate(-90) scale(0.12 -0.12)">
    <defs>
     <path id="CMMI12-69" d="M 1811 913 
C 1811 945 1786 971 1747 971 
C 1690 971 1683 952 1651 843 
C 1485 262 1222 64 1011 64 
C 934 64 845 83 845 275 
C 845 447 922 639 992 830 
L 1440 2018 
C 1459 2069 1504 2184 1504 2305 
C 1504 2574 1312 2816 998 2816 
C 410 2816 173 1890 173 1839 
C 173 1814 198 1782 243 1782 
C 301 1782 307 1807 333 1896 
C 486 2428 730 2682 979 2682 
C 1037 2682 1146 2682 1146 2478 
C 1146 2312 1062 2101 1011 1961 
L 563 773 
C 525 671 486 568 486 453 
C 486 166 685 -64 992 -64 
C 1581 -64 1811 869 1811 913 
z
M 1760 4013 
C 1760 4109 1683 4224 1542 4224 
C 1395 4224 1229 4083 1229 3917 
C 1229 3758 1363 3707 1440 3707 
C 1613 3707 1760 3873 1760 4013 
z
" transform="scale(0.015625)"/>
    </defs>
    <use xlink:href="#CMR17-7e" transform="translate(7.581509 0.006461) scale(0.996264)"/>
    <use xlink:href="#CMMI12-78" transform="scale(0.996264)"/>
    <use xlink:href="#CMMI12-69" transform="translate(55.43406 -14.943915) scale(0.697382)"/>
   </g>
  </g>
  <g id="legend_1">
   <g id="patch_17">
    <path d="M 137.703414 24.137178 
L 265.496586 24.137178 
Q 267.496586 24.137178 267.496586 22.137178 
L 267.496586 9.2 
Q 267.496586 7.2 265.496586 7.2 
L 137.703414 7.2 
Q 135.703414 7.2 135.703414 9.2 
L 135.703414 22.137178 
Q 135.703414 24.137178 137.703414 24.137178 
z
" style="opacity: 0.8; stroke: #cccccc; stroke-linejoin: miter"/>
   </g>
   <g id="line2d_25">
    <path d="M 139.703414 14.7 
L 149.703414 14.7 
L 159.703414 14.7 
" style="fill: none; stroke: #8dd3c7; stroke-width: 1.5; stroke-linecap: square"/>
   </g>
   <g id="text_18">
    <!-- data -->
    <g style="fill: #ffffff" transform="translate(167.703414 18.2) scale(0.1 -0.1)">
     <defs>
      <path id="CMSS17-64" d="M 2611 4416 
L 2138 4416 
L 2138 2438 
C 1939 2603 1613 2756 1254 2756 
C 672 2756 211 2131 211 1347 
C 211 562 666 -64 1235 -64 
C 1677 -64 1971 172 2125 306 
L 2125 -13 
L 2611 -13 
L 2611 4416 
z
M 2125 836 
C 2125 747 2125 653 1926 482 
C 1798 375 1645 325 1498 325 
C 1152 325 698 576 698 1340 
C 698 2134 1210 2368 1562 2368 
C 1798 2368 1990 2254 2125 2065 
L 2125 836 
z
" transform="scale(0.015625)"/>
      <path id="CMSS17-61" d="M 2406 1791 
C 2406 2392 1978 2808 1402 2808 
C 1120 2808 813 2757 461 2553 
L 499 2135 
C 659 2248 934 2432 1395 2432 
C 1722 2432 1920 2180 1920 1782 
L 1920 1536 
C 896 1536 256 1238 256 726 
C 256 461 416 -64 947 -64 
C 1043 -64 1562 -64 1933 217 
L 1933 -19 
L 2406 -19 
L 2406 1791 
z
M 1920 816 
C 1920 701 1920 548 1728 434 
C 1562 325 1350 325 1261 325 
C 941 325 723 511 723 744 
C 723 1211 1722 1211 1920 1211 
L 1920 816 
z
" transform="scale(0.015625)"/>
      <path id="CMSS17-74" d="M 1069 2368 
L 1901 2368 
L 1901 2737 
L 1069 2737 
L 1069 3520 
L 614 3520 
L 614 2737 
L 109 2737 
L 109 2368 
L 602 2368 
L 602 749 
C 602 384 685 -64 1107 -64 
C 1427 -64 1722 25 2003 172 
L 1901 548 
C 1747 414 1562 337 1363 337 
C 1082 337 1069 696 1069 856 
L 1069 2368 
z
" transform="scale(0.015625)"/>
     </defs>
     <use xlink:href="#CMSS17-64" transform="scale(0.996264)"/>
     <use xlink:href="#CMSS17-61" transform="translate(48.204943 0) scale(0.996264)"/>
     <use xlink:href="#CMSS17-74" transform="translate(93.126864 0) scale(0.996264)"/>
     <use xlink:href="#CMSS17-61" transform="translate(126.95843 0) scale(0.996264)"/>
    </g>
   </g>
   <g id="line2d_26">
    <path d="M 206.023644 14.7 
L 216.023644 14.7 
L 226.023644 14.7 
" style="fill: none; stroke-dasharray: 5.55,2.4; stroke-dashoffset: 0; stroke: #fa8174; stroke-width: 1.5"/>
   </g>
   <g id="text_19">
    <!-- CDMD -->
    <g style="fill: #ffffff" transform="translate(234.023644 18.2) scale(0.1 -0.1)">
     <defs>
      <path id="CMSS17-43" d="M 3501 714 
C 3072 427 2874 344 2355 344 
C 1459 344 934 1303 934 2179 
C 934 3112 1472 4032 2381 4032 
C 2790 4032 3059 3918 3386 3715 
L 3475 4217 
C 3168 4370 2778 4440 2387 4440 
C 1158 4440 397 3316 397 2179 
C 397 927 1299 -64 2323 -64 
C 2874 -64 3066 -19 3539 280 
L 3501 714 
z
" transform="scale(0.015625)"/>
      <path id="CMSS17-44" d="M 570 4416 
L 570 0 
L 2144 0 
C 3194 0 4000 980 4000 2170 
C 4000 3398 3194 4416 2144 4416 
L 570 4416 
z
M 1094 357 
L 1094 4059 
L 2003 4059 
C 2861 4059 3475 3277 3475 2170 
C 3475 1107 2867 357 2003 357 
L 1094 357 
z
" transform="scale(0.015625)"/>
      <path id="CMSS17-4d" d="M 3194 2371 
L 2886 1473 
C 2835 1307 2662 791 2624 587 
L 2618 587 
C 2598 715 2560 849 2458 1174 
C 2400 1365 2336 1562 2272 1741 
L 1325 4416 
L 576 4416 
L 576 0 
L 1075 0 
L 1075 3900 
L 1082 3900 
C 1082 3894 1139 3613 1530 2499 
L 2374 96 
L 2848 96 
L 3610 2231 
C 3661 2378 3821 2843 3891 3066 
C 3955 3257 4115 3728 4154 3913 
L 4160 3913 
L 4160 0 
L 4666 0 
L 4666 4416 
L 3923 4416 
L 3194 2371 
z
" transform="scale(0.015625)"/>
     </defs>
     <use xlink:href="#CMSS17-43" transform="scale(0.996264)"/>
     <use xlink:href="#CMSS17-44" transform="translate(59.855772 0) scale(0.996264)"/>
     <use xlink:href="#CMSS17-4d" transform="translate(127.398613 0) scale(0.996264)"/>
     <use xlink:href="#CMSS17-44" transform="translate(209.074643 0) scale(0.996264)"/>
    </g>
   </g>
  </g>
 </g>
 <defs>
  <clipPath id="pa62e982f7b">
   <rect x="39.6" y="31.36" width="98.470588" height="83.16"/>
  </clipPath>
  <clipPath id="p4be6f93855">
   <rect x="157.764706" y="31.36" width="98.470588" height="83.16"/>
  </clipPath>
  <clipPath id="p0b2a13e3d2">
   <rect x="275.929412" y="31.36" width="98.470588" height="83.16"/>
  </clipPath>
 </defs>
</svg>
