<?xml version="1.0" encoding="utf-8" standalone="no"?>
<!DOCTYPE svg PUBLIC "-//W3C//DTD SVG 1.1//EN"
  "http://www.w3.org/Graphics/SVG/1.1/DTD/svg11.dtd">
<svg xmlns:xlink="http://www.w3.org/1999/xlink" width="381.892243pt" height="149.8pt" viewBox="0 0 381.892243 149.8" xmlns="http://www.w3.org/2000/svg" version="1.1">
 <metadata>
  <rdf:RDF xmlns:dc="http://purl.org/dc/elements/1.1/" xmlns:cc="http://creativecommons.org/ns#" xmlns:rdf="http://www.w3.org/1999/02/22-rdf-syntax-ns#">
   <cc:Work>
    <dc:type rdf:resource="http://purl.org/dc/dcmitype/StillImage"/>
    <dc:date>2025-02-12T13:19:59.814925</dc:date>
    <dc:format>image/svg+xml</dc:format>
    <dc:creator>
     <cc:Agent>
      <dc:title>Matplotlib v3.9.2, https://matplotlib.org/</dc:title>
     </cc:Agent>
    </dc:creator>
   </cc:Work>
  </rdf:RDF>
 </metadata>
 <defs>
  <style type="text/css">*{stroke-linejoin: round; stroke-linecap: butt}</style>
 </defs>
 <g id="figure_1">
  <g id="patch_1">
   <path d="M 0 149.8 
L 381.892243 149.8 
L 381.892243 0 
L 0 0 
L 0 149.8 
z
" style="fill: none"/>
  </g>
  <g id="axes_1">
   <g id="patch_2">
    <path d="M 39.6 114.52 
L 138.070588 114.52 
L 138.070588 31.36 
L 39.6 31.36 
L 39.6 114.52 
z
" style="fill: none"/>
   </g>
   <g id="matplotlib.axis_1">
    <g id="xtick_1">
     <g id="line2d_1">
      <defs>
       <path id="m0037dd7f9a" d="M 0 0 
L 0 3.5 
" style="stroke: #ffffff; stroke-width: 0.8"/>
      </defs>
      <g>
       <use xlink:href="#m0037dd7f9a" x="39.6" y="114.52" style="fill: #ffffff; stroke: #ffffff; stroke-width: 0.8"/>
      </g>
     </g>
     <g id="text_1">
      <!-- $\mathdefault{0}$ -->
      <g style="fill: #ffffff" transform="translate(37.109332 128.438498) scale(0.1 -0.1)">
       <defs>
        <path id="CMR17-30" d="M 2688 2025 
C 2688 2416 2682 3080 2413 3591 
C 2176 4039 1798 4198 1466 4198 
C 1158 4198 768 4058 525 3597 
C 269 3118 243 2524 243 2025 
C 243 1661 250 1106 448 619 
C 723 -39 1216 -128 1466 -128 
C 1760 -128 2208 -7 2470 600 
C 2662 1042 2688 1559 2688 2025 
z
M 1466 -26 
C 1056 -26 813 325 723 812 
C 653 1188 653 1738 653 2096 
C 653 2588 653 2997 736 3387 
C 858 3929 1216 4096 1466 4096 
C 1728 4096 2067 3923 2189 3400 
C 2272 3036 2278 2607 2278 2096 
C 2278 1680 2278 1169 2202 792 
C 2067 95 1690 -26 1466 -26 
z
" transform="scale(0.015625)"/>
       </defs>
       <use xlink:href="#CMR17-30" transform="scale(0.996264)"/>
      </g>
     </g>
    </g>
    <g id="xtick_2">
     <g id="line2d_2">
      <g>
       <use xlink:href="#m0037dd7f9a" x="86.490748" y="114.52" style="fill: #ffffff; stroke: #ffffff; stroke-width: 0.8"/>
      </g>
     </g>
     <g id="text_2">
      <!-- $\mathdefault{5}$ -->
      <g style="fill: #ffffff" transform="translate(84.00008 128.438498) scale(0.1 -0.1)">
       <defs>
        <path id="CMR17-35" d="M 730 3692 
C 794 3666 1056 3584 1325 3584 
C 1920 3584 2246 3911 2432 4100 
C 2432 4157 2432 4192 2394 4192 
C 2387 4192 2374 4192 2323 4163 
C 2099 4058 1837 3973 1517 3973 
C 1325 3973 1037 3999 723 4139 
C 653 4171 640 4171 634 4171 
C 602 4171 595 4164 595 4037 
L 595 2203 
C 595 2089 595 2057 659 2057 
C 691 2057 704 2070 736 2114 
C 941 2401 1222 2522 1542 2522 
C 1766 2522 2246 2382 2246 1289 
C 2246 1085 2246 715 2054 421 
C 1894 159 1645 25 1370 25 
C 947 25 518 320 403 814 
C 429 807 480 795 506 795 
C 589 795 749 840 749 1038 
C 749 1210 627 1280 506 1280 
C 358 1280 262 1190 262 1011 
C 262 454 704 -128 1382 -128 
C 2042 -128 2669 440 2669 1264 
C 2669 2030 2170 2624 1549 2624 
C 1222 2624 947 2503 730 2274 
L 730 3692 
z
" transform="scale(0.015625)"/>
       </defs>
       <use xlink:href="#CMR17-35" transform="scale(0.996264)"/>
      </g>
     </g>
    </g>
    <g id="xtick_3">
     <g id="line2d_3">
      <g>
       <use xlink:href="#m0037dd7f9a" x="133.381496" y="114.52" style="fill: #ffffff; stroke: #ffffff; stroke-width: 0.8"/>
      </g>
     </g>
     <g id="text_3">
      <!-- $\mathdefault{10}$ -->
      <g style="fill: #ffffff" transform="translate(128.40016 128.438498) scale(0.1 -0.1)">
       <defs>
        <path id="CMR17-31" d="M 1702 4058 
C 1702 4192 1696 4192 1606 4192 
C 1357 3916 979 3827 621 3827 
C 602 3827 570 3827 563 3808 
C 557 3795 557 3782 557 3648 
C 755 3648 1088 3686 1344 3839 
L 1344 461 
C 1344 236 1331 160 781 160 
L 589 160 
L 589 0 
C 896 0 1216 0 1523 0 
C 1830 0 2150 0 2458 0 
L 2458 160 
L 2266 160 
C 1715 160 1702 230 1702 458 
L 1702 4058 
z
" transform="scale(0.015625)"/>
       </defs>
       <use xlink:href="#CMR17-31" transform="scale(0.996264)"/>
       <use xlink:href="#CMR17-30" transform="translate(45.690477 0) scale(0.996264)"/>
      </g>
     </g>
    </g>
   </g>
   <g id="matplotlib.axis_2">
    <g id="ytick_1">
     <g id="line2d_4">
      <defs>
       <path id="m8bd510d7b5" d="M 0 0 
L -3.5 0 
" style="stroke: #ffffff; stroke-width: 0.8"/>
      </defs>
      <g>
       <use xlink:href="#m8bd510d7b5" x="39.6" y="105.943798" style="fill: #ffffff; stroke: #ffffff; stroke-width: 0.8"/>
      </g>
     </g>
     <g id="text_4">
      <!-- $\mathdefault{−1}$ -->
      <g style="fill: #ffffff" transform="translate(19.869921 109.403048) scale(0.1 -0.1)">
       <defs>
        <path id="CMSY10-0" d="M 4218 1472 
C 4326 1472 4442 1472 4442 1600 
C 4442 1728 4326 1728 4218 1728 
L 755 1728 
C 646 1728 531 1728 531 1600 
C 531 1472 646 1472 755 1472 
L 4218 1472 
z
" transform="scale(0.015625)"/>
       </defs>
       <use xlink:href="#CMSY10-0" transform="scale(0.996264)"/>
       <use xlink:href="#CMR17-31" transform="translate(77.487468 0) scale(0.996264)"/>
      </g>
     </g>
    </g>
    <g id="ytick_2">
     <g id="line2d_5">
      <g>
       <use xlink:href="#m8bd510d7b5" x="39.6" y="73.137654" style="fill: #ffffff; stroke: #ffffff; stroke-width: 0.8"/>
      </g>
     </g>
     <g id="text_5">
      <!-- $\mathdefault{0}$ -->
      <g style="fill: #ffffff" transform="translate(27.618665 76.596903) scale(0.1 -0.1)">
       <use xlink:href="#CMR17-30" transform="scale(0.996264)"/>
      </g>
     </g>
    </g>
    <g id="ytick_3">
     <g id="line2d_6">
      <g>
       <use xlink:href="#m8bd510d7b5" x="39.6" y="40.331509" style="fill: #ffffff; stroke: #ffffff; stroke-width: 0.8"/>
      </g>
     </g>
     <g id="text_6">
      <!-- $\mathdefault{1}$ -->
      <g style="fill: #ffffff" transform="translate(27.618665 43.790758) scale(0.1 -0.1)">
       <use xlink:href="#CMR17-31" transform="scale(0.996264)"/>
      </g>
     </g>
    </g>
   </g>
   <g id="line2d_7">
    <path d="M 39.6 45.094885 
L 39.787549 42.201392 
L 39.975099 44.307528 
L 40.162648 44.873831 
L 40.350287 42.846879 
L 40.537836 47.365453 
L 40.725386 42.965974 
L 40.912935 41.751795 
L 41.100485 45.491468 
L 41.288034 43.870135 
L 41.475673 47.629737 
L 41.663222 45.559371 
L 41.850772 49.458481 
L 42.038321 47.951138 
L 42.41342 50.874815 
L 42.600969 42.53039 
L 42.788608 52.558611 
L 42.976157 46.566673 
L 43.163707 49.403022 
L 43.351256 49.089606 
L 43.726355 54.129075 
L 43.913904 53.182387 
L 44.101543 53.441418 
L 44.289093 53.267319 
L 44.476642 53.822684 
L 44.664191 58.282346 
L 44.851741 55.521184 
L 45.03929 59.147418 
L 45.226929 59.296691 
L 45.414478 58.435483 
L 45.602028 62.222896 
L 45.789577 61.737011 
L 45.977127 64.083163 
L 46.164676 59.082274 
L 46.352225 63.288091 
L 46.539864 63.983402 
L 46.727414 62.197352 
L 46.914963 64.026886 
L 47.102512 70.868754 
L 47.290062 63.49167 
L 47.66525 72.148823 
L 47.8528 70.025789 
L 48.040349 74.511572 
L 48.415448 68.96928 
L 48.602997 74.317172 
L 48.790546 67.610376 
L 49.165735 77.579839 
L 49.353284 77.357376 
L 49.728383 74.673357 
L 50.103571 77.320845 
L 50.291121 78.93647 
L 50.47867 79.501905 
L 50.666219 82.367656 
L 50.853769 78.574164 
L 51.228868 84.639949 
L 51.416506 78.027514 
L 51.791605 89.495222 
L 51.979155 83.675159 
L 52.354253 95.972153 
L 52.541803 90.6416 
L 52.729442 92.268489 
L 53.10454 89.52321 
L 53.29209 92.419399 
L 53.479639 87.387511 
L 53.667189 91.879739 
L 53.854827 90.045103 
L 54.042377 94.735723 
L 54.229926 90.746612 
L 54.605025 95.938716 
L 54.980124 100.099368 
L 55.167763 94.918154 
L 55.355312 100.766413 
L 55.542861 94.985614 
L 55.730411 100.726277 
L 55.91796 94.171925 
L 56.10551 99.532414 
L 56.293148 99.780681 
L 56.480698 100.766008 
L 56.668247 95.71117 
L 56.855797 96.790341 
L 57.043346 100.614756 
L 57.418445 101.778791 
L 57.606084 99.604635 
L 57.793633 101.316537 
L 57.981182 105.779564 
L 58.356281 101.152448 
L 58.543831 101.956942 
L 58.731469 105.101679 
L 58.919019 102.44832 
L 59.294118 107.172833 
L 59.481667 102.723888 
L 59.856766 105.223259 
L 60.044405 105.238392 
L 60.231954 104.316308 
L 60.419503 110.162234 
L 60.607053 104.068303 
L 60.794602 105.619992 
L 60.982152 110.74 
L 61.169701 105.592922 
L 61.35734 109.027962 
L 61.544889 100.33762 
L 62.107537 108.305028 
L 62.295087 104.3918 
L 62.482726 103.418268 
L 62.670275 100.274077 
L 62.857824 103.290999 
L 63.045374 100.760052 
L 63.232923 108.559414 
L 63.420473 101.775692 
L 63.608022 101.026016 
L 63.795661 109.851639 
L 63.98321 102.699123 
L 64.17076 104.986877 
L 64.358309 103.002664 
L 64.545859 102.948462 
L 64.733408 97.297403 
L 64.921047 102.06811 
L 65.108596 102.077283 
L 65.296146 103.05475 
L 65.483695 97.972066 
L 65.671244 98.301146 
L 65.858794 92.539564 
L 66.046343 100.156343 
L 66.233982 102.028989 
L 66.421531 99.814097 
L 66.609081 96.197222 
L 66.79663 99.957285 
L 67.171729 94.657724 
L 67.359278 94.584112 
L 67.546917 100.029226 
L 67.734467 92.519236 
L 68.109565 98.151425 
L 68.297115 87.204294 
L 68.484664 92.328647 
L 68.672303 89.407884 
L 68.859852 93.856907 
L 69.234951 88.44731 
L 69.422501 92.090464 
L 69.61005 91.42564 
L 69.797599 87.307266 
L 69.985238 85.887327 
L 70.172788 82.876821 
L 70.360337 82.835923 
L 70.547886 87.531413 
L 70.922985 84.731529 
L 71.110624 84.090148 
L 71.298173 81.11041 
L 71.485723 86.849733 
L 71.860822 75.938196 
L 72.048371 80.377693 
L 72.23592 79.58689 
L 72.611109 75.359328 
L 72.798658 74.662039 
L 72.986207 76.42112 
L 73.173757 75.802391 
L 73.361306 74.314926 
L 73.548945 74.533925 
L 73.924044 69.779277 
L 74.111593 72.365844 
L 74.299143 69.045503 
L 74.486692 71.040005 
L 74.674241 71.087756 
L 75.04943 64.900393 
L 75.236979 68.36295 
L 75.424528 63.035244 
L 75.612078 62.762597 
L 75.799627 65.984651 
L 75.987177 65.25765 
L 76.362365 59.121914 
L 76.549914 60.558065 
L 76.737464 60.758401 
L 76.925013 56.6581 
L 77.112562 57.675624 
L 77.300201 56.458328 
L 77.487751 58.111717 
L 77.6753 56.632136 
L 77.862849 59.054081 
L 78.050399 59.336066 
L 78.237948 54.865253 
L 78.425498 53.247679 
L 78.613137 54.556541 
L 78.800686 48.862186 
L 79.175785 51.320306 
L 79.363334 49.747799 
L 79.550883 51.88847 
L 79.738522 52.527876 
L 79.926072 46.640878 
L 80.301171 52.293335 
L 80.48872 50.158586 
L 80.863819 48.439384 
L 81.051458 49.723762 
L 81.239007 49.040383 
L 81.426556 45.255011 
L 81.614106 45.595575 
L 81.801655 46.300561 
L 81.989205 45.760523 
L 82.176843 41.678763 
L 82.551942 45.028472 
L 82.739492 41.036229 
L 82.927041 42.073284 
L 83.11459 40.04958 
L 83.30214 43.389021 
L 83.489779 39.02488 
L 83.677328 41.597776 
L 83.864877 42.003594 
L 84.052427 46.085222 
L 84.239976 41.454309 
L 84.615075 40.60634 
L 84.802714 42.556422 
L 84.990263 40.454781 
L 85.177813 39.685156 
L 85.365362 43.461316 
L 85.552911 42.717369 
L 85.740461 35.703483 
L 85.9281 39.08312 
L 86.115649 37.988582 
L 86.678297 43.168411 
L 86.865847 35.364269 
L 87.053396 39.743446 
L 87.241035 38.190195 
L 87.428584 38.21427 
L 87.616134 39.249818 
L 87.803683 45.414075 
L 87.991232 39.473089 
L 88.178782 37.753003 
L 88.366421 42.492299 
L 88.55397 43.227186 
L 88.741519 41.425453 
L 88.929069 42.404519 
L 89.116618 44.239944 
L 89.304168 43.885366 
L 89.491717 41.645052 
L 89.679356 43.836901 
L 89.866905 43.606555 
L 90.054455 41.797892 
L 90.429553 47.737071 
L 90.617103 47.241424 
L 90.992291 42.18282 
L 91.36739 48.865784 
L 91.554939 43.901836 
L 91.930038 52.68104 
L 92.117677 47.502927 
L 92.492776 52.121841 
L 92.680325 51.701158 
L 92.867874 49.040233 
L 93.055424 54.284547 
L 93.242973 50.368062 
L 93.618161 53.0807 
L 93.805711 56.113603 
L 93.99326 55.102367 
L 94.18081 55.838387 
L 94.368359 63.378371 
L 94.743547 54.9032 
L 94.931097 61.376684 
L 95.118646 60.325082 
L 95.306195 64.162258 
L 95.493745 60.048685 
L 95.681294 65.957557 
L 95.868933 59.718761 
L 96.056483 62.91933 
L 96.244032 63.092939 
L 96.431581 66.985429 
L 96.619131 66.120675 
L 96.80668 63.567069 
L 96.994319 69.851705 
L 97.181868 69.077656 
L 97.369418 73.243657 
L 97.744517 69.889181 
L 97.932066 73.78811 
L 98.119615 72.974952 
L 98.307254 71.505562 
L 98.494804 71.187719 
L 98.682353 74.121771 
L 98.869902 74.682114 
L 99.057452 76.8618 
L 99.245001 74.583927 
L 99.432551 78.981686 
L 99.620189 77.999238 
L 99.995288 83.526317 
L 100.182838 81.019831 
L 100.370387 82.400723 
L 100.557936 79.25337 
L 100.745575 82.37989 
L 100.933125 82.922482 
L 101.120674 87.595811 
L 101.308223 86.444802 
L 101.495773 87.132459 
L 101.683322 91.73737 
L 101.870872 83.892117 
L 102.05851 88.396097 
L 102.24606 87.592827 
L 102.621159 92.388592 
L 102.808708 89.250533 
L 102.996257 93.359275 
L 103.183896 93.163116 
L 103.371446 94.986503 
L 103.558995 95.642721 
L 103.746544 95.030271 
L 104.121643 91.676657 
L 104.309193 92.317552 
L 104.496831 97.631768 
L 104.684381 94.95166 
L 104.87193 99.030455 
L 105.05948 97.954767 
L 105.434578 102.158031 
L 105.622217 98.992221 
L 105.809767 98.297169 
L 105.997316 93.767453 
L 106.559964 104.723317 
L 106.747514 96.793037 
L 107.122702 102.291845 
L 107.310251 103.384381 
L 107.497801 101.354685 
L 107.872899 105.096825 
L 108.060449 100.31657 
L 108.435637 106.948177 
L 108.623186 104.61802 
L 108.810736 103.841101 
L 108.998285 108.738798 
L 109.185835 108.511858 
L 109.373473 103.128617 
L 109.561023 101.056557 
L 109.748572 104.004714 
L 109.936122 108.897682 
L 110.123671 102.911746 
L 110.49877 105.783207 
L 110.686409 102.492254 
L 110.873958 105.151533 
L 111.061507 104.962444 
L 111.249057 101.982521 
L 111.436606 105.958601 
L 111.624156 103.824258 
L 111.811795 106.503723 
L 111.999344 105.21316 
L 112.186893 107.091078 
L 112.374443 107.137647 
L 112.561992 106.788624 
L 112.749542 101.469717 
L 112.937091 104.209776 
L 113.12473 104.335616 
L 113.312279 104.275532 
L 113.499829 101.413183 
L 113.874927 104.307675 
L 114.062477 99.125844 
L 114.250026 105.001979 
L 114.437665 106.539866 
L 114.625214 101.856208 
L 114.812764 102.858701 
L 115.000313 102.402661 
L 115.375412 98.868087 
L 115.563051 102.975914 
L 115.7506 101.160905 
L 115.93815 100.808427 
L 116.125699 97.044351 
L 116.313248 100.364377 
L 116.500798 94.683287 
L 116.688347 93.361944 
L 116.875986 95.733055 
L 117.063535 102.072266 
L 117.251085 95.913919 
L 117.438634 97.387848 
L 117.626184 94.809327 
L 117.813733 95.704086 
L 118.376471 87.724354 
L 118.56402 90.487817 
L 118.751569 88.032071 
L 118.939119 88.460789 
L 119.126668 90.006551 
L 119.314307 85.930749 
L 119.501856 89.094389 
L 119.689406 84.137101 
L 119.876955 90.657364 
L 120.252054 81.346998 
L 120.439693 82.406358 
L 120.627242 85.192673 
L 121.002341 78.343067 
L 121.18989 78.758423 
L 121.564989 81.0714 
L 121.752628 79.856925 
L 121.940177 76.406416 
L 122.127727 79.864094 
L 122.315276 76.958512 
L 122.502826 77.101404 
L 122.690375 74.406379 
L 122.877924 74.167295 
L 123.065563 70.033446 
L 123.440662 72.119413 
L 123.628211 71.473863 
L 123.815761 70.074165 
L 124.00331 66.353372 
L 124.190949 71.087429 
L 124.378498 70.611855 
L 124.753597 62.99147 
L 124.941147 62.37413 
L 125.128696 64.203006 
L 125.316245 58.828128 
L 125.503884 65.533218 
L 125.691434 60.123393 
L 125.878983 61.261273 
L 126.066532 60.012701 
L 126.254082 62.126896 
L 126.441631 58.383481 
L 126.62927 61.512832 
L 126.816819 59.668299 
L 127.004369 55.162805 
L 127.191918 55.840125 
L 127.379468 55.873398 
L 127.567017 54.780166 
L 127.754566 55.467647 
L 128.129755 50.242457 
L 128.317304 49.310789 
L 128.504854 54.27531 
L 128.879952 48.803469 
L 129.067591 52.660223 
L 129.255141 49.745879 
L 129.44269 50.543825 
L 129.630239 49.227708 
L 129.817789 49.279024 
L 130.005338 47.397443 
L 130.192888 51.082791 
L 130.380526 51.116052 
L 130.568076 44.508716 
L 130.755625 46.16663 
L 130.943175 44.861446 
L 131.130724 45.121588 
L 131.318273 45.57791 
L 131.505823 41.706715 
L 131.693462 48.74448 
L 131.881011 41.61506 
L 132.06856 44.647594 
L 132.25611 41.340856 
L 132.443659 40.737565 
L 132.631209 43.931249 
L 132.818847 44.485399 
L 133.006397 45.409196 
L 133.193946 48.404442 
L 133.381496 39.97599 
L 133.569045 44.146996 
L 133.756594 38.229557 
L 133.944144 45.153033 
L 134.131783 43.212016 
L 134.319332 39.308327 
L 134.506881 42.200987 
L 134.694431 41.004678 
L 134.88198 38.948104 
L 135.06953 35.14 
L 135.257168 42.946749 
L 135.444718 43.394516 
L 135.632267 43.470745 
L 135.819817 43.316963 
L 136.194915 41.487832 
L 136.382465 41.973072 
L 136.570104 42.767642 
L 136.757653 39.191113 
L 137.320301 41.145207 
L 137.507851 38.84489 
L 137.6954 40.860722 
L 137.883039 40.076185 
L 138.070588 41.167504 
L 138.070588 41.167504 
" clip-path="url(#p4634ee2c0c)" style="fill: none; stroke: #8dd3c7; stroke-width: 1.5; stroke-linecap: square"/>
   </g>
   <g id="line2d_8">
    <path d="M 39.6 45.094872 
L 41.100485 49.399924 
L 43.163707 56.06273 
L 47.290062 69.605874 
L 48.978185 74.277107 
L 50.291121 77.303657 
L 51.416506 79.427841 
L 52.541803 81.111375 
L 53.667189 82.370569 
L 54.605025 83.119072 
L 55.542861 83.62032 
L 56.480698 83.901699 
L 57.606084 83.988143 
L 58.731469 83.843038 
L 60.044405 83.433475 
L 61.544889 82.710261 
L 63.232923 81.640457 
L 65.296146 80.056664 
L 68.484664 77.269453 
L 72.048371 74.217353 
L 74.111593 72.743716 
L 75.987177 71.686264 
L 77.6753 70.983055 
L 79.363334 70.506128 
L 81.239007 70.21211 
L 83.30214 70.128405 
L 85.552911 70.266747 
L 88.178782 70.664838 
L 91.36739 71.39183 
L 99.432551 73.358788 
L 102.433609 73.776792 
L 105.622217 73.977966 
L 109.373473 73.974776 
L 114.437665 73.731358 
L 128.129755 72.947609 
L 134.694431 72.902428 
L 138.070588 72.942631 
L 138.070588 72.942631 
" clip-path="url(#p4634ee2c0c)" style="fill: none; stroke-dasharray: 5.55,2.4; stroke-dashoffset: 0; stroke: #fa8174; stroke-width: 1.5"/>
   </g>
   <g id="patch_3">
    <path d="M 39.6 114.52 
L 39.6 31.36 
" style="fill: none; stroke: #ffffff; stroke-width: 0.8; stroke-linejoin: miter; stroke-linecap: square"/>
   </g>
   <g id="patch_4">
    <path d="M 138.070588 114.52 
L 138.070588 31.36 
" style="fill: none; stroke: #ffffff; stroke-width: 0.8; stroke-linejoin: miter; stroke-linecap: square"/>
   </g>
   <g id="patch_5">
    <path d="M 39.6 114.52 
L 138.070588 114.52 
" style="fill: none; stroke: #ffffff; stroke-width: 0.8; stroke-linejoin: miter; stroke-linecap: square"/>
   </g>
   <g id="patch_6">
    <path d="M 39.6 31.36 
L 138.070588 31.36 
" style="fill: none; stroke: #ffffff; stroke-width: 0.8; stroke-linejoin: miter; stroke-linecap: square"/>
   </g>
   <g id="text_7">
    <!-- $\tilde{x}_0$ -->
    <g style="fill: #ffffff" transform="translate(48.97815 43.612123) scale(0.1 -0.1)">
     <defs>
      <path id="CMR17-7e" d="M 2400 4184 
C 2182 3980 2061 3865 1862 3865 
C 1722 3865 1626 3932 1491 4024 
C 1363 4111 1261 4184 1120 4184 
C 890 4184 730 4004 461 3718 
L 531 3648 
C 749 3850 870 3968 1069 3968 
C 1210 3968 1306 3900 1440 3808 
C 1568 3722 1670 3648 1811 3648 
C 2042 3648 2202 3828 2470 4114 
L 2400 4184 
z
" transform="scale(0.015625)"/>
      <path id="CMMI12-78" d="M 3034 2606 
C 2829 2567 2752 2414 2752 2293 
C 2752 2139 2874 2088 2963 2088 
C 3155 2088 3290 2254 3290 2427 
C 3290 2695 2982 2816 2714 2816 
C 2323 2816 2106 2433 2048 2312 
C 1901 2816 1504 2816 1389 2816 
C 736 2816 390 1980 390 1839 
C 390 1814 416 1782 461 1782 
C 512 1782 525 1820 538 1846 
C 755 2555 1184 2689 1370 2689 
C 1658 2689 1715 2420 1715 2267 
C 1715 2127 1677 1980 1600 1673 
L 1382 798 
C 1286 415 1101 64 762 64 
C 730 64 570 64 435 147 
C 666 192 717 383 717 460 
C 717 588 621 664 499 664 
C 346 664 179 530 179 326 
C 179 57 480 -64 755 -64 
C 1062 -64 1280 179 1414 441 
C 1517 64 1837 -64 2074 -64 
C 2726 -64 3072 773 3072 913 
C 3072 945 3046 971 3008 971 
C 2950 971 2944 939 2925 888 
C 2752 326 2381 64 2093 64 
C 1869 64 1747 230 1747 492 
C 1747 632 1773 734 1875 1156 
L 2099 2024 
C 2195 2408 2413 2689 2707 2689 
C 2720 2689 2899 2689 3034 2606 
z
" transform="scale(0.015625)"/>
     </defs>
     <use xlink:href="#CMR17-7e" transform="translate(7.581509 0.006461) scale(0.996264)"/>
     <use xlink:href="#CMMI12-78" transform="scale(0.996264)"/>
     <use xlink:href="#CMR17-30" transform="translate(55.43406 -14.943915) scale(0.697382)"/>
    </g>
   </g>
  </g>
  <g id="axes_2">
   <g id="patch_7">
    <path d="M 157.764706 114.52 
L 256.235294 114.52 
L 256.235294 31.36 
L 157.764706 31.36 
L 157.764706 114.52 
z
" style="fill: none"/>
   </g>
   <g id="matplotlib.axis_3">
    <g id="xtick_4">
     <g id="line2d_9">
      <g>
       <use xlink:href="#m0037dd7f9a" x="157.764706" y="114.52" style="fill: #ffffff; stroke: #ffffff; stroke-width: 0.8"/>
      </g>
     </g>
     <g id="text_8">
      <!-- $\mathdefault{0}$ -->
      <g style="fill: #ffffff" transform="translate(155.274038 128.438498) scale(0.1 -0.1)">
       <use xlink:href="#CMR17-30" transform="scale(0.996264)"/>
      </g>
     </g>
    </g>
    <g id="xtick_5">
     <g id="line2d_10">
      <g>
       <use xlink:href="#m0037dd7f9a" x="204.655454" y="114.52" style="fill: #ffffff; stroke: #ffffff; stroke-width: 0.8"/>
      </g>
     </g>
     <g id="text_9">
      <!-- $\mathdefault{5}$ -->
      <g style="fill: #ffffff" transform="translate(202.164786 128.438498) scale(0.1 -0.1)">
       <use xlink:href="#CMR17-35" transform="scale(0.996264)"/>
      </g>
     </g>
    </g>
    <g id="xtick_6">
     <g id="line2d_11">
      <g>
       <use xlink:href="#m0037dd7f9a" x="251.546201" y="114.52" style="fill: #ffffff; stroke: #ffffff; stroke-width: 0.8"/>
      </g>
     </g>
     <g id="text_10">
      <!-- $\mathdefault{10}$ -->
      <g style="fill: #ffffff" transform="translate(246.564866 128.438498) scale(0.1 -0.1)">
       <use xlink:href="#CMR17-31" transform="scale(0.996264)"/>
       <use xlink:href="#CMR17-30" transform="translate(45.690477 0) scale(0.996264)"/>
      </g>
     </g>
    </g>
   </g>
   <g id="matplotlib.axis_4">
    <g id="ytick_4">
     <g id="line2d_12">
      <g>
       <use xlink:href="#m8bd510d7b5" x="157.764706" y="105.943798" style="fill: #ffffff; stroke: #ffffff; stroke-width: 0.8"/>
      </g>
     </g>
    </g>
    <g id="ytick_5">
     <g id="line2d_13">
      <g>
       <use xlink:href="#m8bd510d7b5" x="157.764706" y="73.137654" style="fill: #ffffff; stroke: #ffffff; stroke-width: 0.8"/>
      </g>
     </g>
    </g>
    <g id="ytick_6">
     <g id="line2d_14">
      <g>
       <use xlink:href="#m8bd510d7b5" x="157.764706" y="40.331509" style="fill: #ffffff; stroke: #ffffff; stroke-width: 0.8"/>
      </g>
     </g>
    </g>
   </g>
   <g id="line2d_15">
    <path d="M 157.764706 62.350627 
L 158.139805 64.323921 
L 158.327354 63.594455 
L 158.514993 61.78931 
L 158.702542 61.917533 
L 158.890092 61.770492 
L 159.077641 62.361033 
L 159.26519 63.365723 
L 159.45274 63.6683 
L 159.640379 61.979939 
L 160.015478 62.603338 
L 160.390576 61.416699 
L 160.765675 63.554265 
L 160.953314 64.010432 
L 161.140863 62.894472 
L 161.515962 64.478804 
L 161.891061 63.867804 
L 162.266249 64.817919 
L 162.453799 64.706602 
L 162.641348 65.30509 
L 162.828897 64.390188 
L 163.016447 65.412394 
L 163.203996 65.181616 
L 163.391635 66.673198 
L 163.766734 67.589116 
L 163.954283 67.282818 
L 164.141833 68.142889 
L 164.329382 68.214591 
L 164.516931 69.217448 
L 164.70457 72.251861 
L 165.079669 69.450872 
L 165.642317 73.684185 
L 165.829956 74.053049 
L 166.205055 73.338503 
L 166.580154 74.593169 
L 166.767703 76.715757 
L 166.955252 74.857454 
L 167.142891 77.040551 
L 167.330441 75.625092 
L 167.705539 77.003507 
L 167.893089 79.503328 
L 168.080638 80.038124 
L 168.268277 79.799602 
L 168.455826 78.666682 
L 168.643376 80.739916 
L 168.830925 80.222382 
L 169.018475 81.724824 
L 169.206024 81.547996 
L 169.393573 81.88849 
L 169.581212 81.145489 
L 169.768762 82.685146 
L 169.956311 82.503919 
L 170.14386 83.278663 
L 170.33141 82.188807 
L 170.518959 83.651625 
L 170.706509 83.205873 
L 170.894147 83.629241 
L 171.081697 83.526693 
L 171.269246 83.83092 
L 171.456796 83.888406 
L 171.644345 85.55193 
L 171.831894 84.031777 
L 172.019533 83.692221 
L 172.207083 83.819068 
L 172.394632 83.00988 
L 172.582181 83.555528 
L 172.769731 82.696549 
L 172.95728 82.662482 
L 173.14483 84.170235 
L 173.332468 83.996908 
L 173.520018 82.741522 
L 173.707567 84.595441 
L 173.895117 82.096164 
L 174.082666 81.528537 
L 174.270215 82.085696 
L 174.457854 82.194873 
L 174.645404 80.558124 
L 174.832953 80.937542 
L 175.020502 80.202466 
L 175.208052 80.580644 
L 175.583151 79.72023 
L 175.77079 79.848909 
L 175.958339 80.583154 
L 176.333438 79.389435 
L 176.520987 77.144105 
L 176.708537 78.498679 
L 177.083725 76.202053 
L 177.271274 76.113765 
L 177.833922 74.768699 
L 178.021472 74.196664 
L 178.209111 72.914327 
L 178.39666 73.339794 
L 178.584209 72.65138 
L 178.771759 71.239331 
L 178.959308 71.052495 
L 179.146858 72.90038 
L 179.334407 70.294505 
L 179.522046 70.952831 
L 179.897145 68.776515 
L 180.084694 67.365248 
L 180.272243 68.076287 
L 180.459793 67.590212 
L 180.647432 68.215879 
L 181.02253 66.190131 
L 181.21008 67.435765 
L 181.397629 64.920304 
L 181.585179 66.081711 
L 181.772728 64.496605 
L 181.960367 65.937627 
L 182.335466 63.855309 
L 182.523015 64.078824 
L 182.710564 63.63212 
L 182.898114 63.860032 
L 183.085753 63.703663 
L 183.273302 63.103837 
L 183.460851 64.335153 
L 183.83595 61.835991 
L 184.0235 64.260641 
L 184.211049 63.415785 
L 184.586237 63.251184 
L 184.773787 62.645108 
L 185.148885 62.216901 
L 185.336435 63.819044 
L 185.523984 61.961089 
L 185.711623 62.368188 
L 185.899172 63.377591 
L 186.086722 63.407714 
L 186.274271 63.989585 
L 186.461821 63.407369 
L 186.837009 64.704556 
L 187.024558 64.252039 
L 187.212108 65.49998 
L 187.399657 65.599176 
L 187.587206 65.52484 
L 187.774756 65.974915 
L 187.962305 67.825382 
L 188.149944 68.223112 
L 188.337493 67.233096 
L 188.525043 67.279262 
L 188.712592 68.681898 
L 188.900142 67.909606 
L 189.27533 69.93896 
L 189.462879 70.142327 
L 189.650429 69.456283 
L 189.837978 71.179188 
L 190.025527 70.948307 
L 190.213077 72.285753 
L 190.400626 72.648705 
L 190.588265 73.39572 
L 190.775815 73.353842 
L 190.963364 72.458763 
L 191.150913 74.530945 
L 191.338463 73.834605 
L 191.526012 74.70094 
L 191.9012 77.006589 
L 192.08875 76.474662 
L 192.276299 76.822731 
L 192.463849 77.53449 
L 192.651398 78.693406 
L 192.838947 79.013746 
L 193.026586 79.018323 
L 193.214136 80.292041 
L 193.401685 80.184558 
L 193.589234 79.481241 
L 193.776784 81.165666 
L 193.964333 81.411206 
L 194.151883 82.040538 
L 194.339521 80.488875 
L 194.71462 83.326856 
L 194.90217 82.357076 
L 195.089719 83.191641 
L 195.277268 82.476015 
L 195.464907 83.245742 
L 195.652457 83.280084 
L 195.840006 83.886135 
L 196.027555 82.450194 
L 196.215105 83.925782 
L 196.402654 82.853289 
L 196.590204 83.403595 
L 196.777842 82.905311 
L 197.152941 85.15541 
L 197.340491 82.865407 
L 197.52804 83.328141 
L 197.715589 84.845754 
L 198.090778 82.815668 
L 198.278327 82.298899 
L 198.465876 83.132221 
L 198.840975 80.860306 
L 199.028525 80.93082 
L 199.216163 82.471564 
L 199.403713 81.67638 
L 199.591262 81.544698 
L 199.778812 80.439203 
L 199.966361 81.126623 
L 200.15391 79.169341 
L 200.341549 79.116549 
L 200.529099 81.230814 
L 200.904197 78.759113 
L 201.091747 77.498778 
L 201.279296 77.8034 
L 201.466846 76.373959 
L 201.654484 77.836323 
L 201.842034 75.951941 
L 202.029583 76.431669 
L 202.217133 74.709704 
L 202.404682 74.928197 
L 202.592231 73.312474 
L 202.779781 74.341743 
L 202.96742 72.027851 
L 203.154969 73.132771 
L 203.342518 71.89727 
L 203.530068 71.865451 
L 203.717617 70.544867 
L 203.905167 71.731139 
L 204.092805 70.317284 
L 204.280355 71.002073 
L 204.467904 68.797276 
L 204.655454 68.542432 
L 204.843003 69.378218 
L 205.030552 67.549296 
L 205.405741 66.748097 
L 205.59329 67.012207 
L 205.780839 66.533949 
L 205.968389 65.153944 
L 206.155938 66.042087 
L 206.343488 64.855827 
L 206.718676 65.52595 
L 206.906225 64.574902 
L 207.093775 62.765385 
L 207.281324 63.205764 
L 207.468873 62.568673 
L 207.656423 63.513432 
L 207.844062 63.397943 
L 208.031611 62.963521 
L 208.219161 62.196726 
L 208.40671 63.02688 
L 208.781809 61.809791 
L 208.969358 62.255465 
L 209.156997 62.290905 
L 209.344546 63.568411 
L 209.719645 62.11459 
L 210.094744 63.580512 
L 210.469932 62.461685 
L 210.657482 63.177578 
L 211.03258 62.363235 
L 211.22013 64.759702 
L 211.407679 64.629088 
L 211.595318 64.745356 
L 211.782867 65.770957 
L 211.970417 64.745607 
L 212.157966 65.128185 
L 212.345516 65.235165 
L 212.533065 65.559001 
L 212.720704 66.796491 
L 212.908253 66.904957 
L 213.095803 66.661573 
L 213.283352 67.006477 
L 213.846 70.368176 
L 214.033639 70.046393 
L 214.221188 70.094625 
L 214.408738 69.594794 
L 214.783837 72.326388 
L 214.971386 71.960878 
L 215.346574 72.482086 
L 215.534124 72.816662 
L 215.721673 75.175257 
L 216.096772 74.615118 
L 216.284321 75.628166 
L 216.47196 75.333583 
L 216.659509 76.118694 
L 216.847059 75.916316 
L 217.222158 78.336282 
L 217.597256 78.016267 
L 217.784895 77.806049 
L 218.159994 81.237606 
L 218.535093 79.771644 
L 218.722642 81.473605 
L 218.910281 81.645341 
L 219.09783 82.268208 
L 219.472929 80.752664 
L 219.848028 84.438161 
L 220.035577 84.716969 
L 220.223216 82.209521 
L 220.410766 82.693695 
L 220.598315 82.372161 
L 220.973414 83.972722 
L 221.160963 81.945209 
L 221.348602 83.745707 
L 221.723701 82.76856 
L 221.91125 83.845845 
L 222.286349 82.578845 
L 222.661537 83.954397 
L 222.849087 82.390246 
L 223.036636 83.520853 
L 223.411735 82.396584 
L 223.786923 80.921839 
L 223.974473 81.283398 
L 224.162022 82.487486 
L 224.349571 82.079572 
L 224.537121 80.458276 
L 224.72467 80.295479 
L 224.91222 79.474805 
L 225.099858 79.731931 
L 225.287408 77.36586 
L 225.474957 79.962421 
L 225.662507 78.804381 
L 226.037605 78.48739 
L 226.225155 78.135646 
L 226.600343 76.357227 
L 226.787892 77.203048 
L 226.975442 74.618294 
L 227.350541 75.247918 
L 227.725729 72.335628 
L 227.913278 72.371672 
L 228.100828 70.568932 
L 228.288377 71.687483 
L 228.475926 70.348285 
L 228.663476 71.364032 
L 228.851115 68.472923 
L 229.038664 69.828399 
L 229.226213 68.855397 
L 229.413763 68.684531 
L 229.601312 69.751449 
L 229.788862 66.574199 
L 229.9765 69.127212 
L 230.16405 68.767771 
L 230.539149 65.893655 
L 230.914247 65.804123 
L 231.289436 64.906628 
L 231.476985 63.345235 
L 231.664534 63.681816 
L 231.852084 64.832932 
L 232.039633 64.195455 
L 232.227183 64.637012 
L 232.602371 62.927449 
L 232.78992 63.284677 
L 232.97747 63.203271 
L 233.352568 62.186432 
L 233.540118 62.65716 
L 233.727757 62.102162 
L 233.915306 62.986115 
L 234.102855 62.532792 
L 234.290405 63.089898 
L 234.477954 63.034453 
L 234.665504 62.324917 
L 234.853053 63.264794 
L 235.040692 63.433426 
L 235.415791 62.414346 
L 235.60334 63.707532 
L 235.790889 63.626309 
L 235.978439 65.144033 
L 236.166078 62.75188 
L 236.353627 65.112042 
L 236.541176 65.612442 
L 236.728726 64.423258 
L 237.103825 65.49552 
L 237.479013 66.70218 
L 237.666562 66.594273 
L 237.854112 67.511427 
L 238.041661 67.837094 
L 238.22921 67.89299 
L 238.41676 67.773765 
L 238.604399 70.199885 
L 238.791948 71.131289 
L 238.979498 69.321535 
L 239.354596 72.654548 
L 239.729695 71.24362 
L 239.917334 73.006166 
L 240.104883 72.790227 
L 240.479982 74.844454 
L 240.667532 75.26173 
L 240.855081 74.601165 
L 241.04263 76.751301 
L 241.230269 76.336928 
L 241.417819 77.741239 
L 241.605368 77.704619 
L 241.792917 77.422544 
L 241.980467 77.864016 
L 242.168016 77.607598 
L 242.543204 79.6351 
L 242.730754 79.23397 
L 243.105853 79.462308 
L 243.66859 83.60271 
L 243.85614 81.317482 
L 244.043689 82.027241 
L 244.231238 81.16011 
L 244.606337 84.39275 
L 244.793976 82.138887 
L 244.981525 82.983694 
L 245.356624 83.31869 
L 245.544174 81.960452 
L 245.731723 84.066347 
L 245.919272 84.521386 
L 246.294461 82.916918 
L 246.48201 84.859976 
L 246.669559 82.855523 
L 246.857109 84.190458 
L 247.044658 82.448934 
L 247.232297 84.516423 
L 247.419846 83.0978 
L 247.607396 84.853402 
L 247.794945 82.026979 
L 247.982495 83.142017 
L 248.170044 83.410954 
L 248.357593 82.679965 
L 248.545232 82.422144 
L 248.920331 79.11567 
L 249.10788 80.527615 
L 249.29543 80.514953 
L 249.482979 79.534848 
L 249.858167 80.10108 
L 250.045717 79.583539 
L 250.233266 79.70165 
L 250.608365 77.818845 
L 250.795914 78.305704 
L 250.983553 78.063419 
L 251.171103 78.041722 
L 251.358652 77.265739 
L 251.546201 74.897231 
L 251.733751 74.575251 
L 251.9213 75.092894 
L 252.10885 74.932912 
L 252.296488 73.159182 
L 252.484038 73.620802 
L 252.859137 71.337175 
L 253.046686 72.47394 
L 253.234235 72.605204 
L 253.421874 71.597176 
L 253.609424 68.52313 
L 253.796973 69.181098 
L 253.984522 70.476442 
L 254.172072 70.326609 
L 254.359621 68.052805 
L 254.547171 68.742919 
L 254.922359 66.298934 
L 255.109908 67.933828 
L 255.297458 64.561776 
L 255.485007 65.248813 
L 255.672556 64.516092 
L 255.860106 64.486376 
L 256.047745 64.628351 
L 256.235294 65.412072 
L 256.235294 65.412072 
" clip-path="url(#p068ada239e)" style="fill: none; stroke: #8dd3c7; stroke-width: 1.5; stroke-linecap: square"/>
   </g>
   <g id="line2d_16">
    <path d="M 157.764706 62.350621 
L 158.327354 62.121851 
L 158.890092 62.142731 
L 159.45274 62.394723 
L 160.203027 63.051132 
L 160.953314 64.017474 
L 162.07861 65.901475 
L 163.954283 69.629668 
L 166.017505 73.582841 
L 167.330441 75.590929 
L 168.268277 76.681371 
L 169.206024 77.456686 
L 170.14386 77.913249 
L 170.894147 78.057342 
L 171.831894 77.982598 
L 172.769731 77.658331 
L 173.895117 77.001571 
L 175.395601 75.811418 
L 179.897145 71.983952 
L 181.21008 71.244153 
L 182.335466 70.840016 
L 183.460851 70.660402 
L 184.586237 70.698512 
L 185.899172 70.986801 
L 187.399657 71.563695 
L 190.213077 72.962366 
L 192.276299 73.87429 
L 193.776784 74.321316 
L 195.277268 74.534745 
L 196.777842 74.513695 
L 198.465876 74.255147 
L 200.904197 73.623183 
L 204.280355 72.76491 
L 206.343488 72.477582 
L 208.40671 72.422969 
L 210.845031 72.600666 
L 219.28538 73.445187 
L 222.661537 73.4101 
L 235.415791 73.005264 
L 248.732782 73.195094 
L 256.235294 73.091956 
L 256.235294 73.091956 
" clip-path="url(#p068ada239e)" style="fill: none; stroke-dasharray: 5.55,2.4; stroke-dashoffset: 0; stroke: #fa8174; stroke-width: 1.5"/>
   </g>
   <g id="patch_8">
    <path d="M 157.764706 114.52 
L 157.764706 31.36 
" style="fill: none; stroke: #ffffff; stroke-width: 0.8; stroke-linejoin: miter; stroke-linecap: square"/>
   </g>
   <g id="patch_9">
    <path d="M 256.235294 114.52 
L 256.235294 31.36 
" style="fill: none; stroke: #ffffff; stroke-width: 0.8; stroke-linejoin: miter; stroke-linecap: square"/>
   </g>
   <g id="patch_10">
    <path d="M 157.764706 114.52 
L 256.235294 114.52 
" style="fill: none; stroke: #ffffff; stroke-width: 0.8; stroke-linejoin: miter; stroke-linecap: square"/>
   </g>
   <g id="patch_11">
    <path d="M 157.764706 31.36 
L 256.235294 31.36 
" style="fill: none; stroke: #ffffff; stroke-width: 0.8; stroke-linejoin: miter; stroke-linecap: square"/>
   </g>
   <g id="text_11">
    <!-- $\tilde{x}_2$ -->
    <g style="fill: #ffffff" transform="translate(167.142855 43.612123) scale(0.1 -0.1)">
     <defs>
      <path id="CMR17-32" d="M 2669 989 
L 2554 989 
C 2490 536 2438 459 2413 420 
C 2381 369 1920 369 1830 369 
L 602 369 
C 832 619 1280 1072 1824 1597 
C 2214 1967 2669 2402 2669 3035 
C 2669 3790 2067 4224 1395 4224 
C 691 4224 262 3604 262 3030 
C 262 2780 448 2748 525 2748 
C 589 2748 781 2787 781 3010 
C 781 3207 614 3264 525 3264 
C 486 3264 448 3258 422 3245 
C 544 3790 915 4058 1306 4058 
C 1862 4058 2227 3617 2227 3035 
C 2227 2479 1901 2000 1536 1584 
L 262 146 
L 262 0 
L 2515 0 
L 2669 989 
z
" transform="scale(0.015625)"/>
     </defs>
     <use xlink:href="#CMR17-7e" transform="translate(7.581509 0.006461) scale(0.996264)"/>
     <use xlink:href="#CMMI12-78" transform="scale(0.996264)"/>
     <use xlink:href="#CMR17-32" transform="translate(55.43406 -14.943915) scale(0.697382)"/>
    </g>
   </g>
  </g>
  <g id="axes_3">
   <g id="patch_12">
    <path d="M 275.929412 114.52 
L 374.4 114.52 
L 374.4 31.36 
L 275.929412 31.36 
L 275.929412 114.52 
z
" style="fill: none"/>
   </g>
   <g id="matplotlib.axis_5">
    <g id="xtick_7">
     <g id="line2d_17">
      <g>
       <use xlink:href="#m0037dd7f9a" x="275.929412" y="114.52" style="fill: #ffffff; stroke: #ffffff; stroke-width: 0.8"/>
      </g>
     </g>
     <g id="text_12">
      <!-- $\mathdefault{0}$ -->
      <g style="fill: #ffffff" transform="translate(273.438744 128.438498) scale(0.1 -0.1)">
       <use xlink:href="#CMR17-30" transform="scale(0.996264)"/>
      </g>
     </g>
    </g>
    <g id="xtick_8">
     <g id="line2d_18">
      <g>
       <use xlink:href="#m0037dd7f9a" x="322.82016" y="114.52" style="fill: #ffffff; stroke: #ffffff; stroke-width: 0.8"/>
      </g>
     </g>
     <g id="text_13">
      <!-- $\mathdefault{5}$ -->
      <g style="fill: #ffffff" transform="translate(320.329492 128.438498) scale(0.1 -0.1)">
       <use xlink:href="#CMR17-35" transform="scale(0.996264)"/>
      </g>
     </g>
    </g>
    <g id="xtick_9">
     <g id="line2d_19">
      <g>
       <use xlink:href="#m0037dd7f9a" x="369.710907" y="114.52" style="fill: #ffffff; stroke: #ffffff; stroke-width: 0.8"/>
      </g>
     </g>
     <g id="text_14">
      <!-- $\mathdefault{10}$ -->
      <g style="fill: #ffffff" transform="translate(364.729572 128.438498) scale(0.1 -0.1)">
       <use xlink:href="#CMR17-31" transform="scale(0.996264)"/>
       <use xlink:href="#CMR17-30" transform="translate(45.690477 0) scale(0.996264)"/>
      </g>
     </g>
    </g>
   </g>
   <g id="matplotlib.axis_6">
    <g id="ytick_7">
     <g id="line2d_20">
      <g>
       <use xlink:href="#m8bd510d7b5" x="275.929412" y="105.943798" style="fill: #ffffff; stroke: #ffffff; stroke-width: 0.8"/>
      </g>
     </g>
    </g>
    <g id="ytick_8">
     <g id="line2d_21">
      <g>
       <use xlink:href="#m8bd510d7b5" x="275.929412" y="73.137654" style="fill: #ffffff; stroke: #ffffff; stroke-width: 0.8"/>
      </g>
     </g>
    </g>
    <g id="ytick_9">
     <g id="line2d_22">
      <g>
       <use xlink:href="#m8bd510d7b5" x="275.929412" y="40.331509" style="fill: #ffffff; stroke: #ffffff; stroke-width: 0.8"/>
      </g>
     </g>
    </g>
   </g>
   <g id="line2d_23">
    <path d="M 275.929412 72.614029 
L 276.49206 71.915246 
L 277.054798 69.835154 
L 277.242347 69.836899 
L 277.617446 68.71421 
L 277.805085 68.458276 
L 277.992634 68.442389 
L 278.180183 67.680328 
L 278.367733 68.544502 
L 278.742832 66.649065 
L 278.930381 67.716614 
L 279.11802 66.436786 
L 279.305569 67.286734 
L 279.493119 65.968024 
L 279.680668 66.329794 
L 279.868217 65.419396 
L 280.430955 67.163601 
L 280.618504 66.983375 
L 280.806054 67.123307 
L 280.993603 66.761759 
L 281.556341 68.264405 
L 281.74389 68.198035 
L 281.93144 68.738573 
L 282.118989 68.565648 
L 282.869276 70.078904 
L 283.056825 71.054467 
L 283.244375 71.233799 
L 283.431924 71.172363 
L 283.619474 71.354671 
L 283.807023 72.967535 
L 283.994662 73.310075 
L 284.182211 73.916348 
L 284.369761 73.894158 
L 284.55731 75.040815 
L 284.744859 74.994101 
L 284.932409 75.877196 
L 285.119958 75.98354 
L 285.307597 76.656768 
L 285.495146 76.324585 
L 285.682696 76.707435 
L 285.870245 77.630461 
L 286.057795 77.466318 
L 286.245344 78.576639 
L 286.432983 78.216779 
L 286.808082 79.356196 
L 286.995631 78.610819 
L 287.183181 78.962231 
L 287.37073 79.86059 
L 287.558279 79.875475 
L 287.745918 79.541466 
L 287.933468 79.885873 
L 288.308566 79.17422 
L 288.496116 80.512021 
L 288.683665 80.023433 
L 288.871215 79.089069 
L 289.246403 79.020905 
L 289.433952 78.522858 
L 289.9966 78.10799 
L 290.184239 78.355207 
L 290.371789 77.45744 
L 290.559338 77.446844 
L 290.746887 76.881157 
L 290.934437 75.926041 
L 291.121986 76.102258 
L 291.309536 75.273675 
L 291.497174 75.206742 
L 291.684724 74.467728 
L 291.872273 74.901406 
L 292.247372 72.49392 
L 292.434921 73.053583 
L 292.62256 72.417169 
L 292.81011 72.427199 
L 292.997659 72.106629 
L 293.185208 71.048577 
L 293.372758 71.129732 
L 293.560307 70.62224 
L 293.747857 69.259901 
L 293.935495 68.825979 
L 294.123045 69.607555 
L 294.310594 67.945644 
L 294.498144 69.079136 
L 294.685693 68.438986 
L 295.060881 66.656252 
L 295.248431 67.239602 
L 295.43598 66.319274 
L 295.623529 66.725494 
L 295.811079 66.558283 
L 295.998628 67.058082 
L 296.186178 66.218477 
L 296.373816 66.993238 
L 296.561366 66.459624 
L 296.748915 66.54434 
L 296.936465 67.00452 
L 297.124014 66.784136 
L 297.499113 67.103145 
L 297.686752 67.38522 
L 297.874301 68.372693 
L 298.06185 68.719359 
L 298.2494 67.167866 
L 298.436949 67.641475 
L 298.812137 69.647534 
L 298.999687 69.321632 
L 299.187236 69.596631 
L 299.562335 70.333907 
L 299.749884 70.532686 
L 300.125073 72.136411 
L 300.312622 72.739065 
L 300.500171 72.80828 
L 300.87527 73.491295 
L 301.06282 74.836076 
L 301.250458 73.519952 
L 301.625557 76.151142 
L 301.813107 76.250547 
L 302.000656 76.95101 
L 302.375755 77.050475 
L 302.563394 78.916162 
L 302.750943 77.933549 
L 302.938493 78.392361 
L 303.126042 79.739104 
L 303.313591 78.799382 
L 303.501141 79.78455 
L 303.68869 79.789461 
L 303.876329 80.128025 
L 304.063878 80.211887 
L 304.251428 79.951302 
L 304.438977 80.38396 
L 304.626527 80.22882 
L 304.814076 79.670523 
L 305.001715 79.709644 
L 305.189264 80.381794 
L 305.376814 79.404003 
L 305.564363 80.207417 
L 305.751912 78.590275 
L 306.127011 79.708373 
L 306.689749 77.629919 
L 306.877298 78.433178 
L 307.064848 76.878551 
L 307.252397 77.322536 
L 307.440036 77.236718 
L 307.815135 74.835393 
L 308.002684 75.541228 
L 308.190233 74.975716 
L 308.377783 75.097934 
L 308.565332 73.494951 
L 308.752971 73.405742 
L 308.94052 72.952379 
L 309.12807 72.099201 
L 309.315619 72.436647 
L 309.878357 69.955014 
L 310.065906 69.153619 
L 310.253456 70.556099 
L 310.441005 69.223227 
L 310.628554 69.564538 
L 310.816104 68.360068 
L 311.003653 68.318812 
L 311.378841 67.832129 
L 311.566391 66.505133 
L 311.75394 66.944682 
L 312.504227 66.21633 
L 312.691777 67.317714 
L 312.879326 66.052361 
L 313.254425 67.523339 
L 313.441974 67.162876 
L 313.629613 67.373283 
L 313.817162 66.354568 
L 314.004712 66.930472 
L 314.192261 66.906837 
L 314.379811 68.470363 
L 314.56736 67.297548 
L 314.754909 67.883239 
L 314.942548 69.110901 
L 315.130098 68.025106 
L 315.317647 69.434629 
L 315.505196 69.030308 
L 315.692746 69.665559 
L 315.880295 71.197138 
L 316.067934 70.084524 
L 316.443033 72.316298 
L 316.630582 72.348882 
L 317.005681 73.658029 
L 317.19323 73.815016 
L 317.568419 74.491575 
L 317.755968 74.23533 
L 317.943517 74.45401 
L 318.131067 76.257046 
L 318.318616 76.121061 
L 318.506255 77.084581 
L 318.693805 77.21173 
L 318.881354 77.82716 
L 319.068903 76.736204 
L 319.256453 78.68535 
L 319.444002 79.07222 
L 319.631551 77.753867 
L 319.81919 78.934821 
L 320.00674 79.345539 
L 320.194289 78.556211 
L 320.381839 79.606574 
L 320.569388 79.435654 
L 320.756937 80.378602 
L 320.944487 79.823984 
L 321.132126 78.904509 
L 321.507224 80.325507 
L 321.694774 79.67139 
L 321.882323 79.499784 
L 322.069873 80.045489 
L 322.257511 78.737897 
L 322.445061 79.032583 
L 322.63261 78.643873 
L 322.82016 77.949877 
L 323.007709 78.388091 
L 323.195258 78.054302 
L 323.570447 76.305078 
L 323.757996 76.716162 
L 323.945545 76.328673 
L 324.133095 76.314108 
L 324.508194 74.690585 
L 324.695832 74.954019 
L 324.883382 74.130627 
L 325.070931 74.258486 
L 325.258481 72.133006 
L 325.44603 72.725181 
L 325.821129 71.833121 
L 326.008768 70.624337 
L 326.196317 70.869579 
L 326.383866 70.403234 
L 326.758965 68.807825 
L 327.134064 69.118505 
L 327.321703 68.436173 
L 327.509252 67.213597 
L 327.696802 67.986817 
L 327.884351 67.759526 
L 328.25945 66.780855 
L 328.447089 66.427897 
L 328.634638 66.760574 
L 328.822187 66.456304 
L 329.009737 67.115666 
L 329.197286 66.134183 
L 329.384836 66.772024 
L 329.760024 66.278222 
L 330.135123 67.047599 
L 330.322672 66.880048 
L 330.697771 67.803013 
L 330.88541 68.307385 
L 331.072959 68.215731 
L 331.260508 68.390569 
L 331.448058 68.029036 
L 331.635607 68.6718 
L 331.823157 68.79131 
L 332.010706 69.876971 
L 332.198345 69.875021 
L 332.385894 71.160831 
L 332.573444 70.791215 
L 333.136092 72.002591 
L 333.323731 73.118164 
L 333.698829 73.541659 
L 334.073928 75.603046 
L 334.261478 75.918122 
L 334.449027 75.02355 
L 334.824215 77.301106 
L 335.011765 76.850219 
L 335.199314 78.078945 
L 335.386863 77.449037 
L 335.574413 77.891271 
L 335.761962 77.161034 
L 335.949601 79.299412 
L 336.3247 79.284553 
L 336.512249 79.577987 
L 336.699799 79.517645 
L 336.887348 79.761758 
L 337.074987 80.296598 
L 337.637635 79.077705 
L 337.825185 78.953666 
L 338.012734 80.392304 
L 338.387922 79.164899 
L 338.575472 79.563171 
L 338.95057 79.174594 
L 339.13812 78.600241 
L 339.325669 78.819377 
L 339.513308 77.662012 
L 339.700857 77.556833 
L 339.888407 76.872396 
L 340.075956 76.767116 
L 340.263506 76.808342 
L 340.451055 76.083151 
L 340.638604 76.123983 
L 341.013793 73.952657 
L 341.201342 74.44759 
L 341.76399 72.654997 
L 341.951629 72.296029 
L 342.139178 71.003863 
L 342.514277 71.5426 
L 343.076925 69.396439 
L 343.264564 69.619149 
L 343.452114 68.215944 
L 343.639663 68.138782 
L 344.014762 68.783615 
L 344.389861 67.509585 
L 344.577499 67.49202 
L 344.765049 66.292645 
L 344.952598 67.460964 
L 345.140148 66.401652 
L 345.327697 66.973193 
L 345.515246 66.392719 
L 345.702885 67.170908 
L 345.890435 66.069427 
L 346.077984 65.89406 
L 346.265533 67.245951 
L 346.453083 66.080878 
L 346.640632 66.579402 
L 346.828182 66.348077 
L 347.01582 66.919148 
L 347.20337 66.244589 
L 347.578469 68.194091 
L 348.328756 70.163566 
L 348.516305 69.81263 
L 348.703854 69.762484 
L 348.891404 70.540393 
L 349.078953 70.232969 
L 349.266503 72.072358 
L 349.454141 72.045112 
L 349.641691 72.289892 
L 349.82924 71.909123 
L 350.01679 73.428369 
L 350.204339 73.187873 
L 350.391888 73.348018 
L 350.579438 74.795348 
L 351.142176 76.196108 
L 351.329725 76.399069 
L 351.517274 76.898418 
L 351.704824 76.998222 
L 351.892463 77.430931 
L 352.080012 77.137974 
L 352.267561 78.053588 
L 352.455111 80.412399 
L 352.64266 78.699633 
L 353.017759 78.949778 
L 353.205398 79.92677 
L 353.392947 80.013814 
L 353.580497 79.519026 
L 353.768046 80.16526 
L 353.955595 80.406124 
L 354.143145 80.464282 
L 354.330784 79.794214 
L 354.518333 80.221868 
L 354.893432 78.443309 
L 355.080981 78.970165 
L 355.268531 80.239893 
L 355.643719 79.574581 
L 355.831268 77.990708 
L 356.018818 78.23929 
L 356.206367 77.95372 
L 356.393916 78.068725 
L 356.581466 77.434841 
L 356.769105 75.930975 
L 356.956654 77.164427 
L 357.331753 74.806569 
L 357.519302 75.317462 
L 357.706852 74.253166 
L 357.894401 74.112508 
L 358.08204 73.202826 
L 358.269589 73.276974 
L 358.457139 71.84799 
L 358.644688 72.284667 
L 359.207336 70.230251 
L 359.394975 70.245903 
L 359.770074 68.846112 
L 359.957623 69.417332 
L 360.145173 68.90497 
L 360.332722 68.930269 
L 360.520361 67.568058 
L 360.89546 68.277848 
L 361.083009 66.66024 
L 361.270558 66.76841 
L 361.458108 67.266018 
L 362.020845 65.725175 
L 362.208395 66.264245 
L 362.395944 66.306496 
L 362.583494 66.668137 
L 362.771043 66.252352 
L 362.958682 66.814343 
L 363.146231 66.664687 
L 363.333781 67.574206 
L 363.52133 67.703501 
L 363.708879 67.58879 
L 363.896429 67.635245 
L 364.083978 67.077826 
L 364.271617 68.291425 
L 364.459166 68.608712 
L 364.834265 69.442064 
L 365.021815 68.845881 
L 365.209364 70.311015 
L 365.397003 70.127539 
L 365.584552 70.904333 
L 365.772102 70.78339 
L 365.959651 72.918859 
L 366.1472 72.220406 
L 366.522299 73.43672 
L 366.709938 74.346614 
L 366.897488 73.595364 
L 367.085037 75.182913 
L 367.272586 74.386899 
L 367.460136 76.034406 
L 367.647685 76.025763 
L 367.835234 76.528393 
L 368.022873 76.143446 
L 368.210423 78.200113 
L 368.397972 78.151487 
L 368.585522 78.532655 
L 368.773071 78.658054 
L 368.96062 78.229846 
L 369.148259 79.344039 
L 369.335809 79.243781 
L 369.523358 79.959644 
L 369.710907 78.918799 
L 369.898457 80.451601 
L 370.086006 79.575043 
L 370.273556 80.207622 
L 370.461194 79.483123 
L 370.648744 79.729528 
L 370.836293 78.948601 
L 371.023843 79.51731 
L 371.211392 79.475775 
L 371.398941 79.881751 
L 371.58658 79.059222 
L 371.77413 80.098806 
L 372.336778 78.024286 
L 372.524327 78.290242 
L 372.711877 77.304435 
L 373.087065 77.285981 
L 373.274614 77.035307 
L 373.462164 75.861115 
L 373.649713 76.409115 
L 373.837262 75.391219 
L 374.024812 75.113634 
L 374.212451 73.967314 
L 374.4 74.42714 
L 374.4 74.42714 
" clip-path="url(#pac3acb0733)" style="fill: none; stroke: #8dd3c7; stroke-width: 1.5; stroke-linecap: square"/>
   </g>
   <g id="line2d_24">
    <path d="M 275.929412 72.61402 
L 277.054798 69.952239 
L 277.805085 68.639502 
L 278.555282 67.786801 
L 279.11802 67.468861 
L 279.680668 67.424721 
L 280.243316 67.639399 
L 280.806054 68.08713 
L 281.556341 68.985616 
L 282.681637 70.770654 
L 285.119958 74.797774 
L 286.057795 75.866908 
L 286.808082 76.403383 
L 287.558279 76.634427 
L 288.308566 76.567172 
L 289.058853 76.231859 
L 289.9966 75.511826 
L 291.309536 74.168681 
L 293.185208 72.246091 
L 294.310594 71.428016 
L 295.248431 71.048324 
L 295.998628 70.9585 
L 296.936465 71.100042 
L 297.874301 71.479289 
L 299.187236 72.272786 
L 301.813107 73.928913 
L 302.938493 74.362958 
L 304.063878 74.536382 
L 305.189264 74.450278 
L 306.502199 74.084941 
L 311.378841 72.368232 
L 312.691777 72.285502 
L 314.192261 72.445039 
L 316.255483 72.933789 
L 318.881354 73.522543 
L 320.569388 73.662669 
L 322.257511 73.581115 
L 324.883382 73.192579 
L 327.696802 72.842167 
L 329.760024 72.813701 
L 332.385894 73.017983 
L 336.512249 73.33411 
L 339.325669 73.285797 
L 346.453083 73.018853 
L 358.457139 73.134183 
L 364.271617 73.103849 
L 374.4 73.140578 
L 374.4 73.140578 
" clip-path="url(#pac3acb0733)" style="fill: none; stroke-dasharray: 5.55,2.4; stroke-dashoffset: 0; stroke: #fa8174; stroke-width: 1.5"/>
   </g>
   <g id="patch_13">
    <path d="M 275.929412 114.52 
L 275.929412 31.36 
" style="fill: none; stroke: #ffffff; stroke-width: 0.8; stroke-linejoin: miter; stroke-linecap: square"/>
   </g>
   <g id="patch_14">
    <path d="M 374.4 114.52 
L 374.4 31.36 
" style="fill: none; stroke: #ffffff; stroke-width: 0.8; stroke-linejoin: miter; stroke-linecap: square"/>
   </g>
   <g id="patch_15">
    <path d="M 275.929412 114.52 
L 374.4 114.52 
" style="fill: none; stroke: #ffffff; stroke-width: 0.8; stroke-linejoin: miter; stroke-linecap: square"/>
   </g>
   <g id="patch_16">
    <path d="M 275.929412 31.36 
L 374.4 31.36 
" style="fill: none; stroke: #ffffff; stroke-width: 0.8; stroke-linejoin: miter; stroke-linecap: square"/>
   </g>
   <g id="text_15">
    <!-- $\tilde{x}_4$ -->
    <g style="fill: #ffffff" transform="translate(285.307561 43.612123) scale(0.1 -0.1)">
     <defs>
      <path id="CMR17-34" d="M 2150 4122 
C 2150 4256 2144 4256 2029 4256 
L 128 1254 
L 128 1088 
L 1779 1088 
L 1779 457 
C 1779 224 1766 160 1318 160 
L 1197 160 
L 1197 0 
C 1402 0 1747 0 1965 0 
C 2182 0 2528 0 2733 0 
L 2733 160 
L 2611 160 
C 2163 160 2150 224 2150 457 
L 2150 1088 
L 2803 1088 
L 2803 1254 
L 2150 1254 
L 2150 4122 
z
M 1798 3703 
L 1798 1254 
L 256 1254 
L 1798 3703 
z
" transform="scale(0.015625)"/>
     </defs>
     <use xlink:href="#CMR17-7e" transform="translate(7.581509 0.006461) scale(0.996264)"/>
     <use xlink:href="#CMMI12-78" transform="scale(0.996264)"/>
     <use xlink:href="#CMR17-34" transform="translate(55.43406 -14.943915) scale(0.697382)"/>
    </g>
   </g>
  </g>
  <g id="text_16">
   <!-- $\tilde{t}$ -->
   <g style="fill: #ffffff" transform="translate(198.592213 140.275404) scale(0.12 -0.12)">
    <defs>
     <path id="CMMI12-74" d="M 1286 2566 
L 1875 2566 
C 1997 2566 2061 2566 2061 2681 
C 2061 2752 2022 2752 1894 2752 
L 1331 2752 
L 1568 3692 
C 1594 3781 1594 3794 1594 3840 
C 1594 3943 1510 4000 1427 4000 
C 1376 4000 1229 3981 1178 3775 
L 928 2752 
L 326 2752 
C 198 2752 141 2752 141 2630 
C 141 2566 186 2566 307 2566 
L 877 2566 
L 454 881 
C 403 658 384 594 384 511 
C 384 211 595 -64 954 -64 
C 1600 -64 1946 868 1946 912 
C 1946 951 1920 970 1882 970 
C 1869 970 1843 970 1830 944 
C 1824 938 1818 931 1773 829 
C 1638 511 1344 64 973 64 
C 781 64 768 224 768 364 
C 768 370 768 492 787 568 
L 1286 2566 
z
" transform="scale(0.015625)"/>
    </defs>
    <use xlink:href="#CMR17-7e" transform="translate(2.89708 18.389976) scale(0.996264)"/>
    <use xlink:href="#CMMI12-74" transform="scale(0.996264)"/>
   </g>
  </g>
  <g id="text_17">
   <!-- $\tilde{x}_i$ -->
   <g style="fill: #ffffff" transform="translate(15.50218 77.167613) rotate(-90) scale(0.12 -0.12)">
    <defs>
     <path id="CMMI12-69" d="M 1811 913 
C 1811 945 1786 971 1747 971 
C 1690 971 1683 952 1651 843 
C 1485 262 1222 64 1011 64 
C 934 64 845 83 845 275 
C 845 447 922 639 992 830 
L 1440 2018 
C 1459 2069 1504 2184 1504 2305 
C 1504 2574 1312 2816 998 2816 
C 410 2816 173 1890 173 1839 
C 173 1814 198 1782 243 1782 
C 301 1782 307 1807 333 1896 
C 486 2428 730 2682 979 2682 
C 1037 2682 1146 2682 1146 2478 
C 1146 2312 1062 2101 1011 1961 
L 563 773 
C 525 671 486 568 486 453 
C 486 166 685 -64 992 -64 
C 1581 -64 1811 869 1811 913 
z
M 1760 4013 
C 1760 4109 1683 4224 1542 4224 
C 1395 4224 1229 4083 1229 3917 
C 1229 3758 1363 3707 1440 3707 
C 1613 3707 1760 3873 1760 4013 
z
" transform="scale(0.015625)"/>
    </defs>
    <use xlink:href="#CMR17-7e" transform="translate(7.581509 0.006461) scale(0.996264)"/>
    <use xlink:href="#CMMI12-78" transform="scale(0.996264)"/>
    <use xlink:href="#CMMI12-69" transform="translate(55.43406 -14.943915) scale(0.697382)"/>
   </g>
  </g>
  <g id="legend_1">
   <g id="patch_17">
    <path d="M 140.88593 24.137178 
L 262.31407 24.137178 
Q 264.31407 24.137178 264.31407 22.137178 
L 264.31407 9.2 
Q 264.31407 7.2 262.31407 7.2 
L 140.88593 7.2 
Q 138.88593 7.2 138.88593 9.2 
L 138.88593 22.137178 
Q 138.88593 24.137178 140.88593 24.137178 
z
" style="opacity: 0.8; stroke: #cccccc; stroke-linejoin: miter"/>
   </g>
   <g id="line2d_25">
    <path d="M 142.88593 14.7 
L 152.88593 14.7 
L 162.88593 14.7 
" style="fill: none; stroke: #8dd3c7; stroke-width: 1.5; stroke-linecap: square"/>
   </g>
   <g id="text_18">
    <!-- data -->
    <g style="fill: #ffffff" transform="translate(170.88593 18.2) scale(0.1 -0.1)">
     <defs>
      <path id="CMSS17-64" d="M 2611 4416 
L 2138 4416 
L 2138 2438 
C 1939 2603 1613 2756 1254 2756 
C 672 2756 211 2131 211 1347 
C 211 562 666 -64 1235 -64 
C 1677 -64 1971 172 2125 306 
L 2125 -13 
L 2611 -13 
L 2611 4416 
z
M 2125 836 
C 2125 747 2125 653 1926 482 
C 1798 375 1645 325 1498 325 
C 1152 325 698 576 698 1340 
C 698 2134 1210 2368 1562 2368 
C 1798 2368 1990 2254 2125 2065 
L 2125 836 
z
" transform="scale(0.015625)"/>
      <path id="CMSS17-61" d="M 2406 1791 
C 2406 2392 1978 2808 1402 2808 
C 1120 2808 813 2757 461 2553 
L 499 2135 
C 659 2248 934 2432 1395 2432 
C 1722 2432 1920 2180 1920 1782 
L 1920 1536 
C 896 1536 256 1238 256 726 
C 256 461 416 -64 947 -64 
C 1043 -64 1562 -64 1933 217 
L 1933 -19 
L 2406 -19 
L 2406 1791 
z
M 1920 816 
C 1920 701 1920 548 1728 434 
C 1562 325 1350 325 1261 325 
C 941 325 723 511 723 744 
C 723 1211 1722 1211 1920 1211 
L 1920 816 
z
" transform="scale(0.015625)"/>
      <path id="CMSS17-74" d="M 1069 2368 
L 1901 2368 
L 1901 2737 
L 1069 2737 
L 1069 3520 
L 614 3520 
L 614 2737 
L 109 2737 
L 109 2368 
L 602 2368 
L 602 749 
C 602 384 685 -64 1107 -64 
C 1427 -64 1722 25 2003 172 
L 1901 548 
C 1747 414 1562 337 1363 337 
C 1082 337 1069 696 1069 856 
L 1069 2368 
z
" transform="scale(0.015625)"/>
     </defs>
     <use xlink:href="#CMSS17-64" transform="scale(0.996264)"/>
     <use xlink:href="#CMSS17-61" transform="translate(48.204943 0) scale(0.996264)"/>
     <use xlink:href="#CMSS17-74" transform="translate(93.126864 0) scale(0.996264)"/>
     <use xlink:href="#CMSS17-61" transform="translate(126.95843 0) scale(0.996264)"/>
    </g>
   </g>
   <g id="line2d_26">
    <path d="M 209.20616 14.7 
L 219.20616 14.7 
L 229.20616 14.7 
" style="fill: none; stroke-dasharray: 5.55,2.4; stroke-dashoffset: 0; stroke: #fa8174; stroke-width: 1.5"/>
   </g>
   <g id="text_19">
    <!-- DMD -->
    <g style="fill: #ffffff" transform="translate(237.20616 18.2) scale(0.1 -0.1)">
     <defs>
      <path id="CMSS17-44" d="M 570 4416 
L 570 0 
L 2144 0 
C 3194 0 4000 980 4000 2170 
C 4000 3398 3194 4416 2144 4416 
L 570 4416 
z
M 1094 357 
L 1094 4059 
L 2003 4059 
C 2861 4059 3475 3277 3475 2170 
C 3475 1107 2867 357 2003 357 
L 1094 357 
z
" transform="scale(0.015625)"/>
      <path id="CMSS17-4d" d="M 3194 2371 
L 2886 1473 
C 2835 1307 2662 791 2624 587 
L 2618 587 
C 2598 715 2560 849 2458 1174 
C 2400 1365 2336 1562 2272 1741 
L 1325 4416 
L 576 4416 
L 576 0 
L 1075 0 
L 1075 3900 
L 1082 3900 
C 1082 3894 1139 3613 1530 2499 
L 2374 96 
L 2848 96 
L 3610 2231 
C 3661 2378 3821 2843 3891 3066 
C 3955 3257 4115 3728 4154 3913 
L 4160 3913 
L 4160 0 
L 4666 0 
L 4666 4416 
L 3923 4416 
L 3194 2371 
z
" transform="scale(0.015625)"/>
     </defs>
     <use xlink:href="#CMSS17-44" transform="scale(0.996264)"/>
     <use xlink:href="#CMSS17-4d" transform="translate(67.542842 0) scale(0.996264)"/>
     <use xlink:href="#CMSS17-44" transform="translate(149.218872 0) scale(0.996264)"/>
    </g>
   </g>
  </g>
 </g>
 <defs>
  <clipPath id="p4634ee2c0c">
   <rect x="39.6" y="31.36" width="98.470588" height="83.16"/>
  </clipPath>
  <clipPath id="p068ada239e">
   <rect x="157.764706" y="31.36" width="98.470588" height="83.16"/>
  </clipPath>
  <clipPath id="pac3acb0733">
   <rect x="275.929412" y="31.36" width="98.470588" height="83.16"/>
  </clipPath>
 </defs>
</svg>
