<?xml version="1.0" encoding="utf-8" standalone="no"?>
<!DOCTYPE svg PUBLIC "-//W3C//DTD SVG 1.1//EN"
  "http://www.w3.org/Graphics/SVG/1.1/DTD/svg11.dtd">
<svg xmlns:xlink="http://www.w3.org/1999/xlink" width="381.892243pt" height="149.8pt" viewBox="0 0 381.892243 149.8" xmlns="http://www.w3.org/2000/svg" version="1.1">
 <metadata>
  <rdf:RDF xmlns:dc="http://purl.org/dc/elements/1.1/" xmlns:cc="http://creativecommons.org/ns#" xmlns:rdf="http://www.w3.org/1999/02/22-rdf-syntax-ns#">
   <cc:Work>
    <dc:type rdf:resource="http://purl.org/dc/dcmitype/StillImage"/>
    <dc:date>2025-02-12T13:36:02.027363</dc:date>
    <dc:format>image/svg+xml</dc:format>
    <dc:creator>
     <cc:Agent>
      <dc:title>Matplotlib v3.9.2, https://matplotlib.org/</dc:title>
     </cc:Agent>
    </dc:creator>
   </cc:Work>
  </rdf:RDF>
 </metadata>
 <defs>
  <style type="text/css">*{stroke-linejoin: round; stroke-linecap: butt}</style>
 </defs>
 <g id="figure_1">
  <g id="patch_1">
   <path d="M 0 149.8 
L 381.892243 149.8 
L 381.892243 0 
L 0 0 
L 0 149.8 
z
" style="fill: none"/>
  </g>
  <g id="axes_1">
   <g id="patch_2">
    <path d="M 39.6 114.52 
L 138.070588 114.52 
L 138.070588 31.36 
L 39.6 31.36 
L 39.6 114.52 
z
" style="fill: none"/>
   </g>
   <g id="matplotlib.axis_1">
    <g id="xtick_1">
     <g id="line2d_1">
      <defs>
       <path id="m8969b24713" d="M 0 0 
L 0 3.5 
" style="stroke: #ffffff; stroke-width: 0.8"/>
      </defs>
      <g>
       <use xlink:href="#m8969b24713" x="39.6" y="114.52" style="fill: #ffffff; stroke: #ffffff; stroke-width: 0.8"/>
      </g>
     </g>
     <g id="text_1">
      <!-- $\mathdefault{0}$ -->
      <g style="fill: #ffffff" transform="translate(37.109332 128.438498) scale(0.1 -0.1)">
       <defs>
        <path id="CMR17-30" d="M 2688 2025 
C 2688 2416 2682 3080 2413 3591 
C 2176 4039 1798 4198 1466 4198 
C 1158 4198 768 4058 525 3597 
C 269 3118 243 2524 243 2025 
C 243 1661 250 1106 448 619 
C 723 -39 1216 -128 1466 -128 
C 1760 -128 2208 -7 2470 600 
C 2662 1042 2688 1559 2688 2025 
z
M 1466 -26 
C 1056 -26 813 325 723 812 
C 653 1188 653 1738 653 2096 
C 653 2588 653 2997 736 3387 
C 858 3929 1216 4096 1466 4096 
C 1728 4096 2067 3923 2189 3400 
C 2272 3036 2278 2607 2278 2096 
C 2278 1680 2278 1169 2202 792 
C 2067 95 1690 -26 1466 -26 
z
" transform="scale(0.015625)"/>
       </defs>
       <use xlink:href="#CMR17-30" transform="scale(0.996264)"/>
      </g>
     </g>
    </g>
    <g id="xtick_2">
     <g id="line2d_2">
      <g>
       <use xlink:href="#m8969b24713" x="86.490748" y="114.52" style="fill: #ffffff; stroke: #ffffff; stroke-width: 0.8"/>
      </g>
     </g>
     <g id="text_2">
      <!-- $\mathdefault{5}$ -->
      <g style="fill: #ffffff" transform="translate(84.00008 128.438498) scale(0.1 -0.1)">
       <defs>
        <path id="CMR17-35" d="M 730 3692 
C 794 3666 1056 3584 1325 3584 
C 1920 3584 2246 3911 2432 4100 
C 2432 4157 2432 4192 2394 4192 
C 2387 4192 2374 4192 2323 4163 
C 2099 4058 1837 3973 1517 3973 
C 1325 3973 1037 3999 723 4139 
C 653 4171 640 4171 634 4171 
C 602 4171 595 4164 595 4037 
L 595 2203 
C 595 2089 595 2057 659 2057 
C 691 2057 704 2070 736 2114 
C 941 2401 1222 2522 1542 2522 
C 1766 2522 2246 2382 2246 1289 
C 2246 1085 2246 715 2054 421 
C 1894 159 1645 25 1370 25 
C 947 25 518 320 403 814 
C 429 807 480 795 506 795 
C 589 795 749 840 749 1038 
C 749 1210 627 1280 506 1280 
C 358 1280 262 1190 262 1011 
C 262 454 704 -128 1382 -128 
C 2042 -128 2669 440 2669 1264 
C 2669 2030 2170 2624 1549 2624 
C 1222 2624 947 2503 730 2274 
L 730 3692 
z
" transform="scale(0.015625)"/>
       </defs>
       <use xlink:href="#CMR17-35" transform="scale(0.996264)"/>
      </g>
     </g>
    </g>
    <g id="xtick_3">
     <g id="line2d_3">
      <g>
       <use xlink:href="#m8969b24713" x="133.381496" y="114.52" style="fill: #ffffff; stroke: #ffffff; stroke-width: 0.8"/>
      </g>
     </g>
     <g id="text_3">
      <!-- $\mathdefault{10}$ -->
      <g style="fill: #ffffff" transform="translate(128.40016 128.438498) scale(0.1 -0.1)">
       <defs>
        <path id="CMR17-31" d="M 1702 4058 
C 1702 4192 1696 4192 1606 4192 
C 1357 3916 979 3827 621 3827 
C 602 3827 570 3827 563 3808 
C 557 3795 557 3782 557 3648 
C 755 3648 1088 3686 1344 3839 
L 1344 461 
C 1344 236 1331 160 781 160 
L 589 160 
L 589 0 
C 896 0 1216 0 1523 0 
C 1830 0 2150 0 2458 0 
L 2458 160 
L 2266 160 
C 1715 160 1702 230 1702 458 
L 1702 4058 
z
" transform="scale(0.015625)"/>
       </defs>
       <use xlink:href="#CMR17-31" transform="scale(0.996264)"/>
       <use xlink:href="#CMR17-30" transform="translate(45.690477 0) scale(0.996264)"/>
      </g>
     </g>
    </g>
   </g>
   <g id="matplotlib.axis_2">
    <g id="ytick_1">
     <g id="line2d_4">
      <defs>
       <path id="m5e6e00c88c" d="M 0 0 
L -3.5 0 
" style="stroke: #ffffff; stroke-width: 0.8"/>
      </defs>
      <g>
       <use xlink:href="#m5e6e00c88c" x="39.6" y="113.044269" style="fill: #ffffff; stroke: #ffffff; stroke-width: 0.8"/>
      </g>
     </g>
     <g id="text_4">
      <!-- $\mathdefault{−2}$ -->
      <g style="fill: #ffffff" transform="translate(19.869921 116.503518) scale(0.1 -0.1)">
       <defs>
        <path id="CMSY10-0" d="M 4218 1472 
C 4326 1472 4442 1472 4442 1600 
C 4442 1728 4326 1728 4218 1728 
L 755 1728 
C 646 1728 531 1728 531 1600 
C 531 1472 646 1472 755 1472 
L 4218 1472 
z
" transform="scale(0.015625)"/>
        <path id="CMR17-32" d="M 2669 989 
L 2554 989 
C 2490 536 2438 459 2413 420 
C 2381 369 1920 369 1830 369 
L 602 369 
C 832 619 1280 1072 1824 1597 
C 2214 1967 2669 2402 2669 3035 
C 2669 3790 2067 4224 1395 4224 
C 691 4224 262 3604 262 3030 
C 262 2780 448 2748 525 2748 
C 589 2748 781 2787 781 3010 
C 781 3207 614 3264 525 3264 
C 486 3264 448 3258 422 3245 
C 544 3790 915 4058 1306 4058 
C 1862 4058 2227 3617 2227 3035 
C 2227 2479 1901 2000 1536 1584 
L 262 146 
L 262 0 
L 2515 0 
L 2669 989 
z
" transform="scale(0.015625)"/>
       </defs>
       <use xlink:href="#CMSY10-0" transform="scale(0.996264)"/>
       <use xlink:href="#CMR17-32" transform="translate(77.487468 0) scale(0.996264)"/>
      </g>
     </g>
    </g>
    <g id="ytick_2">
     <g id="line2d_5">
      <g>
       <use xlink:href="#m5e6e00c88c" x="39.6" y="72.488925" style="fill: #ffffff; stroke: #ffffff; stroke-width: 0.8"/>
      </g>
     </g>
     <g id="text_5">
      <!-- $\mathdefault{0}$ -->
      <g style="fill: #ffffff" transform="translate(27.618665 75.948174) scale(0.1 -0.1)">
       <use xlink:href="#CMR17-30" transform="scale(0.996264)"/>
      </g>
     </g>
    </g>
    <g id="ytick_3">
     <g id="line2d_6">
      <g>
       <use xlink:href="#m5e6e00c88c" x="39.6" y="31.93358" style="fill: #ffffff; stroke: #ffffff; stroke-width: 0.8"/>
      </g>
     </g>
     <g id="text_6">
      <!-- $\mathdefault{2}$ -->
      <g style="fill: #ffffff" transform="translate(27.618665 35.392829) scale(0.1 -0.1)">
       <use xlink:href="#CMR17-32" transform="scale(0.996264)"/>
      </g>
     </g>
    </g>
   </g>
   <g id="line2d_7">
    <path d="M 39.6 43.1241 
L 39.787549 56.140228 
L 39.975099 52.035061 
L 40.162648 61.823057 
L 40.350287 36.604615 
L 40.537836 60.363128 
L 40.725386 58.367845 
L 40.912935 49.167847 
L 41.100485 51.62457 
L 41.288034 60.160549 
L 41.475673 52.659348 
L 41.663222 53.069312 
L 41.850772 49.282591 
L 42.038321 51.784553 
L 42.22587 57.826053 
L 42.41342 57.651643 
L 42.600969 54.775858 
L 42.788608 69.01133 
L 42.976157 50.311507 
L 43.163707 64.050195 
L 43.351256 55.061578 
L 43.538806 58.323906 
L 43.726355 52.368362 
L 43.913904 68.276665 
L 44.289093 61.460763 
L 44.476642 50.691608 
L 44.851741 64.87677 
L 45.03929 67.17895 
L 45.226929 62.610224 
L 45.414478 79.667088 
L 45.602028 76.604742 
L 45.977127 58.639575 
L 46.164676 61.224079 
L 46.352225 61.446194 
L 46.539864 68.125241 
L 46.727414 50.952354 
L 46.914963 69.636899 
L 47.102512 53.991982 
L 47.477611 70.151453 
L 47.66525 70.028403 
L 47.8528 83.760145 
L 48.040349 80.176 
L 48.227898 65.682039 
L 48.415448 62.940322 
L 48.978185 81.825233 
L 49.165735 74.915794 
L 49.353284 79.954746 
L 49.540834 78.015307 
L 49.728383 74.36726 
L 49.915932 82.718375 
L 50.103571 72.457264 
L 50.291121 80.231715 
L 50.47867 65.931537 
L 50.666219 86.223025 
L 50.853769 83.780856 
L 51.041318 87.54649 
L 51.228868 84.052133 
L 51.416506 77.335171 
L 51.604056 82.132749 
L 51.791605 74.272106 
L 51.979155 77.217057 
L 52.354253 86.910231 
L 52.729442 88.427325 
L 52.916991 79.253384 
L 53.10454 77.797462 
L 53.479639 81.846042 
L 53.667189 90.616688 
L 53.854827 85.569421 
L 54.042377 94.340161 
L 54.229926 92.21721 
L 54.417476 80.428327 
L 54.792574 89.656383 
L 54.980124 80.432738 
L 55.167763 96.585166 
L 55.355312 86.091311 
L 55.542861 97.71845 
L 55.730411 84.844873 
L 55.91796 83.174575 
L 56.10551 84.81826 
L 56.293148 77.041355 
L 56.668247 90.905328 
L 56.855797 89.623207 
L 57.043346 89.988444 
L 57.418445 81.381024 
L 57.606084 84.866171 
L 57.793633 92.019974 
L 57.981182 87.763375 
L 58.168732 100.960982 
L 58.356281 88.465347 
L 58.543831 96.023893 
L 58.731469 89.766639 
L 58.919019 94.228988 
L 59.106568 94.419105 
L 59.294118 110.74 
L 59.481667 95.729545 
L 59.669216 100.638226 
L 59.856766 87.489553 
L 60.044405 84.687207 
L 60.231954 101.925102 
L 60.419503 98.78211 
L 60.607053 91.660788 
L 60.794602 97.161256 
L 60.982152 95.011911 
L 61.169701 94.387247 
L 61.35734 82.152991 
L 61.544889 96.135026 
L 61.732439 81.986039 
L 61.919988 96.504496 
L 62.107537 95.739507 
L 62.295087 90.554832 
L 62.482726 100.0775 
L 62.670275 99.445841 
L 62.857824 86.711889 
L 63.045374 82.078434 
L 63.232923 98.904678 
L 63.420473 88.139001 
L 63.608022 88.621308 
L 63.795661 95.098583 
L 63.98321 92.446381 
L 64.17076 95.535817 
L 64.358309 96.463624 
L 64.545859 93.33449 
L 64.733408 96.412866 
L 64.921047 88.469212 
L 65.108596 95.778195 
L 65.296146 85.306934 
L 65.483695 92.519204 
L 65.671244 89.272614 
L 65.858794 95.011468 
L 66.046343 92.828484 
L 66.233982 83.897681 
L 66.421531 86.736577 
L 66.609081 85.108789 
L 66.79663 92.404549 
L 66.98418 87.02759 
L 67.171729 91.419245 
L 67.546917 75.455015 
L 67.734467 88.61557 
L 67.922016 86.161279 
L 68.109565 85.4737 
L 68.297115 85.826355 
L 68.484664 81.006993 
L 68.672303 82.38617 
L 68.859852 74.41804 
L 69.422501 95.215903 
L 69.61005 80.630288 
L 69.797599 74.876125 
L 69.985238 83.586476 
L 70.172788 79.863087 
L 70.360337 82.88 
L 70.547886 76.217349 
L 70.922985 74.189766 
L 71.110624 83.634787 
L 71.298173 77.610746 
L 71.485723 76.014557 
L 71.673272 76.333897 
L 71.860822 76.196196 
L 72.048371 80.034679 
L 72.23592 76.391618 
L 72.423559 69.11864 
L 72.611109 90.971868 
L 72.798658 70.357309 
L 72.986207 69.356745 
L 73.173757 78.139778 
L 73.361306 71.568977 
L 73.548945 76.398776 
L 73.736494 75.905822 
L 73.924044 73.377848 
L 74.111593 75.087641 
L 74.299143 63.610842 
L 74.486692 60.785363 
L 74.674241 69.57487 
L 74.86188 64.920485 
L 75.04943 70.946688 
L 75.236979 64.534403 
L 75.424528 69.870189 
L 75.612078 69.594022 
L 75.799627 81.596412 
L 75.987177 65.880164 
L 76.174815 66.008233 
L 76.362365 69.885914 
L 76.549914 69.583882 
L 76.737464 62.019822 
L 76.925013 72.414347 
L 77.112562 73.837531 
L 77.300201 65.049746 
L 77.487751 63.23361 
L 77.6753 59.489936 
L 77.862849 61.3992 
L 78.050399 71.207333 
L 78.237948 66.835114 
L 78.425498 59.214311 
L 78.613137 63.411081 
L 78.800686 62.718161 
L 78.988235 59.063133 
L 79.175785 66.077093 
L 79.363334 54.598402 
L 79.550883 52.888002 
L 79.738522 61.534736 
L 79.926072 55.385974 
L 80.301171 56.765093 
L 80.48872 49.639718 
L 80.676269 54.288918 
L 80.863819 48.40645 
L 81.051458 57.424923 
L 81.239007 43.293613 
L 81.426556 52.17436 
L 81.614106 55.584348 
L 81.801655 61.663395 
L 82.176843 47.935381 
L 82.364393 47.68524 
L 82.551942 56.55839 
L 82.739492 42.676893 
L 83.11459 60.301481 
L 83.489779 49.986224 
L 83.677328 48.895951 
L 83.864877 42.869509 
L 84.052427 48.098947 
L 84.239976 45.49301 
L 84.427526 52.268553 
L 84.615075 42.840906 
L 84.990263 60.201384 
L 85.177813 59.420443 
L 85.365362 57.832313 
L 85.552911 59.741539 
L 85.740461 42.796544 
L 86.115649 54.277847 
L 86.303198 40.258482 
L 86.490748 54.812416 
L 86.678297 54.919005 
L 86.865847 53.477021 
L 87.053396 53.534566 
L 87.241035 50.18654 
L 87.428584 52.529737 
L 87.616134 40.438833 
L 87.803683 45.972786 
L 87.991232 61.958368 
L 88.178782 49.740916 
L 88.366421 53.778363 
L 88.55397 50.83658 
L 88.929069 52.753441 
L 89.116618 50.452633 
L 89.304168 54.006712 
L 89.491717 52.044457 
L 89.679356 55.473185 
L 89.866905 61.595909 
L 90.054455 59.130641 
L 90.242004 45.652024 
L 90.429553 46.102524 
L 90.804652 57.854552 
L 90.992291 54.72658 
L 91.17984 59.897086 
L 91.36739 58.54304 
L 91.554939 54.277799 
L 92.117677 70.77104 
L 92.305226 54.089238 
L 92.680325 57.532873 
L 92.867874 61.977635 
L 93.055424 63.620075 
L 93.242973 55.665403 
L 93.430612 59.803146 
L 93.618161 68.641763 
L 93.805711 70.373886 
L 93.99326 56.24319 
L 94.18081 68.44731 
L 94.368359 54.802404 
L 94.743547 66.197394 
L 94.931097 60.669743 
L 95.118646 67.664687 
L 95.306195 61.681121 
L 95.493745 71.541389 
L 95.681294 72.850632 
L 95.868933 70.583715 
L 96.056483 64.17924 
L 96.244032 72.954684 
L 96.431581 58.371225 
L 96.619131 66.015603 
L 96.80668 52.651361 
L 96.994319 74.885374 
L 97.181868 61.478473 
L 97.369418 67.118756 
L 97.556967 67.054972 
L 97.932066 73.454821 
L 98.119615 69.296846 
L 98.307254 74.021911 
L 98.494804 69.918141 
L 98.682353 81.504675 
L 99.057452 68.622076 
L 99.245001 80.065573 
L 99.432551 75.496727 
L 99.620189 74.883145 
L 99.807739 75.780553 
L 99.995288 88.515919 
L 100.182838 77.73684 
L 100.370387 85.089052 
L 100.557936 70.116533 
L 100.745575 74.159402 
L 100.933125 74.455074 
L 101.120674 78.365192 
L 101.308223 87.280058 
L 101.495773 68.985151 
L 101.683322 86.082639 
L 101.870872 76.547521 
L 102.05851 76.184345 
L 102.24606 87.949609 
L 102.433609 81.631735 
L 102.621159 87.63498 
L 102.808708 97.780906 
L 102.996257 77.421571 
L 103.183896 96.35446 
L 103.371446 86.028549 
L 103.558995 85.072939 
L 103.746544 72.222454 
L 104.121643 97.048613 
L 104.309193 82.400103 
L 104.496831 81.878756 
L 104.684381 95.170714 
L 104.87193 76.197427 
L 105.05948 87.719142 
L 105.247029 87.172895 
L 105.434578 82.541857 
L 105.622217 95.240707 
L 105.809767 85.138734 
L 105.997316 91.346351 
L 106.184865 82.817223 
L 106.372415 94.113011 
L 106.559964 92.585988 
L 106.747514 95.198987 
L 106.935152 87.783191 
L 107.122702 100.38224 
L 107.310251 78.693768 
L 107.68535 94.964174 
L 107.872899 85.286897 
L 108.248088 102.372658 
L 108.435637 97.461355 
L 108.623186 100.493215 
L 108.810736 91.128773 
L 108.998285 90.125027 
L 109.185835 94.673338 
L 109.373473 92.420266 
L 109.748572 96.534608 
L 109.936122 96.563144 
L 110.123671 95.102008 
L 110.31122 92.246467 
L 110.49877 87.54367 
L 110.686409 87.554762 
L 110.873958 89.481236 
L 111.061507 81.980956 
L 111.436606 90.626142 
L 111.624156 96.286921 
L 111.811795 95.255119 
L 111.999344 88.464101 
L 112.186893 93.17347 
L 112.374443 92.029206 
L 112.561992 72.868927 
L 112.937091 98.150784 
L 113.12473 95.931379 
L 113.312279 83.970767 
L 113.499829 98.691672 
L 113.687378 87.666014 
L 113.874927 95.178314 
L 114.062477 88.213103 
L 114.437665 82.960931 
L 114.625214 93.032726 
L 114.812764 78.923867 
L 115.000313 90.108039 
L 115.187863 79.420552 
L 115.375412 90.233321 
L 115.563051 89.901362 
L 115.93815 76.341274 
L 116.125699 94.204329 
L 116.313248 98.91813 
L 116.500798 86.892339 
L 116.688347 83.829754 
L 116.875986 92.068498 
L 117.063535 86.421405 
L 117.251085 86.240604 
L 117.438634 80.682085 
L 117.813733 91.814113 
L 118.001372 81.775338 
L 118.188921 85.653579 
L 118.376471 85.665744 
L 118.751569 78.474009 
L 118.939119 88.393227 
L 119.314307 80.504539 
L 119.689406 84.421214 
L 119.876955 75.479106 
L 120.064505 86.197825 
L 120.252054 83.348451 
L 120.439693 74.120841 
L 120.627242 84.664059 
L 120.814792 76.616886 
L 121.002341 81.475484 
L 121.18989 74.715486 
L 121.37744 79.189205 
L 121.564989 76.836246 
L 121.752628 77.52145 
L 121.940177 75.976143 
L 122.127727 81.764287 
L 122.315276 61.491521 
L 122.502826 65.284498 
L 122.690375 74.422192 
L 122.877924 67.680376 
L 123.065563 66.509973 
L 123.440662 72.388752 
L 123.628211 65.538551 
L 123.815761 78.0722 
L 124.00331 63.818579 
L 124.190949 72.777722 
L 124.378498 69.674532 
L 124.566048 69.442138 
L 124.753597 64.559373 
L 124.941147 51.610648 
L 125.128696 75.814236 
L 125.316245 68.613375 
L 125.503884 68.961311 
L 125.691434 69.914366 
L 125.878983 56.647338 
L 126.066532 63.299312 
L 126.254082 57.211988 
L 126.441631 67.482783 
L 126.62927 59.334501 
L 126.816819 64.909379 
L 127.004369 59.49835 
L 127.191918 69.127787 
L 127.379468 50.897587 
L 127.567017 55.012953 
L 127.754566 76.777541 
L 127.942205 65.465142 
L 128.129755 68.278109 
L 128.317304 56.486749 
L 128.504854 56.832237 
L 128.692403 49.534789 
L 128.879952 59.155432 
L 129.067591 56.484796 
L 129.255141 62.710101 
L 129.44269 60.686054 
L 129.630239 61.015184 
L 129.817789 63.258302 
L 130.005338 54.518982 
L 130.192888 62.92504 
L 130.380526 58.70733 
L 130.568076 46.43976 
L 130.755625 57.082354 
L 130.943175 55.784245 
L 131.130724 47.4272 
L 131.318273 55.7721 
L 131.505823 51.029064 
L 131.693462 58.429996 
L 131.881011 50.772328 
L 132.06856 64.082082 
L 132.443659 53.844 
L 132.631209 51.383467 
L 132.818847 54.862778 
L 133.006397 47.654493 
L 133.193946 54.094152 
L 133.381496 48.180011 
L 133.569045 59.067543 
L 133.756594 54.740994 
L 133.944144 55.367906 
L 134.131783 50.773005 
L 134.319332 51.548444 
L 134.506881 57.923515 
L 134.694431 55.157896 
L 135.06953 35.14 
L 135.257168 37.144337 
L 135.444718 57.356121 
L 135.632267 56.430194 
L 135.819817 47.175696 
L 136.007366 54.402488 
L 136.194915 40.914297 
L 136.382465 49.95844 
L 136.570104 48.582781 
L 136.757653 61.893978 
L 136.945202 50.03151 
L 137.132752 45.627844 
L 137.320301 46.27303 
L 137.507851 55.603669 
L 137.6954 52.320601 
L 137.883039 61.823134 
L 138.070588 55.781041 
L 138.070588 55.781041 
" clip-path="url(#p5db9c6faa3)" style="fill: none; stroke: #8dd3c7; stroke-width: 1.5; stroke-linecap: square"/>
   </g>
   <g id="line2d_8">
    <path d="M 39.6 43.1241 
L 40.537836 44.872384 
L 41.663222 47.501125 
L 42.976157 51.17745 
L 44.664191 56.623976 
L 47.102512 65.332949 
L 52.729442 85.656091 
L 54.605025 91.541192 
L 56.10551 95.574329 
L 57.418445 98.459056 
L 58.543831 100.364443 
L 59.481667 101.50787 
L 60.231954 102.113899 
L 60.982152 102.436992 
L 61.732439 102.474012 
L 62.482726 102.226364 
L 63.232923 101.699855 
L 63.98321 100.904315 
L 64.921047 99.552098 
L 66.046343 97.447407 
L 67.359278 94.407208 
L 68.859852 90.289029 
L 70.735436 84.389467 
L 73.173757 75.851893 
L 79.738522 52.205434 
L 81.239007 47.866879 
L 82.364393 45.202694 
L 83.30214 43.448331 
L 84.239976 42.16724 
L 84.990263 41.506338 
L 85.740461 41.180947 
L 86.303198 41.1599 
L 86.865847 41.329502 
L 87.616134 41.847335 
L 88.366421 42.687534 
L 89.304168 44.164504 
L 90.242004 46.074427 
L 91.36739 48.864343 
L 92.867874 53.26674 
L 94.743547 59.53686 
L 98.119615 71.783573 
L 101.683322 84.425285 
L 103.746544 90.913884 
L 105.247029 94.955504 
L 106.559964 97.868854 
L 107.68535 99.814496 
L 108.623186 101.00159 
L 109.373473 101.648275 
L 110.123671 102.016237 
L 110.873958 102.101459 
L 111.624156 101.904463 
L 112.374443 101.430227 
L 113.12473 100.687871 
L 114.062477 99.402585 
L 115.000313 97.74963 
L 116.125699 95.331526 
L 117.438634 91.994796 
L 119.126668 87.046055 
L 121.18989 80.252392 
L 124.190949 69.493101 
L 128.129755 55.410289 
L 129.817789 50.168306 
L 131.130724 46.752473 
L 132.25611 44.423318 
L 133.193946 42.973187 
L 133.944144 42.163585 
L 134.694431 41.681069 
L 135.257168 41.538766 
L 135.819817 41.58587 
L 136.382465 41.821216 
L 137.132752 42.422054 
L 137.883039 43.338886 
L 138.070588 43.615445 
L 138.070588 43.615445 
" clip-path="url(#p5db9c6faa3)" style="fill: none; stroke-dasharray: 5.55,2.4; stroke-dashoffset: 0; stroke: #fa8174; stroke-width: 1.5"/>
   </g>
   <g id="patch_3">
    <path d="M 39.6 114.52 
L 39.6 31.36 
" style="fill: none; stroke: #ffffff; stroke-width: 0.8; stroke-linejoin: miter; stroke-linecap: square"/>
   </g>
   <g id="patch_4">
    <path d="M 138.070588 114.52 
L 138.070588 31.36 
" style="fill: none; stroke: #ffffff; stroke-width: 0.8; stroke-linejoin: miter; stroke-linecap: square"/>
   </g>
   <g id="patch_5">
    <path d="M 39.6 114.52 
L 138.070588 114.52 
" style="fill: none; stroke: #ffffff; stroke-width: 0.8; stroke-linejoin: miter; stroke-linecap: square"/>
   </g>
   <g id="patch_6">
    <path d="M 39.6 31.36 
L 138.070588 31.36 
" style="fill: none; stroke: #ffffff; stroke-width: 0.8; stroke-linejoin: miter; stroke-linecap: square"/>
   </g>
   <g id="text_7">
    <!-- $\tilde{x}_0$ -->
    <g style="fill: #ffffff" transform="translate(48.97815 54.23902) scale(0.1 -0.1)">
     <defs>
      <path id="CMR17-7e" d="M 2400 4184 
C 2182 3980 2061 3865 1862 3865 
C 1722 3865 1626 3932 1491 4024 
C 1363 4111 1261 4184 1120 4184 
C 890 4184 730 4004 461 3718 
L 531 3648 
C 749 3850 870 3968 1069 3968 
C 1210 3968 1306 3900 1440 3808 
C 1568 3722 1670 3648 1811 3648 
C 2042 3648 2202 3828 2470 4114 
L 2400 4184 
z
" transform="scale(0.015625)"/>
      <path id="CMMI12-78" d="M 3034 2606 
C 2829 2567 2752 2414 2752 2293 
C 2752 2139 2874 2088 2963 2088 
C 3155 2088 3290 2254 3290 2427 
C 3290 2695 2982 2816 2714 2816 
C 2323 2816 2106 2433 2048 2312 
C 1901 2816 1504 2816 1389 2816 
C 736 2816 390 1980 390 1839 
C 390 1814 416 1782 461 1782 
C 512 1782 525 1820 538 1846 
C 755 2555 1184 2689 1370 2689 
C 1658 2689 1715 2420 1715 2267 
C 1715 2127 1677 1980 1600 1673 
L 1382 798 
C 1286 415 1101 64 762 64 
C 730 64 570 64 435 147 
C 666 192 717 383 717 460 
C 717 588 621 664 499 664 
C 346 664 179 530 179 326 
C 179 57 480 -64 755 -64 
C 1062 -64 1280 179 1414 441 
C 1517 64 1837 -64 2074 -64 
C 2726 -64 3072 773 3072 913 
C 3072 945 3046 971 3008 971 
C 2950 971 2944 939 2925 888 
C 2752 326 2381 64 2093 64 
C 1869 64 1747 230 1747 492 
C 1747 632 1773 734 1875 1156 
L 2099 2024 
C 2195 2408 2413 2689 2707 2689 
C 2720 2689 2899 2689 3034 2606 
z
" transform="scale(0.015625)"/>
     </defs>
     <use xlink:href="#CMR17-7e" transform="translate(7.581509 0.006461) scale(0.996264)"/>
     <use xlink:href="#CMMI12-78" transform="scale(0.996264)"/>
     <use xlink:href="#CMR17-30" transform="translate(55.43406 -14.943915) scale(0.697382)"/>
    </g>
   </g>
  </g>
  <g id="axes_2">
   <g id="patch_7">
    <path d="M 157.764706 114.52 
L 256.235294 114.52 
L 256.235294 31.36 
L 157.764706 31.36 
L 157.764706 114.52 
z
" style="fill: none"/>
   </g>
   <g id="matplotlib.axis_3">
    <g id="xtick_4">
     <g id="line2d_9">
      <g>
       <use xlink:href="#m8969b24713" x="157.764706" y="114.52" style="fill: #ffffff; stroke: #ffffff; stroke-width: 0.8"/>
      </g>
     </g>
     <g id="text_8">
      <!-- $\mathdefault{0}$ -->
      <g style="fill: #ffffff" transform="translate(155.274038 128.438498) scale(0.1 -0.1)">
       <use xlink:href="#CMR17-30" transform="scale(0.996264)"/>
      </g>
     </g>
    </g>
    <g id="xtick_5">
     <g id="line2d_10">
      <g>
       <use xlink:href="#m8969b24713" x="204.655454" y="114.52" style="fill: #ffffff; stroke: #ffffff; stroke-width: 0.8"/>
      </g>
     </g>
     <g id="text_9">
      <!-- $\mathdefault{5}$ -->
      <g style="fill: #ffffff" transform="translate(202.164786 128.438498) scale(0.1 -0.1)">
       <use xlink:href="#CMR17-35" transform="scale(0.996264)"/>
      </g>
     </g>
    </g>
    <g id="xtick_6">
     <g id="line2d_11">
      <g>
       <use xlink:href="#m8969b24713" x="251.546201" y="114.52" style="fill: #ffffff; stroke: #ffffff; stroke-width: 0.8"/>
      </g>
     </g>
     <g id="text_10">
      <!-- $\mathdefault{10}$ -->
      <g style="fill: #ffffff" transform="translate(246.564866 128.438498) scale(0.1 -0.1)">
       <use xlink:href="#CMR17-31" transform="scale(0.996264)"/>
       <use xlink:href="#CMR17-30" transform="translate(45.690477 0) scale(0.996264)"/>
      </g>
     </g>
    </g>
   </g>
   <g id="matplotlib.axis_4">
    <g id="ytick_4">
     <g id="line2d_12">
      <g>
       <use xlink:href="#m5e6e00c88c" x="157.764706" y="113.044269" style="fill: #ffffff; stroke: #ffffff; stroke-width: 0.8"/>
      </g>
     </g>
    </g>
    <g id="ytick_5">
     <g id="line2d_13">
      <g>
       <use xlink:href="#m5e6e00c88c" x="157.764706" y="72.488925" style="fill: #ffffff; stroke: #ffffff; stroke-width: 0.8"/>
      </g>
     </g>
    </g>
    <g id="ytick_6">
     <g id="line2d_14">
      <g>
       <use xlink:href="#m5e6e00c88c" x="157.764706" y="31.93358" style="fill: #ffffff; stroke: #ffffff; stroke-width: 0.8"/>
      </g>
     </g>
    </g>
   </g>
   <g id="line2d_15">
    <path d="M 157.764706 65.210153 
L 158.139805 70.062675 
L 158.514993 63.254399 
L 158.702542 67.931112 
L 158.890092 63.038711 
L 159.26519 67.136449 
L 159.45274 65.224596 
L 159.640379 64.581423 
L 159.827928 66.762622 
L 160.015478 66.357029 
L 160.203027 67.251963 
L 160.390576 62.471958 
L 160.578126 68.112028 
L 160.765675 67.890519 
L 160.953314 64.423495 
L 161.328413 65.833677 
L 161.515962 68.089804 
L 161.703512 64.459975 
L 161.891061 68.28494 
L 162.07861 65.781989 
L 162.453799 69.296439 
L 162.641348 67.259587 
L 162.828897 73.358397 
L 163.016447 66.910886 
L 163.203996 66.498866 
L 163.391635 64.874314 
L 163.579184 71.295283 
L 163.766734 67.406695 
L 163.954283 71.131637 
L 164.141833 68.586126 
L 164.329382 69.86422 
L 164.70457 70.638864 
L 164.89212 70.443352 
L 165.079669 67.638882 
L 165.267218 70.419462 
L 165.454768 68.585885 
L 165.642317 73.160199 
L 166.017505 74.886561 
L 166.205055 71.930761 
L 166.580154 74.099303 
L 166.767703 72.977198 
L 166.955252 76.252442 
L 167.142891 73.351815 
L 167.330441 75.851947 
L 167.51799 72.72478 
L 167.893089 76.727589 
L 168.080638 73.236098 
L 168.268277 77.433267 
L 168.455826 75.33651 
L 168.643376 80.062949 
L 168.830925 79.565207 
L 169.206024 76.733366 
L 169.581212 80.227832 
L 169.768762 79.815114 
L 169.956311 82.152916 
L 170.14386 80.844277 
L 170.33141 77.408257 
L 170.518959 79.58721 
L 170.706509 80.16488 
L 170.894147 73.973721 
L 171.081697 81.420656 
L 171.269246 76.101473 
L 171.456796 79.658478 
L 171.644345 78.110919 
L 172.019533 79.548307 
L 172.207083 76.240087 
L 172.394632 82.930863 
L 172.582181 76.794637 
L 172.769731 80.861977 
L 172.95728 80.671565 
L 173.14483 75.647988 
L 173.520018 83.928 
L 173.707567 79.341276 
L 173.895117 80.535856 
L 174.082666 78.9423 
L 174.270215 79.293182 
L 174.457854 81.069353 
L 174.645404 77.745338 
L 174.832953 78.146437 
L 175.020502 78.000342 
L 175.208052 77.087458 
L 175.395601 77.139771 
L 175.583151 76.74254 
L 175.77079 80.154046 
L 175.958339 76.347237 
L 176.145888 75.713777 
L 176.333438 77.285378 
L 176.520987 76.434964 
L 176.708537 76.558225 
L 176.896175 71.360582 
L 177.083725 71.684693 
L 177.271274 72.704033 
L 177.458824 75.150116 
L 177.646373 72.132046 
L 177.833922 74.361628 
L 178.021472 71.195579 
L 178.209111 72.705381 
L 178.39666 78.135927 
L 178.584209 68.695418 
L 178.771759 74.676498 
L 178.959308 69.346059 
L 179.146858 70.303256 
L 179.334407 68.336735 
L 179.522046 70.352641 
L 179.709595 68.564641 
L 179.897145 70.041554 
L 180.084694 65.857146 
L 180.459793 72.02522 
L 180.647432 67.446015 
L 181.397629 71.951978 
L 181.585179 66.525051 
L 181.772728 66.209935 
L 182.147916 68.436889 
L 182.523015 64.797578 
L 182.710564 65.493548 
L 182.898114 70.162519 
L 183.085753 66.731327 
L 183.460851 67.251605 
L 183.648401 66.778785 
L 183.83595 65.317399 
L 184.0235 65.142269 
L 184.211049 64.457026 
L 184.586237 64.937032 
L 184.773787 68.867612 
L 184.961336 68.081628 
L 185.148885 65.36899 
L 185.336435 68.897604 
L 185.523984 69.377833 
L 185.711623 66.459826 
L 185.899172 69.319557 
L 186.086722 65.834068 
L 186.274271 66.180529 
L 186.461821 68.63355 
L 186.64937 68.243223 
L 186.837009 69.591121 
L 187.024558 68.044272 
L 187.212108 69.013786 
L 187.399657 68.404402 
L 187.587206 66.47414 
L 187.774756 69.138234 
L 187.962305 67.475304 
L 188.337493 71.562918 
L 188.525043 70.246486 
L 188.712592 69.921575 
L 188.900142 71.718751 
L 189.087691 67.454577 
L 189.27533 67.468503 
L 189.462879 72.176734 
L 189.650429 69.976211 
L 189.837978 71.029721 
L 190.025527 74.209318 
L 190.213077 70.141324 
L 190.400626 70.209552 
L 190.588265 71.924482 
L 190.775815 76.657643 
L 190.963364 70.200782 
L 191.150913 70.710198 
L 191.338463 72.513469 
L 191.526012 71.421883 
L 191.713651 73.510229 
L 191.9012 77.997459 
L 192.08875 74.068012 
L 192.463849 77.861235 
L 192.651398 75.969713 
L 192.838947 76.117028 
L 193.026586 72.929443 
L 193.401685 79.477278 
L 193.589234 75.273517 
L 193.776784 77.249488 
L 193.964333 77.184135 
L 194.151883 78.773722 
L 194.339521 76.162499 
L 194.527071 77.943316 
L 194.90217 75.762369 
L 195.089719 78.547746 
L 195.464907 76.489117 
L 195.652457 75.949682 
L 195.840006 81.073475 
L 196.027555 78.179876 
L 196.215105 82.645849 
L 196.402654 81.006644 
L 196.590204 75.738826 
L 196.777842 79.657737 
L 196.965392 78.333067 
L 197.340491 81.721028 
L 197.52804 80.282574 
L 197.903228 80.808074 
L 198.090778 79.474049 
L 198.278327 77.081917 
L 198.465876 78.139787 
L 198.653426 81.206122 
L 198.840975 78.22153 
L 199.028525 78.131942 
L 199.216163 77.00684 
L 199.403713 76.812256 
L 199.591262 80.951546 
L 199.966361 73.433627 
L 200.15391 73.834173 
L 200.341549 75.434895 
L 200.529099 75.984516 
L 200.716648 75.351535 
L 200.904197 76.831952 
L 201.279296 71.699427 
L 201.654484 73.914077 
L 201.842034 78.325364 
L 202.029583 74.066965 
L 202.217133 76.017019 
L 202.404682 72.080017 
L 202.592231 72.92319 
L 202.779781 71.34234 
L 202.96742 72.313023 
L 203.154969 75.059251 
L 203.342518 70.850064 
L 203.530068 72.312436 
L 203.717617 70.907306 
L 203.905167 73.386611 
L 204.092805 67.491337 
L 204.280355 71.997851 
L 204.467904 70.670992 
L 204.655454 71.080383 
L 204.843003 69.558742 
L 205.030552 66.413148 
L 205.405741 71.732254 
L 205.59329 70.971609 
L 205.780839 68.410405 
L 205.968389 63.488136 
L 206.155938 68.120711 
L 206.531127 65.381749 
L 206.718676 68.086473 
L 206.906225 66.03191 
L 207.093775 65.723623 
L 207.281324 67.841835 
L 207.468873 65.524713 
L 207.656423 67.040451 
L 207.844062 64.725875 
L 208.031611 65.145309 
L 208.219161 68.905696 
L 208.40671 66.214049 
L 208.594259 68.531866 
L 208.781809 64.167497 
L 208.969358 65.458582 
L 209.156997 64.39019 
L 209.344546 66.787047 
L 209.532096 65.149562 
L 209.719645 64.879596 
L 209.907195 67.480474 
L 210.094744 67.429169 
L 210.282383 66.432799 
L 210.469932 68.511199 
L 210.657482 66.443026 
L 210.845031 66.935059 
L 211.03258 65.77019 
L 211.22013 69.509415 
L 211.782867 61.286102 
L 212.157966 70.107829 
L 212.345516 69.46124 
L 212.533065 63.411203 
L 213.095803 70.495437 
L 213.470901 68.557257 
L 213.658451 66.723955 
L 213.846 72.332897 
L 214.033639 69.937639 
L 214.221188 69.901083 
L 214.408738 74.0643 
L 214.596287 70.61817 
L 214.783837 73.64782 
L 214.971386 74.570378 
L 215.159025 70.186552 
L 215.346574 71.874128 
L 215.534124 71.571746 
L 215.721673 74.330408 
L 216.096772 71.409579 
L 216.47196 74.25441 
L 216.659509 73.675867 
L 216.847059 74.185335 
L 217.222158 77.869948 
L 217.409707 75.855582 
L 217.597256 77.025719 
L 217.784895 73.8833 
L 217.972445 75.97808 
L 218.159994 76.246527 
L 218.347543 80.402845 
L 218.722642 77.384537 
L 218.910281 75.389397 
L 219.28538 78.10949 
L 219.472929 79.807006 
L 219.660479 80.1487 
L 220.035577 77.449379 
L 220.223216 79.935225 
L 220.410766 80.70271 
L 220.598315 80.109287 
L 220.785864 82.427782 
L 220.973414 75.573848 
L 221.160963 78.830717 
L 221.348602 79.685093 
L 221.536151 77.25639 
L 221.723701 79.119106 
L 221.91125 76.845647 
L 222.0988 81.942399 
L 222.473898 77.560603 
L 222.849087 79.075764 
L 223.036636 81.322049 
L 223.224185 77.129812 
L 223.411735 77.740101 
L 223.599284 77.304863 
L 223.786923 78.580245 
L 223.974473 78.420072 
L 224.162022 79.008735 
L 224.349571 79.17032 
L 224.537121 80.148319 
L 224.91222 74.099392 
L 225.099858 75.345016 
L 225.287408 77.674568 
L 225.662507 75.897336 
L 225.850056 75.315499 
L 226.225155 73.360762 
L 226.412794 73.87836 
L 226.600343 76.209821 
L 226.975442 71.550237 
L 227.162991 70.977185 
L 227.538179 74.272307 
L 227.913278 72.309642 
L 228.100828 71.462077 
L 228.288377 73.339083 
L 228.475926 70.256127 
L 228.663476 73.698005 
L 228.851115 72.525723 
L 229.038664 67.571484 
L 229.226213 71.517705 
L 229.413763 66.761685 
L 229.601312 73.107362 
L 229.788862 69.310449 
L 229.9765 69.571855 
L 230.16405 67.263658 
L 230.351599 71.443342 
L 230.539149 69.69324 
L 230.726698 69.579089 
L 230.914247 66.288752 
L 231.101797 68.670362 
L 231.664534 66.06262 
L 231.852084 67.609443 
L 232.039633 66.053311 
L 232.414732 68.009419 
L 232.602371 67.727393 
L 232.78992 66.861305 
L 232.97747 69.380913 
L 233.165019 67.833415 
L 233.352568 68.33543 
L 233.540118 63.504021 
L 233.727757 68.496689 
L 233.915306 66.233493 
L 234.102855 69.428995 
L 234.290405 62.582662 
L 234.477954 64.441318 
L 234.665504 63.918757 
L 234.853053 67.409882 
L 235.040692 68.579234 
L 235.228241 68.385927 
L 235.415791 67.053711 
L 235.60334 64.07996 
L 235.790889 65.768696 
L 235.978439 63.82157 
L 236.166078 67.426182 
L 236.541176 64.378653 
L 236.728726 67.735013 
L 236.916275 65.288979 
L 237.103825 67.801036 
L 237.291374 68.410617 
L 237.479013 67.313293 
L 237.666562 70.464132 
L 237.854112 71.705195 
L 238.041661 68.630999 
L 238.22921 69.686615 
L 238.41676 68.588438 
L 238.791948 69.196159 
L 238.979498 69.322526 
L 239.167047 69.959046 
L 239.354596 69.077565 
L 239.729695 72.008899 
L 239.917334 72.263683 
L 240.104883 73.557598 
L 240.292433 71.498864 
L 240.479982 72.742069 
L 240.667532 77.122749 
L 240.855081 70.746771 
L 241.04263 73.21269 
L 241.230269 72.119345 
L 241.417819 75.548692 
L 241.605368 72.465884 
L 241.792917 76.241977 
L 241.980467 73.13678 
L 242.168016 75.880956 
L 242.355655 73.641821 
L 242.730754 77.37489 
L 242.918303 80.810164 
L 243.105853 75.825194 
L 243.293402 75.260351 
L 243.480951 76.585377 
L 243.66859 76.304592 
L 243.85614 75.17061 
L 244.043689 77.9184 
L 244.231238 78.879124 
L 244.418788 78.700186 
L 244.606337 76.772788 
L 244.981525 79.615447 
L 245.356624 77.201099 
L 245.544174 77.784746 
L 245.731723 79.673713 
L 246.106911 79.772274 
L 246.294461 78.034446 
L 246.48201 80.856298 
L 246.669559 79.247233 
L 246.857109 78.644266 
L 247.044658 76.288299 
L 247.232297 79.676455 
L 247.419846 79.205274 
L 247.607396 76.846359 
L 247.794945 78.589358 
L 247.982495 81.431541 
L 248.357593 76.662555 
L 248.545232 79.800974 
L 248.732782 75.798885 
L 248.920331 78.08307 
L 249.10788 78.24845 
L 249.29543 75.483457 
L 249.482979 77.777764 
L 249.670529 74.46144 
L 249.858167 76.689302 
L 250.045717 77.065339 
L 250.233266 76.28169 
L 250.420816 74.043215 
L 250.608365 74.882393 
L 250.795914 77.694042 
L 251.171103 75.116399 
L 251.358652 75.693851 
L 251.546201 73.399037 
L 251.733751 73.661834 
L 251.9213 71.017714 
L 252.10885 73.022628 
L 252.296488 71.351418 
L 252.484038 74.173205 
L 252.671587 74.499155 
L 252.859137 71.725144 
L 253.046686 71.570573 
L 253.234235 75.248861 
L 253.421874 71.348448 
L 253.609424 72.522444 
L 253.796973 70.25556 
L 253.984522 73.956388 
L 254.172072 68.319227 
L 254.359621 70.931946 
L 254.547171 70.003124 
L 254.73481 67.385025 
L 254.922359 69.774175 
L 255.109908 70.073225 
L 255.297458 69.565577 
L 255.485007 67.835679 
L 255.672556 67.609166 
L 255.860106 63.224115 
L 256.235294 70.081941 
L 256.235294 70.081941 
" clip-path="url(#pc87f65f3b0)" style="fill: none; stroke: #8dd3c7; stroke-width: 1.5; stroke-linecap: square"/>
   </g>
   <g id="line2d_16">
    <path d="M 157.764706 65.210153 
L 158.514993 65.231319 
L 159.26519 65.512626 
L 160.015478 66.048023 
L 160.953314 67.049633 
L 162.07861 68.66845 
L 163.579184 71.318674 
L 166.580154 76.808333 
L 167.705539 78.395269 
L 168.643376 79.348953 
L 169.393573 79.827678 
L 170.14386 80.033444 
L 170.894147 79.959011 
L 171.644345 79.608307 
L 172.394632 78.996226 
L 173.332468 77.902817 
L 174.457854 76.202769 
L 176.145888 73.183228 
L 178.39666 69.199966 
L 179.522046 67.602761 
L 180.459793 66.604109 
L 181.21008 66.061025 
L 181.960367 65.763317 
L 182.710564 65.717574 
L 183.460851 65.921029 
L 184.211049 66.36198 
L 185.148885 67.216128 
L 186.274271 68.611615 
L 187.774756 70.900394 
L 191.150913 76.212987 
L 192.276299 77.550478 
L 193.214136 78.362907 
L 194.151883 78.855179 
L 194.90217 79.000448 
L 195.652457 78.918355 
L 196.402654 78.610559 
L 197.152941 78.085886 
L 198.090778 77.149799 
L 199.216163 75.677364 
L 200.716648 73.300147 
L 203.905167 68.075619 
L 205.030552 66.658891 
L 205.968389 65.80498 
L 206.718676 65.3765 
L 207.468873 65.196205 
L 208.219161 65.275018 
L 208.969358 65.614411 
L 209.719645 66.206046 
L 210.657482 67.271796 
L 211.782867 68.952784 
L 213.283352 71.650287 
L 216.096772 76.790106 
L 217.222158 78.379761 
L 218.159994 79.335953 
L 218.910281 79.8169 
L 219.660479 80.025159 
L 220.410766 79.953576 
L 221.160963 79.606155 
L 221.91125 78.997838 
L 222.849087 77.909806 
L 223.974473 76.217002 
L 225.662507 73.208727 
L 227.913278 69.236235 
L 229.038664 67.640141 
L 229.9765 66.639355 
L 230.726698 66.092362 
L 231.476985 65.788776 
L 232.227183 65.735299 
L 232.97747 65.929408 
L 233.727757 66.359762 
L 234.665504 67.199619 
L 235.790889 68.577861 
L 237.291374 70.8468 
L 240.667532 76.14716 
L 241.792917 77.493252 
L 242.730754 78.317186 
L 243.66859 78.824002 
L 244.418788 78.982347 
L 245.169075 78.913909 
L 245.919272 78.619678 
L 246.669559 78.107824 
L 247.607396 77.18581 
L 248.732782 75.726174 
L 250.233266 73.357465 
L 253.609424 67.856396 
L 254.73481 66.492178 
L 255.672556 65.695069 
L 256.235294 65.389732 
L 256.235294 65.389732 
" clip-path="url(#pc87f65f3b0)" style="fill: none; stroke-dasharray: 5.55,2.4; stroke-dashoffset: 0; stroke: #fa8174; stroke-width: 1.5"/>
   </g>
   <g id="patch_8">
    <path d="M 157.764706 114.52 
L 157.764706 31.36 
" style="fill: none; stroke: #ffffff; stroke-width: 0.8; stroke-linejoin: miter; stroke-linecap: square"/>
   </g>
   <g id="patch_9">
    <path d="M 256.235294 114.52 
L 256.235294 31.36 
" style="fill: none; stroke: #ffffff; stroke-width: 0.8; stroke-linejoin: miter; stroke-linecap: square"/>
   </g>
   <g id="patch_10">
    <path d="M 157.764706 114.52 
L 256.235294 114.52 
" style="fill: none; stroke: #ffffff; stroke-width: 0.8; stroke-linejoin: miter; stroke-linecap: square"/>
   </g>
   <g id="patch_11">
    <path d="M 157.764706 31.36 
L 256.235294 31.36 
" style="fill: none; stroke: #ffffff; stroke-width: 0.8; stroke-linejoin: miter; stroke-linecap: square"/>
   </g>
   <g id="text_11">
    <!-- $\tilde{x}_2$ -->
    <g style="fill: #ffffff" transform="translate(167.142855 54.23902) scale(0.1 -0.1)">
     <use xlink:href="#CMR17-7e" transform="translate(7.581509 0.006461) scale(0.996264)"/>
     <use xlink:href="#CMMI12-78" transform="scale(0.996264)"/>
     <use xlink:href="#CMR17-32" transform="translate(55.43406 -14.943915) scale(0.697382)"/>
    </g>
   </g>
  </g>
  <g id="axes_3">
   <g id="patch_12">
    <path d="M 275.929412 114.52 
L 374.4 114.52 
L 374.4 31.36 
L 275.929412 31.36 
L 275.929412 114.52 
z
" style="fill: none"/>
   </g>
   <g id="matplotlib.axis_5">
    <g id="xtick_7">
     <g id="line2d_17">
      <g>
       <use xlink:href="#m8969b24713" x="275.929412" y="114.52" style="fill: #ffffff; stroke: #ffffff; stroke-width: 0.8"/>
      </g>
     </g>
     <g id="text_12">
      <!-- $\mathdefault{0}$ -->
      <g style="fill: #ffffff" transform="translate(273.438744 128.438498) scale(0.1 -0.1)">
       <use xlink:href="#CMR17-30" transform="scale(0.996264)"/>
      </g>
     </g>
    </g>
    <g id="xtick_8">
     <g id="line2d_18">
      <g>
       <use xlink:href="#m8969b24713" x="322.82016" y="114.52" style="fill: #ffffff; stroke: #ffffff; stroke-width: 0.8"/>
      </g>
     </g>
     <g id="text_13">
      <!-- $\mathdefault{5}$ -->
      <g style="fill: #ffffff" transform="translate(320.329492 128.438498) scale(0.1 -0.1)">
       <use xlink:href="#CMR17-35" transform="scale(0.996264)"/>
      </g>
     </g>
    </g>
    <g id="xtick_9">
     <g id="line2d_19">
      <g>
       <use xlink:href="#m8969b24713" x="369.710907" y="114.52" style="fill: #ffffff; stroke: #ffffff; stroke-width: 0.8"/>
      </g>
     </g>
     <g id="text_14">
      <!-- $\mathdefault{10}$ -->
      <g style="fill: #ffffff" transform="translate(364.729572 128.438498) scale(0.1 -0.1)">
       <use xlink:href="#CMR17-31" transform="scale(0.996264)"/>
       <use xlink:href="#CMR17-30" transform="translate(45.690477 0) scale(0.996264)"/>
      </g>
     </g>
    </g>
   </g>
   <g id="matplotlib.axis_6">
    <g id="ytick_7">
     <g id="line2d_20">
      <g>
       <use xlink:href="#m5e6e00c88c" x="275.929412" y="113.044269" style="fill: #ffffff; stroke: #ffffff; stroke-width: 0.8"/>
      </g>
     </g>
    </g>
    <g id="ytick_8">
     <g id="line2d_21">
      <g>
       <use xlink:href="#m5e6e00c88c" x="275.929412" y="72.488925" style="fill: #ffffff; stroke: #ffffff; stroke-width: 0.8"/>
      </g>
     </g>
    </g>
    <g id="ytick_9">
     <g id="line2d_22">
      <g>
       <use xlink:href="#m5e6e00c88c" x="275.929412" y="31.93358" style="fill: #ffffff; stroke: #ffffff; stroke-width: 0.8"/>
      </g>
     </g>
    </g>
   </g>
   <g id="line2d_23">
    <path d="M 275.929412 73.333484 
L 276.116961 72.889358 
L 276.304511 71.999896 
L 276.49206 73.067025 
L 276.679699 71.83511 
L 276.867248 72.128683 
L 277.054798 70.044652 
L 277.242347 69.988061 
L 277.429896 70.945034 
L 277.992634 69.393639 
L 278.367733 69.616525 
L 278.555282 69.172679 
L 278.742832 67.703247 
L 278.930381 68.063407 
L 279.11802 67.11313 
L 279.305569 67.924276 
L 279.493119 67.569762 
L 279.680668 68.814551 
L 279.868217 66.97288 
L 280.243316 69.534089 
L 280.430955 68.944786 
L 280.618504 66.220605 
L 280.806054 69.456507 
L 280.993603 66.731404 
L 281.181153 69.381311 
L 281.368702 68.427363 
L 281.556341 69.46578 
L 281.74389 67.226299 
L 281.93144 68.820588 
L 282.118989 68.021526 
L 282.494088 71.383128 
L 282.681637 71.517454 
L 282.869276 71.241185 
L 283.056825 69.201491 
L 283.244375 71.798048 
L 283.619474 71.42235 
L 283.807023 73.186729 
L 283.994662 70.767434 
L 284.182211 72.898498 
L 284.369761 71.086321 
L 284.55731 72.804997 
L 284.744859 71.866347 
L 284.932409 75.247569 
L 285.119958 74.044695 
L 285.307597 74.880162 
L 285.495146 76.918363 
L 285.682696 74.538455 
L 285.870245 76.741253 
L 286.057795 74.363509 
L 286.432983 76.594913 
L 286.808082 74.773134 
L 286.995631 75.792966 
L 287.183181 75.142419 
L 287.558279 77.133478 
L 287.745918 77.195229 
L 287.933468 75.643626 
L 288.121017 79.077349 
L 288.308566 75.749733 
L 288.496116 76.30207 
L 288.683665 75.275525 
L 288.871215 76.065195 
L 289.058853 74.366839 
L 289.246403 74.167251 
L 289.433952 76.407067 
L 289.621502 76.809651 
L 289.809051 75.673057 
L 289.9966 73.34712 
L 290.184239 74.89692 
L 290.371789 75.492087 
L 290.559338 73.798062 
L 290.746887 73.452614 
L 290.934437 73.533482 
L 291.121986 72.176314 
L 291.309536 72.611758 
L 291.497174 74.253768 
L 291.872273 71.321328 
L 292.059823 71.767629 
L 292.247372 71.908919 
L 292.434921 69.814625 
L 292.62256 72.966352 
L 292.81011 70.001555 
L 292.997659 71.905094 
L 293.185208 70.642244 
L 293.372758 71.16295 
L 293.747857 70.045066 
L 293.935495 71.01449 
L 294.123045 71.141055 
L 294.310594 70.560401 
L 294.498144 70.369423 
L 294.685693 71.065682 
L 295.060881 68.961724 
L 295.248431 69.169623 
L 295.43598 69.031119 
L 295.623529 68.148046 
L 295.811079 66.324007 
L 295.998628 69.028348 
L 296.186178 66.851549 
L 296.373816 68.344283 
L 296.561366 68.787667 
L 296.748915 68.049807 
L 296.936465 69.672522 
L 297.124014 68.278772 
L 297.311563 68.766914 
L 297.499113 67.655729 
L 297.686752 68.067593 
L 297.874301 70.278597 
L 298.06185 71.13657 
L 298.436949 68.083963 
L 298.624499 66.801496 
L 298.812137 70.344203 
L 298.999687 69.281965 
L 299.187236 70.221255 
L 299.374786 72.015342 
L 299.562335 72.417779 
L 299.749884 72.036363 
L 299.937434 73.008035 
L 300.125073 73.150963 
L 300.312622 72.90773 
L 300.500171 74.205965 
L 300.687721 70.718494 
L 300.87527 70.712903 
L 301.438008 77.198449 
L 301.625557 72.373085 
L 301.813107 72.67997 
L 302.000656 74.019997 
L 302.188205 74.062 
L 302.375755 74.529904 
L 302.563394 73.543962 
L 303.126042 76.805971 
L 303.313591 75.634722 
L 303.501141 77.479893 
L 303.68869 75.465783 
L 303.876329 75.273704 
L 304.063878 76.561743 
L 304.251428 76.202563 
L 304.438977 75.319844 
L 304.814076 77.703324 
L 305.001715 76.703215 
L 305.189264 76.792372 
L 305.376814 76.621323 
L 305.564363 73.992425 
L 305.751912 73.553656 
L 306.31465 77.47534 
L 306.502199 74.664678 
L 306.689749 74.808798 
L 306.877298 75.247415 
L 307.252397 75.019084 
L 307.440036 77.910327 
L 307.815135 72.118091 
L 308.002684 73.56378 
L 308.190233 73.692247 
L 308.377783 72.94716 
L 308.565332 70.325496 
L 308.752971 74.932119 
L 308.94052 69.182551 
L 309.12807 71.923334 
L 309.315619 70.328382 
L 309.690718 69.415975 
L 309.878357 71.48152 
L 310.065906 71.262473 
L 310.253456 69.728125 
L 310.441005 69.303568 
L 310.816104 71.66811 
L 311.003653 70.020237 
L 311.191292 70.85743 
L 311.378841 68.373323 
L 311.75394 69.938691 
L 311.94149 68.492181 
L 312.129039 68.587419 
L 312.316588 67.54892 
L 312.691777 69.452489 
L 312.879326 69.130253 
L 313.066875 68.294833 
L 313.254425 68.501514 
L 313.441974 69.34529 
L 313.629613 67.85718 
L 313.817162 68.023377 
L 314.004712 69.483986 
L 314.192261 67.932377 
L 314.379811 69.668734 
L 314.754909 68.881851 
L 314.942548 68.864665 
L 315.130098 67.228689 
L 315.317647 72.151266 
L 315.505196 68.212667 
L 315.692746 70.623317 
L 315.880295 70.816573 
L 316.067934 71.766525 
L 316.255483 70.756587 
L 316.443033 72.002906 
L 316.630582 71.033848 
L 316.818132 71.689675 
L 317.005681 72.785883 
L 317.19323 71.877239 
L 317.380869 72.68185 
L 317.755968 75.682853 
L 317.943517 74.428504 
L 318.131067 71.95763 
L 318.318616 76.215822 
L 318.506255 75.188026 
L 318.693805 75.514663 
L 318.881354 74.582049 
L 319.068903 76.721373 
L 319.444002 73.335788 
L 319.631551 76.294899 
L 319.81919 75.505327 
L 320.00674 76.868439 
L 320.194289 75.866218 
L 320.381839 76.19585 
L 320.569388 76.881636 
L 320.756937 77.111451 
L 320.944487 76.588161 
L 321.132126 78.343524 
L 321.319675 78.51863 
L 321.507224 75.014125 
L 321.694774 75.31898 
L 321.882323 73.509311 
L 322.069873 76.430506 
L 322.257511 75.969533 
L 322.445061 74.460097 
L 322.82016 76.292518 
L 323.195258 74.902879 
L 323.382808 76.217272 
L 323.570447 74.800566 
L 323.757996 75.171276 
L 323.945545 74.819421 
L 324.133095 76.20282 
L 324.320644 76.185561 
L 324.695832 72.888679 
L 324.883382 72.749365 
L 325.070931 72.300127 
L 325.258481 72.719066 
L 325.633579 74.554691 
L 325.821129 71.669417 
L 326.008768 72.411899 
L 326.383866 69.480413 
L 326.571416 69.089321 
L 326.758965 71.075917 
L 327.134064 68.693319 
L 327.509252 70.829674 
L 327.696802 69.122202 
L 327.884351 71.122954 
L 328.0719 68.057527 
L 328.447089 69.560404 
L 328.634638 65.021775 
L 328.822187 68.647711 
L 329.009737 67.861769 
L 329.197286 68.052634 
L 329.384836 67.342728 
L 329.572385 67.479065 
L 329.760024 67.816856 
L 329.947573 64.682158 
L 330.135123 68.62863 
L 330.322672 68.622492 
L 330.697771 71.208829 
L 330.88541 69.249268 
L 331.260508 69.448008 
L 331.448058 69.246003 
L 331.635607 68.33035 
L 331.823157 69.650045 
L 332.010706 68.7991 
L 332.198345 70.234416 
L 332.385894 69.916009 
L 332.573444 69.956261 
L 332.760993 71.656714 
L 332.948542 70.736774 
L 333.136092 71.950032 
L 333.323731 70.136785 
L 333.698829 73.281151 
L 333.886379 72.16386 
L 334.073928 73.713741 
L 334.261478 73.461931 
L 334.449027 76.516387 
L 334.636666 73.906122 
L 334.824215 75.850737 
L 335.011765 72.80014 
L 335.199314 75.158533 
L 335.386863 71.936857 
L 335.574413 75.748939 
L 335.761962 75.401415 
L 336.137151 76.319426 
L 336.3247 76.383046 
L 336.512249 77.392875 
L 336.887348 77.241299 
L 337.074987 75.6649 
L 337.262536 76.623093 
L 337.450086 76.519503 
L 337.637635 77.543557 
L 337.825185 77.509499 
L 338.200283 74.569083 
L 338.387922 75.955035 
L 338.575472 75.407394 
L 338.763021 74.515054 
L 338.95057 76.571648 
L 339.13812 74.536755 
L 339.325669 75.96011 
L 339.513308 75.507969 
L 339.700857 73.336709 
L 339.888407 75.222586 
L 340.075956 75.23702 
L 340.263506 76.250225 
L 340.451055 73.910869 
L 340.638604 73.881502 
L 340.826243 73.021387 
L 341.013793 75.349616 
L 341.201342 72.414037 
L 341.388891 73.713928 
L 341.576441 71.504768 
L 341.76399 70.617196 
L 341.951629 73.106264 
L 342.326728 70.93672 
L 342.514277 69.372275 
L 342.701827 71.110664 
L 342.889376 69.773839 
L 343.076925 71.056086 
L 343.264564 69.580749 
L 343.452114 70.873909 
L 343.827212 68.327662 
L 344.014762 70.597424 
L 344.202311 69.437189 
L 344.389861 70.194694 
L 344.577499 69.566395 
L 344.765049 67.535996 
L 344.952598 69.926227 
L 345.140148 68.746859 
L 345.327697 70.193617 
L 345.515246 67.869202 
L 345.702885 67.761401 
L 345.890435 68.35103 
L 346.077984 69.795054 
L 346.265533 66.555289 
L 346.453083 66.139492 
L 347.01582 69.924799 
L 347.390919 67.093828 
L 347.578469 69.983349 
L 347.766018 69.394281 
L 347.953567 71.562463 
L 348.328756 68.878931 
L 348.516305 72.100785 
L 348.891404 70.130069 
L 349.078953 71.586817 
L 349.266503 71.733685 
L 349.454141 72.238157 
L 349.641691 71.543882 
L 349.82924 72.494354 
L 350.01679 71.953554 
L 350.204339 72.740177 
L 350.391888 72.484851 
L 350.579438 73.003325 
L 350.767077 72.03416 
L 350.954626 74.459532 
L 351.142176 72.541917 
L 351.517274 73.72609 
L 351.704824 74.534377 
L 351.892463 76.274206 
L 352.080012 76.263022 
L 352.267561 77.062858 
L 352.455111 74.714026 
L 352.64266 76.210169 
L 353.017759 75.364177 
L 353.205398 78.176157 
L 353.392947 75.245138 
L 353.580497 76.609865 
L 353.768046 77.037192 
L 353.955595 75.11392 
L 354.143145 77.110008 
L 354.330784 75.082427 
L 354.705882 78.297383 
L 354.893432 76.949602 
L 355.080981 76.54564 
L 355.268531 75.350609 
L 355.45608 78.107472 
L 355.831268 74.85955 
L 356.018818 75.122432 
L 356.206367 74.978292 
L 356.393916 72.257434 
L 356.581466 73.404199 
L 356.769105 73.237335 
L 356.956654 72.539623 
L 357.331753 74.952934 
L 357.706852 72.146402 
L 357.894401 75.293348 
L 358.269589 70.354621 
L 358.644688 71.997835 
L 358.832237 72.110026 
L 359.019787 71.582967 
L 359.207336 70.444855 
L 359.394975 70.653362 
L 359.582524 71.277293 
L 360.145173 68.999893 
L 360.332722 68.751287 
L 360.70791 70.003381 
L 360.89546 67.949339 
L 361.083009 67.814885 
L 361.270558 68.607913 
L 361.458108 69.983587 
L 361.645657 67.506964 
L 361.833296 69.111757 
L 362.020845 68.803479 
L 362.208395 69.745813 
L 362.583494 67.927697 
L 362.958682 66.305748 
L 363.146231 66.690658 
L 363.333781 68.876976 
L 363.52133 68.23391 
L 363.708879 70.557523 
L 364.271617 68.527403 
L 364.459166 71.530794 
L 364.646716 70.382535 
L 364.834265 70.099505 
L 365.021815 70.223067 
L 365.209364 70.147062 
L 365.397003 71.279914 
L 365.584552 69.486497 
L 365.959651 73.83509 
L 366.33475 73.322923 
L 366.522299 73.664119 
L 366.709938 72.686952 
L 366.897488 73.641438 
L 367.085037 73.396203 
L 367.272586 75.553454 
L 367.460136 73.714437 
L 367.835234 74.558149 
L 368.022873 73.148725 
L 368.210423 74.867673 
L 368.397972 74.896468 
L 368.585522 75.721624 
L 368.773071 74.259088 
L 368.96062 75.081022 
L 369.148259 76.536478 
L 369.335809 75.5192 
L 369.523358 76.948899 
L 369.710907 75.516124 
L 369.898457 74.987463 
L 370.086006 76.403147 
L 370.273556 75.67422 
L 370.461194 77.14767 
L 370.648744 76.704102 
L 370.836293 77.575307 
L 371.023843 76.749651 
L 371.211392 75.301828 
L 371.398941 78.28767 
L 371.58658 77.739761 
L 371.77413 76.543823 
L 371.961679 76.51063 
L 372.149228 77.584041 
L 372.336778 75.712251 
L 372.524327 77.865643 
L 372.711877 74.001028 
L 372.899515 74.969709 
L 373.087065 74.133009 
L 373.274614 73.97212 
L 373.462164 76.498287 
L 373.649713 74.639686 
L 373.837262 75.95507 
L 374.024812 74.971435 
L 374.212451 72.735074 
L 374.4 73.498174 
L 374.4 73.498174 
" clip-path="url(#pbaa1d744c4)" style="fill: none; stroke: #8dd3c7; stroke-width: 1.5; stroke-linecap: square"/>
   </g>
   <g id="line2d_24">
    <path d="M 275.929412 73.333484 
L 277.992634 69.133661 
L 278.930381 67.780323 
L 279.680668 67.126713 
L 280.243316 66.922911 
L 280.806054 66.974974 
L 281.368702 67.279567 
L 281.93144 67.821801 
L 282.681637 68.868512 
L 283.807023 70.945757 
L 286.432983 76.070526 
L 287.183181 77.061433 
L 287.933468 77.667749 
L 288.496116 77.838979 
L 289.058853 77.757407 
L 289.621502 77.426836 
L 290.371789 76.626749 
L 291.121986 75.477942 
L 292.247372 73.312438 
L 294.498144 68.888577 
L 295.248431 67.83113 
L 295.998628 67.14422 
L 296.561366 66.907284 
L 297.124014 66.922046 
L 297.686752 67.187854 
L 298.2494 67.692483 
L 298.999687 68.695215 
L 299.937434 70.358858 
L 303.126042 76.472693 
L 303.876329 77.338826 
L 304.438977 77.72529 
L 305.001715 77.865558 
L 305.564363 77.753313 
L 306.127011 77.393914 
L 306.877298 76.560836 
L 307.815135 75.052795 
L 309.315619 72.04058 
L 310.816104 69.159084 
L 311.75394 67.851513 
L 312.504227 67.227246 
L 313.066875 67.042775 
L 313.629613 67.113128 
L 314.192261 67.436106 
L 314.754909 67.997882 
L 315.505196 69.074 
L 316.630582 71.205407 
L 319.256453 76.500461 
L 320.00674 77.542942 
L 320.756937 78.196247 
L 321.319675 78.397406 
L 321.882323 78.339435 
L 322.445061 78.024663 
L 323.007709 77.467105 
L 323.757996 76.390798 
L 324.695832 74.636263 
L 327.696802 68.583054 
L 328.447089 67.600893 
L 329.009737 67.125021 
L 329.572385 66.896791 
L 330.135123 66.925697 
L 330.697771 67.209456 
L 331.260508 67.734119 
L 332.010706 68.763815 
L 332.948542 70.456206 
L 335.949601 76.297192 
L 336.699799 77.228565 
L 337.262536 77.668546 
L 337.825185 77.8634 
L 338.387922 77.804174 
L 338.95057 77.493643 
L 339.513308 76.946186 
L 340.263506 75.892861 
L 341.388891 73.804906 
L 344.014762 68.64795 
L 344.765049 67.647485 
L 345.515246 67.032732 
L 346.077984 66.8564 
L 346.640632 66.934277 
L 347.20337 67.262828 
L 347.766018 67.826965 
L 348.516305 68.899344 
L 349.641691 71.006662 
L 352.080012 75.859013 
L 353.017759 77.145086 
L 353.768046 77.743687 
L 354.330784 77.906936 
L 354.893432 77.816015 
L 355.45608 77.475274 
L 356.206367 76.66141 
L 357.144203 75.166073 
L 358.457139 72.538122 
L 360.145173 69.220535 
L 361.083009 67.874749 
L 361.833296 67.217186 
L 362.395944 67.007885 
L 362.958682 67.054774 
L 363.52133 67.356717 
L 364.083978 67.900841 
L 364.834265 68.960044 
L 365.772102 70.697153 
L 368.96062 77.016327 
L 369.710907 77.905721 
L 370.273556 78.30053 
L 370.836293 78.440711 
L 371.398941 78.319596 
L 371.961679 77.942401 
L 372.711877 77.071881 
L 373.649713 75.496223 
L 374.4 73.968698 
L 374.4 73.968698 
" clip-path="url(#pbaa1d744c4)" style="fill: none; stroke-dasharray: 5.55,2.4; stroke-dashoffset: 0; stroke: #fa8174; stroke-width: 1.5"/>
   </g>
   <g id="patch_13">
    <path d="M 275.929412 114.52 
L 275.929412 31.36 
" style="fill: none; stroke: #ffffff; stroke-width: 0.8; stroke-linejoin: miter; stroke-linecap: square"/>
   </g>
   <g id="patch_14">
    <path d="M 374.4 114.52 
L 374.4 31.36 
" style="fill: none; stroke: #ffffff; stroke-width: 0.8; stroke-linejoin: miter; stroke-linecap: square"/>
   </g>
   <g id="patch_15">
    <path d="M 275.929412 114.52 
L 374.4 114.52 
" style="fill: none; stroke: #ffffff; stroke-width: 0.8; stroke-linejoin: miter; stroke-linecap: square"/>
   </g>
   <g id="patch_16">
    <path d="M 275.929412 31.36 
L 374.4 31.36 
" style="fill: none; stroke: #ffffff; stroke-width: 0.8; stroke-linejoin: miter; stroke-linecap: square"/>
   </g>
   <g id="text_15">
    <!-- $\tilde{x}_4$ -->
    <g style="fill: #ffffff" transform="translate(285.307561 54.23902) scale(0.1 -0.1)">
     <defs>
      <path id="CMR17-34" d="M 2150 4122 
C 2150 4256 2144 4256 2029 4256 
L 128 1254 
L 128 1088 
L 1779 1088 
L 1779 457 
C 1779 224 1766 160 1318 160 
L 1197 160 
L 1197 0 
C 1402 0 1747 0 1965 0 
C 2182 0 2528 0 2733 0 
L 2733 160 
L 2611 160 
C 2163 160 2150 224 2150 457 
L 2150 1088 
L 2803 1088 
L 2803 1254 
L 2150 1254 
L 2150 4122 
z
M 1798 3703 
L 1798 1254 
L 256 1254 
L 1798 3703 
z
" transform="scale(0.015625)"/>
     </defs>
     <use xlink:href="#CMR17-7e" transform="translate(7.581509 0.006461) scale(0.996264)"/>
     <use xlink:href="#CMMI12-78" transform="scale(0.996264)"/>
     <use xlink:href="#CMR17-34" transform="translate(55.43406 -14.943915) scale(0.697382)"/>
    </g>
   </g>
  </g>
  <g id="text_16">
   <!-- $\tilde{t}$ -->
   <g style="fill: #ffffff" transform="translate(198.592213 140.275404) scale(0.12 -0.12)">
    <defs>
     <path id="CMMI12-74" d="M 1286 2566 
L 1875 2566 
C 1997 2566 2061 2566 2061 2681 
C 2061 2752 2022 2752 1894 2752 
L 1331 2752 
L 1568 3692 
C 1594 3781 1594 3794 1594 3840 
C 1594 3943 1510 4000 1427 4000 
C 1376 4000 1229 3981 1178 3775 
L 928 2752 
L 326 2752 
C 198 2752 141 2752 141 2630 
C 141 2566 186 2566 307 2566 
L 877 2566 
L 454 881 
C 403 658 384 594 384 511 
C 384 211 595 -64 954 -64 
C 1600 -64 1946 868 1946 912 
C 1946 951 1920 970 1882 970 
C 1869 970 1843 970 1830 944 
C 1824 938 1818 931 1773 829 
C 1638 511 1344 64 973 64 
C 781 64 768 224 768 364 
C 768 370 768 492 787 568 
L 1286 2566 
z
" transform="scale(0.015625)"/>
    </defs>
    <use xlink:href="#CMR17-7e" transform="translate(2.89708 18.389976) scale(0.996264)"/>
    <use xlink:href="#CMMI12-74" transform="scale(0.996264)"/>
   </g>
  </g>
  <g id="text_17">
   <!-- $\tilde{x}_i$ -->
   <g style="fill: #ffffff" transform="translate(15.50218 77.167613) rotate(-90) scale(0.12 -0.12)">
    <defs>
     <path id="CMMI12-69" d="M 1811 913 
C 1811 945 1786 971 1747 971 
C 1690 971 1683 952 1651 843 
C 1485 262 1222 64 1011 64 
C 934 64 845 83 845 275 
C 845 447 922 639 992 830 
L 1440 2018 
C 1459 2069 1504 2184 1504 2305 
C 1504 2574 1312 2816 998 2816 
C 410 2816 173 1890 173 1839 
C 173 1814 198 1782 243 1782 
C 301 1782 307 1807 333 1896 
C 486 2428 730 2682 979 2682 
C 1037 2682 1146 2682 1146 2478 
C 1146 2312 1062 2101 1011 1961 
L 563 773 
C 525 671 486 568 486 453 
C 486 166 685 -64 992 -64 
C 1581 -64 1811 869 1811 913 
z
M 1760 4013 
C 1760 4109 1683 4224 1542 4224 
C 1395 4224 1229 4083 1229 3917 
C 1229 3758 1363 3707 1440 3707 
C 1613 3707 1760 3873 1760 4013 
z
" transform="scale(0.015625)"/>
    </defs>
    <use xlink:href="#CMR17-7e" transform="translate(7.581509 0.006461) scale(0.996264)"/>
    <use xlink:href="#CMMI12-78" transform="scale(0.996264)"/>
    <use xlink:href="#CMMI12-69" transform="translate(55.43406 -14.943915) scale(0.697382)"/>
   </g>
  </g>
  <g id="legend_1">
   <g id="patch_17">
    <path d="M 137.219123 24.137178 
L 265.980877 24.137178 
Q 267.980877 24.137178 267.980877 22.137178 
L 267.980877 9.2 
Q 267.980877 7.2 265.980877 7.2 
L 137.219123 7.2 
Q 135.219123 7.2 135.219123 9.2 
L 135.219123 22.137178 
Q 135.219123 24.137178 137.219123 24.137178 
z
" style="opacity: 0.8; stroke: #cccccc; stroke-linejoin: miter"/>
   </g>
   <g id="line2d_25">
    <path d="M 139.219123 14.7 
L 149.219123 14.7 
L 159.219123 14.7 
" style="fill: none; stroke: #8dd3c7; stroke-width: 1.5; stroke-linecap: square"/>
   </g>
   <g id="text_18">
    <!-- data -->
    <g style="fill: #ffffff" transform="translate(167.219123 18.2) scale(0.1 -0.1)">
     <defs>
      <path id="CMSS17-64" d="M 2611 4416 
L 2138 4416 
L 2138 2438 
C 1939 2603 1613 2756 1254 2756 
C 672 2756 211 2131 211 1347 
C 211 562 666 -64 1235 -64 
C 1677 -64 1971 172 2125 306 
L 2125 -13 
L 2611 -13 
L 2611 4416 
z
M 2125 836 
C 2125 747 2125 653 1926 482 
C 1798 375 1645 325 1498 325 
C 1152 325 698 576 698 1340 
C 698 2134 1210 2368 1562 2368 
C 1798 2368 1990 2254 2125 2065 
L 2125 836 
z
" transform="scale(0.015625)"/>
      <path id="CMSS17-61" d="M 2406 1791 
C 2406 2392 1978 2808 1402 2808 
C 1120 2808 813 2757 461 2553 
L 499 2135 
C 659 2248 934 2432 1395 2432 
C 1722 2432 1920 2180 1920 1782 
L 1920 1536 
C 896 1536 256 1238 256 726 
C 256 461 416 -64 947 -64 
C 1043 -64 1562 -64 1933 217 
L 1933 -19 
L 2406 -19 
L 2406 1791 
z
M 1920 816 
C 1920 701 1920 548 1728 434 
C 1562 325 1350 325 1261 325 
C 941 325 723 511 723 744 
C 723 1211 1722 1211 1920 1211 
L 1920 816 
z
" transform="scale(0.015625)"/>
      <path id="CMSS17-74" d="M 1069 2368 
L 1901 2368 
L 1901 2737 
L 1069 2737 
L 1069 3520 
L 614 3520 
L 614 2737 
L 109 2737 
L 109 2368 
L 602 2368 
L 602 749 
C 602 384 685 -64 1107 -64 
C 1427 -64 1722 25 2003 172 
L 1901 548 
C 1747 414 1562 337 1363 337 
C 1082 337 1069 696 1069 856 
L 1069 2368 
z
" transform="scale(0.015625)"/>
     </defs>
     <use xlink:href="#CMSS17-64" transform="scale(0.996264)"/>
     <use xlink:href="#CMSS17-61" transform="translate(48.204943 0) scale(0.996264)"/>
     <use xlink:href="#CMSS17-74" transform="translate(93.126864 0) scale(0.996264)"/>
     <use xlink:href="#CMSS17-61" transform="translate(126.95843 0) scale(0.996264)"/>
    </g>
   </g>
   <g id="line2d_26">
    <path d="M 205.539353 14.7 
L 215.539353 14.7 
L 225.539353 14.7 
" style="fill: none; stroke-dasharray: 5.55,2.4; stroke-dashoffset: 0; stroke: #fa8174; stroke-width: 1.5"/>
   </g>
   <g id="text_19">
    <!-- ODMD -->
    <g style="fill: #ffffff" transform="translate(233.539353 18.2) scale(0.1 -0.1)">
     <defs>
      <path id="CMSS17-4f" d="M 4096 2178 
C 4096 3503 3219 4497 2214 4497 
C 1210 4497 333 3497 333 2178 
C 333 847 1222 -128 2214 -128 
C 3206 -128 4096 847 4096 2178 
z
M 2214 273 
C 1510 273 870 1057 870 2261 
C 870 3433 1549 4096 2214 4096 
C 2880 4096 3558 3433 3558 2261 
C 3558 1051 2912 273 2214 273 
z
" transform="scale(0.015625)"/>
      <path id="CMSS17-44" d="M 570 4416 
L 570 0 
L 2144 0 
C 3194 0 4000 980 4000 2170 
C 4000 3398 3194 4416 2144 4416 
L 570 4416 
z
M 1094 357 
L 1094 4059 
L 2003 4059 
C 2861 4059 3475 3277 3475 2170 
C 3475 1107 2867 357 2003 357 
L 1094 357 
z
" transform="scale(0.015625)"/>
      <path id="CMSS17-4d" d="M 3194 2371 
L 2886 1473 
C 2835 1307 2662 791 2624 587 
L 2618 587 
C 2598 715 2560 849 2458 1174 
C 2400 1365 2336 1562 2272 1741 
L 1325 4416 
L 576 4416 
L 576 0 
L 1075 0 
L 1075 3900 
L 1082 3900 
C 1082 3894 1139 3613 1530 2499 
L 2374 96 
L 2848 96 
L 3610 2231 
C 3661 2378 3821 2843 3891 3066 
C 3955 3257 4115 3728 4154 3913 
L 4160 3913 
L 4160 0 
L 4666 0 
L 4666 4416 
L 3923 4416 
L 3194 2371 
z
" transform="scale(0.015625)"/>
     </defs>
     <use xlink:href="#CMSS17-4f" transform="scale(0.996264)"/>
     <use xlink:href="#CMSS17-44" transform="translate(69.024255 0) scale(0.996264)"/>
     <use xlink:href="#CMSS17-4d" transform="translate(136.567097 0) scale(0.996264)"/>
     <use xlink:href="#CMSS17-44" transform="translate(218.243127 0) scale(0.996264)"/>
    </g>
   </g>
  </g>
 </g>
 <defs>
  <clipPath id="p5db9c6faa3">
   <rect x="39.6" y="31.36" width="98.470588" height="83.16"/>
  </clipPath>
  <clipPath id="pc87f65f3b0">
   <rect x="157.764706" y="31.36" width="98.470588" height="83.16"/>
  </clipPath>
  <clipPath id="pbaa1d744c4">
   <rect x="275.929412" y="31.36" width="98.470588" height="83.16"/>
  </clipPath>
 </defs>
</svg>
